<svg width="52" height="52" viewBox="0 0 52 52" fill="none" xmlns="http://www.w3.org/2000/svg">
<circle cx="26" cy="26" r="26" fill="#E4AA53"/>
<path d="M27.8123 13.1921C27.5393 12.8224 27.1834 12.522 26.7731 12.3149C26.3629 12.1079 25.9098 12 25.4503 12C24.9907 12 24.5376 12.1079 24.1274 12.3149C23.7171 12.522 23.3612 12.8224 23.0883 13.1921C22.7244 13.6851 22.2153 14.0519 21.6325 14.2411C21.0497 14.4303 20.4223 14.4324 19.8383 14.2471C19.4 14.1084 18.9353 14.0745 18.4816 14.1482C18.0279 14.2219 17.5978 14.401 17.226 14.6713C16.8541 14.9416 16.551 15.2954 16.3409 15.7042C16.1307 16.113 16.0196 16.5655 16.0163 17.0251C16.0116 17.6376 15.8154 18.2332 15.4554 18.7287C15.0953 19.2241 14.5893 19.5946 14.0083 19.7881C13.5721 19.9334 13.1761 20.1791 12.8523 20.5053C12.5284 20.8316 12.2857 21.2293 12.1437 21.6665C12.0016 22.1038 11.9642 22.5682 12.0345 23.0225C12.1048 23.4768 12.2808 23.9083 12.5483 24.2821C12.9046 24.7804 13.0962 25.3776 13.0962 25.9901C13.0962 26.6027 12.9046 27.1999 12.5483 27.6981C12.2808 28.072 12.1048 28.5035 12.0345 28.9578C11.9642 29.4121 12.0016 29.8765 12.1437 30.3137C12.2857 30.751 12.5284 31.1487 12.8523 31.475C13.1761 31.8012 13.5721 32.0469 14.0083 32.1921C14.5893 32.3857 15.0953 32.7561 15.4554 33.2516C15.8154 33.747 16.0116 34.3427 16.0163 34.9551C16.0195 35.4149 16.1307 35.8675 16.3409 36.2764C16.551 36.6854 16.8543 37.0392 17.2263 37.3095C17.5982 37.5798 18.0284 37.7589 18.4823 37.8325C18.9362 37.9061 19.401 37.8721 19.8393 37.7331C20.4232 37.5481 21.0504 37.5503 21.633 37.7395C22.2156 37.9287 22.7244 38.2953 23.0883 38.7881C23.3612 39.1578 23.7171 39.4583 24.1274 39.6654C24.5376 39.8724 24.9907 39.9803 25.4503 39.9803C25.9098 39.9803 26.3629 39.8724 26.7731 39.6654C27.1834 39.4583 27.5393 39.1578 27.8123 38.7881C28.1761 38.2951 28.6852 37.9283 29.268 37.7391C29.8508 37.55 30.4782 37.5479 31.0623 37.7331C31.5005 37.8719 31.9652 37.9058 32.4189 37.8321C32.8726 37.7584 33.3027 37.5792 33.6745 37.309C34.0464 37.0387 34.3495 36.6849 34.5596 36.2761C34.7698 35.8673 34.8809 35.4148 34.8843 34.9551C34.8889 34.3427 35.0851 33.747 35.4451 33.2516C35.8052 32.7561 36.3112 32.3857 36.8923 32.1921C37.3284 32.0469 37.7244 31.8012 38.0482 31.475C38.3721 31.1487 38.6148 30.751 38.7568 30.3137C38.8989 29.8765 38.9363 29.4121 38.866 28.9578C38.7957 28.5035 38.6198 28.072 38.3523 27.6981C37.9959 27.1999 37.8043 26.6027 37.8043 25.9901C37.8043 25.3776 37.9959 24.7804 38.3523 24.2821C38.6198 23.9083 38.7957 23.4768 38.866 23.0225C38.9363 22.5682 38.8989 22.1038 38.7568 21.6665C38.6148 21.2293 38.3721 20.8316 38.0482 20.5053C37.7244 20.1791 37.3284 19.9334 36.8923 19.7881C36.3112 19.5946 35.8052 19.2241 35.4451 18.7287C35.0851 18.2332 34.8889 17.6376 34.8843 17.0251C34.881 16.5654 34.7698 16.1128 34.5596 15.7039C34.3495 15.2949 34.0462 14.9411 33.6742 14.6708C33.3023 14.4005 32.8721 14.2213 32.4182 14.1478C31.9643 14.0742 31.4995 14.1082 31.0613 14.2471C30.4773 14.4322 29.8501 14.43 29.2675 14.2408C28.6849 14.0516 28.1761 13.6849 27.8123 13.1921V13.1921ZM20.2183 35.0521C15.2133 32.1621 13.4983 25.7621 16.3883 20.7581C19.2783 15.7531 25.6783 14.0381 30.6823 16.9281C35.6873 19.8181 37.4023 26.2181 34.5123 31.2221C31.6223 36.2271 25.2223 37.9421 20.2183 35.0521Z" fill="white"/>
</svg>
