<svg width="90" height="41" viewBox="0 0 90 41" fill="none" xmlns="http://www.w3.org/2000/svg">
<path d="M41.115 22.455H48.32V23.555H46.175V24.655H43.095V25.425C43.095 25.5717 43.0767 25.7183 43.04 25.865C43.04 26.0117 43.04 26.1583 43.04 26.305H43.205C43.205 26.4517 43.1867 26.5983 43.15 26.745C43.15 26.855 43.15 26.9833 43.15 27.13H42.655C42.655 27.2033 42.655 27.295 42.655 27.405C42.655 27.515 42.6367 27.6067 42.6 27.68H37.54C37.5033 27.7533 37.485 27.845 37.485 27.955C37.485 28.065 37.4667 28.1567 37.43 28.23H37.485L37.32 29.055H41.28C41.2433 29.2017 41.2067 29.3483 41.17 29.495C41.1333 29.605 41.0967 29.7333 41.06 29.88H41.665C41.6283 30.0633 41.5733 30.2467 41.5 30.43C41.4267 30.6133 41.3533 30.7967 41.28 30.98H41.995L41.775 31.53H40.95C40.8767 31.7133 40.785 31.8967 40.675 32.08C40.6017 32.2633 40.51 32.4467 40.4 32.63H42.6L42.27 33.18H42.71C42.6367 33.2533 42.5633 33.345 42.49 33.455C42.4533 33.565 42.3983 33.6567 42.325 33.73H39.19C39.1533 33.7667 39.1167 33.8033 39.08 33.84C39.0433 33.8767 39.0067 33.9317 38.97 34.005H42.545C42.3983 34.225 42.2517 34.4083 42.105 34.555H41.225C41.115 34.7017 40.9867 34.8483 40.84 34.995C40.73 35.105 40.6017 35.2333 40.455 35.38H42.38L41.5 36.205H40.895L40.565 36.48H38.915C38.585 36.7367 38.2 37.0117 37.76 37.305H37.43C37.21 37.4517 36.9717 37.5983 36.715 37.745C36.495 37.855 36.2567 37.9833 36 38.13H34.955L34.35 38.405H32.92C32.2233 38.735 31.545 39.01 30.885 39.23H29.51C28.52 39.56 27.475 39.835 26.375 40.055H25.33C25.0367 40.0917 24.725 40.1283 24.395 40.165C24.1017 40.2383 23.8083 40.2933 23.515 40.33H25C24.4133 40.4033 23.79 40.4583 23.13 40.495C22.5067 40.5317 21.865 40.55 21.205 40.55C20.5083 40.55 19.83 40.5317 19.17 40.495C18.5467 40.4583 17.9233 40.4033 17.3 40.33H15.87C15.54 40.2933 15.2283 40.2383 14.935 40.165C14.6417 40.1283 14.3483 40.0917 14.055 40.055H15.1C14 39.835 12.955 39.56 11.965 39.23H13.34C12.68 39.01 12.02 38.735 11.36 38.405H12.845C12.735 38.3317 12.625 38.2767 12.515 38.24C12.4417 38.2033 12.3683 38.1667 12.295 38.13H13.395C13.1383 37.9833 12.9 37.855 12.68 37.745C12.46 37.5983 12.24 37.4517 12.02 37.305H12.405L11.305 36.48H12.955L12.625 36.205H13.23L12.405 35.38H10.535C10.3883 35.2333 10.26 35.105 10.15 34.995C10.04 34.8483 9.93 34.7017 9.82 34.555H10.7C10.6633 34.4817 10.6083 34.39 10.535 34.28C10.4617 34.17 10.3883 34.0783 10.315 34.005H6.74L6.575 33.73H9.71L9.38 33.18H8.995L8.665 32.63H6.465L5.97 31.53H6.795C6.75833 31.4567 6.72167 31.365 6.685 31.255C6.64833 31.145 6.61167 31.0533 6.575 30.98H5.86C5.78667 30.7967 5.71333 30.6133 5.64 30.43C5.60333 30.2467 5.54833 30.0633 5.475 29.88H4.87C4.83333 29.7333 4.79667 29.605 4.76 29.495C4.72333 29.3483 4.68667 29.2017 4.65 29.055H4.21C4.17333 28.9083 4.13667 28.78 4.1 28.67C4.06333 28.5233 4.02667 28.3767 3.99 28.23H0.91C0.873333 28.1567 0.855 28.065 0.855 27.955C0.855 27.845 0.836667 27.7533 0.8 27.68H5.86C5.86 27.6067 5.86 27.515 5.86 27.405C5.86 27.295 5.84167 27.2033 5.805 27.13H5.2C5.16333 26.9833 5.12667 26.855 5.09 26.745C5.09 26.5983 5.09 26.4517 5.09 26.305H7.29C7.29 26.1583 7.29 26.03 7.29 25.92C7.29 25.7733 7.27167 25.6267 7.235 25.48H9.325V24.655H3.11V23.555H7.73C7.69333 23.3717 7.675 23.1883 7.675 23.005C7.675 22.8217 7.675 22.6383 7.675 22.455H8.39V21.905H3.825V21.355H4.32V20.53H5.805V19.98H5.035V19.705H4.76V18.605H4.815V17.505H4.98V17.23H5.145V16.955H4.1V16.68H5.255V16.405H4.98C5.01667 16.2583 5.035 16.13 5.035 16.02C5.035 15.8733 5.035 15.7267 5.035 15.58H5.475V15.305H4.595C4.595 15.1217 4.595 14.9383 4.595 14.755C4.63167 14.5717 4.65 14.3883 4.65 14.205H5.035C5.07167 14.1317 5.09 14.04 5.09 13.93C5.09 13.82 5.10833 13.7283 5.145 13.655H5.42L5.585 12.83H3.715L3.88 12.005H5.53C5.60333 11.8217 5.65833 11.6383 5.695 11.455C5.73167 11.235 5.78667 11.0517 5.86 10.905H6.52L6.63 10.63H6.245C6.28167 10.4833 6.31833 10.355 6.355 10.245C6.42833 10.0983 6.48333 9.95167 6.52 9.805H6.465C6.53833 9.65833 6.59333 9.53 6.63 9.42C6.70333 9.27333 6.77667 9.12667 6.85 8.98H6.685L7.18 8.155H7.62L7.785 7.88H7.29L7.895 7.055H11.195C11.305 6.945 11.3783 6.85333 11.415 6.78H8.335L8.83 6.23H8.555L9.38 5.405C9.6 5.22167 9.82 5.03833 10.04 4.855C10.26 4.635 10.4983 4.45166 10.755 4.305H10.81C11.1033 4.12166 11.3967 3.93833 11.69 3.755C11.9833 3.535 12.295 3.35167 12.625 3.205C12.8083 3.095 12.9917 3.00333 13.175 2.93C13.395 2.82 13.5967 2.72833 13.78 2.655H13.89C14.66 2.325 15.485 2.05 16.365 1.83H16.31C17.41 1.53667 18.565 1.31667 19.775 1.17C21.0217 1.02333 22.305 0.949998 23.625 0.949998C25.0183 0.949998 26.32 1.02333 27.53 1.17C28.7767 1.31667 29.9683 1.53667 31.105 1.83C32.0217 2.05 32.8833 2.325 33.69 2.655H33.58C33.8 2.72833 34.02 2.82 34.24 2.93C34.46 3.00333 34.68 3.095 34.9 3.205C35.2667 3.35167 35.615 3.535 35.945 3.755C36.275 3.93833 36.605 4.12166 36.935 4.305H36.88C37.1733 4.45166 37.43 4.635 37.65 4.855C37.9067 5.03833 38.1633 5.22167 38.42 5.405H38.365C38.5483 5.55167 38.7133 5.69833 38.86 5.845C39.0067 5.955 39.1533 6.08333 39.3 6.23H39.575L40.07 6.78H43.15L43.425 7.055H40.07C40.2167 7.20166 40.3267 7.34833 40.4 7.495C40.51 7.605 40.62 7.73333 40.73 7.88H41.225L41.39 8.155H40.95C41.0233 8.30166 41.0967 8.44833 41.17 8.595C41.28 8.705 41.3533 8.83333 41.39 8.98H41.555C41.6283 9.12667 41.7017 9.27333 41.775 9.42C41.8483 9.53 41.9033 9.65833 41.94 9.805H42.05C42.1233 9.95167 42.1783 10.0983 42.215 10.245C42.2517 10.355 42.2883 10.4833 42.325 10.63H42.765C42.765 10.6667 42.765 10.7033 42.765 10.74C42.8017 10.7767 42.82 10.8317 42.82 10.905H42.16C42.2333 11.0883 42.27 11.2717 42.27 11.455C42.3067 11.6383 42.3433 11.8217 42.38 12.005H42.49C42.49 12.1517 42.49 12.2983 42.49 12.445C42.5267 12.555 42.545 12.6833 42.545 12.83H43.425C43.4617 12.9033 43.48 13.0317 43.48 13.215C43.48 13.3617 43.4433 13.5083 43.37 13.655H42.435C42.3617 13.9117 42.215 14.095 41.995 14.205H42.38C42.1967 14.3517 41.9583 14.425 41.665 14.425H29.51C29.0333 14.425 28.6667 14.3517 28.41 14.205H28.025C27.805 14.0583 27.6583 13.93 27.585 13.82L27.42 13.655H28.41C28.3367 13.545 28.245 13.4167 28.135 13.27C28.025 13.1233 27.8783 12.9767 27.695 12.83H26.815C26.4483 12.4633 26.0267 12.1883 25.55 12.005H25.44C24.9633 11.785 24.34 11.675 23.57 11.675C22.8 11.675 22.14 11.785 21.59 12.005H19.94C19.4633 12.1517 19.06 12.4267 18.73 12.83H20.6C20.4167 13.0133 20.2333 13.2883 20.05 13.655H19.72C19.6833 13.7283 19.6467 13.82 19.61 13.93C19.5733 14.0033 19.5367 14.095 19.5 14.205H19.115C19.0783 14.3517 19.0417 14.535 19.005 14.755C18.9683 14.9383 18.9317 15.1217 18.895 15.305H19.83C19.7933 15.3783 19.775 15.47 19.775 15.58H19.335V16.405H19.555V16.68H18.4V16.955H19.445V17.23H19.28V17.505H19.115V18.605H19.06V19.705H19.335V19.98H20.105V20.53H18.62V21.355H18.125V21.905H22.69V22.455H21.975C21.975 22.6383 21.975 22.8217 21.975 23.005C22.0117 23.1883 22.03 23.3717 22.03 23.555H17.41V24.655H23.625V25.48H21.59C21.59 25.6267 21.59 25.7733 21.59 25.92C21.6267 26.03 21.645 26.1583 21.645 26.305H19.445C19.4817 26.4517 19.5183 26.5983 19.555 26.745C19.5917 26.855 19.6283 26.9833 19.665 27.13H20.27C20.3067 27.24 20.3433 27.35 20.38 27.46C20.4167 27.5333 20.4533 27.6067 20.49 27.68H15.43C15.4667 27.8633 15.5767 28.0467 15.76 28.23H18.84C19.06 28.56 19.335 28.835 19.665 29.055H20.16C20.82 29.5683 21.755 29.825 22.965 29.825C23.5883 29.825 24.175 29.77 24.725 29.66C25.275 29.5133 25.7333 29.3117 26.1 29.055H22.195C22.4883 28.8717 22.7817 28.5967 23.075 28.23H23.02C23.1667 28.01 23.2583 27.8267 23.295 27.68H28.41L28.575 27.13H29.07C29.1067 26.9833 29.125 26.855 29.125 26.745C29.1617 26.5983 29.18 26.4517 29.18 26.305H29.015L29.07 25.92V25.865H26.485C26.1183 25.865 25.77 25.7367 25.44 25.48C25.1833 25.2233 25.0367 24.9483 25 24.655H28.135C28.0983 24.5817 28.08 24.49 28.08 24.38V23.555H30.225V22.455H23.02V21.905H25.935V21.355H23.9V20.53H24.45V19.98H24.835V19.705H24.395V18.605H24.56V18.275C24.56 17.945 24.6333 17.6883 24.78 17.505H24.56C24.5967 17.4317 24.67 17.34 24.78 17.23H25.11C25.2567 17.0833 25.3667 16.9917 25.44 16.955H24.45C24.6333 16.845 24.8533 16.79 25.11 16.79H40.235C40.5283 16.79 40.7483 16.845 40.895 16.955H41.94C42.05 16.9917 42.1783 17.0833 42.325 17.23H41.995C42.105 17.34 42.1783 17.4317 42.215 17.505H42.435C42.5817 17.6883 42.655 17.945 42.655 18.275V18.605H42.49V19.705H42.93V19.98H42.545V20.53H41.995V21.355H44.03V21.905H41.115V22.455ZM82.5261 22.455H89.7311V23.555H87.5861V24.655H84.5061V25.425C84.5061 25.5717 84.4878 25.7183 84.4511 25.865C84.4511 26.0117 84.4511 26.1583 84.4511 26.305H84.6161C84.6161 26.4517 84.5978 26.5983 84.5611 26.745C84.5611 26.855 84.5611 26.9833 84.5611 27.13H84.0661C84.0661 27.2033 84.0661 27.295 84.0661 27.405C84.0661 27.515 84.0478 27.6067 84.0111 27.68H78.9511C78.9145 27.7533 78.8961 27.845 78.8961 27.955C78.8961 28.065 78.8778 28.1567 78.8411 28.23H78.8961L78.7311 29.055H82.6911C82.6545 29.2017 82.6178 29.3483 82.5811 29.495C82.5445 29.605 82.5078 29.7333 82.4711 29.88H83.0761C83.0395 30.0633 82.9845 30.2467 82.9111 30.43C82.8378 30.6133 82.7645 30.7967 82.6911 30.98H83.4061L83.1861 31.53H82.3611C82.2878 31.7133 82.1961 31.8967 82.0861 32.08C82.0128 32.2633 81.9211 32.4467 81.8111 32.63H84.0111L83.6811 33.18H84.1211C84.0478 33.2533 83.9745 33.345 83.9011 33.455C83.8645 33.565 83.8095 33.6567 83.7361 33.73H80.6011C80.5645 33.7667 80.5278 33.8033 80.4911 33.84C80.4545 33.8767 80.4178 33.9317 80.3811 34.005H83.9561C83.8095 34.225 83.6628 34.4083 83.5161 34.555H82.6361C82.5261 34.7017 82.3978 34.8483 82.2511 34.995C82.1411 35.105 82.0128 35.2333 81.8661 35.38H83.7911L82.9111 36.205H82.3061L81.9761 36.48H80.3261C79.9961 36.7367 79.6111 37.0117 79.1711 37.305H78.8411C78.6211 37.4517 78.3828 37.5983 78.1261 37.745C77.9061 37.855 77.6678 37.9833 77.4111 38.13H76.3661L75.7611 38.405H74.3311C73.6345 38.735 72.9561 39.01 72.2961 39.23H70.9211C69.9311 39.56 68.8861 39.835 67.7861 40.055H66.7411C66.4478 40.0917 66.1361 40.1283 65.8061 40.165C65.5128 40.2383 65.2195 40.2933 64.9261 40.33H66.4111C65.8245 40.4033 65.2011 40.4583 64.5411 40.495C63.9178 40.5317 63.2761 40.55 62.6161 40.55C61.9195 40.55 61.2411 40.5317 60.5811 40.495C59.9578 40.4583 59.3345 40.4033 58.7111 40.33H57.2811C56.9511 40.2933 56.6395 40.2383 56.3461 40.165C56.0528 40.1283 55.7595 40.0917 55.4661 40.055H56.5111C55.4111 39.835 54.3661 39.56 53.3761 39.23H54.7511C54.0911 39.01 53.4311 38.735 52.7711 38.405H54.2561C54.1461 38.3317 54.0361 38.2767 53.9261 38.24C53.8528 38.2033 53.7795 38.1667 53.7061 38.13H54.8061C54.5495 37.9833 54.3111 37.855 54.0911 37.745C53.8711 37.5983 53.6511 37.4517 53.4311 37.305H53.8161L52.7161 36.48H54.3661L54.0361 36.205H54.6411L53.8161 35.38H51.9461C51.7995 35.2333 51.6711 35.105 51.5611 34.995C51.4511 34.8483 51.3411 34.7017 51.2311 34.555H52.1111C52.0745 34.4817 52.0195 34.39 51.9461 34.28C51.8728 34.17 51.7995 34.0783 51.7261 34.005H48.1511L47.9861 33.73H51.1211L50.7911 33.18H50.4061L50.0761 32.63H47.8761L47.3811 31.53H48.2061C48.1695 31.4567 48.1328 31.365 48.0961 31.255C48.0595 31.145 48.0228 31.0533 47.9861 30.98H47.2711C47.1978 30.7967 47.1245 30.6133 47.0511 30.43C47.0145 30.2467 46.9595 30.0633 46.8861 29.88H46.2811C46.2445 29.7333 46.2078 29.605 46.1711 29.495C46.1345 29.3483 46.0978 29.2017 46.0611 29.055H45.6211C45.5845 28.9083 45.5478 28.78 45.5111 28.67C45.4745 28.5233 45.4378 28.3767 45.4011 28.23H42.3211C42.2845 28.1567 42.2661 28.065 42.2661 27.955C42.2661 27.845 42.2478 27.7533 42.2111 27.68H47.2711C47.2711 27.6067 47.2711 27.515 47.2711 27.405C47.2711 27.295 47.2528 27.2033 47.2161 27.13H46.6111C46.5745 26.9833 46.5378 26.855 46.5011 26.745C46.5011 26.5983 46.5011 26.4517 46.5011 26.305H48.7011C48.7011 26.1583 48.7011 26.03 48.7011 25.92C48.7011 25.7733 48.6828 25.6267 48.6461 25.48H50.7361V24.655H44.5211V23.555H49.1411C49.1045 23.3717 49.0861 23.1883 49.0861 23.005C49.0861 22.8217 49.0861 22.6383 49.0861 22.455H49.8011V21.905H45.2361V21.355H45.7311V20.53H47.2161V19.98H46.4461V19.705H46.1711V18.605H46.2261V17.505H46.3911V17.23H46.5561V16.955H45.5111V16.68H46.6661V16.405H46.3911C46.4278 16.2583 46.4461 16.13 46.4461 16.02C46.4461 15.8733 46.4461 15.7267 46.4461 15.58H46.8861V15.305H46.0061C46.0061 15.1217 46.0061 14.9383 46.0061 14.755C46.0428 14.5717 46.0611 14.3883 46.0611 14.205H46.4461C46.4828 14.1317 46.5011 14.04 46.5011 13.93C46.5011 13.82 46.5195 13.7283 46.5561 13.655H46.8311L46.9961 12.83H45.1261L45.2911 12.005H46.9411C47.0145 11.8217 47.0695 11.6383 47.1061 11.455C47.1428 11.235 47.1978 11.0517 47.2711 10.905H47.9311L48.0411 10.63H47.6561C47.6928 10.4833 47.7295 10.355 47.7661 10.245C47.8395 10.0983 47.8945 9.95167 47.9311 9.805H47.8761C47.9495 9.65833 48.0045 9.53 48.0411 9.42C48.1145 9.27333 48.1878 9.12667 48.2611 8.98H48.0961L48.5911 8.155H49.0311L49.1961 7.88H48.7011L49.3061 7.055H52.6061C52.7161 6.945 52.7895 6.85333 52.8261 6.78H49.7461L50.2411 6.23H49.9661L50.7911 5.405C51.0111 5.22167 51.2311 5.03833 51.4511 4.855C51.6711 4.635 51.9095 4.45166 52.1661 4.305H52.2211C52.5145 4.12166 52.8078 3.93833 53.1011 3.755C53.3945 3.535 53.7061 3.35167 54.0361 3.205C54.2195 3.095 54.4028 3.00333 54.5861 2.93C54.8061 2.82 55.0078 2.72833 55.1911 2.655H55.3011C56.0711 2.325 56.8961 2.05 57.7761 1.83H57.7211C58.8211 1.53667 59.9761 1.31667 61.1861 1.17C62.4328 1.02333 63.7161 0.949998 65.0361 0.949998C66.4295 0.949998 67.7311 1.02333 68.9411 1.17C70.1878 1.31667 71.3795 1.53667 72.5161 1.83C73.4328 2.05 74.2945 2.325 75.1011 2.655H74.9911C75.2111 2.72833 75.4311 2.82 75.6511 2.93C75.8711 3.00333 76.0911 3.095 76.3111 3.205C76.6778 3.35167 77.0261 3.535 77.3561 3.755C77.6861 3.93833 78.0161 4.12166 78.3461 4.305H78.2911C78.5845 4.45166 78.8411 4.635 79.0611 4.855C79.3178 5.03833 79.5745 5.22167 79.8311 5.405H79.7761C79.9595 5.55167 80.1245 5.69833 80.2711 5.845C80.4178 5.955 80.5645 6.08333 80.7111 6.23H80.9861L81.4811 6.78H84.5611L84.8361 7.055H81.4811C81.6278 7.20166 81.7378 7.34833 81.8111 7.495C81.9211 7.605 82.0311 7.73333 82.1411 7.88H82.6361L82.8011 8.155H82.3611C82.4345 8.30166 82.5078 8.44833 82.5811 8.595C82.6911 8.705 82.7645 8.83333 82.8011 8.98H82.9661C83.0395 9.12667 83.1128 9.27333 83.1861 9.42C83.2595 9.53 83.3145 9.65833 83.3511 9.805H83.4611C83.5345 9.95167 83.5895 10.0983 83.6261 10.245C83.6628 10.355 83.6995 10.4833 83.7361 10.63H84.1761C84.1761 10.6667 84.1761 10.7033 84.1761 10.74C84.2128 10.7767 84.2311 10.8317 84.2311 10.905H83.5711C83.6445 11.0883 83.6811 11.2717 83.6811 11.455C83.7178 11.6383 83.7545 11.8217 83.7911 12.005H83.9011C83.9011 12.1517 83.9011 12.2983 83.9011 12.445C83.9378 12.555 83.9561 12.6833 83.9561 12.83H84.8361C84.8728 12.9033 84.8911 13.0317 84.8911 13.215C84.8911 13.3617 84.8545 13.5083 84.7811 13.655H83.8461C83.7728 13.9117 83.6261 14.095 83.4061 14.205H83.7911C83.6078 14.3517 83.3695 14.425 83.0761 14.425H70.9211C70.4445 14.425 70.0778 14.3517 69.8211 14.205H69.4361C69.2161 14.0583 69.0695 13.93 68.9961 13.82L68.8311 13.655H69.8211C69.7478 13.545 69.6561 13.4167 69.5461 13.27C69.4361 13.1233 69.2895 12.9767 69.1061 12.83H68.2261C67.8595 12.4633 67.4378 12.1883 66.9611 12.005H66.8511C66.3745 11.785 65.7511 11.675 64.9811 11.675C64.2111 11.675 63.5511 11.785 63.0011 12.005H61.3511C60.8745 12.1517 60.4711 12.4267 60.1411 12.83H62.0111C61.8278 13.0133 61.6445 13.2883 61.4611 13.655H61.1311C61.0945 13.7283 61.0578 13.82 61.0211 13.93C60.9845 14.0033 60.9478 14.095 60.9111 14.205H60.5261C60.4895 14.3517 60.4528 14.535 60.4161 14.755C60.3795 14.9383 60.3428 15.1217 60.3061 15.305H61.2411C61.2045 15.3783 61.1861 15.47 61.1861 15.58H60.7461V16.405H60.9661V16.68H59.8111V16.955H60.8561V17.23H60.6911V17.505H60.5261V18.605H60.4711V19.705H60.7461V19.98H61.5161V20.53H60.0311V21.355H59.5361V21.905H64.1011V22.455H63.3861C63.3861 22.6383 63.3861 22.8217 63.3861 23.005C63.4228 23.1883 63.4411 23.3717 63.4411 23.555H58.8211V24.655H65.0361V25.48H63.0011C63.0011 25.6267 63.0011 25.7733 63.0011 25.92C63.0378 26.03 63.0561 26.1583 63.0561 26.305H60.8561C60.8928 26.4517 60.9295 26.5983 60.9661 26.745C61.0028 26.855 61.0395 26.9833 61.0761 27.13H61.6811C61.7178 27.24 61.7545 27.35 61.7911 27.46C61.8278 27.5333 61.8645 27.6067 61.9011 27.68H56.8411C56.8778 27.8633 56.9878 28.0467 57.1711 28.23H60.2511C60.4711 28.56 60.7461 28.835 61.0761 29.055H61.5711C62.2311 29.5683 63.1661 29.825 64.3761 29.825C64.9995 29.825 65.5861 29.77 66.1361 29.66C66.6861 29.5133 67.1445 29.3117 67.5111 29.055H63.6061C63.8995 28.8717 64.1928 28.5967 64.4861 28.23H64.4311C64.5778 28.01 64.6695 27.8267 64.7061 27.68H69.8211L69.9861 27.13H70.4811C70.5178 26.9833 70.5361 26.855 70.5361 26.745C70.5728 26.5983 70.5911 26.4517 70.5911 26.305H70.4261L70.4811 25.92V25.865H67.8961C67.5295 25.865 67.1811 25.7367 66.8511 25.48C66.5945 25.2233 66.4478 24.9483 66.4111 24.655H69.5461C69.5095 24.5817 69.4911 24.49 69.4911 24.38V23.555H71.6361V22.455H64.4311V21.905H67.3461V21.355H65.3111V20.53H65.8611V19.98H66.2461V19.705H65.8061V18.605H65.9711V18.275C65.9711 17.945 66.0445 17.6883 66.1911 17.505H65.9711C66.0078 17.4317 66.0811 17.34 66.1911 17.23H66.5211C66.6678 17.0833 66.7778 16.9917 66.8511 16.955H65.8611C66.0445 16.845 66.2645 16.79 66.5211 16.79H81.6461C81.9395 16.79 82.1595 16.845 82.3061 16.955H83.3511C83.4611 16.9917 83.5895 17.0833 83.7361 17.23H83.4061C83.5161 17.34 83.5895 17.4317 83.6261 17.505H83.8461C83.9928 17.6883 84.0661 17.945 84.0661 18.275V18.605H83.9011V19.705H84.3411V19.98H83.9561V20.53H83.4061V21.355H85.4411V21.905H82.5261V22.455Z" fill="#E4AA53"/>
</svg>
