<svg width="259" height="54" viewBox="0 0 259 54" fill="none" xmlns="http://www.w3.org/2000/svg">
<path d="M36.54 39.955H38.3V40.78H36.925V41.055H37.31C37.2733 41.2017 37.255 41.33 37.255 41.44C37.255 41.5867 37.2367 41.7333 37.2 41.88H37.145V42.155H34.56C34.5233 42.2283 34.505 42.32 34.505 42.43C34.505 42.54 34.4867 42.6317 34.45 42.705H37.64C37.6033 42.8883 37.5667 43.0717 37.53 43.255C37.4933 43.4383 37.4567 43.6217 37.42 43.805H36.54C36.5033 43.9517 36.4667 44.08 36.43 44.19C36.3933 44.3367 36.3383 44.4833 36.265 44.63H34.45L34.23 45.18H35.165L34.945 45.73H35.055C34.9817 45.9133 34.89 46.0967 34.78 46.28H34.835L34.34 47.105C34.3033 47.1417 34.2667 47.1783 34.23 47.215C34.23 47.2517 34.2117 47.3067 34.175 47.38C34.1017 47.5267 34.01 47.655 33.9 47.765C33.79 47.9117 33.68 48.0583 33.57 48.205H33.46L33.185 48.48H34.23L33.735 49.03H32.47C32.36 49.1033 32.25 49.195 32.14 49.305C32.03 49.415 31.9383 49.5067 31.865 49.58H33.35C33.2033 49.7267 33.02 49.855 32.8 49.965C32.6167 50.1117 32.4333 50.2583 32.25 50.405H34.23C34.01 50.5517 33.7717 50.68 33.515 50.79C33.295 50.9367 33.0567 51.0833 32.8 51.23H32.25C32.0667 51.34 31.865 51.4317 31.645 51.505C31.425 51.615 31.2233 51.7067 31.04 51.78H27.905C27.2083 52.0367 26.4933 52.2567 25.76 52.44C25.0267 52.6233 24.275 52.77 23.505 52.88H26.75C26.2 52.9533 25.6317 53.0083 25.045 53.045C24.4583 53.0817 23.8717 53.1 23.285 53.1C22.6617 53.1 22.0383 53.0817 21.415 53.045C20.8283 53.0083 20.26 52.9533 19.71 52.88H16.465C14.815 52.66 13.2933 52.2933 11.9 51.78H15.035C14.815 51.7067 14.595 51.615 14.375 51.505C14.155 51.4317 13.935 51.34 13.715 51.23H14.265C14.0083 51.0833 13.7517 50.9367 13.495 50.79C13.2383 50.68 12.9817 50.5517 12.725 50.405H10.8C10.58 50.2583 10.36 50.1117 10.14 49.965C9.95667 49.855 9.77333 49.7267 9.59 49.58H8.105C7.81167 49.36 7.59167 49.1767 7.445 49.03H8.71C8.6 48.9567 8.49 48.865 8.38 48.755C8.27 48.645 8.17833 48.5533 8.105 48.48H7.06C7.02333 48.4067 6.98667 48.3517 6.95 48.315C6.91333 48.2783 6.85833 48.2417 6.785 48.205H6.95C6.80333 48.0583 6.675 47.9117 6.565 47.765C6.455 47.655 6.345 47.5267 6.235 47.38H6.18C6.14333 47.3067 6.07 47.215 5.96 47.105H6.015C5.905 46.9583 5.795 46.8117 5.685 46.665C5.575 46.555 5.48333 46.4267 5.41 46.28L5.08 45.73H4.97C4.93333 45.6567 4.89667 45.565 4.86 45.455C4.82333 45.345 4.76833 45.2533 4.695 45.18H3.76L3.54 44.63H5.41C5.37333 44.4833 5.31833 44.3367 5.245 44.19C5.20833 44.08 5.17167 43.9517 5.135 43.805H4.805C4.805 43.695 4.78667 43.585 4.75 43.475C4.75 43.4017 4.75 43.3283 4.75 43.255C4.75 42.9983 4.76833 42.815 4.805 42.705H4.64C4.75 42.485 4.87833 42.3017 5.025 42.155H4.695C4.915 42.0083 5.08 41.9167 5.19 41.88H5.905C6.125 41.8067 6.32667 41.77 6.51 41.77H17.235C17.4183 41.77 17.62 41.8067 17.84 41.88H17.07C17.2533 41.9167 17.4 42.0083 17.51 42.155H17.84C17.9867 42.3017 18.115 42.485 18.225 42.705H18.39L18.5 42.87C18.7567 43.31 18.995 43.6217 19.215 43.805H19.49C19.8933 44.0983 20.4433 44.245 21.14 44.245C21.69 44.245 22.1667 44.0983 22.57 43.805H23.45C23.78 43.5483 24.0183 43.1817 24.165 42.705H20.975C21.0483 42.485 21.085 42.3017 21.085 42.155H23.67C23.7067 42.0817 23.725 41.99 23.725 41.88H23.78C23.8167 41.7333 23.835 41.5867 23.835 41.44C23.835 41.33 23.835 41.2017 23.835 41.055H23.505V40.78H24.825V39.955H23.065V39.68H22.02V39.405H23.01V38.305H21.965V37.975L21.415 38.305H21.36C20.48 38.8183 19.5267 39.185 18.5 39.405H18.72C18.4267 39.4417 18.1333 39.4967 17.84 39.57C17.5467 39.6067 17.235 39.6433 16.905 39.68H15.53C15.31 39.7167 15.09 39.735 14.87 39.735C14.65 39.735 14.43 39.735 14.21 39.735C13.9533 39.735 13.6967 39.735 13.44 39.735C13.1833 39.735 12.945 39.7167 12.725 39.68H14.045C13.715 39.6433 13.385 39.6067 13.055 39.57C12.725 39.4967 12.395 39.4417 12.065 39.405H11.9C11.35 39.295 10.8183 39.1483 10.305 38.965C9.82833 38.7817 9.35167 38.5617 8.875 38.305H8.93C8.78333 38.2317 8.63667 38.1583 8.49 38.085C8.34333 37.975 8.19667 37.865 8.05 37.755H9.315C9.095 37.5717 8.875 37.3883 8.655 37.205C8.47167 37.0217 8.28833 36.8383 8.105 36.655H3.65L3.375 36.38H5.905C5.61167 36.0133 5.355 35.6467 5.135 35.28H5.85C5.59333 34.9133 5.39167 34.5467 5.245 34.18H5.135C4.95167 33.7767 4.805 33.41 4.695 33.08H0.68C0.68 33.0067 0.68 32.9517 0.68 32.915C0.643333 32.8783 0.625 32.8417 0.625 32.805H4.365L4.2 32.255H4.475C4.43833 32.0717 4.38333 31.8883 4.31 31.705C4.27333 31.5217 4.23667 31.3383 4.2 31.155H4.86L4.695 30.055H3.98L3.925 29.505H2.605C2.56833 29.3217 2.55 29.1383 2.55 28.955C2.55 28.7717 2.53167 28.5883 2.495 28.405H2C2 28.2583 2 28.13 2 28.02C1.96333 27.8733 1.945 27.7267 1.945 27.58H2.715V27.03H3.705C3.705 26.8833 3.68667 26.755 3.65 26.645C3.65 26.4983 3.65 26.3517 3.65 26.205H4.145V25.38H3.265C3.265 25.2333 3.265 25.105 3.265 24.995C3.265 24.8483 3.28333 24.7017 3.32 24.555H3.43V24.5C3.43 24.3533 3.43 24.225 3.43 24.115C3.46667 24.005 3.485 23.8767 3.485 23.73H3.705C3.74167 23.5833 3.76 23.455 3.76 23.345C3.76 23.1983 3.77833 23.0517 3.815 22.905C3.85167 22.8317 3.87 22.74 3.87 22.63C3.87 22.52 3.88833 22.4283 3.925 22.355H3.65V22.08H3.98C4.01667 21.8967 4.05333 21.7133 4.09 21.53C4.12667 21.31 4.16333 21.1267 4.2 20.98H4.145C4.18167 20.8333 4.21833 20.705 4.255 20.595C4.29167 20.4483 4.32833 20.3017 4.365 20.155H4.805C4.87833 19.9717 4.93333 19.7883 4.97 19.605C5.04333 19.385 5.11667 19.2017 5.19 19.055H5.465L5.575 18.78H4.805C4.84167 18.7067 4.87833 18.615 4.915 18.505C4.95167 18.395 4.98833 18.3033 5.025 18.23L5.355 17.405C5.39167 17.3317 5.41 17.2767 5.41 17.24C5.44667 17.2033 5.48333 17.1667 5.52 17.13L5.685 16.855C5.75833 16.7817 5.81333 16.69 5.85 16.58C5.92333 16.47 5.99667 16.3783 6.07 16.305C6.10667 16.2317 6.14333 16.1767 6.18 16.14C6.21667 16.1033 6.25333 16.0667 6.29 16.03H6.18L6.84 15.205C6.95 15.1317 7.04167 15.04 7.115 14.93C7.225 14.82 7.31667 14.7283 7.39 14.655H7.5C7.53667 14.5817 7.57333 14.5267 7.61 14.49C7.68333 14.4533 7.73833 14.4167 7.775 14.38H8.38C8.6 14.16 8.83833 13.9767 9.095 13.83H7.72C7.86667 13.72 8.01333 13.6283 8.16 13.555C8.30667 13.445 8.45333 13.3533 8.6 13.28H8.985C9.49833 12.9867 10.1217 12.7117 10.855 12.455H12.67C13.99 12.0517 15.4017 11.85 16.905 11.85C18.225 11.85 19.4533 12.0517 20.59 12.455H18.775C19.3617 12.6383 19.9483 12.9133 20.535 13.28H20.205C20.3517 13.3533 20.48 13.445 20.59 13.555C20.7367 13.6283 20.8833 13.72 21.03 13.83H22.35C22.4967 13.9033 22.625 13.995 22.735 14.105C22.845 14.215 22.955 14.3067 23.065 14.38H22.46L22.735 14.655H22.68L23.175 15.205C23.2483 15.2417 23.3033 15.2967 23.34 15.37C23.4133 15.4433 23.4683 15.5167 23.505 15.59V15.205H23.725V14.655H24.66V14.38H25.265V13.83H22.57C22.57 13.61 22.625 13.4267 22.735 13.28H23.67C23.8533 12.84 24.165 12.565 24.605 12.455H23.505C23.615 12.4183 23.7617 12.4 23.945 12.4H33.57C33.7533 12.4 33.8817 12.4183 33.955 12.455H35.055C35.495 12.565 35.8067 12.84 35.99 13.28H35.055C35.1283 13.5 35.165 13.6833 35.165 13.83H37.86V14.38H37.255V14.655H36.32V15.205H36.1V16.03H36.155V16.855H36.1V18.23H36.155V18.78H36.925V19.055H36.595V20.155H36.1L36.155 20.98V22.355H35.99V22.905H35.825V23.73H36.155V24.555H36.815V25.38H35.66V26.205H36.045V27.03H36.155V27.58H34.34L34.395 28.405H34.615V29.505H35.825V30.055H36.815V31.155H36.1V32.255H35.88V32.805H32.085V33.08H36.1V34.18H36.21V35.28H35.44L35.495 36.38H32.965V36.655H37.42V37.755H35.44V38.305H36.485V39.405H35.495V39.68H36.54V39.955ZM18.005 29.505C18.2617 29.7617 18.5917 29.945 18.995 30.055H19.655C19.8017 30.0917 19.9483 30.1283 20.095 30.165C20.2783 30.165 20.4433 30.165 20.59 30.165C20.7733 30.165 20.9383 30.165 21.085 30.165C21.2683 30.1283 21.4333 30.0917 21.58 30.055H20.59C20.9933 29.945 21.3233 29.7617 21.58 29.505H20.37C20.6633 29.2117 20.865 28.845 20.975 28.405H20.755L20.92 27.58H22.68C22.68 27.5067 22.6983 27.4517 22.735 27.415V27.03H22.625V26.205H22.295V25.38H23.395V24.555H22.68V24.445C22.68 24.2983 22.6617 24.17 22.625 24.06C22.625 23.95 22.6067 23.84 22.57 23.73H22.295C22.2583 23.4367 22.1667 23.1617 22.02 22.905H22.13C22.02 22.685 21.8917 22.5017 21.745 22.355H21.91C21.7633 22.2083 21.6533 22.1167 21.58 22.08C21.2133 21.8233 20.6817 21.695 19.985 21.695C19.2883 21.695 18.7567 21.8233 18.39 22.08H18.06C17.9867 22.1167 17.8767 22.2083 17.73 22.355H18.005C17.8583 22.5017 17.73 22.685 17.62 22.905H17.565C17.5283 23.015 17.4917 23.1433 17.455 23.29C17.4183 23.4 17.3633 23.5467 17.29 23.73H17.07C17.0333 23.8767 16.9967 24.0233 16.96 24.17C16.96 24.28 16.96 24.4083 16.96 24.555H16.795V24.885C16.7583 24.995 16.74 25.16 16.74 25.38H17.62V26.205H17.125C17.125 26.3517 17.125 26.4983 17.125 26.645C17.1617 26.755 17.18 26.865 17.18 26.975V27.03H16.19L16.245 27.58H15.475L15.64 28.405H16.135C16.245 28.845 16.4467 29.2117 16.74 29.505H18.005ZM23.45 37.755H23.945V37.37L23.45 37.755ZM69.9259 38.03V38.58H74.7109V39.515C74.7109 39.5883 74.6925 39.6433 74.6559 39.68H72.0709C71.9975 40.1933 71.7592 40.56 71.3559 40.78H70.8609C70.6775 40.9267 70.4209 41 70.0909 41H60.4659C60.1359 41 59.8792 40.9267 59.6959 40.78H60.1359C59.7692 40.5233 59.5492 40.1567 59.4759 39.68H62.1159V38.58H59.9159C59.7325 38.7633 59.5309 38.9467 59.3109 39.13C59.1275 39.3133 58.9259 39.4967 58.7059 39.68H58.1009C57.4409 40.1567 56.7809 40.5233 56.1209 40.78H54.3609C54.1042 40.89 53.8109 40.9817 53.4809 41.055C53.1875 41.165 52.8759 41.2567 52.5459 41.33H52.1059C51.7392 41.4033 51.3542 41.4583 50.9509 41.495C50.5842 41.5317 50.1992 41.55 49.7959 41.55C49.3559 41.55 48.9159 41.5317 48.4759 41.495C48.0725 41.4583 47.6692 41.4033 47.2659 41.33H47.7059C47.3392 41.2567 46.9725 41.165 46.6059 41.055C46.2759 40.9817 45.9459 40.89 45.6159 40.78H47.3209C46.5142 40.4867 45.7809 40.12 45.1209 39.68H45.7259C45.4692 39.4967 45.2309 39.3133 45.0109 39.13C44.7909 38.9467 44.5709 38.7633 44.3509 38.58H41.6009L41.1059 38.03C41.0692 37.9567 41.0142 37.865 40.9409 37.755C40.8675 37.645 40.7942 37.5533 40.7209 37.48H42.3709C42.2975 37.3333 42.2059 37.205 42.0959 37.095C42.0225 36.9483 41.9492 36.8017 41.8759 36.655H41.3809C41.3809 36.6183 41.3442 36.5267 41.2709 36.38H40.7759L40.6109 36.105H40.6659L40.3359 35.28H40.0609C40.0242 35.1333 39.9875 35.005 39.9509 34.895C39.9142 34.7483 39.8775 34.6017 39.8409 34.455H37.7509C37.6409 34.0517 37.5859 33.685 37.5859 33.355H39.4009V32.805C39.4009 32.6217 39.4009 32.4383 39.4009 32.255C39.4009 32.035 39.4192 31.8517 39.4559 31.705H41.1059C41.1425 31.5217 41.1792 31.3383 41.2159 31.155C41.2525 30.935 41.2892 30.7517 41.3259 30.605H39.7859L39.8959 30.33H39.9509L40.0609 30.055H40.0059C40.0792 29.9083 40.1525 29.78 40.2259 29.67C40.2992 29.5233 40.3542 29.3767 40.3909 29.23H37.1459L37.4759 28.68H36.2659C36.3759 28.57 36.4492 28.4783 36.4859 28.405H38.4659C38.5392 28.3317 38.6125 28.24 38.6859 28.13C38.7592 28.02 38.8325 27.9283 38.9059 27.855H39.0159C39.3825 27.415 39.7675 27.0483 40.1709 26.755H35.6609C35.9175 26.5717 36.1925 26.3883 36.4859 26.205C36.7425 25.985 37.0175 25.8017 37.3109 25.655H40.3359L40.8309 25.38H42.3709C42.4442 25.3067 42.5359 25.2517 42.6459 25.215C42.7559 25.1783 42.8475 25.1417 42.9209 25.105H43.5809C44.2409 24.775 44.9559 24.5 45.7259 24.28H49.0809C49.5942 24.0967 50.1075 23.95 50.6209 23.84C51.1709 23.6933 51.7392 23.565 52.3259 23.455H50.9509L51.8309 23.29L57.6609 22.355V22.08H60.4659V21.805H55.1859V21.53H58.3209C58.3209 21.3467 58.3209 21.2 58.3209 21.09C58.3209 20.9433 58.3025 20.815 58.2659 20.705C58.2292 20.375 58.1009 20.1 57.8809 19.88H56.9459C56.9092 19.8433 56.8175 19.7883 56.6709 19.715L56.2859 19.88H55.3509C55.2042 19.99 55.0575 20.1183 54.9109 20.265C54.7642 20.375 54.5992 20.5217 54.4159 20.705H54.4709C54.0675 21.1083 53.5542 21.31 52.9309 21.31H43.5809C43.0309 21.31 42.6642 21.1083 42.4809 20.705H42.4259C42.3159 20.5217 42.2792 20.32 42.3159 20.1V19.88H43.1959C43.2325 19.8067 43.2509 19.715 43.2509 19.605H39.7309C39.7309 19.4583 39.7675 19.275 39.8409 19.055H47.7609C47.7609 19.0183 47.7975 18.9267 47.8709 18.78H42.9759C43.0859 18.4133 43.2509 18.0467 43.4709 17.68H44.4059C44.5159 17.4967 44.6442 17.3133 44.7909 17.13C44.9375 16.9467 45.0842 16.7633 45.2309 16.58H41.1059L41.6009 16.03H49.5759C49.7225 15.8833 49.8692 15.755 50.0159 15.645C50.1992 15.4983 50.3642 15.3517 50.5109 15.205H45.4509L45.7809 14.93H44.2409C44.4242 14.7833 44.6259 14.655 44.8459 14.545C45.0659 14.3983 45.2859 14.2517 45.5059 14.105H48.0909C48.8609 13.665 49.6675 13.2983 50.5109 13.005H50.8959C51.8859 12.6383 52.9859 12.3633 54.1959 12.18C55.4425 11.96 56.7992 11.85 58.2659 11.85C61.2725 11.85 63.8209 12.235 65.9109 13.005H65.4709C65.8742 13.1517 66.2592 13.3167 66.6259 13.5C67.0292 13.6833 67.4142 13.885 67.7809 14.105H65.1959L66.3509 14.93H67.8909L68.2209 15.205H73.2809L74.1059 16.03H66.1309C66.2042 16.1033 66.2775 16.195 66.3509 16.305C66.4242 16.415 66.4975 16.5067 66.5709 16.58H70.6409C70.7875 16.7267 70.9159 16.91 71.0259 17.13C71.1725 17.3133 71.2825 17.4967 71.3559 17.68H70.4759L70.9709 18.78H75.8659C75.9392 18.9267 75.9759 19.0183 75.9759 19.055H68.0559C68.1292 19.1283 68.1659 19.22 68.1659 19.33C68.2025 19.44 68.2392 19.5317 68.2759 19.605H70.0909C70.0909 19.6417 70.0909 19.6783 70.0909 19.715C70.1275 19.7517 70.1459 19.8067 70.1459 19.88H71.0809L71.4109 21.53H68.2209C68.2209 21.5667 68.2209 21.6033 68.2209 21.64C68.2575 21.6767 68.2759 21.7317 68.2759 21.805H73.5559V22.08H70.8059V22.355C70.8425 22.5383 70.8609 22.7217 70.8609 22.905C70.8609 23.0883 70.8609 23.2717 70.8609 23.455H72.2909V24.28H68.8809V25.105H68.2759V25.38H66.7909V25.655H63.7659V26.755H68.2759V27.855H68.1659V28.405H66.1859V28.68H67.3959V29.23H71.0259V30.055H70.3659V30.605H70.8059V31.705H70.4759V33.355H68.6609V34.455H70.7509V35.28H71.0259V36.38H71.5209V36.655H71.9609V37.48H70.2559V38.03H69.9259ZM53.9759 19.55C53.7192 19.55 53.5359 19.5683 53.4259 19.605H54.5809C54.4709 19.5683 54.2692 19.55 53.9759 19.55ZM54.3609 29.12L53.8659 29.23H54.3609V29.12ZM52.4909 30.605H54.0309C53.6275 30.8983 53.4259 31.265 53.4259 31.705H51.7759V31.87C51.7759 32.2367 51.9042 32.5483 52.1609 32.805C52.3442 33.0617 52.7109 33.245 53.2609 33.355H54.5809C55.1309 33.245 55.6075 33.0617 56.0109 32.805C56.3409 32.5117 56.6525 32.145 56.9459 31.705H57.2209C57.2942 31.5217 57.3675 31.3567 57.4409 31.21C57.5142 31.0267 57.5692 30.825 57.6059 30.605H57.1659C57.1659 30.5317 57.1659 30.4767 57.1659 30.44C57.2025 30.4033 57.2209 30.3667 57.2209 30.33H57.2759V30.055H57.9359C57.9725 29.9083 57.9909 29.78 57.9909 29.67C57.9909 29.5233 57.9909 29.3767 57.9909 29.23H57.0559L54.3609 29.835C54.2142 29.8717 54.0675 29.9083 53.9209 29.945C53.8109 29.9817 53.7009 30.0183 53.5909 30.055C53.4809 30.0917 53.3709 30.1283 53.2609 30.165C53.1509 30.2017 53.0592 30.2567 52.9859 30.33H52.9309C52.8575 30.3667 52.7842 30.4033 52.7109 30.44C52.6375 30.4767 52.5642 30.5317 52.4909 30.605ZM52.7659 33.355H51.3909C51.5375 33.3917 51.7575 33.41 52.0509 33.41C52.1609 33.41 52.2709 33.41 52.3809 33.41C52.5275 33.41 52.6559 33.3917 52.7659 33.355ZM123.335 28.13H122.29V28.405H123.06V28.955H121.025V29.23H122.62V30.055H121.905V30.88H122.345V31.155H122.015V31.705H122.235V32.53H122.345V33.08H122.18V33.63H122.125V34.73H122.4V35.83H121.74V36.93H121.52V37.48H122.345V38.58H121.245V39.68H122.235L122.07 40.23H123.005C122.858 40.4867 122.693 40.67 122.51 40.78H122.345C122.161 40.9267 121.905 41 121.575 41H111.895C111.565 41 111.308 40.9267 111.125 40.78H111.235C111.051 40.67 110.886 40.4867 110.74 40.23H109.75L109.585 39.68H108.595V38.58H109.695V37.48H108.87V36.93H109.09V35.83H109.75V34.73H109.475V33.63H109.53V33.08H109.695V32.53H109.585V31.705H109.365V31.155H109.695V30.88H109.255V30.055H109.97V29.23H108.375V28.955H104.525V29.23H105.24V30.055H105.13V30.88H105.625V31.155H105.35V31.705H105.24V32.53H105.185V33.08H105.24V33.63H105.46V34.73H103.15V35.83H106.175V36.93H105.295V37.48H105.24V38.58H104.91V39.68H105.24C105.24 39.79 105.221 39.9 105.185 40.01C105.148 40.0833 105.111 40.1567 105.075 40.23H106.285C106.211 40.34 106.12 40.45 106.01 40.56C105.936 40.6333 105.845 40.7067 105.735 40.78H102.545C102.361 40.9267 102.105 41 101.775 41H92.0947C91.7647 41 91.5081 40.9267 91.3247 40.78H94.5147C94.2581 40.67 94.0747 40.4867 93.9647 40.23H92.7547L92.5897 39.68H92.2597V38.58H92.5897V37.48H92.6447V36.93H93.5247V35.83H90.4997V34.73H92.8097V33.63H92.5897V33.08H92.5347V32.53H92.5897V31.705H92.6997V31.155H92.9747V30.88H92.4797V30.055H92.5897V29.23H91.8747V28.955H95.9997V28.405H93.5247V28.13H93.9647V27.03H92.5897V25.93H92.6997V25.655H92.3147V24.83H92.9747V24.555H92.6447V24.39C92.6447 24.2067 92.6264 24.0417 92.5897 23.895C92.5897 23.7483 92.5714 23.6017 92.5347 23.455H92.8647C92.8647 23.235 92.8097 23.0517 92.6997 22.905H92.2597C92.1131 22.575 91.8931 22.3 91.5997 22.08H91.8747C91.5814 21.8233 91.1597 21.695 90.6097 21.695C90.0964 21.695 89.6564 21.8233 89.2897 22.08C89.0331 22.3 88.8131 22.575 88.6297 22.905H88.4647L88.2997 23.455H88.6297C88.5931 23.6017 88.5747 23.7483 88.5747 23.895C88.5747 24.0417 88.5747 24.2067 88.5747 24.39V24.555H87.8047V24.83H88.2997V25.655H88.1897V25.93H87.9697V27.03H87.1447V28.13H86.9797V28.405H90.0597V28.955H89.2347V29.23H88.1897V30.055H88.0797V30.88H88.4647V31.155H88.3547V31.705H88.2447V32.255H88.0247V32.53H87.8597V33.08H88.2997V34.73H86.3197V35.83H88.3547V36.93H88.1347V37.48H88.5197V38.58H88.3547V39.515C88.3547 39.5517 88.3364 39.5883 88.2997 39.625C88.2997 39.625 88.2997 39.6433 88.2997 39.68H88.5747L88.4097 40.23H87.1997C87.0897 40.4867 86.9064 40.67 86.6497 40.78H90.6097C90.4264 40.9267 90.1697 41 89.8397 41H79.9397C79.6097 41 79.3531 40.9267 79.1697 40.78H75.2097C75.0264 40.67 74.8614 40.4867 74.7147 40.23H75.8697C75.8331 40.1567 75.7964 40.0833 75.7597 40.01C75.7231 39.9 75.7047 39.79 75.7047 39.68H75.4847V38.58H75.6497V37.48H75.2647V36.93H75.4847V35.83H73.4497V34.73H75.4297V33.08H74.9897V32.53H75.1547V32.255H75.3747V31.705H75.4847V31.155H75.5947V30.88H75.2097V30.055H75.3197V29.23H76.3647V28.955H77.1897V28.405H74.1097V28.13H74.2747V27.03H75.0997V25.93H75.3197V25.655H75.4297V24.83H74.9347V24.555H75.7047V23.455H75.3197V22.905H75.4847V22.08H75.5397V21.53H75.2097V21.255H75.4297V20.43H74.9347V19.605H75.3197V18.78H75.2647V17.68H75.3747V17.405H74.9347V16.855H75.5947V15.755H74.9897V15.48H74.6597V15.205H72.4047V14.38H68.3347V14.105H73.1197V13.885C73.1197 13.555 73.2114 13.2617 73.3947 13.005H76.4747C76.5481 12.895 76.6397 12.8033 76.7497 12.73H74.3297C74.5497 12.51 74.8614 12.4 75.2647 12.4H84.3397C84.7064 12.4 85.0181 12.51 85.2747 12.73H87.6947C87.7681 12.7667 87.8231 12.8033 87.8597 12.84C87.8964 12.8767 87.9331 12.9317 87.9697 13.005H84.8897C85.0731 13.2617 85.1647 13.555 85.1647 13.885V14.105H80.3797V14.38H84.4497V15.205H86.7047V15.48H87.0347V15.7L87.1997 15.48H87.1447C87.1814 15.4067 87.2547 15.315 87.3647 15.205H89.5097C89.7297 14.9117 90.0047 14.6367 90.3347 14.38H91.7097L92.0397 14.105H88.4647C88.7214 13.9217 88.9781 13.7383 89.2347 13.555C89.5281 13.335 89.8397 13.1517 90.1697 13.005H90.7197C90.7931 12.9317 90.8664 12.8767 90.9397 12.84C91.0497 12.8033 91.1597 12.7667 91.2697 12.73H93.7447C94.2947 12.4733 94.8814 12.2717 95.5047 12.125C96.1281 11.9783 96.7881 11.8867 97.4847 11.85C99.6114 11.7767 101.335 12.07 102.655 12.73H100.18C100.253 12.7667 100.345 12.8033 100.455 12.84C100.565 12.8767 100.656 12.9317 100.73 13.005H100.18C100.73 13.335 101.206 13.7017 101.61 14.105H107.44C107.733 13.885 108.008 13.6833 108.265 13.5C108.558 13.3167 108.851 13.1517 109.145 13.005H106.725L107.33 12.73H108.265C108.888 12.4367 109.53 12.2167 110.19 12.07C110.85 11.9233 111.528 11.85 112.225 11.85C113.838 11.85 115.286 12.1433 116.57 12.73H115.635L116.24 13.005H118.66C118.953 13.1517 119.21 13.3167 119.43 13.5C119.686 13.6833 119.943 13.885 120.2 14.105H113.16C113.233 14.1417 113.288 14.1783 113.325 14.215C113.361 14.2517 113.398 14.3067 113.435 14.38H122.18L122.895 15.205H114.04C114.076 15.2783 114.15 15.37 114.26 15.48H119.87C119.98 15.59 120.053 15.6817 120.09 15.755H120.365C120.475 15.9017 120.585 16.085 120.695 16.305C120.805 16.4883 120.915 16.6717 121.025 16.855H120.365C120.438 16.9283 120.493 17.02 120.53 17.13C120.566 17.24 120.603 17.3317 120.64 17.405H121.025C121.098 17.5517 121.135 17.6433 121.135 17.68H121.08C121.153 17.8267 121.226 18.01 121.3 18.23C121.373 18.4133 121.428 18.5967 121.465 18.78H121.52C121.556 18.9267 121.593 19.0733 121.63 19.22C121.666 19.33 121.703 19.4583 121.74 19.605H121.355L121.52 20.43H122.015C122.051 20.5767 122.07 20.7233 122.07 20.87C122.07 20.98 122.088 21.1083 122.125 21.255H121.96V21.53H122.29L122.345 22.08H122.455C122.491 22.2267 122.51 22.3733 122.51 22.52C122.51 22.63 122.51 22.7583 122.51 22.905H122.345V23.455H121.905V24.555H123.17V24.83H122.345V25.655H122.235V27.03H123.335V28.13ZM104.14 14.38C104.25 14.5267 104.36 14.6733 104.47 14.82C104.58 14.93 104.671 15.0583 104.745 15.205H107.88C108.026 15.0583 108.173 14.93 108.32 14.82C108.466 14.6733 108.613 14.5267 108.76 14.38H104.14ZM102.875 15.48L103.04 15.755H103.7L103.975 16.36C104.048 16.25 104.121 16.1583 104.195 16.085C104.268 15.975 104.341 15.865 104.415 15.755H104.14L104.415 15.48H102.875ZM110.41 28.405H109.64V28.13H110.685V27.03H109.585V25.655H109.695V24.83H110.52V24.555H109.255V24.39C109.255 24.2067 109.255 24.0417 109.255 23.895C109.255 23.7483 109.236 23.6017 109.2 23.455H109.64L109.475 22.905H109.64C109.493 22.575 109.273 22.3 108.98 22.08H108.87C108.576 21.8233 108.155 21.695 107.605 21.695C107.091 21.695 106.651 21.8233 106.285 22.08H106.01C105.79 22.2633 105.588 22.5383 105.405 22.905H105.9C105.79 23.0517 105.735 23.235 105.735 23.455H105.35C105.313 23.6017 105.295 23.7483 105.295 23.895C105.295 24.0417 105.295 24.2067 105.295 24.39V24.555H105.625V24.83H104.965V25.655H105.35V25.93H105.24V27.03H106.615V28.13H106.175V28.405H108.65V28.955H110.41V28.405ZM154.931 25.93V26.48H161.916V27.03H157.681V27.58H155.701V28.13H157.406V28.46C157.406 28.68 157.388 28.845 157.351 28.955H158.121C157.864 29.615 157.388 29.945 156.691 29.945H140.301V30.055H142.501V30.22C142.501 30.3667 142.501 30.5317 142.501 30.715C142.501 30.8617 142.519 31.0083 142.556 31.155H139.586C139.586 31.265 139.586 31.375 139.586 31.485C139.623 31.5583 139.641 31.6317 139.641 31.705H139.311C139.311 31.8517 139.348 32.035 139.421 32.255H139.641C139.824 32.7683 140.118 33.135 140.521 33.355H139.036C139.293 33.5017 139.641 33.575 140.081 33.575C140.374 33.575 140.613 33.5017 140.796 33.355H143.381C143.528 33.2817 143.656 33.1717 143.766 33.025C143.913 32.8783 144.078 32.7317 144.261 32.585L144.591 32.255H143.546C143.876 31.9617 144.371 31.815 145.031 31.815H155.426C155.866 31.815 156.196 31.9617 156.416 32.255H157.406C157.589 32.5117 157.681 32.7683 157.681 33.025C157.644 33.0983 157.626 33.2083 157.626 33.355H155.041C154.968 33.7217 154.858 34.0883 154.711 34.455H152.016C151.906 34.6383 151.814 34.8217 151.741 35.005H158.561C158.488 35.1883 158.378 35.3717 158.231 35.555C158.121 35.7383 157.993 35.9217 157.846 36.105H156.196C156.049 36.325 155.903 36.5083 155.756 36.655H156.141C156.104 36.6917 156.068 36.7283 156.031 36.765C155.994 36.8017 155.958 36.8567 155.921 36.93H152.841L152.566 37.205H153.501C153.464 37.2417 153.409 37.2783 153.336 37.315C153.299 37.3517 153.263 37.4067 153.226 37.48H154.931C154.674 37.7367 154.344 38.0117 153.941 38.305H153.116C153.079 38.3417 153.024 38.3783 152.951 38.415C152.878 38.4517 152.804 38.5067 152.731 38.58H152.126C151.539 38.9833 150.898 39.35 150.201 39.68H149.486C149.046 39.9 148.569 40.1017 148.056 40.285C147.579 40.4683 147.066 40.6333 146.516 40.78H145.636C145.233 40.89 144.811 40.9817 144.371 41.055C143.931 41.165 143.454 41.2567 142.941 41.33H145.251C144.738 41.4033 144.206 41.4583 143.656 41.495C143.106 41.5317 142.519 41.55 141.896 41.55C141.309 41.55 140.723 41.5317 140.136 41.495C139.549 41.4583 138.981 41.4033 138.431 41.33H136.121C135.644 41.2567 135.186 41.165 134.746 41.055C134.306 40.9817 133.866 40.89 133.426 40.78H134.306C133.316 40.5233 132.381 40.1567 131.501 39.68H132.216C131.556 39.3133 130.988 38.9467 130.511 38.58H131.116C131.043 38.5067 130.969 38.4517 130.896 38.415C130.859 38.3783 130.804 38.3417 130.731 38.305H131.556C131.409 38.1583 131.263 38.03 131.116 37.92C130.969 37.7733 130.823 37.6267 130.676 37.48H128.916L128.641 37.205H127.706C127.669 37.1317 127.633 37.0767 127.596 37.04C127.559 37.0033 127.523 36.9667 127.486 36.93H130.511C130.474 36.8567 130.401 36.765 130.291 36.655H129.906C129.833 36.5817 129.759 36.49 129.686 36.38C129.613 36.27 129.539 36.1783 129.466 36.105H131.116C131.006 35.9217 130.896 35.7383 130.786 35.555C130.676 35.3717 130.566 35.1883 130.456 35.005H123.581C123.471 34.8217 123.379 34.6383 123.306 34.455H126.001L125.506 33.355H126.991C126.918 33.1717 126.844 32.9883 126.771 32.805C126.734 32.6217 126.679 32.4383 126.606 32.255H126.441L126.276 31.705H126.661L126.496 31.155H129.466C129.429 30.9717 129.393 30.7883 129.356 30.605C129.319 30.4217 129.283 30.2383 129.246 30.055H127.046L126.936 28.955H126.166C126.166 28.8083 126.148 28.68 126.111 28.57C126.111 28.4233 126.111 28.2767 126.111 28.13H124.406V27.58H126.331V27.03H130.566V26.48H123.581V26.37C123.581 26.1867 123.599 26.04 123.636 25.93H133.151C133.151 25.7833 133.151 25.655 133.151 25.545C133.188 25.3983 133.206 25.2517 133.206 25.105H124.461C124.461 25.0317 124.461 24.9767 124.461 24.94C124.498 24.9033 124.516 24.8667 124.516 24.83H128.146C128.146 24.72 128.164 24.6283 128.201 24.555H132.271V24.28H124.516C124.553 24.0967 124.589 23.9133 124.626 23.73C124.663 23.5467 124.699 23.3633 124.736 23.18H126.826C126.826 23.0333 126.863 22.85 126.936 22.63H125.121C125.121 22.5567 125.121 22.5017 125.121 22.465C125.158 22.4283 125.176 22.3917 125.176 22.355H126.496C126.496 22.2817 126.496 22.2267 126.496 22.19C126.533 22.1533 126.551 22.1167 126.551 22.08H125.176L125.286 21.805H126.606L126.771 21.255H127.816L128.146 20.43H127.156C127.229 20.2467 127.303 20.0633 127.376 19.88C127.449 19.66 127.541 19.4767 127.651 19.33H127.486L127.596 19.055H126.221C126.294 18.9083 126.331 18.8167 126.331 18.78H125.066L125.396 18.23H128.091C128.128 18.1567 128.201 18.065 128.311 17.955H129.301C129.448 17.7717 129.576 17.5883 129.686 17.405C129.833 17.185 129.979 17.0017 130.126 16.855H129.136C129.246 16.7083 129.356 16.58 129.466 16.47C129.613 16.3233 129.759 16.1767 129.906 16.03H132.051L132.601 15.48H129.356C129.833 15.0767 130.309 14.71 130.786 14.38H133.811L134.251 14.105H133.261C133.554 13.9217 133.903 13.7383 134.306 13.555H136.451C137.441 13.0783 138.468 12.7117 139.531 12.455H136.451C137.258 12.2717 138.101 12.125 138.981 12.015C139.861 11.905 140.778 11.85 141.731 11.85C142.684 11.85 143.583 11.905 144.426 12.015C145.269 12.125 146.076 12.2717 146.846 12.455H149.871C150.421 12.6017 150.934 12.7667 151.411 12.95C151.924 13.1333 152.419 13.335 152.896 13.555H150.751C150.934 13.6283 151.099 13.72 151.246 13.83C151.429 13.9033 151.594 13.995 151.741 14.105H152.731C152.804 14.1417 152.878 14.1783 152.951 14.215C153.024 14.2517 153.098 14.3067 153.171 14.38H150.146C150.623 14.71 151.099 15.0767 151.576 15.48H154.876L155.426 16.03H153.281C153.428 16.1767 153.556 16.3233 153.666 16.47C153.813 16.58 153.941 16.7083 154.051 16.855H155.041C155.188 17.0017 155.316 17.185 155.426 17.405C155.573 17.5883 155.719 17.7717 155.866 17.955H154.821C154.858 18.0283 154.931 18.12 155.041 18.23H152.291L152.621 18.78H153.886L154.051 19.055H155.481C155.481 19.0917 155.518 19.1833 155.591 19.33H155.756L156.251 20.43L156.581 21.255H156.636L156.801 21.805H156.141L156.251 22.08H156.746L156.856 22.355H157.736C157.736 22.3917 157.736 22.4283 157.736 22.465C157.773 22.5017 157.791 22.5567 157.791 22.63H157.351L157.516 23.18H155.426L155.591 24.28H163.346V24.555H159.276C159.276 24.5917 159.276 24.6283 159.276 24.665C159.313 24.7017 159.331 24.7567 159.331 24.83H155.646C155.683 24.9033 155.701 24.995 155.701 25.105H164.446C164.446 25.2517 164.446 25.3983 164.446 25.545C164.446 25.655 164.464 25.7833 164.501 25.93H154.931ZM138.211 22.355V22.63H139.971V23.07H144.371V22.63H144.756V22.355H143.876V22.08H143.326C143.326 21.97 143.308 21.8783 143.271 21.805H143.931C143.931 21.6583 143.894 21.475 143.821 21.255H143.766C143.729 20.925 143.619 20.65 143.436 20.43C143.069 19.8433 142.501 19.55 141.731 19.55C140.998 19.55 140.448 19.8433 140.081 20.43H141.071C140.924 20.65 140.814 20.925 140.741 21.255H139.641C139.641 21.3283 139.623 21.42 139.586 21.53C139.586 21.6033 139.568 21.695 139.531 21.805H138.211C138.211 21.915 138.193 22.0067 138.156 22.08H139.531V22.355H138.211ZM184.089 15.48V16.305H186.454V16.855H183.979V17.405H185.024V18.505H185.189V19.605H186.234V20.155H184.749V20.54C184.749 20.7233 184.73 20.87 184.694 20.98H184.419C184.272 21.3833 184.052 21.6583 183.759 21.805H184.254C184.07 21.9517 183.814 22.025 183.484 22.025H177.214V22.63H176.994V23.73H176.609V24.28H177.324V24.83H177.214V25.38H176.224V26.48H179.854V27.58H183.979V28.68H179.634V29.23H185.244V30.055H177.764V30.33H176.059V31.43H178.754V31.98H179.799V32.255H180.349V33.355H178.094V34.18H180.514V35.28H180.624V36.38H178.314V37.205H178.094V37.48H177.214V38.58H175.289V39.68H176.664C176.59 40.1933 176.37 40.56 176.004 40.78H176.499C176.315 40.9267 176.059 41 175.729 41H166.104C165.774 41 165.517 40.9267 165.334 40.78H164.784C164.417 40.56 164.197 40.1933 164.124 39.68H162.694V38.58H164.619V37.48H165.499V37.205H165.719V36.38H168.029V35.28H167.919V34.18H165.499V33.355H167.754V32.255H167.204V31.98H166.159V31.43H163.464V30.33H165.169V30.055H172.649V29.23H167.039V28.68H171.384V27.58H167.259V26.48H163.629V25.38H164.619V24.83H164.729V24.28H164.014V23.73H164.399V22.63H164.619V22.025H160.824C160.494 22.025 160.237 21.9517 160.054 21.805H159.559C159.265 21.6583 159.045 21.3833 158.899 20.98H159.229C159.192 20.9067 159.155 20.8333 159.119 20.76C159.119 20.6867 159.119 20.6133 159.119 20.54V20.155H160.604V19.605H159.559V18.505H159.394V17.405H158.349V16.855H160.824V16.305H158.459V15.48H159.394V14.93H159.339V14.105H159.779V13.885C159.779 13.6283 159.834 13.4267 159.944 13.28H162.639C162.895 12.6933 163.335 12.4 163.959 12.4H167.754V12.18H168.634V11.08H162.639V10.53H165.334C165.37 10.4567 165.389 10.365 165.389 10.255H164.894C164.894 10.1083 164.894 9.98 164.894 9.87C164.93 9.72333 164.967 9.57666 165.004 9.43H164.564C164.6 9.24666 164.637 9.06333 164.674 8.88C164.71 8.66 164.747 8.47666 164.784 8.33H164.674C164.674 8.25667 164.674 8.20167 164.674 8.165C164.71 8.12833 164.729 8.09166 164.729 8.055H165.114C165.114 7.98167 165.114 7.92667 165.114 7.89C165.15 7.85333 165.169 7.81666 165.169 7.78H165.059C165.095 7.63333 165.132 7.505 165.169 7.395C165.205 7.24833 165.242 7.10167 165.279 6.955H165.334C165.407 6.77167 165.48 6.58833 165.554 6.405C165.627 6.185 165.719 6.00166 165.829 5.855H166.049C166.122 5.67166 166.214 5.48833 166.324 5.305H165.224C165.444 4.93833 165.7 4.57166 165.994 4.205H165.279L166.104 3.38H167.204C167.387 3.23333 167.552 3.105 167.699 2.995C167.882 2.84833 168.065 2.70166 168.249 2.555H167.919C168.432 2.18833 168.945 1.91333 169.459 1.73H169.404C169.514 1.65667 169.624 1.60167 169.734 1.565C169.844 1.52833 169.954 1.49166 170.064 1.455H169.184C170.357 1.015 171.622 0.721666 172.979 0.574999C174.335 0.391666 175.747 0.299999 177.214 0.299999H182.329C183.135 0.299999 183.63 0.684999 183.814 1.455H184.639C184.675 1.52833 184.694 1.62 184.694 1.73H184.749V2.555H185.079V3.38H183.979V4.205H184.694V5.305H185.794V5.855H185.574V6.955H185.519V7.78H185.629V8.055H185.299V8.33H185.354V8.44C185.354 8.84333 185.225 9.17333 184.969 9.43H185.409C185.152 9.76 184.767 9.925 184.254 9.925H179.799C179.102 9.925 178.589 10.035 178.259 10.255H178.699C178.625 10.2917 178.515 10.3833 178.369 10.53H175.674C175.49 10.7133 175.38 10.8967 175.344 11.08H181.339C181.302 11.19 181.265 11.3 181.229 11.41C181.229 11.52 181.229 11.63 181.229 11.74V12.18H180.349V12.4H186.619C187.279 12.4 187.737 12.6933 187.994 13.28H185.299C185.372 13.5 185.409 13.7017 185.409 13.885V14.105H184.969V14.93H185.024V15.48H184.089ZM220.344 18.23H219.409V19.055H219.629V19.88H220.839V20.43H220.179V21.53H220.014V21.805H220.234V22.905H219.354V23.455H217.594V24.005H218.914V24.83H219.794V25.38H220.069V26.48H220.234V28.13H220.179V28.955H220.069V30.055H221.774V30.88H219.134V32.255H220.289V32.53H220.729V32.805H219.354V33.63H218.969V34.73H220.289V35.83H219.904V36.655H220.289V37.205H220.179V38.305H220.124V39.405H220.234V39.68H220.179C220.106 40.0467 219.977 40.3217 219.794 40.505H220.729C220.509 40.835 220.142 41 219.629 41H210.004C209.564 41 209.197 40.835 208.904 40.505H207.969C207.786 40.3217 207.657 40.0467 207.584 39.68H207.639V39.405H207.529V38.305H207.584V37.7C207.474 37.92 207.327 38.1217 207.144 38.305H207.254C206.887 38.745 206.502 39.1117 206.099 39.405H205.989C205.952 39.4417 205.897 39.4783 205.824 39.515C205.751 39.5517 205.677 39.6067 205.604 39.68H205.494C205.017 40.01 204.522 40.285 204.009 40.505H204.944C204.064 40.9083 203.111 41.1833 202.084 41.33H201.369C200.929 41.4033 200.471 41.4583 199.994 41.495C199.554 41.5317 199.077 41.55 198.564 41.55C198.197 41.55 197.831 41.5317 197.464 41.495C197.097 41.4583 196.712 41.4033 196.309 41.33H197.024C196.144 41.1467 195.319 40.8717 194.549 40.505H193.614C193.064 40.2483 192.587 39.9733 192.184 39.68H192.349C192.312 39.6067 192.257 39.5517 192.184 39.515C192.111 39.4783 192.037 39.4417 191.964 39.405H192.074C191.891 39.2217 191.689 39.0383 191.469 38.855C191.286 38.6717 191.102 38.4883 190.919 38.305H190.809C190.662 38.1217 190.516 37.9383 190.369 37.755C190.222 37.5717 190.076 37.3883 189.929 37.205H190.039C190.002 37.1317 189.947 37.04 189.874 36.93C189.801 36.82 189.727 36.7283 189.654 36.655H189.269C189.232 36.5083 189.159 36.38 189.049 36.27C188.976 36.1233 188.902 35.9767 188.829 35.83H189.269C189.086 35.4267 188.939 35.06 188.829 34.73H187.509C187.472 34.5467 187.417 34.3633 187.344 34.18C187.271 33.9967 187.216 33.8133 187.179 33.63H187.509L187.344 32.805H188.719C188.682 32.7317 188.664 32.64 188.664 32.53H188.169C188.169 32.42 188.151 32.3283 188.114 32.255H187.014C186.977 32.1817 186.959 32.09 186.959 31.98C186.959 31.87 186.941 31.7783 186.904 31.705H189.819C189.782 31.5583 189.764 31.43 189.764 31.32C189.764 31.1733 189.746 31.0267 189.709 30.88H189.049C189.012 30.7333 188.994 30.605 188.994 30.495C188.994 30.3483 188.994 30.2017 188.994 30.055H188.059V28.955H187.729V28.13H187.564V27.58H187.674V25.38H187.454V24.83H186.959V24.005H187.564V23.455H187.949V22.905H188.004V21.805H187.784V21.53H187.949V20.43H188.994V19.88H188.004V19.055H187.674V18.23H187.509V17.13H188.884V16.58H189.874V16.03H189.324V15.48H188.114V15.205H187.784V14.655H187.729V13.885C187.729 13.8117 187.729 13.7567 187.729 13.72C187.766 13.6467 187.784 13.5917 187.784 13.555H187.729C187.876 12.785 188.352 12.4 189.159 12.4H199.664C200.507 12.4 200.984 12.785 201.094 13.555H201.204V14.655H201.259V15.205H201.589V15.48H202.799V16.03H203.349V16.58H202.359V17.13H200.984V18.23H201.149V19.055H201.479V19.88H202.469V20.43H201.424V21.53H201.259V21.805H201.479V22.905H201.424V23.455H201.039V24.005H200.434V24.83H200.929V25.38H201.149V27.58H201.039V28.13H201.204V28.68C201.204 28.79 201.222 28.8817 201.259 28.955H201.534C201.534 29.3583 201.589 29.725 201.699 30.055H202.634C202.744 30.3483 202.891 30.6233 203.074 30.88H203.789C203.972 31.1 204.192 31.265 204.449 31.375C204.706 31.265 204.907 31.1 205.054 30.88H207.694C207.877 30.6233 208.024 30.3483 208.134 30.055H206.484C206.594 29.725 206.649 29.3583 206.649 28.955H206.759V28.13H206.814V26.48H206.649V25.38H206.374V24.83H205.494V24.005H204.174V23.455H205.934V22.905H206.814V21.805H206.594V21.53H206.759V20.43H207.419V19.88H206.209V19.055H205.989V18.23H206.924V17.13H208.079V16.58H209.509V16.03H207.694V15.48H206.759V15.205H206.539V14.655H206.759V13.885C206.759 13.7383 206.777 13.6283 206.814 13.555H206.429C206.612 12.785 207.107 12.4 207.914 12.4H218.364C219.134 12.4 219.611 12.785 219.794 13.555H220.124C220.161 13.6283 220.179 13.7383 220.179 13.885V14.655H219.959V15.205H220.179V15.48H221.114V16.03H222.929V16.58H221.499V17.13H220.344V18.23ZM255.81 32.805H258.945V33.905H256.03V35.005H255.04V35.28H255.15V35.555H253.445V36.38H254.105V37.48H254.545V37.755H247.56V38.305H247.89V39.405H255.04V39.515C255.04 39.845 254.911 40.175 254.655 40.505H256.14C255.993 40.6517 255.883 40.7433 255.81 40.78H254.16C253.976 40.9267 253.72 41 253.39 41H227.54C227.173 41 226.898 40.9267 226.715 40.78H228.365C228.291 40.7433 228.181 40.6517 228.035 40.505H226.605C226.348 40.175 226.22 39.845 226.22 39.515V39.405H219.07V38.305H218.74V37.755H225.725V37.48H225.285V36.38H224.625V35.555H226.33V35.28H226.22V35.005H227.21V33.905H230.125V33.19C230.125 33.0067 230.143 32.8783 230.18 32.805H226.99L227.155 32.255H225.56L225.725 31.98H221.655C221.691 31.9067 221.765 31.815 221.875 31.705H225.56C225.706 31.485 225.835 31.3383 225.945 31.265L226.385 30.88H222.26L223.25 30.055H233.975L234.58 29.505H230.895L231.17 29.23H232.05L232.985 28.405H228.035L228.64 27.855H228.2L228.53 27.58H229.19L229.52 27.305H230.125L231.115 26.48H231.445L232.71 25.38H232.325L233.59 24.28H233.7L235.02 23.18H234.91L235.57 22.63H235.46L236.395 21.86H226.44C226.036 21.86 225.725 21.75 225.505 21.53H225.065C224.955 21.4567 224.863 21.365 224.79 21.255H225.835C225.761 21.1083 225.688 20.925 225.615 20.705H225.285C225.248 20.6317 225.23 20.54 225.23 20.43H224.24V19.33H223.47V19.055H223.69V18.78H224.405V18.505H225.67V17.955H225.01V17.405H225.23V15.755H225.45V14.93H225.175V14.655H225.065V14.38H227.21V13.885C227.21 13.7017 227.246 13.5 227.32 13.28H224.46C224.716 12.6933 225.175 12.4 225.835 12.4H250.145C250.731 12.4 251.19 12.6933 251.52 13.28H254.325C254.435 13.4267 254.49 13.6283 254.49 13.885V14.38H252.345V14.655H252.455V14.93H252.73V15.755H252.51V17.405H252.29V17.955H252.95V18.505H251.685V18.78H250.97V19.055H250.75V19.33H251.52V20.43H252.51V20.705H252.84V20.815C252.84 20.9983 252.821 21.145 252.785 21.255H251.74C251.74 21.2917 251.703 21.3833 251.63 21.53H252.07C251.996 21.7867 251.795 22.08 251.465 22.41L251.19 22.63H251.245L250.64 23.18H250.75L249.485 24.28H249.375L248.11 25.38H248.495L247.23 26.48H246.9L245.965 27.305H245.305L245.03 27.58H244.37L244.04 27.855H244.48L243.875 28.405H248.825L247.89 29.23H247.01L246.735 29.505H250.42L249.815 30.055H239.09L238.155 30.88H242.28L241.51 31.54H252.4C252.693 31.54 252.913 31.595 253.06 31.705H249.375C249.485 31.7417 249.613 31.8333 249.76 31.98H253.83L253.995 32.255H255.59C255.663 32.4017 255.736 32.585 255.81 32.805Z" fill="#E4AA53"/>
</svg>
