<svg width="52" height="52" viewBox="0 0 52 52" fill="none" xmlns="http://www.w3.org/2000/svg">
<circle cx="26" cy="26" r="26" fill="#E4AA53"/>
<path d="M33.524 28.721H33.532C34.176 28.721 34.807 28.662 35.418 28.549L35.355 28.559C34.209 32.681 30.489 35.657 26.074 35.657H26.016H26.019C20.676 35.651 16.346 31.321 16.341 25.978V25.977C16.3535 23.8749 17.0444 21.8329 18.3109 20.1551C19.5774 18.4773 21.3518 17.2532 23.37 16.665L23.439 16.648C23.3297 17.2481 23.2755 17.857 23.277 18.467V18.474C23.282 24.132 27.867 28.717 33.524 28.722H33.525L33.524 28.721ZM26.006 14.47C25.8869 14.3093 25.7283 14.182 25.5456 14.1005C25.3628 14.0191 25.1622 13.9862 24.963 14.005H24.968C18.813 14.596 14.034 19.724 14 25.976V25.979C14.008 32.614 19.385 37.991 26.019 38H26.08C32.323 38 37.447 33.214 37.985 27.111L37.988 27.066C38.0052 26.8761 37.9757 26.6848 37.9019 26.5089C37.8282 26.333 37.7125 26.1779 37.565 26.057L37.563 26.055C37.4141 25.9325 37.2371 25.8489 37.0479 25.8117C36.8587 25.7745 36.6632 25.7849 36.479 25.842L36.487 25.84L35.963 25.996C35.1771 26.2537 34.355 26.3837 33.528 26.381H33.521C31.4257 26.3786 29.4169 25.5452 27.9354 24.0636C26.4538 22.582 25.6204 20.5733 25.618 18.478V18.46C25.618 17.43 25.816 16.446 26.176 15.545L26.157 15.598C26.2305 15.4115 26.2549 15.2093 26.2278 15.0107C26.2006 14.8121 26.1229 14.6239 26.002 14.464L26.004 14.467L26.006 14.47Z" fill="white"/>
</svg>
