<svg width="52" height="52" viewBox="0 0 52 52" fill="none" xmlns="http://www.w3.org/2000/svg">
<circle cx="26" cy="26" r="26" fill="#E4AA53"/>
<path d="M36.7008 34.0204L32.4165 29.7368C32.2231 29.5435 31.961 29.4361 31.686 29.4361C31.4014 29.4361 31.2378 29.1052 31.395 28.868C32.332 27.4547 32.8763 25.7604 32.8763 23.9366C32.8763 19 28.8756 15 23.9382 15C19.0007 15 15 19 15 23.9366C15 28.8732 19.0007 32.8732 23.9382 32.8732C25.7623 32.8732 27.457 32.329 28.8705 31.3921C29.1077 31.2349 29.4386 31.3986 29.4386 31.6831C29.4386 31.9581 29.546 32.2202 29.7394 32.4135L34.0237 36.6971C34.4276 37.1009 35.0808 37.1009 35.4804 36.6971L36.6965 35.4812C37.1004 35.0773 37.1004 34.4243 36.7008 34.0204ZM23.9382 29.4361C20.9 29.4361 18.4378 26.9785 18.4378 23.9366C18.4378 20.899 20.8957 18.4371 23.9382 18.4371C26.9763 18.4371 29.4386 20.8947 29.4386 23.9366C29.4386 26.9742 26.9806 29.4361 23.9382 29.4361Z" fill="white"/>
</svg>
