<svg width="52" height="52" viewBox="0 0 52 52" fill="none" xmlns="http://www.w3.org/2000/svg">
<circle cx="26" cy="26" r="26" fill="#E4AA53"/>
<path d="M17.528 22.7897V30.0299C17.528 30.9927 16.7869 31.7618 15.8436 31.7618C14.9065 31.7618 14 30.9865 14 30.0299V22.7897C14 21.8456 14.9065 21.0703 15.8436 21.0703C16.7685 21.0703 17.528 21.8456 17.528 22.7897ZM18.1895 32.6058C18.1895 33.6312 18.998 34.4565 20.0025 34.4565H21.2214L21.2397 38.2767C21.2397 40.5838 24.6207 40.5651 24.6207 38.2767V34.4565H26.8992V38.2767C26.8992 40.5713 30.2986 40.5776 30.2986 38.2767V34.4565H31.5359C32.5281 34.4565 33.3366 33.6312 33.3366 32.6058V21.3892H18.1895V32.6058ZM33.3795 20.7827H18.1221C18.1221 18.1067 19.6901 15.7808 22.0176 14.5679L20.8477 12.3608C20.6762 12.0544 21.1111 11.8606 21.2581 12.1232L22.4464 14.349C24.584 13.3799 27.0401 13.43 29.0797 14.349L30.2619 12.1295C30.415 11.8606 30.8437 12.0607 30.6722 12.3671L29.5024 14.5679C31.8115 15.7808 33.3795 18.1067 33.3795 20.7827ZM22.9241 17.3127C22.9241 16.9563 22.6424 16.6562 22.281 16.6562C21.9319 16.6562 21.6562 16.9563 21.6562 17.3127C21.6562 17.669 21.938 17.9691 22.281 17.9691C22.6424 17.9691 22.9241 17.669 22.9241 17.3127ZM29.8699 17.3127C29.8699 16.9563 29.5881 16.6562 29.2451 16.6562C28.8837 16.6562 28.602 16.9563 28.602 17.3127C28.602 17.669 28.8837 17.9691 29.2451 17.9691C29.5881 17.9691 29.8699 17.669 29.8699 17.3127ZM35.6764 21.0703C34.7515 21.0703 33.992 21.8268 33.992 22.7897V30.0299C33.992 30.9927 34.7515 31.7618 35.6764 31.7618C36.6196 31.7618 37.52 30.9865 37.52 30.0299V22.7897C37.52 21.8268 36.6135 21.0703 35.6764 21.0703Z" fill="white"/>
</svg>
