<?xml version="1.0" standalone="no"?>
<!DOCTYPE svg PUBLIC "-//W3C//DTD SVG 1.1//EN" "http://www.w3.org/Graphics/SVG/1.1/DTD/svg11.dtd" >
<svg xmlns="http://www.w3.org/2000/svg" xmlns:xlink="http://www.w3.org/1999/xlink" version="1.1">
<metadata>
Created by FontForge 20170731 at Sat Jun 10 22:07:17 2017
 By Aleksey,,,
Copyright (c) 2017 by Gordeziani, Tatia Jonson. All rights reserved.
</metadata>
<defs>
<font id="GLMkafio-Light" horiz-adv-x="536" >
  <font-face 
    font-family="GL Mkafio Light"
    font-weight="300"
    font-stretch="normal"
    units-per-em="1000"
    panose-1="2 11 4 3 5 0 0 2 0 4"
    ascent="800"
    descent="-200"
    x-height="523"
    cap-height="685"
    bbox="-167 -332 935 947"
    underline-thickness="50"
    underline-position="-150"
    unicode-range="U+0020-2215"
  />
<missing-glyph horiz-adv-x="528" 
d="M433 -320h-335v1056h335v-1056zM177 665v-35h69v-39h-70v-35h176v35h-70v39h70v35h-175zM176 529v-110h176v36h-70v74h-106zM246 455h-35v38h35v-38zM176 391v-35h70v-39h-70v-35h106v74h70v35h-176zM317 327v-69h-141v-36h176v105h-35zM246 198v-59h36v25h35v-50h-106
v84h-35v-119h176v119h-106zM176 16v-120h176v120h-176zM317 -69h-106v50h106v-50zM176 -128v-35h74l-74 -49v-35h176v35h-108l74 49h34v35h-176z" />
    <glyph glyph-name=".notdef" horiz-adv-x="528" 
d="M433 -320h-335v1056h335v-1056zM177 665v-35h69v-39h-70v-35h176v35h-70v39h70v35h-175zM176 529v-110h176v36h-70v74h-106zM246 455h-35v38h35v-38zM176 391v-35h70v-39h-70v-35h106v74h70v35h-176zM317 327v-69h-141v-36h176v105h-35zM246 198v-59h36v25h35v-50h-106
v84h-35v-119h176v119h-106zM176 16v-120h176v120h-176zM317 -69h-106v50h106v-50zM176 -128v-35h74l-74 -49v-35h176v35h-108l74 49h34v35h-176z" />
    <glyph glyph-name=".null" horiz-adv-x="0" 
 />
    <glyph glyph-name="nonmarkingreturn" horiz-adv-x="333" 
 />
    <glyph glyph-name="space" unicode=" " horiz-adv-x="279" 
 />
    <glyph glyph-name="exclam" unicode="!" horiz-adv-x="240" 
d="M146 218h-53l-5 467h62zM154.5 70.5q13.5 -13.5 13.5 -33.5t-13.5 -34t-34.5 -14q-20 0 -34 14t-14 34t14 33.5t34 13.5q21 0 34.5 -13.5z" />
    <glyph glyph-name="quotedbl" unicode="&#x22;" horiz-adv-x="362" 
d="M71 685h62l-9 -251h-44zM229 685h62l-9 -251h-44z" />
    <glyph glyph-name="numbersign" unicode="#" horiz-adv-x="503" 
d="M410 452l-30 -226h71v-46h-77l-24 -180h-52l24 180h-183l-24 -180h-52l24 180h-72v46h78l30 226h-71v47h77l22 166h52l-22 -166h183l22 166h52l-22 -166h72v-47h-78zM358 452h-183l-30 -226h183z" />
    <glyph glyph-name="dollar" unicode="$" horiz-adv-x="526" 
d="M422.5 53.5q-49.5 -51.5 -133.5 -62.5v-142h-51v140q-117 4 -199 83l35 37q36 -34 78.5 -52t97.5 -18q72 0 117 37.5t45 103.5q0 40 -14.5 66t-48 45t-95.5 38q-102 32 -145.5 72.5t-43.5 109.5q0 67 47.5 112t125.5 51v145h51v-145q51 -4 88.5 -22t73.5 -51l-35 -37
q-35 33 -71.5 47t-83.5 14q-61 0 -98.5 -30t-37.5 -82q0 -35 14 -57.5t46.5 -40.5t93.5 -36q66 -21 107 -44t63.5 -60t22.5 -93q0 -77 -49.5 -128.5z" />
    <glyph glyph-name="percent" unicode="%" horiz-adv-x="793" 
d="M653 676l-464 -700l-42 28l463 699zM311 632q41 -44 41 -118t-40.5 -118.5t-108.5 -44.5q-67 0 -108.5 44t-41.5 118t41 118.5t109 44.5q67 0 108 -44zM130 600q-23 -34 -23 -87q0 -52 23 -86t73 -34t72.5 34t22.5 87q0 52 -22.5 86t-72.5 34t-73 -34zM698.5 270
q41.5 -44 41.5 -117q0 -75 -41 -119.5t-109 -44.5q-66 0 -107.5 44.5t-41.5 117.5q0 75 40.5 119t108.5 44q67 0 108.5 -44zM518 238q-23 -34 -23 -87q0 -52 23 -86t72 -34q50 0 73 34t23 88q0 51 -23 85t-73 34q-49 0 -72 -34z" />
    <glyph glyph-name="ampersand" unicode="&#x26;" horiz-adv-x="722" 
d="M420.5 654.5q46.5 -41.5 46.5 -106.5q0 -57 -37.5 -99t-115.5 -85l205 -192q44 90 66 190l55 -16q-32 -120 -85 -209l124 -114l-43 -34l-112 105q-43 -51 -96.5 -78t-127.5 -27q-59 0 -107 22.5t-75.5 64t-27.5 95.5q0 64 36 110.5t108 88.5q-55 52 -78 88.5t-23 85.5
q0 66 46 109t122 43q73 0 119.5 -41.5zM221 620.5q-30 -30.5 -30 -75.5q0 -38 18.5 -68.5t70.5 -80.5q67 37 98.5 71.5t31.5 78.5q0 49 -30.5 77t-78.5 28q-50 0 -80 -30.5zM179.5 262.5q-29.5 -39.5 -29.5 -89.5q0 -61 43.5 -98.5t111.5 -37.5q60 0 103 22.5t80 67.5
l-219 211q-60 -36 -89.5 -75.5z" />
    <glyph glyph-name="quotesingle" unicode="'" horiz-adv-x="204" 
d="M71 685h62l-9 -251h-44z" />
    <glyph glyph-name="parenleft" unicode="(" horiz-adv-x="324" 
d="M270 813q-53 -79 -85 -140.5t-51.5 -140.5t-19.5 -182t19.5 -182t51.5 -140.5t85 -140.5l-37 -24q-62 87 -97.5 149t-58.5 145t-23 193t23 193t58.5 145t97.5 149z" />
    <glyph glyph-name="parenright" unicode=")" horiz-adv-x="324" 
d="M188.5 688q35.5 -62 58.5 -145t23 -193t-23 -193t-58.5 -145t-97.5 -149l-37 24q53 79 85 140.5t51.5 140.5t19.5 182t-19.5 182t-51.5 140.5t-85 140.5l37 24q62 -87 97.5 -149z" />
    <glyph glyph-name="asterisk" unicode="*" horiz-adv-x="436" 
d="M250 542l99 -122l-46 -34l-85 132l-85 -132l-46 33l99 122l-152 41l17 52l147 -57l-9 159h57l-8 -159l146 57l18 -52z" />
    <glyph glyph-name="plus" unicode="+" horiz-adv-x="493" 
d="M274 356h150v-50h-150v-152h-55v152h-150v50h150v152h55v-152z" />
    <glyph glyph-name="comma" unicode="," horiz-adv-x="207" 
d="M137.5 70.5q13.5 -13.5 13.5 -33.5q0 -22 -15 -55l-56 -133h-42l40 147q-11 6 -17 17t-6 24q0 20 14 33.5t34 13.5q21 0 34.5 -13.5z" />
    <glyph glyph-name="hyphen" unicode="-" horiz-adv-x="401" 
d="M68 338h265v-50h-265v50z" />
    <glyph glyph-name="period" unicode="." horiz-adv-x="207" 
d="M137.5 70.5q13.5 -13.5 13.5 -33.5q0 -21 -13.5 -34.5t-34.5 -13.5q-20 0 -34 14t-14 34t14 33.5t34 13.5q21 0 34.5 -13.5z" />
    <glyph glyph-name="zero" unicode="0" horiz-adv-x="550" 
d="M431 588.5q53 -87.5 53 -256.5q0 -168 -53.5 -255.5t-155.5 -87.5q-103 0 -156 87.5t-53 256.5t53 256t156 87t156 -87.5zM126 333q0 -296 149 -296q73 0 110.5 72t37.5 223t-37.5 223.5t-110.5 72.5q-149 0 -149 -295z" />
    <glyph glyph-name="one" unicode="1" horiz-adv-x="413" 
d="M292 0h-58v601l-164 -102l-27 43l199 123h50v-665z" />
    <glyph glyph-name="two" unicode="2" horiz-adv-x="479" 
d="M358.5 627q49.5 -49 49.5 -126q0 -65 -27 -122t-84.5 -125t-185.5 -203h315l-8 -51h-375v49q137 146 196.5 216.5t84 122t24.5 110.5t-34.5 94t-91.5 35q-46 0 -81.5 -19t-67.5 -57l-40 30q40 49 86.5 72t105.5 23q84 0 133.5 -49z" />
    <glyph glyph-name="three" unicode="3" horiz-adv-x="486" 
d="M318.5 654q41.5 -22 63.5 -59.5t22 -84.5q0 -65 -36.5 -105.5t-94.5 -50.5q65 -3 107.5 -46.5t42.5 -119.5q0 -58 -26 -103t-74.5 -70.5t-111.5 -25.5q-116 0 -191 86l37 33q34 -37 70.5 -53.5t81.5 -16.5q72 0 113 41t41 108q0 140 -150 140h-44l8 47h32q57 0 97 34.5
t40 98.5q0 55 -35 87.5t-93 32.5q-42 0 -77 -14.5t-71 -47.5l-31 36q40 38 84 56.5t98 18.5q56 0 97.5 -22z" />
    <glyph glyph-name="four" unicode="4" horiz-adv-x="518" 
d="M483 175h-90v-175h-57v175h-291v43l203 458l49 -20l-190 -433h229l7 195h50v-195h90v-48z" />
    <glyph glyph-name="five" unicode="5" horiz-adv-x="487" 
d="M405 617h-270v-227q55 31 114 31q86 0 136.5 -55.5t50.5 -151.5q0 -65 -26.5 -116.5t-75 -80t-112.5 -28.5q-111 0 -188 80l36 35q32 -34 68 -50t84 -16q71 0 112 47.5t41 129.5q0 80 -37.5 119.5t-101.5 39.5q-32 0 -56.5 -7.5t-54.5 -24.5h-46v323h335z" />
    <glyph glyph-name="six" unicode="6" horiz-adv-x="524" 
d="M423 379.5q50 -53.5 50 -155.5q0 -71 -25.5 -124.5t-70 -82t-100.5 -28.5q-110 0 -160.5 84.5t-50.5 226.5q0 115 29 200t83 130.5t128 45.5q67 0 124 -39l-25 -40q-48 31 -100 31q-81 0 -129 -81t-51 -212q67 98 171 98q77 0 127 -53.5zM378.5 87.5
q35.5 50.5 35.5 134.5q0 83 -34.5 123t-91.5 40q-50 0 -91.5 -29.5t-71.5 -80.5q3 -116 39 -177t113 -61q66 0 101.5 50.5z" />
    <glyph glyph-name="seven" unicode="7" horiz-adv-x="437" 
d="M401 620l-262 -628l-54 18l256 606h-311v49h371v-45z" />
    <glyph glyph-name="eight" unicode="8" horiz-adv-x="538" 
d="M449.5 279.5q35.5 -41.5 35.5 -106.5q0 -55 -27.5 -96.5t-77 -64.5t-113.5 -23t-112.5 23t-75 64.5t-26.5 95.5q0 128 143 185q-59 27 -86.5 62.5t-27.5 90.5q0 51 26 89t69 57.5t92 19.5t92 -19t69.5 -56t26.5 -90q0 -52 -29 -89.5t-91 -69.5q77 -31 112.5 -72.5z
M167.5 433q27.5 -28 95.5 -53l31 -11q56 30 80.5 62t24.5 78q0 57 -35.5 89t-94.5 32q-57 0 -93 -32t-36 -89q0 -48 27.5 -76zM381.5 73.5q42.5 35.5 42.5 99.5q0 40 -15 66.5t-46 46t-87 40.5l-34 13q-67 -26 -97.5 -66.5t-30.5 -100.5q0 -64 42 -99t112 -35
q71 0 113.5 35.5z" />
    <glyph glyph-name="nine" unicode="9" horiz-adv-x="518" 
d="M406.5 605.5q50.5 -70.5 50.5 -197.5q0 -129 -37 -211t-108.5 -131t-188.5 -85l-15 45q138 42 210.5 115t79.5 200q-30 -44 -72 -68.5t-92 -24.5q-52 0 -93 25.5t-64.5 73t-23.5 111.5q0 66 26.5 115.5t72.5 76t103 26.5q101 0 151.5 -70.5zM328.5 321.5
q37.5 25.5 69.5 74.5q1 119 -33 175.5t-108 56.5q-67 0 -105.5 -44.5t-38.5 -126.5q0 -77 35.5 -119t95.5 -42q47 0 84.5 25.5z" />
    <glyph glyph-name="colon" unicode=":" horiz-adv-x="207" 
d="M137.5 461.5q13.5 -13.5 13.5 -34.5q0 -20 -13.5 -33.5t-34.5 -13.5q-20 0 -34 13.5t-14 33.5t14 34t34 14q21 0 34.5 -13.5zM137.5 70.5q13.5 -13.5 13.5 -33.5q0 -21 -13.5 -34.5t-34.5 -13.5q-20 0 -34 14t-14 34t14 33.5t34 13.5q21 0 34.5 -13.5z" />
    <glyph glyph-name="semicolon" unicode=";" horiz-adv-x="207" 
d="M137.5 461.5q13.5 -13.5 13.5 -34.5q0 -20 -13.5 -33.5t-34.5 -13.5q-20 0 -34 13.5t-14 33.5t14 34t34 14q21 0 34.5 -13.5zM137.5 70.5q13.5 -13.5 13.5 -33.5q0 -22 -15 -55l-56 -133h-42l40 147q-11 6 -17 17t-6 24q0 20 14 33.5t34 13.5q21 0 34.5 -13.5z" />
    <glyph glyph-name="less" unicode="&#x3c;" horiz-adv-x="497" 
d="M433 480l-318 -147l318 -150l-21 -48l-348 171v54l348 169z" />
    <glyph glyph-name="equal" unicode="=" horiz-adv-x="493" 
d="M69 444h355v-51h-355v51zM69 269h355v-51h-355v51z" />
    <glyph glyph-name="greater" unicode="&#x3e;" horiz-adv-x="497" 
d="M433 360v-54l-348 -171l-21 48l317 150l-317 147l21 49z" />
    <glyph glyph-name="question" unicode="?" horiz-adv-x="447" 
d="M327 676q39 -20 59.5 -53t20.5 -73q0 -36 -13 -62t-31.5 -43t-49.5 -38q-30 -21 -47.5 -37t-29.5 -40t-12 -57v-55h-57v59q0 42 14 71.5t34 48t52 40.5q40 27 59.5 50t19.5 60q0 46 -31 72.5t-84 26.5q-45 0 -80.5 -17.5t-69.5 -56.5l-40 32q41 47 87.5 69.5t105.5 22.5
q54 0 93 -20zM232.5 70.5q13.5 -13.5 13.5 -33.5t-13.5 -34t-34.5 -14t-34.5 14t-13.5 34t13.5 33.5t34.5 13.5t34.5 -13.5z" />
    <glyph glyph-name="at" unicode="@" horiz-adv-x="1020" 
d="M748.5 643q92.5 -53 139.5 -141t47 -194q0 -144 -50 -220t-131 -76q-50 0 -81 31t-41 79q-22 -50 -58.5 -79t-89.5 -29q-48 0 -86.5 26t-60 75t-21.5 117q0 83 27.5 139.5t74.5 84.5t107 28q75 0 145 -36v-258q0 -131 83 -131q56 0 89.5 58t33.5 189q0 98 -40.5 175
t-119.5 121t-190 44q-114 0 -200.5 -53t-134 -146t-47.5 -208q0 -119 46.5 -208t133 -138t201.5 -49q97 0 189 34l16 -47q-52 -18 -98 -27t-108 -9q-128 0 -227.5 54t-155.5 154.5t-56 235.5q0 128 55.5 232.5t156 164.5t229.5 60q130 0 222.5 -53zM570 91.5
q32 31.5 46 74.5v253q-42 20 -89 20q-73 0 -113 -54t-40 -153q0 -84 31 -128t85 -44q48 0 80 31.5z" />
    <glyph glyph-name="A" unicode="A" horiz-adv-x="565" 
d="M425 187h-288l-60 -187h-61l229 685h75l228 -685h-63zM409 238l-127 398l-128 -398h255z" />
    <glyph glyph-name="B" unicode="B" horiz-adv-x="598" 
d="M500 313.5q44 -41.5 44 -123.5q0 -96 -65 -143t-181 -47h-187v685h153q119 0 183.5 -43t64.5 -128q0 -63 -34.5 -102t-91.5 -49q70 -8 114 -49.5zM171 635v-251h138q64 0 103 33.5t39 92.5q0 67 -45.5 96t-135.5 29h-99zM482 190q0 74 -45.5 110t-120.5 36h-145v-286h127
q184 0 184 140z" />
    <glyph glyph-name="C" unicode="C" horiz-adv-x="550" 
d="M439.5 680.5q39.5 -15.5 79.5 -47.5l-32 -40q-35 28 -67 40t-73 12q-97 0 -157.5 -74t-60.5 -228q0 -100 28 -168t76.5 -100.5t110.5 -32.5q49 0 83 14.5t69 42.5l31 -39q-75 -71 -185 -71q-80 0 -142.5 41t-98 120.5t-35.5 192.5t37 192.5t99.5 120t140.5 40.5
q57 0 96.5 -15.5z" />
    <glyph glyph-name="D" unicode="D" horiz-adv-x="632" 
d="M477.5 613q88.5 -72 88.5 -265t-89.5 -270.5t-218.5 -77.5h-147v685h136q142 0 230.5 -72zM171 635v-585h91q241 0 241 298q0 118 -35 181t-88.5 84.5t-124.5 21.5h-84z" />
    <glyph glyph-name="E" unicode="E" horiz-adv-x="512" 
d="M452 635h-281v-255h243v-50h-243v-280h295v-50h-355v685h348z" />
    <glyph glyph-name="F" unicode="F" horiz-adv-x="481" 
d="M111 685h342l-7 -50h-275v-267h237v-50h-237v-318h-60v685z" />
    <glyph glyph-name="G" unicode="G" horiz-adv-x="618" 
d="M453 679.5q43 -16.5 87 -51.5l-36 -38q-37 29 -72 42t-80 13q-59 0 -109.5 -31t-82 -98.5t-31.5 -170.5q0 -153 58 -229t162 -76q80 0 144 36v243h-134l-7 50h200v-324q-98 -56 -203 -56q-131 0 -207 91t-76 265q0 113 39.5 192.5t105 119t141.5 39.5q58 0 101 -16.5z
" />
    <glyph glyph-name="H" unicode="H" horiz-adv-x="670" 
d="M499 335h-328v-335h-60v685h60v-299h328v299h60v-685h-60v335z" />
    <glyph glyph-name="I" unicode="I" horiz-adv-x="282" 
d="M171 0h-60v685h60v-685z" />
    <glyph glyph-name="J" unicode="J" horiz-adv-x="291" 
d="M185 92q0 -61 -15.5 -99.5t-48.5 -63.5t-92 -48l-16 44q46 20 70 41.5t33 51t9 77.5v590h60v-593z" />
    <glyph glyph-name="K" unicode="K" horiz-adv-x="547" 
d="M171 0h-60v685h60v-685zM246 370l301 -370h-73l-299 367l286 318h69z" />
    <glyph glyph-name="L" unicode="L" horiz-adv-x="477" 
d="M171 54h286l-8 -54h-338v685h60v-631z" />
    <glyph glyph-name="M" unicode="M" horiz-adv-x="770" 
d="M701 0h-58l-31 328q-19 191 -26 298l-172 -545h-57l-178 545q-5 -97 -20 -257l-3 -39l-30 -330h-57l65 685h83l170 -533l164 533h84z" />
    <glyph glyph-name="N" unicode="N" horiz-adv-x="673" 
d="M562 0h-79l-323 619q8 -125 8 -236v-383h-57v685h77l325 -619q-8 116 -8 203v416h57v-685z" />
    <glyph glyph-name="O" unicode="O" horiz-adv-x="691" 
d="M492 655.5q63 -40.5 98 -120.5t35 -193q0 -111 -34.5 -190.5t-97.5 -121t-148 -41.5q-83 0 -146 41t-98 120t-35 191q0 111 35 191t98.5 122t145.5 42q84 0 147 -40.5zM187 568.5q-58 -76.5 -58 -227.5q0 -149 58.5 -225t157.5 -76q103 0 160 75.5t57 226.5
q0 152 -57.5 227.5t-159.5 75.5q-100 0 -158 -76.5z" />
    <glyph glyph-name="P" unicode="P" horiz-adv-x="570" 
d="M459.5 634.5q65.5 -50.5 65.5 -154.5q0 -110 -68.5 -161.5t-187.5 -51.5h-98v-267h-60v685h161q122 0 187.5 -50.5zM412 353q50 37 50 126q0 84 -48.5 120.5t-142.5 36.5h-100v-320h98q93 0 143 37z" />
    <glyph glyph-name="Q" unicode="Q" horiz-adv-x="690" 
d="M559.5 6.5q50.5 -16.5 89.5 -48.5l-40 -51q-54 48 -112 66t-152 18q-83 0 -146 40.5t-98 119t-35 190.5q0 111 35 191t98.5 122t145.5 42q84 0 147 -40.5t98 -120.5t35 -193q0 -255 -173 -318q57 -1 107.5 -17.5zM187.5 116q58.5 -76 157.5 -76q103 0 160 75.5t57 226.5
q0 152 -57.5 227.5t-159.5 75.5q-100 0 -158 -76.5t-58 -227.5q0 -149 58.5 -225z" />
    <glyph glyph-name="R" unicode="R" horiz-adv-x="590" 
d="M308 307h-137v-307h-60v685h166q244 0 244 -186q0 -74 -39 -118t-114 -63l188 -318h-71zM285 356q172 0 172 143q0 70 -43 103.5t-139 33.5h-104v-280h114z" />
    <glyph glyph-name="S" unicode="S" horiz-adv-x="539" 
d="M375.5 677.5q45.5 -18.5 88.5 -57.5l-35 -38q-39 33 -76 48t-84 15q-64 0 -103 -31.5t-39 -84.5q0 -36 14.5 -59.5t48.5 -42t97 -37.5q68 -21 110 -45t65 -62t23 -96t-28 -103t-79.5 -70t-119.5 -25q-128 0 -219 86l34 38q42 -36 85 -54.5t99 -18.5q74 0 120.5 39
t46.5 106q0 42 -15.5 69t-50 46.5t-97.5 39.5q-105 32 -150 74t-45 114q0 48 25.5 86.5t71 60t104.5 21.5q63 0 108.5 -18.5z" />
    <glyph glyph-name="T" unicode="T" horiz-adv-x="495" 
d="M478 632h-201v-632h-59v632h-203v53h470z" />
    <glyph glyph-name="U" unicode="U" horiz-adv-x="652" 
d="M551 214q0 -102 -58 -163.5t-167 -61.5q-110 0 -167.5 61t-57.5 164v471h60v-466q0 -86 40.5 -132t124.5 -46t124 46.5t40 131.5v466h61v-471z" />
    <glyph glyph-name="V" unicode="V" horiz-adv-x="546" 
d="M307 0h-67l-224 685h65l193 -623l194 623h62z" />
    <glyph glyph-name="W" unicode="W" horiz-adv-x="810" 
d="M629 0h-75l-150 618l-150 -618h-73l-151 685h61l130 -629l150 629h67l153 -629l131 629h57z" />
    <glyph glyph-name="X" unicode="X" horiz-adv-x="514" 
d="M504 0h-68l-182 329l-179 -329h-65l209 368l-188 317h68l156 -277l156 277h65l-186 -314z" />
    <glyph glyph-name="Y" unicode="Y" horiz-adv-x="523" 
d="M292 268v-268h-60v267l-219 418h67l184 -364l181 364h64z" />
    <glyph glyph-name="Z" unicode="Z" horiz-adv-x="516" 
d="M468 636l-364 -583h358l-8 -53h-419v50l367 583h-329v52h395v-49z" />
    <glyph glyph-name="bracketleft" unicode="[" horiz-adv-x="317" 
d="M251 758h-112v-822h112v-48h-167v919h167v-49z" />
    <glyph glyph-name="bracketright" unicode="]" horiz-adv-x="317" 
d="M233 -112h-167v48h112v822h-112v49h167v-919z" />
    <glyph glyph-name="underscore" unicode="_" horiz-adv-x="520" 
d="M29 -71h463v-51h-463v51z" />
    <glyph glyph-name="grave" unicode="`" horiz-adv-x="274" 
d="M244 679l-18 -34l-196 85l26 52z" />
    <glyph glyph-name="a" unicode="a" 
d="M441.5 57q10.5 -18 33.5 -27l-13 -41q-36 7 -55.5 27t-25.5 61q-54 -88 -163 -88q-75 0 -118.5 42.5t-43.5 113.5q0 81 57.5 125t159.5 44h100v51q0 63 -28 91.5t-93 28.5q-60 0 -142 -30l-15 44q88 35 165 35q171 0 171 -166v-252q0 -41 10.5 -59zM373 128v144h-91
q-80 0 -122 -31t-42 -93q0 -54 29 -83t81 -29q94 0 145 92z" />
    <glyph glyph-name="b" unicode="b" horiz-adv-x="581" 
d="M462 464q50 -70 50 -200q0 -127 -52.5 -201t-146.5 -74q-47 0 -85.5 21t-64.5 56l-6 -66h-51v736l58 7v-293q62 84 157 84q91 0 141 -70zM411.5 94.5q38.5 57.5 38.5 169.5q0 222 -141 222q-47 0 -81 -23.5t-64 -66.5v-275q25 -39 60 -61.5t78 -22.5q71 0 109.5 57.5z
" />
    <glyph glyph-name="c" unicode="c" horiz-adv-x="469" 
d="M365 521.5q35 -12.5 68 -40.5l-29 -38q-26 21 -53.5 31t-62.5 10q-74 0 -118 -57.5t-44 -167.5q0 -109 43.5 -164t117.5 -55q35 0 63.5 11t57.5 33l28 -39q-66 -56 -150 -56q-67 0 -117 32t-77.5 92.5t-27.5 144.5q0 83 27.5 145.5t77.5 96.5t116 34q45 0 80 -12.5z" />
    <glyph glyph-name="d" unicode="d" horiz-adv-x="585" 
d="M479 736v-736h-50l-7 80q-54 -91 -157 -91q-91 0 -143.5 72.5t-52.5 197.5q0 81 24.5 143t71 97t109.5 35q89 0 147 -71v280zM358.5 61q34.5 24 62.5 73v273q-56 79 -137 79q-71 0 -112.5 -59t-40.5 -167q0 -108 38 -165.5t105 -57.5q50 0 84.5 24z" />
    <glyph glyph-name="e" unicode="e" 
d="M475 239h-349q5 -102 48.5 -151.5t114.5 -49.5q41 0 72.5 12.5t68.5 39.5l27 -37q-39 -32 -80 -48t-91 -16q-104 0 -163 71t-59 197q0 83 25.5 145.5t73 97t110.5 34.5q100 0 152 -67.5t52 -185.5q0 -22 -2 -42zM420 299q0 88 -36.5 137.5t-108.5 49.5q-65 0 -105 -50
t-44 -152h294v15z" />
    <glyph glyph-name="f" unicode="f" horiz-adv-x="321" 
d="M192.5 674q-22.5 -21 -22.5 -67v-84h138l-8 -47h-130v-476h-58v476h-91v47h91v86q0 62 38.5 98t106.5 36q61 0 122 -28l-20 -43q-52 23 -99 23q-45 0 -67.5 -21z" />
    <glyph glyph-name="g" unicode="g" horiz-adv-x="503" 
d="M495 512q-48 -13 -145 -15q89 -42 89 -142q0 -77 -51 -124.5t-138 -47.5q-39 0 -68 10q-19 -11 -29.5 -26.5t-10.5 -33.5q0 -54 83 -54h85q77 0 122.5 -37.5t45.5 -96.5q0 -72 -57 -111t-170 -39q-117 0 -167.5 35.5t-50.5 114.5h54q1 -38 16 -60t50 -32t98 -10
q88 0 128 25.5t40 73.5q0 42 -31 64.5t-87 22.5h-85q-62 0 -95.5 26t-33.5 66q0 26 15 49t42 40q-45 23 -66.5 59t-21.5 88q0 79 53 128t139 49q95 -1 138.5 7t90.5 27zM149.5 453q-33.5 -36 -33.5 -96q0 -62 35.5 -97t96.5 -35q64 0 98 34.5t34 96.5q0 63 -33.5 98
t-98.5 35t-98.5 -36z" />
    <glyph glyph-name="h" unicode="h" horiz-adv-x="584" 
d="M445 491.5q38 -42.5 38 -117.5v-374h-58v366q0 121 -99 121q-50 0 -88.5 -27.5t-73.5 -80.5v-379h-58v736l58 7v-307q70 98 173 98q70 0 108 -42.5z" />
    <glyph glyph-name="i" unicode="i" horiz-adv-x="270" 
d="M166 741q12 -12 12 -30t-12 -30t-31 -12t-31.5 12t-12.5 30t12.5 30t31.5 12t31 -12zM164 0h-58v523h58v-523z" />
    <glyph glyph-name="j" unicode="j" horiz-adv-x="270" 
d="M166 741q12 -12 12 -30t-12 -30t-32 -12q-19 0 -31 12t-12 30t12 30t31 12q20 0 32 -12zM164 19q0 -68 -15 -108.5t-44 -65t-82 -48.5l-17 42q38 19 58.5 37.5t31 51t10.5 89.5v506h58v-504z" />
    <glyph glyph-name="k" unicode="k" horiz-adv-x="488" 
d="M164 0h-58v736l58 7v-743zM237 289l243 -289h-70l-240 286l220 237h67z" />
    <glyph glyph-name="l" unicode="l" horiz-adv-x="284" 
d="M125.5 14q-24.5 25 -24.5 74v648l58 7v-653q0 -51 42 -51q21 0 36 7l16 -43q-28 -14 -60 -14q-43 0 -67.5 25z" />
    <glyph glyph-name="m" unicode="m" horiz-adv-x="853" 
d="M715.5 491q36.5 -43 36.5 -117v-374h-58v366q0 62 -23.5 91.5t-65.5 29.5q-44 0 -79 -28t-68 -80v-379h-58v366q0 62 -23.5 91.5t-65.5 29.5q-45 0 -80 -28t-67 -80v-379h-58v523h50l5 -89q30 47 71 73.5t90 26.5q50 0 84 -27.5t46 -76.5q31 49 72.5 76.5t91.5 27.5
q63 0 99.5 -43z" />
    <glyph glyph-name="n" unicode="n" horiz-adv-x="584" 
d="M445.5 492q37.5 -42 37.5 -118v-374h-58v366q0 63 -25 92t-74 29q-50 0 -88.5 -27.5t-73.5 -80.5v-379h-58v523h50l6 -89q32 47 76 73.5t99 26.5q71 0 108.5 -42z" />
    <glyph glyph-name="o" unicode="o" horiz-adv-x="571" 
d="M448.5 462.5q58.5 -71.5 58.5 -199.5q0 -127 -59.5 -200.5t-162.5 -73.5q-104 0 -162.5 72.5t-58.5 199.5q0 83 27 145t77 95t118 33q104 0 162.5 -71.5zM168 428q-42 -57 -42 -167q0 -109 41.5 -166t117.5 -57t118.5 57t42.5 168q0 109 -41.5 165.5t-118.5 56.5
q-76 0 -118 -57z" />
    <glyph glyph-name="p" unicode="p" horiz-adv-x="581" 
d="M464.5 463.5q47.5 -70.5 47.5 -199.5q0 -126 -51.5 -200.5t-147.5 -74.5q-47 0 -85 19.5t-64 52.5v-258l-58 -8v728h50l5 -76q29 41 70.5 64t90.5 23q95 0 142.5 -70.5zM412 95q38 57 38 169q0 222 -139 222q-47 0 -81.5 -24t-65.5 -66v-278q52 -80 138 -80q72 0 110 57z
" />
    <glyph glyph-name="q" unicode="q" horiz-adv-x="585" 
d="M479 523v-728l-58 8v273q-25 -40 -64 -63.5t-92 -23.5q-91 0 -143.5 72.5t-52.5 197.5q0 81 25 143t71.5 97t109.5 35q90 0 150 -74l4 63h50zM359 61q34 24 62 72v275q-55 78 -136 78q-71 0 -113 -59t-41 -167q0 -108 38 -165.5t106 -57.5q50 0 84 24z" />
    <glyph glyph-name="r" unicode="r" horiz-adv-x="373" 
d="M361 528l-11 -55q-22 6 -46 6q-53 0 -85.5 -38.5t-54.5 -120.5v-320h-58v523h50l5 -117q21 65 57.5 96.5t90.5 31.5q31 0 52 -6z" />
    <glyph glyph-name="s" unicode="s" horiz-adv-x="464" 
d="M323 519.5q40 -14.5 78 -43.5l-27 -38q-36 25 -68 36.5t-70 11.5q-52 0 -84 -24t-32 -64q0 -38 27.5 -59t99.5 -40q89 -23 128.5 -58t39.5 -100q0 -70 -54 -111t-135 -41q-60 0 -105 17.5t-82 49.5l32 37q35 -28 71.5 -41.5t82.5 -13.5q58 0 93.5 26.5t35.5 73.5
q0 32 -12 52t-41 34.5t-85 29.5q-83 22 -119.5 55t-36.5 88q0 39 23 70.5t62.5 49t88.5 17.5t89 -14.5z" />
    <glyph glyph-name="t" unicode="t" horiz-adv-x="341" 
d="M344 22q-50 -33 -110 -33t-94 35.5t-34 102.5v349h-88v47h88v125l58 7v-132h135l-7 -47h-128v-346q0 -46 19 -68.5t58 -22.5q40 0 80 23z" />
    <glyph glyph-name="u" unicode="u" horiz-adv-x="579" 
d="M473 0h-50l-3 93q-62 -104 -171 -104q-71 0 -109.5 41.5t-38.5 118.5v374h58v-368q0 -61 25.5 -89.5t77.5 -28.5q91 0 153 107v379h58v-523z" />
    <glyph glyph-name="v" unicode="v" horiz-adv-x="470" 
d="M274 0h-72l-187 523h64l159 -472l155 472h62z" />
    <glyph glyph-name="w" unicode="w" horiz-adv-x="698" 
d="M545 0h-78l-116 469l-118 -469h-77l-131 523h60l112 -478l122 478h66l120 -479l111 479h57z" />
    <glyph glyph-name="x" unicode="x" horiz-adv-x="459" 
d="M448 0h-70l-151 243l-150 -243h-67l184 278l-160 245h68l128 -209l129 209h66l-161 -243z" />
    <glyph glyph-name="y" unicode="y" horiz-adv-x="468" 
d="M273 -2q-21 -61 -46 -100t-65 -64.5t-103 -37.5l-6 45q52 13 81.5 32t47 47.5t35.5 79.5h-20l-182 523h63l158 -480l155 480h61z" />
    <glyph glyph-name="z" unicode="z" horiz-adv-x="422" 
d="M388 478l-292 -428h290l-6 -50h-352v45l292 428h-268v50h336v-45z" />
    <glyph glyph-name="braceleft" unicode="{" horiz-adv-x="326" 
d="M262 783q-47 0 -67 -18.5t-20 -59.5v-254q0 -49 -18 -70t-58 -32q41 -11 58.5 -31.5t17.5 -70.5v-253q0 -41 20 -59.5t67 -18.5v-45q-74 0 -108 29.5t-34 95.5v255q0 39 -18.5 56t-57.5 17v50q39 0 57.5 17t18.5 57v255q0 66 34 95.5t108 29.5v-45z" />
    <glyph glyph-name="bar" unicode="|" horiz-adv-x="407" 
d="M230 -100h-54v904h54v-904z" />
    <glyph glyph-name="braceright" unicode="}" horiz-adv-x="326" 
d="M171.5 798.5q34.5 -29.5 34.5 -95.5v-255q0 -40 18.5 -57t57.5 -17v-50q-39 0 -57.5 -17t-18.5 -56v-255q0 -66 -34.5 -95.5t-107.5 -29.5v45q47 0 67 18.5t20 59.5v253q0 50 17.5 70.5t58.5 31.5q-40 11 -58 32t-18 70v254q0 41 -20 59.5t-67 18.5v45q73 0 107.5 -29.5z
" />
    <glyph glyph-name="asciitilde" unicode="~" horiz-adv-x="472" 
d="M268.5 272.5q-20.5 8.5 -47.5 24.5q-22 13 -35.5 19t-27.5 6q-22 0 -38 -12t-32 -35l-37 20q22 36 47.5 56t63.5 20q23 0 43.5 -8.5t46.5 -24.5q24 -13 37 -19t27 -6q22 0 37 11t31 33l36 -20q-21 -34 -45.5 -53.5t-62.5 -19.5q-23 0 -43.5 8.5z" />
    <glyph glyph-name="exclamdown" unicode="&#xa1;" horiz-adv-x="240" 
d="M154.5 461q13.5 -14 13.5 -34t-13.5 -33.5t-34.5 -13.5t-34.5 13.5t-13.5 33.5t13.5 34t34.5 14t34.5 -14zM152 -197h-62l5 446h52z" />
    <glyph glyph-name="cent" unicode="&#xa2;" horiz-adv-x="469" 
d="M311 -10v-140h-51v140q-90 9 -143 79.5t-53 188.5t53.5 192t143.5 83v147h50v-147q69 -6 122 -52l-29 -38q-26 21 -53.5 31t-62.5 10q-74 0 -118 -57.5t-44 -167.5q0 -109 43.5 -164t117.5 -55q35 0 63.5 11t57.5 33l28 -39q-56 -48 -125 -55z" />
    <glyph glyph-name="sterling" unicode="&#xa3;" horiz-adv-x="509" 
d="M177 96q-15 -26 -52 -45h328l-7 -51h-395v48q48 21 65.5 46t17.5 76v161h-65v43h65v126q0 77 45 126.5t127 49.5q51 0 90 -18t72 -57l-39 -31q-26 30 -54 43.5t-67 13.5q-56 0 -86 -34.5t-30 -93.5v-125h214v-43h-214v-160q0 -49 -15 -75z" />
    <glyph glyph-name="currency" unicode="&#xa4;" horiz-adv-x="560" 
d="M432 215l79 -77l-36 -36l-79 79q-49 -35 -116 -35t-115 37l-81 -81l-35 36l81 79q-40 52 -40 124q0 71 39 122l-80 80l36 36l80 -80q49 36 115 36q67 0 116 -35l80 79l35 -36l-78 -78q40 -52 40 -124q0 -74 -41 -126zM382 233q35 40 35 108t-35 108t-101 40
q-65 0 -100 -40t-35 -108t35 -108t100 -40q66 0 101 40z" />
    <glyph glyph-name="yen" unicode="&#xa5;" horiz-adv-x="512" 
d="M304 338h118v-43h-136v-103h136v-43h-136v-149h-59v149h-136v43h136v103h-136v43h117l-195 327h66l179 -312l178 312h63z" />
    <glyph glyph-name="brokenbar" unicode="&#xa6;" horiz-adv-x="407" 
d="M230 443h-54v361h54v-361zM230 -100h-54v362h54v-362z" />
    <glyph glyph-name="section" unicode="&#xa7;" horiz-adv-x="532" 
d="M413 125.5q13 -23.5 13 -57.5q0 -62 -49 -99t-126 -37q-89 0 -163 47l25 41q31 -20 64.5 -30t75.5 -10q52 0 83 23t31 60q0 27 -9.5 43.5t-35.5 31t-79 32.5q-60 20 -93.5 38.5t-49.5 44t-16 64.5q0 36 20.5 68t58.5 56q-29 19 -41.5 42t-12.5 57q0 61 47 98t120 37
q49 0 85.5 -12.5t72.5 -36.5l-24 -39q-33 21 -64 30.5t-70 9.5q-50 0 -79.5 -23.5t-29.5 -60.5q0 -26 10.5 -43t38 -32t81.5 -33q82 -28 117 -60t35 -86q0 -71 -77 -122q28 -18 41 -41.5zM151 277.5q10 -17.5 35 -31.5t74 -31q51 -18 75 -29q30 22 43.5 45.5t13.5 50.5
t-9 44.5t-34.5 33t-74.5 32.5q-43 15 -75 30q-58 -45 -58 -99q0 -28 10 -45.5z" />
    <glyph glyph-name="dieresis" unicode="&#xa8;" horiz-adv-x="329" 
d="M98.5 730.5q11.5 -11.5 11.5 -28.5t-11.5 -28t-28.5 -11t-28.5 11t-11.5 28t11.5 28.5t28.5 11.5t28.5 -11.5zM287.5 730.5q11.5 -11.5 11.5 -28.5t-11.5 -28t-28.5 -11t-28.5 11t-11.5 28t11.5 28.5t28.5 11.5t28.5 -11.5z" />
    <glyph glyph-name="copyright" unicode="&#xa9;" horiz-adv-x="810" 
d="M556 697.5q68 -38.5 107 -107t39 -155.5q0 -86 -39 -155t-107 -107.5t-151 -38.5t-151 38.5t-107 107t-39 155.5q0 86 39 155t107 107.5t151 38.5t151 -38.5zM276 664q-58 -33 -90.5 -93t-32.5 -136q0 -77 32.5 -136.5t90 -92.5t130.5 -33q72 0 129 33t89.5 93t32.5 136
q0 77 -32.5 136.5t-89.5 92.5t-129 33t-130 -33zM462 607.5q24 -8.5 47 -26.5l-24 -33q-18 13 -36 19t-41 6q-41 0 -69.5 -32.5t-28.5 -104.5q0 -69 27 -103.5t72 -34.5q25 0 44.5 7.5t39.5 21.5l22 -33q-48 -40 -108 -40q-67 0 -107.5 48t-40.5 134q0 59 20.5 99.5t54 60.5
t72.5 20q32 0 56 -8.5z" />
    <glyph glyph-name="ordfeminine" unicode="&#xaa;" horiz-adv-x="500" 
d="M331 521v34q0 45 -21.5 64.5t-71.5 19.5q-49 0 -113 -22l-15 42q72 26 134 26q74 0 109 -31.5t35 -94.5v-184q0 -30 8 -42.5t25 -19.5l-12 -39q-30 5 -46.5 20t-22.5 43q-45 -63 -130 -63q-61 0 -96 32t-35 86q0 62 47 95.5t129 33.5h76zM331 385v96h-68q-124 0 -124 -86
q0 -37 21.5 -56.5t60.5 -19.5q72 0 110 66zM435 51v-51h-355v51h355z" />
    <glyph glyph-name="guillemotleft" unicode="&#xab;" horiz-adv-x="555" 
d="M271 495l-137 -207l137 -208l-36 -24l-164 212v39l164 213zM484 495l-137 -207l137 -208l-36 -24l-163 212v39l163 213z" />
    <glyph glyph-name="logicalnot" unicode="&#xac;" horiz-adv-x="499" 
d="M430 168h-55v128h-306v51h361v-179z" />
    <glyph glyph-name="registered" unicode="&#xae;" horiz-adv-x="639" 
d="M441 705.5q55 -31.5 87 -86.5t32 -122q0 -66 -32 -121t-87 -87t-122 -32q-66 0 -121 31.5t-86.5 86t-31.5 120.5t32 121.5t86.5 88t120.5 32.5q67 0 122 -31.5zM421 320q46 27 72.5 73.5t26.5 103.5q0 58 -26 104.5t-72 72.5t-103 26q-55 0 -100.5 -27t-72 -74
t-26.5 -104t26.5 -103.5t72 -72.5t100.5 -26q56 0 102 27zM355 482l74 -118h-50l-64 111h-37v-111h-42v272h69q114 0 114 -81q0 -56 -64 -73zM278 510h39q59 0 59 45q0 25 -16 35.5t-49 10.5h-33v-91z" />
    <glyph glyph-name="macron" unicode="&#xaf;" horiz-adv-x="301" 
d="M30 676v47h241v-47h-241z" />
    <glyph glyph-name="degree" unicode="&#xb0;" horiz-adv-x="521" 
d="M145.5 413q-34.5 18 -55.5 52.5t-21 80.5q0 45 21 79t55.5 52.5t73.5 18.5q41 0 75.5 -18t55 -52.5t20.5 -80.5q0 -45 -20.5 -79t-55 -52.5t-75.5 -18.5q-39 0 -73.5 18zM290.5 467.5q27.5 28.5 27.5 77.5q0 50 -27.5 78.5t-71.5 28.5q-42 0 -70.5 -28.5t-28.5 -77.5
t28.5 -78t70.5 -29q44 0 71.5 28.5z" />
    <glyph glyph-name="plusminus" unicode="&#xb1;" horiz-adv-x="493" 
d="M274 366h150v-50h-150v-152h-54v152h-150v50h150v152h54v-152zM69 51h355v-51h-355v51z" />
    <glyph glyph-name="uni00B2" unicode="&#xb2;" horiz-adv-x="400" 
d="M288 710.5q34 -31.5 34 -80.5q0 -39 -17 -72.5t-54 -74.5t-116 -117h199l-7 -43h-252v41q86 85 124.5 127.5t54 72t15.5 62.5q0 35 -20.5 54t-55.5 19q-29 0 -50.5 -11t-41.5 -34l-35 26q27 32 59 47t72 15q57 0 91 -31.5z" />
    <glyph glyph-name="uni00B3" unicode="&#xb3;" horiz-adv-x="400" 
d="M290.5 714.5q34.5 -29.5 34.5 -74.5q0 -39 -23.5 -64.5t-62.5 -33.5q43 -2 70 -29t27 -74q0 -54 -39 -89t-105 -35q-78 0 -129 56l31 28q41 -42 95 -42q45 0 69.5 23t24.5 61q0 79 -91 79h-30l7 40h20q35 0 59.5 19t24.5 56q0 32 -21 49.5t-56 17.5q-27 0 -49 -8.5
t-46 -28.5l-27 30q28 25 58 37t67 12q57 0 91.5 -29.5z" />
    <glyph glyph-name="acute" unicode="&#xb4;" horiz-adv-x="274" 
d="M244 730l-195 -85l-19 34l188 103z" />
    <glyph glyph-name="uni00B5" unicode="&#xb5;" horiz-adv-x="585" 
d="M446 -9q-12 30 -17.5 53.5t-8.5 57.5q-62 -113 -158 -113q-41 0 -67 16t-42 47q11 -58 11 -132v-117l-58 -6v726h58v-373q0 -57 27 -83.5t71 -26.5q95 0 152 118v365h58v-346q0 -100 27 -179z" />
    <glyph glyph-name="paragraph" unicode="&#xb6;" horiz-adv-x="708" 
d="M557 685v-882l-54 -9v843h-128v-834l-54 -9v500q-114 4 -167 57.5t-53 138.5q0 93 61 144t171 51h224z" />
    <glyph glyph-name="periodcentered" unicode="&#xb7;" horiz-adv-x="207" 
d="M137.5 352.5q13.5 -13.5 13.5 -33.5q0 -21 -13.5 -34.5t-34.5 -13.5q-20 0 -34 14t-14 34t14 33.5t34 13.5q21 0 34.5 -13.5z" />
    <glyph glyph-name="cedilla" unicode="&#xb8;" horiz-adv-x="245" 
d="M123 -64q47 -4 69.5 -24t22.5 -52q0 -41 -30 -64t-75 -23q-48 0 -80 21l18 36q27 -15 61 -15q24 0 39.5 11t15.5 34q0 22 -21.5 33t-67.5 11l10 112h38v-80z" />
    <glyph glyph-name="uni00B9" unicode="&#xb9;" horiz-adv-x="400" 
d="M258 323h-51v358l-103 -59l-23 36l133 78h44v-413z" />
    <glyph glyph-name="ordmasculine" unicode="&#xba;" horiz-adv-x="500" 
d="M382 631.5q48 -53.5 48 -150.5q0 -96 -48.5 -151.5t-133.5 -55.5q-84 0 -132 54.5t-48 150.5q0 95 48.5 150.5t132.5 55.5q85 0 133 -53.5zM160 598.5q-32 -40.5 -32 -119.5q0 -78 31.5 -118.5t89.5 -40.5t89.5 40.5t31.5 120.5q0 79 -31 118.5t-89 39.5t-90 -40.5z
M71 51h355v-51h-355v51z" />
    <glyph glyph-name="guillemotright" unicode="&#xbb;" horiz-adv-x="546" 
d="M271 307v-39l-164 -212l-36 24l138 208l-138 207l36 25zM474 307v-39l-163 -212l-36 24l137 208l-137 207l36 25z" />
    <glyph glyph-name="onequarter" unicode="&#xbc;" horiz-adv-x="914" 
d="M681 728l-407 -799l-41 20l408 798zM207 271v359l-103 -59l-23 36l133 78h44v-414h-51zM861 103h-56v-103h-50v103h-188v37l130 281l43 -17l-120 -259h135l6 115h44v-115h56v-42z" />
    <glyph glyph-name="onehalf" unicode="&#xbd;" horiz-adv-x="914" 
d="M681 728l-407 -799l-41 20l408 798zM258 271h-51v359l-103 -59l-23 36l133 78h44v-414zM802.5 388q33.5 -32 33.5 -81q0 -38 -16.5 -71.5t-53.5 -74.5t-116 -118h198l-7 -43h-251v41q86 86 124 128t53.5 72t15.5 62q0 35 -20.5 54.5t-54.5 19.5q-29 0 -51.5 -11
t-41.5 -34l-35 26q53 62 131 62q58 0 91.5 -32z" />
    <glyph glyph-name="threequarters" unicode="&#xbe;" horiz-adv-x="914" 
d="M681 728l-407 -799l-41 20l408 798zM297 299q-39 -35 -105 -35q-79 0 -129 56l31 27q41 -41 95 -41q45 0 69.5 22.5t24.5 61.5q0 79 -91 79h-30l7 40h20q35 0 59.5 19t24.5 56q0 31 -21 49t-56 18q-27 0 -49 -8.5t-46 -28.5l-27 30q28 25 58 37t67 12q57 0 91.5 -29.5
t34.5 -74.5q0 -39 -23.5 -64.5t-62.5 -33.5q43 -2 70 -29t27 -74q0 -54 -39 -89zM861 103h-56v-103h-50v103h-188v37l130 281l43 -17l-120 -259h135l6 115h44v-115h56v-42z" />
    <glyph glyph-name="questiondown" unicode="&#xbf;" horiz-adv-x="447" 
d="M215.5 393.5q-13.5 13.5 -13.5 33.5q0 21 13.5 34.5t34.5 13.5q20 0 33.5 -14t13.5 -34t-13.5 -33.5t-33.5 -13.5q-21 0 -34.5 13.5zM121 -186q-39 20 -59.5 52.5t-20.5 69.5t13 63.5t32.5 43.5t50.5 38q43 30 64.5 55t21.5 68v45h57v-49q0 -39 -13.5 -66.5t-33 -45
t-50.5 -38.5q-41 -27 -61 -50.5t-20 -61.5q0 -42 31 -68.5t83 -26.5q44 0 80 18t70 57l41 -32q-42 -47 -88.5 -69.5t-105.5 -22.5q-53 0 -92 20z" />
    <glyph glyph-name="Agrave" unicode="&#xc0;" horiz-adv-x="565" 
d="M369 758l-198 78l26 52l188 -96zM425 187h-288l-60 -187h-61l229 685h75l228 -685h-63zM409 238l-127 398l-128 -398h255z" />
    <glyph glyph-name="Aacute" unicode="&#xc1;" horiz-adv-x="565" 
d="M191 758l-16 34l188 96l26 -52zM425 187h-288l-60 -187h-61l229 685h75l228 -685h-63zM409 238l-127 398l-128 -398h255z" />
    <glyph glyph-name="Acircumflex" unicode="&#xc2;" horiz-adv-x="565" 
d="M161 762l-27 30l130 102h37l129 -102l-26 -30l-122 80zM425 187h-288l-60 -187h-61l229 685h75l228 -685h-63zM409 238l-127 398l-128 -398h255z" />
    <glyph glyph-name="Atilde" unicode="&#xc3;" horiz-adv-x="565" 
d="M194.5 828.5q-12.5 -9.5 -26.5 -30.5l-36 18q37 68 92 68q17 0 31 -6t34 -18q16 -10 28 -15.5t24 -5.5q16 0 28.5 10t27.5 33l36 -18q-35 -72 -92 -72q-18 0 -33 6.5t-37 19.5q-16 10 -26.5 15t-20.5 5q-17 0 -29.5 -9.5zM425 187h-288l-60 -187h-61l229 685h75l228 -685
h-63zM409 238l-127 398l-128 -398h255z" />
    <glyph glyph-name="Adieresis" unicode="&#xc4;" horiz-adv-x="565" 
d="M159 800q-11 11 -11 28t11 28.5t28 11.5q18 0 29 -11.5t11 -28.5t-11 -28t-29 -11q-17 0 -28 11zM348.5 800q-11.5 11 -11.5 28t11.5 28.5t28.5 11.5t28.5 -11.5t11.5 -28.5t-11.5 -28t-28.5 -11t-28.5 11zM425 187h-288l-60 -187h-61l229 685h75l228 -685h-63zM409 238
l-127 398l-128 -398h255z" />
    <glyph glyph-name="Aring" unicode="&#xc5;" horiz-adv-x="565" 
d="M211.5 785.5q-27.5 26.5 -27.5 67.5t27.5 67.5t71.5 26.5q43 0 70.5 -26.5t27.5 -67.5t-27.5 -67.5t-70.5 -26.5q-44 0 -71.5 26.5zM241.5 895.5q-14.5 -15.5 -14.5 -42.5q0 -28 14.5 -43t41.5 -15q26 0 40.5 15t14.5 43q0 27 -14.5 42.5t-40.5 15.5q-27 0 -41.5 -15.5z
M425 187h-288l-60 -187h-61l229 685h75l228 -685h-63zM409 238l-127 398l-128 -398h255z" />
    <glyph glyph-name="AE" unicode="&#xc6;" horiz-adv-x="784" 
d="M737 50v-50h-276l-46 184h-285l-70 -184h-60l267 685h423l-7 -50h-325l66 -256h258v-49h-245l72 -280h228zM402 235l-100 402l-153 -402h253z" />
    <glyph glyph-name="Ccedilla" unicode="&#xc7;" horiz-adv-x="550" 
d="M428.5 -88q22.5 -20 22.5 -52q0 -41 -30 -64t-75 -23q-48 0 -80 21l18 36q27 -15 60 -15q24 0 39.5 11t15.5 34q0 22 -21.5 33t-67.5 11l8 86q-74 6 -131 48.5t-89 120t-32 184.5q0 113 37 192.5t99.5 120t140.5 40.5q57 0 96.5 -15.5t79.5 -47.5l-32 -40q-35 28 -67 40
t-73 12q-97 0 -157.5 -74t-60.5 -228q0 -100 28 -168t76.5 -100.5t110.5 -32.5q49 0 83 14.5t69 42.5l31 -39q-69 -66 -168 -71v-53q47 -4 69.5 -24z" />
    <glyph glyph-name="Egrave" unicode="&#xc8;" horiz-adv-x="512" 
d="M391 792l-16 -34l-198 78l26 52zM452 635h-281v-255h243v-50h-243v-280h295v-50h-355v685h348z" />
    <glyph glyph-name="Eacute" unicode="&#xc9;" horiz-adv-x="512" 
d="M396 836l-199 -78l-15 34l187 96zM452 635h-281v-255h243v-50h-243v-280h295v-50h-355v685h348z" />
    <glyph glyph-name="Ecircumflex" unicode="&#xca;" horiz-adv-x="512" 
d="M141 792l130 102h36l129 -102l-26 -30l-122 80l-121 -80zM452 635h-281v-255h243v-50h-243v-280h295v-50h-355v685h348z" />
    <glyph glyph-name="Edieresis" unicode="&#xcb;" horiz-adv-x="512" 
d="M222.5 856.5q11.5 -11.5 11.5 -28.5t-11.5 -28t-28.5 -11t-28.5 11t-11.5 28t11.5 28.5t28.5 11.5t28.5 -11.5zM411.5 856.5q11.5 -11.5 11.5 -28.5t-11.5 -28t-28.5 -11t-28.5 11t-11.5 28t11.5 28.5t28.5 11.5t28.5 -11.5zM452 635h-281v-255h243v-50h-243v-280h295
v-50h-355v685h348z" />
    <glyph glyph-name="Igrave" unicode="&#xcc;" horiz-adv-x="282" 
d="M243 792l-16 -34l-198 78l26 52zM171 0h-60v685h60v-685z" />
    <glyph glyph-name="Iacute" unicode="&#xcd;" horiz-adv-x="282" 
d="M247 836l-198 -78l-16 34l188 96zM171 0h-60v685h60v-685z" />
    <glyph glyph-name="Icircumflex" unicode="&#xce;" horiz-adv-x="282" 
d="M-8 792l130 102h36l129 -102l-26 -30l-121 80l-122 -80zM171 0h-60v685h60v-685z" />
    <glyph glyph-name="Idieresis" unicode="&#xcf;" horiz-adv-x="282" 
d="M74 856.5q11 -11.5 11 -28.5t-11 -28t-29 -11q-17 0 -28.5 11t-11.5 28t11.5 28.5t28.5 11.5q18 0 29 -11.5zM263 856.5q11 -11.5 11 -28.5t-11 -28t-28 -11q-18 0 -29 11t-11 28t11 28.5t29 11.5q17 0 28 -11.5zM171 0h-60v685h60v-685z" />
    <glyph glyph-name="Eth" unicode="&#xd0;" horiz-adv-x="637" 
d="M482.5 613q88.5 -72 88.5 -265t-89.5 -270.5t-218.5 -77.5h-147v328h-93v48h93v309h136q142 0 230.5 -72zM508 348q0 118 -35 181t-89 84.5t-125 21.5h-83v-259h175v-48h-175v-278h90q242 0 242 298z" />
    <glyph glyph-name="Ntilde" unicode="&#xd1;" horiz-adv-x="673" 
d="M371 798.5q-15 6.5 -37 19.5q-16 10 -26.5 15t-20.5 5q-17 0 -29.5 -9.5t-27.5 -30.5l-35 18q37 68 92 68q16 0 30.5 -6t32.5 -18q17 -11 29 -16t25 -5q15 0 27.5 10t28.5 33l35 -18q-33 -72 -91 -72q-18 0 -33 6.5zM562 0h-79l-323 619q8 -125 8 -236v-383h-57v685h77
l325 -619q-8 116 -8 203v416h57v-685z" />
    <glyph glyph-name="Ograve" unicode="&#xd2;" horiz-adv-x="691" 
d="M448 792l-16 -34l-198 78l26 52zM492 655.5q63 -40.5 98 -120.5t35 -193q0 -111 -34.5 -190.5t-97.5 -121t-148 -41.5q-83 0 -146 41t-98 120t-35 191q0 111 35 191t98.5 122t145.5 42q84 0 147 -40.5zM187 568.5q-58 -76.5 -58 -227.5q0 -149 58.5 -225t157.5 -76
q103 0 160 75.5t57 226.5q0 152 -57.5 227.5t-159.5 75.5q-100 0 -158 -76.5z" />
    <glyph glyph-name="Oacute" unicode="&#xd3;" horiz-adv-x="691" 
d="M452 836l-198 -78l-16 34l188 96zM492 655.5q63 -40.5 98 -120.5t35 -193q0 -111 -34.5 -190.5t-97.5 -121t-148 -41.5q-83 0 -146 41t-98 120t-35 191q0 111 35 191t98.5 122t145.5 42q84 0 147 -40.5zM187 568.5q-58 -76.5 -58 -227.5q0 -149 58.5 -225t157.5 -76
q103 0 160 75.5t57 226.5q0 152 -57.5 227.5t-159.5 75.5q-100 0 -158 -76.5z" />
    <glyph glyph-name="Ocircumflex" unicode="&#xd4;" horiz-adv-x="691" 
d="M197 792l130 102h36l129 -102l-25 -30l-122 80l-122 -80zM492 655.5q63 -40.5 98 -120.5t35 -193q0 -111 -34.5 -190.5t-97.5 -121t-148 -41.5q-83 0 -146 41t-98 120t-35 191q0 111 35 191t98.5 122t145.5 42q84 0 147 -40.5zM187 568.5q-58 -76.5 -58 -227.5
q0 -149 58.5 -225t157.5 -76q103 0 160 75.5t57 226.5q0 152 -57.5 227.5t-159.5 75.5q-100 0 -158 -76.5z" />
    <glyph glyph-name="Otilde" unicode="&#xd5;" horiz-adv-x="691" 
d="M371 798.5q-15 6.5 -37 19.5q-16 10 -26.5 15t-20.5 5q-17 0 -29.5 -9.5t-26.5 -30.5l-36 18q37 68 92 68q17 0 31.5 -6t32.5 -18q18 -11 29 -16t24 -5q16 0 28.5 10t27.5 33l35 -18q-33 -72 -91 -72q-18 0 -33 6.5zM492 655.5q63 -40.5 98 -120.5t35 -193
q0 -111 -34.5 -190.5t-97.5 -121t-148 -41.5q-83 0 -146 41t-98 120t-35 191q0 111 35 191t98.5 122t145.5 42q84 0 147 -40.5zM187 568.5q-58 -76.5 -58 -227.5q0 -149 58.5 -225t157.5 -76q103 0 160 75.5t57 226.5q0 152 -57.5 227.5t-159.5 75.5q-100 0 -158 -76.5z" />
    <glyph glyph-name="Odieresis" unicode="&#xd6;" horiz-adv-x="691" 
d="M279 856.5q11 -11.5 11 -28.5t-11 -28t-29 -11q-17 0 -28.5 11t-11.5 28t11.5 28.5t28.5 11.5q18 0 29 -11.5zM468 856.5q11 -11.5 11 -28.5t-11 -28t-28 -11q-18 0 -29 11t-11 28t11 28.5t29 11.5q17 0 28 -11.5zM492 655.5q63 -40.5 98 -120.5t35 -193
q0 -111 -34.5 -190.5t-97.5 -121t-148 -41.5q-83 0 -146 41t-98 120t-35 191q0 111 35 191t98.5 122t145.5 42q84 0 147 -40.5zM187 568.5q-58 -76.5 -58 -227.5q0 -149 58.5 -225t157.5 -76q103 0 160 75.5t57 226.5q0 152 -57.5 227.5t-159.5 75.5q-100 0 -158 -76.5z" />
    <glyph glyph-name="multiply" unicode="&#xd7;" horiz-adv-x="493" 
d="M409 434l-125 -126l125 -128l-38 -36l-123 128l-126 -128l-37 36l123 126l-123 128l37 37l123 -129l126 129z" />
    <glyph glyph-name="Oslash" unicode="&#xd8;" horiz-adv-x="691" 
d="M584 548.5q41 -83.5 41 -206.5q0 -111 -34.5 -190.5t-97.5 -121t-148 -41.5q-42 0 -78 10l-32 -119l-53 15l39 122q-74 38 -114.5 120.5t-40.5 203.5q0 111 35 191t98.5 122t145.5 42q40 0 76 -9l35 123l53 -14l-40 -127q74 -37 115 -120.5zM158 166.5
q29 -68.5 83 -100.5l169 570q-30 9 -65 9q-100 0 -158 -76.5t-58 -227.5q0 -106 29 -174.5zM505 115.5q57 75.5 57 226.5q0 216 -114 279l-169 -572q30 -9 66 -9q103 0 160 75.5z" />
    <glyph glyph-name="Ugrave" unicode="&#xd9;" horiz-adv-x="652" 
d="M428 792l-15 -34l-199 78l27 52zM551 214q0 -102 -58 -163.5t-167 -61.5q-110 0 -167.5 61t-57.5 164v471h60v-466q0 -86 40.5 -132t124.5 -46t124 46.5t40 131.5v466h61v-471z" />
    <glyph glyph-name="Uacute" unicode="&#xda;" horiz-adv-x="652" 
d="M433 836l-199 -78l-15 34l188 96zM551 214q0 -102 -58 -163.5t-167 -61.5q-110 0 -167.5 61t-57.5 164v471h60v-466q0 -86 40.5 -132t124.5 -46t124 46.5t40 131.5v466h61v-471z" />
    <glyph glyph-name="Ucircumflex" unicode="&#xdb;" horiz-adv-x="652" 
d="M178 792l130 102h36l129 -102l-26 -30l-121 80l-122 -80zM551 214q0 -102 -58 -163.5t-167 -61.5q-110 0 -167.5 61t-57.5 164v471h60v-466q0 -86 40.5 -132t124.5 -46t124 46.5t40 131.5v466h61v-471z" />
    <glyph glyph-name="Udieresis" unicode="&#xdc;" horiz-adv-x="652" 
d="M259.5 856.5q11.5 -11.5 11.5 -28.5t-11.5 -28t-28.5 -11t-28.5 11t-11.5 28t11.5 28.5t28.5 11.5t28.5 -11.5zM448.5 856.5q11.5 -11.5 11.5 -28.5t-11.5 -28t-28.5 -11t-28.5 11t-11.5 28t11.5 28.5t28.5 11.5t28.5 -11.5zM551 214q0 -102 -58 -163.5t-167 -61.5
q-110 0 -167.5 61t-57.5 164v471h60v-466q0 -86 40.5 -132t124.5 -46t124 46.5t40 131.5v466h61v-471z" />
    <glyph glyph-name="Yacute" unicode="&#xdd;" horiz-adv-x="523" 
d="M368 836l-198 -78l-16 34l188 96zM292 268v-268h-60v267l-219 418h67l184 -364l181 364h64z" />
    <glyph glyph-name="Thorn" unicode="&#xde;" horiz-adv-x="570" 
d="M460 512q65 -51 65 -156q0 -114 -68.5 -167t-187.5 -53h-98v-136h-60v685h60v-122h101q123 0 188 -51zM412 223.5q50 37.5 50 131.5q0 85 -48 121.5t-143 36.5h-100v-327h98q93 0 143 37.5z" />
    <glyph glyph-name="germandbls" unicode="&#xdf;" horiz-adv-x="582" 
d="M412.5 705q45.5 -38 45.5 -96q0 -40 -18 -65t-51 -52q-25 -21 -36.5 -35t-11.5 -33q0 -23 17 -40.5t54 -42.5q38 -26 62.5 -47.5t42 -56t17.5 -82.5q0 -74 -46 -120t-117 -46q-54 0 -96 23l18 41q32 -15 74 -15q49 0 78 31t29 87q0 37 -14.5 64.5t-34.5 45.5t-54 42
q-43 29 -64 53t-21 60q0 29 14 47.5t42 40.5q30 25 44.5 44.5t14.5 52.5q0 42 -30 66t-78 24q-59 0 -94 -39.5t-35 -118.5v-538h-58v540q0 97 51 150t137 53q73 0 118.5 -38z" />
    <glyph glyph-name="agrave" unicode="&#xe0;" 
d="M351 645l-196 85l27 52l188 -103zM441.5 57q10.5 -18 33.5 -27l-13 -41q-36 7 -55.5 27t-25.5 61q-54 -88 -163 -88q-75 0 -118.5 42.5t-43.5 113.5q0 81 57.5 125t159.5 44h100v51q0 63 -28 91.5t-93 28.5q-60 0 -142 -30l-15 44q88 35 165 35q171 0 171 -166v-252
q0 -41 10.5 -59zM373 128v144h-91q-80 0 -122 -31t-42 -93q0 -54 29 -83t81 -29q94 0 145 92z" />
    <glyph glyph-name="aacute" unicode="&#xe1;" 
d="M164 645l-19 34l188 103l27 -52zM441.5 57q10.5 -18 33.5 -27l-13 -41q-36 7 -55.5 27t-25.5 61q-54 -88 -163 -88q-75 0 -118.5 42.5t-43.5 113.5q0 81 57.5 125t159.5 44h100v51q0 63 -28 91.5t-93 28.5q-60 0 -142 -30l-15 44q88 35 165 35q171 0 171 -166v-252
q0 -41 10.5 -59zM373 128v144h-91q-80 0 -122 -31t-42 -93q0 -54 29 -83t81 -29q94 0 145 92z" />
    <glyph glyph-name="acircumflex" unicode="&#xe2;" 
d="M136 643l-26 31l129 105h37l130 -105l-27 -31l-121 85zM441.5 57q10.5 -18 33.5 -27l-13 -41q-36 7 -55.5 27t-25.5 61q-54 -88 -163 -88q-75 0 -118.5 42.5t-43.5 113.5q0 81 57.5 125t159.5 44h100v51q0 63 -28 91.5t-93 28.5q-60 0 -142 -30l-15 44q88 35 165 35
q171 0 171 -166v-252q0 -41 10.5 -59zM373 128v144h-91q-80 0 -122 -31t-42 -93q0 -54 29 -83t81 -29q94 0 145 92z" />
    <glyph glyph-name="atilde" unicode="&#xe3;" 
d="M170.5 702.5q-12.5 -9.5 -27.5 -30.5l-35 18q37 68 92 68q16 0 30.5 -6t32.5 -18q17 -11 29 -16t25 -5q15 0 27.5 10t28.5 33l35 -18q-35 -72 -91 -72q-18 0 -33 6.5t-37 19.5q-16 10 -26.5 15t-20.5 5q-17 0 -29.5 -9.5zM441.5 57q10.5 -18 33.5 -27l-13 -41
q-36 7 -55.5 27t-25.5 61q-54 -88 -163 -88q-75 0 -118.5 42.5t-43.5 113.5q0 81 57.5 125t159.5 44h100v51q0 63 -28 91.5t-93 28.5q-60 0 -142 -30l-15 44q88 35 165 35q171 0 171 -166v-252q0 -41 10.5 -59zM373 128v144h-91q-80 0 -122 -31t-42 -93q0 -54 29 -83t81 -29
q94 0 145 92z" />
    <glyph glyph-name="adieresis" unicode="&#xe4;" 
d="M134.5 674q-11.5 11 -11.5 28t11.5 28.5t28.5 11.5t28.5 -11.5t11.5 -28.5t-11.5 -28t-28.5 -11t-28.5 11zM323.5 674q-11.5 11 -11.5 28t11.5 28.5t28.5 11.5q18 0 29 -11.5t11 -28.5t-11 -28t-29 -11q-17 0 -28.5 11zM441.5 57q10.5 -18 33.5 -27l-13 -41
q-36 7 -55.5 27t-25.5 61q-54 -88 -163 -88q-75 0 -118.5 42.5t-43.5 113.5q0 81 57.5 125t159.5 44h100v51q0 63 -28 91.5t-93 28.5q-60 0 -142 -30l-15 44q88 35 165 35q171 0 171 -166v-252q0 -41 10.5 -59zM373 128v144h-91q-80 0 -122 -31t-42 -93q0 -54 29 -83t81 -29
q94 0 145 92z" />
    <glyph glyph-name="aring" unicode="&#xe5;" 
d="M187.5 659.5q-27.5 26.5 -27.5 67.5t27.5 67.5t70.5 26.5t71 -26.5t28 -67.5t-28 -67.5t-71 -26.5t-70.5 26.5zM217.5 769.5q-14.5 -15.5 -14.5 -42.5q0 -28 14.5 -43t40.5 -15t40.5 15t14.5 43q0 27 -14.5 42.5t-40.5 15.5t-40.5 -15.5zM441.5 57q10.5 -18 33.5 -27
l-13 -41q-36 7 -55.5 27t-25.5 61q-54 -88 -163 -88q-75 0 -118.5 42.5t-43.5 113.5q0 81 57.5 125t159.5 44h100v51q0 63 -28 91.5t-93 28.5q-60 0 -142 -30l-15 44q88 35 165 35q171 0 171 -166v-252q0 -41 10.5 -59zM373 128v144h-91q-80 0 -122 -31t-42 -93
q0 -54 29 -83t81 -29q94 0 145 92z" />
    <glyph glyph-name="ae" unicode="&#xe6;" horiz-adv-x="847" 
d="M786 239h-349q4 -102 47.5 -151.5t114.5 -49.5q41 0 73 12.5t68 39.5l28 -37q-39 -32 -80.5 -48t-91.5 -16q-63 0 -110.5 27.5t-75.5 79.5q-40 -57 -85.5 -82t-104.5 -25q-76 0 -120 43t-44 113q0 81 58.5 125.5t160.5 44.5h100v50q0 63 -28.5 91.5t-92.5 28.5
q-60 0 -142 -30l-16 44q88 35 165 35q66 0 105 -25.5t55 -75.5q54 101 167 101q97 0 148.5 -67.5t51.5 -185.5q0 -22 -2 -42zM730 299q0 88 -36 137.5t-107 49.5q-65 0 -105.5 -50t-44.5 -152h293v15zM316.5 60.5q37.5 24.5 74.5 80.5q-16 54 -16 115v16h-92
q-79 0 -121.5 -31.5t-42.5 -92.5q0 -54 29 -83t81 -29q50 0 87.5 24.5z" />
    <glyph glyph-name="ccedilla" unicode="&#xe7;" horiz-adv-x="469" 
d="M368 -88q23 -20 23 -52q0 -41 -30.5 -64t-75.5 -23q-47 0 -80 21l19 36q25 -15 60 -15q24 0 39.5 11t15.5 34q0 22 -21.5 33t-67.5 11l8 87q-90 10 -142 80t-52 187q0 83 27.5 145.5t77.5 96.5t116 34q45 0 80 -12.5t68 -40.5l-29 -38q-26 21 -53.5 31t-62.5 10
q-74 0 -118 -57.5t-44 -167.5q0 -109 43.5 -164t117.5 -55q35 0 63.5 11t57.5 33l28 -39q-61 -52 -137 -56v-53q46 -4 69 -24z" />
    <glyph glyph-name="egrave" unicode="&#xe8;" 
d="M369 645l-196 85l27 52l188 -103zM475 239h-349q5 -102 48.5 -151.5t114.5 -49.5q41 0 72.5 12.5t68.5 39.5l27 -37q-39 -32 -80 -48t-91 -16q-104 0 -163 71t-59 197q0 83 25.5 145.5t73 97t110.5 34.5q100 0 152 -67.5t52 -185.5q0 -22 -2 -42zM420 299
q0 88 -36.5 137.5t-108.5 49.5q-65 0 -105 -50t-44 -152h294v15z" />
    <glyph glyph-name="eacute" unicode="&#xe9;" 
d="M182 645l-19 34l188 103l27 -52zM475 239h-349q5 -102 48.5 -151.5t114.5 -49.5q41 0 72.5 12.5t68.5 39.5l27 -37q-39 -32 -80 -48t-91 -16q-104 0 -163 71t-59 197q0 83 25.5 145.5t73 97t110.5 34.5q100 0 152 -67.5t52 -185.5q0 -22 -2 -42zM420 299
q0 88 -36.5 137.5t-108.5 49.5q-65 0 -105 -50t-44 -152h294v15z" />
    <glyph glyph-name="ecircumflex" unicode="&#xea;" 
d="M154 643l-26 31l129 105h37l130 -105l-27 -31l-121 85zM475 239h-349q5 -102 48.5 -151.5t114.5 -49.5q41 0 72.5 12.5t68.5 39.5l27 -37q-39 -32 -80 -48t-91 -16q-104 0 -163 71t-59 197q0 83 25.5 145.5t73 97t110.5 34.5q100 0 152 -67.5t52 -185.5q0 -22 -2 -42z
M420 299q0 88 -36.5 137.5t-108.5 49.5q-65 0 -105 -50t-44 -152h294v15z" />
    <glyph glyph-name="edieresis" unicode="&#xeb;" 
d="M152.5 674q-11.5 11 -11.5 28t11.5 28.5t28.5 11.5t28.5 -11.5t11.5 -28.5t-11.5 -28t-28.5 -11t-28.5 11zM341.5 674q-11.5 11 -11.5 28t11.5 28.5t28.5 11.5q18 0 29 -11.5t11 -28.5t-11 -28t-29 -11q-17 0 -28.5 11zM475 239h-349q5 -102 48.5 -151.5t114.5 -49.5
q41 0 72.5 12.5t68.5 39.5l27 -37q-39 -32 -80 -48t-91 -16q-104 0 -163 71t-59 197q0 83 25.5 145.5t73 97t110.5 34.5q100 0 152 -67.5t52 -185.5q0 -22 -2 -42zM420 299q0 88 -36.5 137.5t-108.5 49.5q-65 0 -105 -50t-44 -152h294v15z" />
    <glyph glyph-name="igrave" unicode="&#xec;" horiz-adv-x="270" 
d="M246 679l-18 -34l-196 85l26 52zM164 0h-58v523h58v-523z" />
    <glyph glyph-name="iacute" unicode="&#xed;" horiz-adv-x="270" 
d="M236 730l-195 -85l-19 34l188 103zM164 0h-58v523h58v-523z" />
    <glyph glyph-name="icircumflex" unicode="&#xee;" horiz-adv-x="270" 
d="M-13 674l129 105h36l130 -105l-26 -31l-122 85l-121 -85zM164 0h-58v523h58v-523z" />
    <glyph glyph-name="idieresis" unicode="&#xef;" horiz-adv-x="270" 
d="M68.5 730.5q11.5 -11.5 11.5 -28.5t-11.5 -28t-28.5 -11t-28.5 11t-11.5 28t11.5 28.5t28.5 11.5t28.5 -11.5zM257.5 730.5q11.5 -11.5 11.5 -28.5t-11.5 -28t-28.5 -11t-28.5 11t-11.5 28t11.5 28.5t28.5 11.5t28.5 -11.5zM164 0h-58v523h58v-523z" />
    <glyph glyph-name="eth" unicode="&#xf0;" horiz-adv-x="556" 
d="M448 508.5q39 -91.5 39 -228.5q0 -139 -58 -215t-156 -76q-95 0 -152 65.5t-57 178.5q0 62 22.5 115.5t66.5 86.5t106 33q95 0 162 -80q-11 76 -42.5 134.5t-89.5 105.5l-77 -77l-42 19l80 83q-66 34 -122 45l13 46q77 -15 145 -55l69 73l35 -31l-66 -67
q85 -64 124 -155.5zM387 100q41 63 41 182q0 20 -2 48q-66 91 -159 91q-70 0 -106.5 -52.5t-36.5 -134.5q0 -94 39.5 -145.5t109.5 -51.5q73 0 114 63z" />
    <glyph glyph-name="ntilde" unicode="&#xf1;" horiz-adv-x="584" 
d="M209.5 702.5q-12.5 -9.5 -26.5 -30.5l-36 18q37 68 92 68q17 0 31.5 -6t32.5 -18q18 -11 29 -16t24 -5q16 0 28.5 10t27.5 33l35 -18q-33 -72 -91 -72q-18 0 -33 6.5t-37 19.5q-16 10 -26.5 15t-20.5 5q-17 0 -29.5 -9.5zM445.5 492q37.5 -42 37.5 -118v-374h-58v366
q0 63 -25 92t-74 29q-50 0 -88.5 -27.5t-73.5 -80.5v-379h-58v523h50l6 -89q32 47 76 73.5t99 26.5q71 0 108.5 -42z" />
    <glyph glyph-name="ograve" unicode="&#xf2;" horiz-adv-x="571" 
d="M397 679l-18 -34l-196 85l26 52zM448.5 462.5q58.5 -71.5 58.5 -199.5q0 -127 -59.5 -200.5t-162.5 -73.5q-104 0 -162.5 72.5t-58.5 199.5q0 83 27 145t77 95t118 33q104 0 162.5 -71.5zM168 428q-42 -57 -42 -167q0 -109 41.5 -166t117.5 -57t118.5 57t42.5 168
q0 109 -41.5 165.5t-118.5 56.5q-76 0 -118 -57z" />
    <glyph glyph-name="oacute" unicode="&#xf3;" horiz-adv-x="571" 
d="M387 730l-195 -85l-19 34l188 103zM448.5 462.5q58.5 -71.5 58.5 -199.5q0 -127 -59.5 -200.5t-162.5 -73.5q-104 0 -162.5 72.5t-58.5 199.5q0 83 27 145t77 95t118 33q104 0 162.5 -71.5zM168 428q-42 -57 -42 -167q0 -109 41.5 -166t117.5 -57t118.5 57t42.5 168
q0 109 -41.5 165.5t-118.5 56.5q-76 0 -118 -57z" />
    <glyph glyph-name="ocircumflex" unicode="&#xf4;" horiz-adv-x="571" 
d="M138 674l129 105h36l130 -105l-26 -31l-122 85l-121 -85zM448.5 462.5q58.5 -71.5 58.5 -199.5q0 -127 -59.5 -200.5t-162.5 -73.5q-104 0 -162.5 72.5t-58.5 199.5q0 83 27 145t77 95t118 33q104 0 162.5 -71.5zM168 428q-42 -57 -42 -167q0 -109 41.5 -166t117.5 -57
t118.5 57t42.5 168q0 109 -41.5 165.5t-118.5 56.5q-76 0 -118 -57z" />
    <glyph glyph-name="otilde" unicode="&#xf5;" horiz-adv-x="571" 
d="M312 672.5q-15 6.5 -37 19.5q-16 10 -26.5 15t-21.5 5q-17 0 -29.5 -9.5t-26.5 -30.5l-36 18q37 68 92 68q17 0 31 -6t34 -18q16 -10 28 -15.5t25 -5.5q15 0 27.5 10t27.5 33l36 -18q-35 -72 -91 -72q-18 0 -33 6.5zM448.5 462.5q58.5 -71.5 58.5 -199.5
q0 -127 -59.5 -200.5t-162.5 -73.5q-104 0 -162.5 72.5t-58.5 199.5q0 83 27 145t77 95t118 33q104 0 162.5 -71.5zM168 428q-42 -57 -42 -167q0 -109 41.5 -166t117.5 -57t118.5 57t42.5 168q0 109 -41.5 165.5t-118.5 56.5q-76 0 -118 -57z" />
    <glyph glyph-name="odieresis" unicode="&#xf6;" horiz-adv-x="571" 
d="M219.5 730.5q11.5 -11.5 11.5 -28.5t-11.5 -28t-28.5 -11t-28.5 11t-11.5 28t11.5 28.5t28.5 11.5t28.5 -11.5zM408.5 730.5q11.5 -11.5 11.5 -28.5t-11.5 -28t-28.5 -11t-28.5 11t-11.5 28t11.5 28.5t28.5 11.5t28.5 -11.5zM448.5 462.5q58.5 -71.5 58.5 -199.5
q0 -127 -59.5 -200.5t-162.5 -73.5q-104 0 -162.5 72.5t-58.5 199.5q0 83 27 145t77 95t118 33q104 0 162.5 -71.5zM168 428q-42 -57 -42 -167q0 -109 41.5 -166t117.5 -57t118.5 57t42.5 168q0 109 -41.5 165.5t-118.5 56.5q-76 0 -118 -57z" />
    <glyph glyph-name="oslash" unicode="&#xf8;" horiz-adv-x="571" 
d="M478.5 414.5q28.5 -62.5 28.5 -151.5q0 -127 -59.5 -200.5t-162.5 -73.5q-31 0 -61 8l-41 -122l-49 14l43 126q-54 31 -83.5 94.5t-29.5 151.5q0 83 27 145t77 95t118 33q33 0 63 -8l39 122l49 -14l-41 -127q54 -30 82.5 -92.5zM199 61l138 417q-21 7 -51 7
q-76 0 -118 -57t-42 -167q0 -150 73 -200zM403.5 95q42.5 57 42.5 168q0 149 -72 198l-138 -417q23 -6 49 -6q76 0 118.5 57z" />
    <glyph glyph-name="ugrave" unicode="&#xf9;" horiz-adv-x="579" 
d="M399 679l-19 -34l-196 85l27 52zM473 0h-50l-3 93q-62 -104 -171 -104q-71 0 -109.5 41.5t-38.5 118.5v374h58v-368q0 -61 25.5 -89.5t77.5 -28.5q91 0 153 107v379h58v-523z" />
    <glyph glyph-name="uacute" unicode="&#xfa;" horiz-adv-x="579" 
d="M389 730l-196 -85l-19 34l189 103zM473 0h-50l-3 93q-62 -104 -171 -104q-71 0 -109.5 41.5t-38.5 118.5v374h58v-368q0 -61 25.5 -89.5t77.5 -28.5q91 0 153 107v379h58v-523z" />
    <glyph glyph-name="ucircumflex" unicode="&#xfb;" horiz-adv-x="579" 
d="M139 674l129 105h37l130 -105l-27 -31l-121 85l-122 -85zM473 0h-50l-3 93q-62 -104 -171 -104q-71 0 -109.5 41.5t-38.5 118.5v374h58v-368q0 -61 25.5 -89.5t77.5 -28.5q91 0 153 107v379h58v-523z" />
    <glyph glyph-name="udieresis" unicode="&#xfc;" horiz-adv-x="579" 
d="M220.5 730.5q11.5 -11.5 11.5 -28.5t-11.5 -28t-28.5 -11t-28.5 11t-11.5 28t11.5 28.5t28.5 11.5t28.5 -11.5zM410 730.5q11 -11.5 11 -28.5t-11 -28t-29 -11q-17 0 -28.5 11t-11.5 28t11.5 28.5t28.5 11.5q18 0 29 -11.5zM473 0h-50l-3 93q-62 -104 -171 -104
q-71 0 -109.5 41.5t-38.5 118.5v374h58v-368q0 -61 25.5 -89.5t77.5 -28.5q91 0 153 107v379h58v-523z" />
    <glyph glyph-name="yacute" unicode="&#xfd;" horiz-adv-x="468" 
d="M335 730l-195 -85l-19 34l188 103zM273 -2q-21 -61 -46 -100t-65 -64.5t-103 -37.5l-6 45q52 13 81.5 32t47 47.5t35.5 79.5h-20l-182 523h63l158 -480l155 480h61z" />
    <glyph glyph-name="thorn" unicode="&#xfe;" horiz-adv-x="581" 
d="M464.5 463.5q47.5 -70.5 47.5 -199.5q0 -126 -51.5 -200.5t-147.5 -74.5q-47 0 -85 19.5t-64 52.5v-256l-58 -10v941l58 7v-292q29 40 69 61.5t89 21.5q95 0 142.5 -70.5zM412 95q38 57 38 169q0 222 -139 222q-47 0 -81.5 -24t-65.5 -66v-278q52 -80 138 -80
q72 0 110 57z" />
    <glyph glyph-name="ydieresis" unicode="&#xff;" horiz-adv-x="468" 
d="M167.5 730.5q11.5 -11.5 11.5 -28.5t-11.5 -28t-28.5 -11t-28.5 11t-11.5 28t11.5 28.5t28.5 11.5t28.5 -11.5zM356.5 730.5q11.5 -11.5 11.5 -28.5t-11.5 -28t-28.5 -11t-28.5 11t-11.5 28t11.5 28.5t28.5 11.5t28.5 -11.5zM273 -2q-21 -61 -46 -100t-65 -64.5
t-103 -37.5l-6 45q52 13 81.5 32t47 47.5t35.5 79.5h-20l-182 523h63l158 -480l155 480h61z" />
    <glyph glyph-name="dotlessi" unicode="&#x131;" horiz-adv-x="270" 
d="M164 0h-58v523h58v-523z" />
    <glyph glyph-name="OE" unicode="&#x152;" horiz-adv-x="870" 
d="M824 0h-421q-33 -11 -69 -11q-78 0 -138.5 41t-95 120.5t-34.5 190.5q0 110 34.5 190.5t95.5 122.5t138 42q37 0 72 -11h411l-7 -50h-317q49 -39 78 -103.5t33 -151.5h168v-50h-167q-2 -96 -32 -167.5t-84 -112.5h335v-50zM155.5 174q26.5 -68 73 -101t106.5 -33
q96 0 151.5 77t55.5 230q0 147 -56 222.5t-151 75.5q-93 0 -149.5 -77t-56.5 -227q0 -99 26.5 -167z" />
    <glyph glyph-name="oe" unicode="&#x153;" horiz-adv-x="918" 
d="M857 239h-350q5 -102 48.5 -151.5t114.5 -49.5q41 0 73 12.5t68 39.5l27 -37q-38 -32 -79.5 -48t-91.5 -16q-68 0 -116.5 34t-75.5 97q-27 -63 -75 -97t-115 -34q-104 0 -162.5 72.5t-58.5 199.5q0 83 27 145t77 95t118 33t116.5 -33.5t74.5 -95.5q26 61 72 95t108 34
q98 0 150 -67.5t52 -185.5q0 -22 -2 -42zM801 299q0 88 -36 137.5t-106 49.5q-66 0 -107 -50t-45 -152h294v15zM403.5 95q42.5 57 42.5 168q0 109 -41.5 165.5t-118.5 56.5q-76 0 -118 -57t-42 -167q0 -109 41.5 -166t117.5 -57t118.5 57z" />
    <glyph glyph-name="circumflex" unicode="&#x2c6;" horiz-adv-x="355" 
d="M30 674l129 105h36l130 -105l-26 -31l-122 85l-121 -85z" />
    <glyph glyph-name="ring" unicode="&#x2da;" horiz-adv-x="257" 
d="M199.5 794.5q27.5 -26.5 27.5 -67.5t-27.5 -67.5t-70.5 -26.5q-44 0 -71.5 26.5t-27.5 67.5t27.5 67.5t71.5 26.5q43 0 70.5 -26.5zM87.5 769.5q-14.5 -15.5 -14.5 -42.5q0 -28 14.5 -43t41.5 -15q26 0 40.5 15t14.5 43q0 27 -14.5 42.5t-40.5 15.5q-27 0 -41.5 -15.5z
" />
    <glyph glyph-name="tilde" unicode="&#x2dc;" horiz-adv-x="361" 
d="M206 672.5q-15 6.5 -37 19.5q-16 10 -26.5 15t-20.5 5q-17 0 -29.5 -9.5t-26.5 -30.5l-36 18q37 68 92 68q17 0 31.5 -6t32.5 -18q18 -11 29 -16t24 -5q16 0 28.5 10t27.5 33l36 -18q-35 -72 -92 -72q-18 0 -33 6.5z" />
    <glyph glyph-name="uni10D0" unicode="&#x10d0;" horiz-adv-x="447" 
d="M128 12q-41 24 -63 66t-22 95l1 44h58q-1 -13 -1 -44q0 -57 33 -94.5t89 -37.5q58 0 90 36t32 85q0 51 -24.5 85.5t-71.5 74.5q-43 37 -64 65t-21 69h57q0 -26 16.5 -46t52.5 -50q35 -30 57.5 -54t39 -60t16.5 -84q0 -47 -22 -87t-62.5 -63.5t-95.5 -23.5q-54 0 -95 24z
" />
    <glyph glyph-name="uni10D1" unicode="&#x10d1;" horiz-adv-x="469" 
d="M138 15.5q-44 27.5 -69.5 77t-25.5 111.5q0 64 25.5 108t57.5 68t78 49l11 54q12 50 15 75q2 16 -12.5 26t-39.5 18q-37 12 -63 28v-113h-53v193h51q2 -20 23.5 -33t44 -21t29.5 -11q64 -25 75 -58q2 -3 2 -14q0 -10 -2 -20l-26 -123q30 -11 68.5 -38.5t68.5 -75
t30 -112.5q0 -64 -25 -113t-69 -76t-97 -27t-97 27.5zM330.5 82.5q38.5 41.5 38.5 121.5q0 53 -22.5 91.5t-54.5 59.5t-60 25q-55 -16 -93 -57.5t-38 -118.5q0 -52 19 -89t49.5 -55.5t65.5 -18.5q57 0 95.5 41.5z" />
    <glyph glyph-name="uni10D2" unicode="&#x10d2;" horiz-adv-x="469" 
d="M145.5 -302.5q-48.5 29.5 -75.5 81.5t-27 118q0 55 16.5 94.5t40 65.5t64.5 61q27 22 47 42q33 33 50 60.5t17 63.5q0 30 -20.5 57.5t-64.5 27.5q-40 0 -62.5 -25.5t-22.5 -59.5q0 -25 10 -46h-56q-9 23 -9 46q0 63 37.5 100.5t106.5 37.5q67 0 103 -40t36 -96
q0 -40 -14 -66.5t-43 -60.5q38 -17 81.5 -54t75 -90.5t31.5 -117.5q0 -65 -28 -117.5t-76.5 -82t-107.5 -29.5q-61 0 -109.5 29.5zM330.5 -258q35.5 21 57 60.5t21.5 90.5q0 59 -28.5 106t-67 76.5t-70.5 42.5q-6 -6 -26 -22q-34 -27 -57.5 -51.5t-41 -62.5t-17.5 -89
q0 -52 20.5 -91t56 -60t77.5 -21q40 0 75.5 21z" />
    <glyph glyph-name="uni10D3" unicode="&#x10d3;" horiz-adv-x="676" 
d="M412 -200.5q-69 56.5 -148.5 90.5t-144.5 34h-47l-8 49h77v1q-45 41 -71.5 111.5t-26.5 139.5q0 87 40 142t113 55q46 0 75 -19.5t44 -48.5h3q49 68 138 68q51 0 91 -23.5t63 -67t23 -102.5t-23 -102.5t-63 -66.5t-91 -23t-91 23t-63 66.5t-23 102.5q0 26 1.5 39.5
t7.5 36.5q-22 64 -87 64q-48 0 -74 -37t-26 -107q0 -100 40.5 -165.5t101.5 -103.5l86 -43t153 -103.5t101 -129.5h-67q-35 63 -104 119.5zM542 126.5q33 36.5 33 102.5t-33 103t-86 37t-86 -36.5t-33 -103.5q0 -66 33 -102.5t86 -36.5t86 36.5z" />
    <glyph glyph-name="uni10D4" unicode="&#x10d4;" horiz-adv-x="444" 
d="M118.5 -306.5q-40.5 25.5 -64 73t-23.5 111.5q0 46 9.5 88.5t22.5 68.5h54q-14 -45 -21 -75t-7 -84q0 -76 35 -115.5t87 -39.5t83.5 39t31.5 116v369q0 64 -28.5 94t-75.5 30q-52 0 -77 -33.5t-25 -88.5q0 -31 9 -64h-57q-10 37 -10 62q0 77 42 127t117 50
q79 0 119.5 -48t40.5 -129v-367q0 -97 -46 -153.5t-124 -56.5q-52 0 -92.5 25.5z" />
    <glyph glyph-name="uni10D5" unicode="&#x10d5;" horiz-adv-x="448" 
d="M93 -274q-50 57 -50 160q0 85 27 137h53q-22 -54 -22 -140q0 -81 35 -121t89 -40t84 40t30 132q0 90 -30 134.5t-77 44.5h-31v46q46 11 77 45.5t31 86.5q0 59 -27.5 88.5t-78.5 29.5q-52 0 -77 -33t-25 -83q0 -32 14 -69h-58q-13 39 -13 71q0 74 42 120.5t117 46.5
q83 0 123.5 -47t40.5 -120q0 -56 -25 -92t-63 -55v-2q51 -7 84 -56t33 -153q0 -112 -44.5 -170t-126.5 -58t-132 57z" />
    <glyph glyph-name="uni10D6" unicode="&#x10d6;" horiz-adv-x="624" 
d="M296.5 47q-39.5 59 -39.5 151q0 40 4 107.5t10 154.5h-3q-3 -8 -15.5 -19.5t-32.5 -20t-43 -8.5q-69 0 -107 44t-38 112t39.5 111t110.5 43t111 -43t40 -111q0 -65 -17 -215l2 -1q15 35 53 71l94 88l65 -3l-145 -117q18 10 47 10q41 -1 75 -26.5t54 -69t20 -97.5
q0 -67 -21.5 -117t-59 -76.5t-84.5 -26.5q-80 0 -119.5 59zM252.5 491q26.5 30 26.5 77t-27 77.5t-70 30.5q-44 0 -70.5 -30t-26.5 -78q0 -47 26.5 -77t70.5 -30t70.5 30zM493.5 83.5q29.5 42.5 29.5 115.5q0 74 -29.5 116t-78.5 42q-47 0 -74.5 -38.5t-27.5 -119.5
q0 -74 27 -116t76 -42q48 0 77.5 42.5z" />
    <glyph glyph-name="uni10D7" unicode="&#x10d7;" horiz-adv-x="697" 
d="M127 15.5q-40 27.5 -62 76.5t-22 113t22 113t62 76.5t93 27.5q59 0 91.5 -23.5t42.5 -45.5h2q5 14 24 30t48 27.5t62 11.5q76 0 120 -53.5t44 -144.5q0 -60 -23 -110.5t-54 -96.5l-11 -17h-55q3 6 25.5 43t41 87t18.5 94q0 60 -27.5 102.5t-85.5 42.5q-34 0 -60 -18
t-38 -46q6 -17 10 -44t4 -56q0 -63 -22 -112.5t-62.5 -77t-94.5 -27.5q-53 0 -93 27.5zM311 84.5q32 43.5 32 120.5q0 80 -32 122t-91 42q-57 0 -88 -43.5t-31 -120.5t31.5 -120.5t88.5 -43.5q58 0 90 43.5z" />
    <glyph glyph-name="uni10D8" unicode="&#x10d8;" horiz-adv-x="469" 
d="M82.5 32q-15.5 29 -27.5 76t-12 95q0 65 23.5 115t67 77t100.5 27q88 0 140 -60t52 -159q0 -68 -17.5 -115.5t-39.5 -87.5h-55q2 6 16.5 35.5t26.5 76t12 96.5q0 65 -34.5 113t-100.5 48q-65 0 -99 -48t-34 -113q0 -64 15 -111.5t26.5 -70t13.5 -26.5h-56q-2 3 -17.5 32z
" />
    <glyph glyph-name="uni10D9" unicode="&#x10d9;" horiz-adv-x="425" 
d="M82 -274q-50 57 -50 160q0 88 27 137h53q-22 -54 -22 -140q0 -81 35 -121t89 -40q116 0 116 171q0 80 -28 136.5t-77 61.5h-38v53h19q36 0 64.5 24t28.5 70q0 45 -18.5 85t-54.5 87h57q30 -35 51.5 -82.5t21.5 -97.5q0 -47 -25.5 -74t-58.5 -34v-2q51 -7 83 -65.5
t32 -159.5q0 -110 -46 -168t-127 -58q-82 0 -132 57z" />
    <glyph glyph-name="uni10DA" unicode="&#x10da;" horiz-adv-x="840" 
d="M539.5 -192q-87.5 56 -191 87t-184.5 32h-76l-7 51h90v2q-62 37 -95 102t-33 146q0 58 20 102t55 68t79 24q48 0 75.5 -29t34.5 -62h3q8 34 36.5 62.5t79.5 28.5q52 0 81 -29t35 -62h3q8 35 35.5 63t80.5 28q59 0 97 -44.5t38 -125.5q0 -59 -13.5 -99.5t-36.5 -78.5h-55
q4 9 19 39.5t23 61t8 59.5q0 63 -21 99t-66 36q-43 0 -64 -35t-21 -93v-75h-51v75q0 58 -23 93t-69 35t-68.5 -34.5t-22.5 -92.5v-76h-53v76q0 57 -20 92t-65 35q-49 0 -73.5 -40t-24.5 -105q0 -79 41 -143t96 -94q25 -14 103 -39q91 -29 158 -58t131 -81t98 -129h-63
q-36 72 -123.5 128z" />
    <glyph glyph-name="uni10DB" unicode="&#x10db;" horiz-adv-x="461" 
d="M91 47.5q-48 59.5 -48 157.5t48 157.5t129 59.5q39 0 71 -18t50 -51h2v194q0 60 -31.5 91t-82.5 31q-54 0 -83 -34t-29 -84q0 -39 11 -71h-57q-12 35 -12 74q0 73 45 120.5t123 47.5q82 0 126.5 -46.5t44.5 -122.5v-348q0 -99 -47 -158t-131 -59q-81 0 -129 59.5zM311 84
q32 43 32 121q0 77 -33 120.5t-90 43.5q-56 0 -87.5 -43t-31.5 -121t31.5 -121t87.5 -43q59 0 91 43z" />
    <glyph glyph-name="uni10DC" unicode="&#x10dc;" horiz-adv-x="461" 
d="M110.5 47.5q-47.5 59.5 -47.5 157.5v379q0 60 21.5 93t86.5 33h220v-53h-210q-38 0 -50.5 -15t-12.5 -60v-229h3q16 33 48.5 51t69.5 18q53 0 94 -27t63 -76.5t22 -113.5t-23 -113.5t-64 -76.5t-92 -27q-81 0 -128.5 59.5zM326.5 85q33.5 44 33.5 120q0 77 -32.5 120.5
t-88.5 43.5q-57 0 -89 -43t-32 -121t32 -121t89 -43q54 0 87.5 44z" />
    <glyph glyph-name="uni10DD" unicode="&#x10dd;" horiz-adv-x="655" 
d="M65 102q-22 66 -22 140q0 82 41.5 131t114.5 49q58 0 88 -30.5t40 -67.5h2q10 37 40 67.5t89 30.5q72 0 113 -49.5t41 -130.5q0 -73 -21 -139t-41 -103h-57q3 7 19.5 43.5t29.5 90.5t13 108q0 53 -26 90t-75 37q-99 0 -99 -141v-89h-55v89q0 141 -98 141q-51 0 -76 -34.5
t-25 -92.5q0 -68 16.5 -121.5t30.5 -83.5t17 -37h-57q-21 36 -43 102z" />
    <glyph glyph-name="uni10DE" unicode="&#x10de;" horiz-adv-x="449" 
d="M127 14.5q-41 26.5 -62.5 71t-21.5 97.5q0 43 11 79h56q-10 -38 -10 -74q0 -65 32.5 -106t92.5 -41q61 0 92 40.5t31 95.5q0 71 -35 105t-95 34v50q19 0 43 7.5t41 23.5t17 40q0 30 -19 52t-57 51q-34 26 -55 46.5t-36 51.5t-15 72h55q0 -30 12.5 -54t31 -41.5
t50.5 -42.5q46 -36 68.5 -63.5t22.5 -68.5q0 -38 -22.5 -63t-54.5 -33v-2q55 -20 80.5 -59t25.5 -110q0 -50 -21 -92t-62 -67.5t-98 -25.5t-98 26.5z" />
    <glyph glyph-name="uni10DF" unicode="&#x10df;" horiz-adv-x="470" 
d="M111.5 -281.5q-44.5 50.5 -44.5 128.5q0 63 20 115h56q-9 -27 -13.5 -52t-4.5 -59q0 -60 30 -95t83 -35q52 0 83 33.5t31 87.5v480l-2 2l-111 -79q13 -17 20.5 -33t7.5 -45q0 -55 -26.5 -91t-85.5 -36t-86 36t-26 91h55q-2 -33 13 -53.5t43 -20.5t42.5 20.5t14.5 53.5
q0 29 -8 46t-34 45l182 124v28h56v-572q0 -73 -45 -121.5t-125 -48.5q-81 0 -125.5 50.5z" />
    <glyph glyph-name="uni10E0" unicode="&#x10e0;" horiz-adv-x="655" 
d="M65.5 99.5q-22.5 64.5 -22.5 131.5q0 65 23 117.5t55.5 90.5t85.5 89q41 40 63.5 64.5t38 54.5t15.5 63h57q0 -58 -41.5 -114t-112.5 -126l-26.5 -26.5t-30.5 -33.5v-1q13 8 40 8q51 0 79.5 -26.5t36.5 -58.5h3q10 33 42 61.5t87 28.5q72 0 113 -51t41 -140
q0 -66 -21 -130t-41 -101h-57q3 7 19.5 43.5t29.5 87.5t13 101q0 60 -25.5 98.5t-75.5 38.5q-99 0 -99 -141v-88h-55v88q0 141 -98 141q-52 0 -76.5 -36t-24.5 -101q0 -62 16.5 -113.5t30.5 -81t17 -37.5h-57q-20 35 -42.5 99.5z" />
    <glyph glyph-name="uni10E1" unicode="&#x10e1;" horiz-adv-x="455" 
d="M109 43q-46 55 -46 139v528h55v-531q0 -63 30.5 -100.5t87.5 -37.5t87.5 37.5t30.5 100.5q0 34 -7 60.5t-21 62.5q-12 32 -18.5 55.5t-6.5 52.5h57q0 -29 7 -54t20 -57q14 -39 20.5 -63t6.5 -54q0 -84 -46 -139t-129 -55q-82 0 -128 55z" />
    <glyph glyph-name="uni10E2" unicode="&#x10e2;" horiz-adv-x="677" 
d="M182.5 -292q-67.5 40 -104.5 111t-37 160q0 81 35.5 147.5t92.5 107t119 47.5v2q-31 13 -46 39.5t-15 57.5q0 28 13 54t38.5 43t60.5 17t60 -17t38 -43t13 -54q0 -30 -15.5 -57t-43.5 -40v-3q61 -6 118 -46.5t92 -107t35 -147.5q0 -89 -37 -160t-104.5 -111t-155.5 -40
q-89 0 -156.5 40zM340 277q60 38 60 93q0 32 -17 53t-44 21t-44 -21t-17 -53q0 -58 60 -93h2zM466.5 -247.5q54.5 31.5 83.5 89t29 134.5q0 74 -27.5 131.5t-71.5 92.5t-94 45l-1 -2q28 -13 44 -45t16 -64q0 -44 -27.5 -79t-78.5 -35t-78.5 35t-27.5 79q0 30 16.5 63.5
t44.5 47.5v2q-54 -11 -98 -46t-70.5 -92.5t-26.5 -132.5q0 -117 64.5 -186t175.5 -69q73 0 127.5 31.5zM379.5 90.5q14.5 20.5 14.5 53.5q0 35 -16.5 58.5t-37.5 36.5h-2q-21 -13 -38 -37t-17 -58q0 -33 14.5 -53.5t41.5 -20.5q26 0 40.5 20.5z" />
    <glyph glyph-name="uni10E3" unicode="&#x10e3;" horiz-adv-x="644" 
d="M251.5 -299q-51.5 33 -78.5 86.5t-27 112.5q1 80 29 135h56q-13 -32 -20 -63.5t-7 -76.5q0 -54 23 -93.5t62 -60t85 -20.5q47 0 86 19.5t62 58.5t23 93v376q0 54 -18 77.5t-45 23.5q-28 0 -46.5 -19.5t-18.5 -63.5v-91h-52v91q0 45 -15.5 64t-43.5 19q-26 0 -39 -21
t-28 -67q-11 -36 -21.5 -58.5t-29.5 -38.5t-49 -16q-96 0 -96 155q0 29 4 87h54q-4 -60 -4 -89q0 -101 42 -101q21 0 31 18.5t23 60.5q11 39 21.5 63.5t32 42t56.5 17.5q37 0 55.5 -18t25.5 -32t8 -17h3q8 17 16 29.5t28 25t52 12.5q59 0 84.5 -42t25.5 -110v-375
q0 -67 -30 -118.5t-81.5 -80t-115.5 -28.5q-71 0 -122.5 33z" />
    <glyph glyph-name="uni10E4" unicode="&#x10e4;" horiz-adv-x="657" 
d="M588.5 25.5q25.5 -41.5 25.5 -122.5q0 -114 -61 -174.5t-158 -60.5q-100 0 -158.5 49.5t-58.5 142.5q0 30 4 50.5t13 44.5h58q-10 -27 -14 -45.5t-4 -47.5q0 -71 43 -106t116 -35t117.5 43.5t44.5 135.5q0 72 -27.5 114.5t-80.5 42.5h-20v47q57 4 92 40.5t35 104.5
q0 56 -27 90t-74 34q-31 0 -53.5 -14.5t-34.5 -38.5q12 -33 12 -75q0 -80 -45 -131.5t-120 -51.5q-50 0 -88.5 23.5t-60 65.5t-21.5 94q0 79 46.5 128t120.5 49q50 0 80 -16.5t51 -43.5h3q15 24 43 42t65 18q72 0 116 -50t44 -126q0 -74 -31 -110.5t-69 -50.5v-3
q51 -15 76.5 -56.5zM293 145q30 34 30 96q0 67 -31 100t-82 33q-50 0 -81 -36t-31 -97t32 -95.5t83 -34.5q50 0 80 34z" />
    <glyph glyph-name="uni10E5" unicode="&#x10e5;" horiz-adv-x="482" 
d="M80 -272q-52 60 -52 163q0 72 16 123h55q-14 -56 -14 -120q0 -85 37 -129t102 -44q68 0 104 45.5t36 124.5v273q0 61 -30 94t-82 33q-47 0 -72.5 -27.5t-25.5 -72.5v-40h-56v42q0 68 38 109.5t106 41.5q43 0 75 -17.5t45 -39.5h2v349h-2l-91 -103v72l92 105h56v-821
q0 -66 -25 -116t-69 -77.5t-101 -27.5q-92 0 -144 60z" />
    <glyph glyph-name="uni10E6" unicode="&#x10e6;" horiz-adv-x="642" 
d="M411.5 -198.5q-65.5 54.5 -139.5 86.5t-141 35h-55l-8 51l72 -2v1q-38 32 -67.5 101t-29.5 138q0 104 41 157t117 53q58 0 85.5 -35.5t35.5 -73.5h2q9 40 36.5 74.5t87.5 34.5q69 0 110 -50t41 -133q0 -53 -18.5 -100t-36.5 -71h-57l14 26q19 33 29.5 64.5t10.5 85.5
q0 56 -25 90.5t-73 34.5t-71 -42t-23 -90v-64h-52v64q0 29 -10 59.5t-31.5 51.5t-54.5 21q-50 0 -75 -40t-25 -111q0 -72 29.5 -141t78.5 -102q16 -9 60 -31q71 -35 123.5 -66.5t103.5 -81.5t79 -116h-56q-42 67 -107.5 121.5z" />
    <glyph glyph-name="uni10E7" unicode="&#x10e7;" horiz-adv-x="458" 
d="M84.5 -272.5q-49.5 59.5 -49.5 157.5q0 67 24 129h54q-20 -60 -20 -126q0 -80 35 -123.5t92 -43.5q55 0 87 42t32 115v296h-2q-9 -21 -37.5 -42t-75.5 -21q-76 0 -119.5 46t-43.5 127q0 72 27 126h57q-10 -21 -19 -56.5t-9 -66.5q0 -54 28 -88.5t79 -34.5t83 34t32 89
v123h56v-537q0 -95 -44.5 -150t-130.5 -55t-135.5 59.5z" />
    <glyph glyph-name="uni10E8" unicode="&#x10e8;" horiz-adv-x="569" 
d="M240.5 14.5q-39.5 26.5 -61 74t-21.5 108.5t21.5 108.5t61 74t92.5 26.5q44 0 73.5 -16t41.5 -46l2 1v229q0 41 -22.5 68t-63.5 27t-60.5 -31.5t-19.5 -82.5v-56h-51v56q0 114 -81 114q-44 0 -66.5 -28t-22.5 -69q0 -44 9 -73.5t25 -56.5l-54 -1q-17 27 -26.5 55t-9.5 80
q0 60 34 103t111 43q42 0 70.5 -22.5t35.5 -51.5h1q6 30 33.5 52t71.5 22q47 0 79 -21.5t47.5 -56.5t15.5 -73v-354q0 -105 -44 -167t-129 -62q-53 0 -92.5 26.5zM419.5 84q31.5 43 31.5 120q0 73 -32 111t-87 38q-54 0 -85.5 -41t-31.5 -115q0 -75 31.5 -115.5t85.5 -40.5
q56 0 87.5 43z" />
    <glyph glyph-name="uni10E9" unicode="&#x10e9;" horiz-adv-x="456" 
d="M63 560q0 78 41.5 120t110.5 42q57 0 88 -35.5t31 -81.5q0 -71 -58.5 -115.5t-164.5 -50.5v-129l2 -1q15 28 51.5 52t97.5 24q41 0 75.5 -23.5t54.5 -63.5t20 -87q0 -55 -20.5 -104t-36.5 -75.5t-19 -31.5h-57q3 7 23 42.5t36.5 83.5t16.5 90q0 50 -26.5 86.5t-78.5 36.5
q-36 0 -66 -17t-48 -47t-18 -67v-208h-55v560zM232 513q49 26 49 86q0 32 -17 54t-54 22q-40 0 -68 -26.5t-28 -91.5v-70q69 0 118 26z" />
    <glyph glyph-name="uni10EA" unicode="&#x10ea;" horiz-adv-x="573" 
d="M152.5 -276q-57.5 56 -84.5 144t-27 186q0 103 21.5 195t63.5 161h57q-41 -70 -62.5 -162t-21.5 -197q0 -85 22.5 -160.5t67 -122.5t108.5 -47q80 0 130 53t50 152q0 70 -33 113t-87 43h-33v48h31q50 0 81.5 23t31.5 57q0 25 -12 46t-38 54q-25 33 -38 53.5t-21 46.5h57
q7 -21 19.5 -40t34.5 -47q29 -38 42 -61.5t13 -51.5q0 -40 -32.5 -68.5t-75.5 -35.5v-1q47 -8 82.5 -53t35.5 -126q0 -77 -31 -136t-85.5 -90.5t-122.5 -31.5q-86 0 -143.5 56z" />
    <glyph glyph-name="uni10EB" unicode="&#x10eb;" horiz-adv-x="466" 
d="M129 13.5q-41 25.5 -63.5 73t-22.5 111.5q0 96 49.5 152.5t130.5 56.5q47 0 80 -19.5t43 -48.5l2 1v370h55v-500q0 -102 -47 -162t-133 -60q-53 0 -94 25.5zM315 83q33 42 33 115q0 71 -34.5 113.5t-89.5 42.5t-89 -42.5t-34 -113.5q0 -72 34 -114.5t89 -42.5q58 0 91 42
z" />
    <glyph glyph-name="uni10EC" unicode="&#x10ec;" horiz-adv-x="594" 
d="M204 -46q-40 123 -95 277q-41 113 -61.5 176t-31.5 119q-4 21 -4 45q0 71 42 111t105 40q59 0 91 -27t41 -61h3q5 34 38.5 61t93.5 27q70 0 108.5 -42t38.5 -107q0 -40 -11 -77.5t-23 -57.5h-57q16 35 25 63t9 72q0 42 -24 71t-71 29q-54 0 -78.5 -34.5t-24.5 -104.5v-40
h-48v35q0 68 -27 106t-84 38q-41 0 -66 -28t-25 -73q0 -23 5 -42q8 -42 18 -73.5t31 -89.5q14 -35 35 -94h2q12 46 53.5 82t125.5 36q77 0 129 -42t52 -113q0 -49 -18 -107t-57 -158q-67 -165 -101 -291h-62q-37 151 -77 274zM315 -248q35 126 90 273q31 85 43.5 127
t12.5 78q0 49 -32.5 81t-95.5 32q-57 0 -98.5 -33t-41.5 -90q0 -17 2 -26q5 -28 29 -109q51 -163 89 -333h2z" />
    <glyph glyph-name="uni10ED" unicode="&#x10ed;" horiz-adv-x="497" 
d="M57.5 -272q-51.5 60 -51.5 161q0 84 20 134h55q-18 -65 -18 -139q0 -81 35 -122t101 -41q65 0 102.5 41t37.5 122q0 45 -4.5 85t-14.5 99q-8 48 -11 71q-29 -20 -57 -31t-59 -11q-48 0 -81.5 30t-33.5 78t33.5 78.5t81.5 30.5q58 0 111 -42q12 60 19 106.5t7 90.5
q0 33 -21.5 59t-50.5 43.5t-72 38.5q-32 15 -42 22l-3 -125h-49v203h53q0 -18 20 -33t63 -37q46 -24 76 -44t51.5 -50t21.5 -69q0 -40 -8.5 -94t-23.5 -136l13 -13l96 100v-51l-73 -75v-4l73 -70v-52l-90 93l-14 -13q2 -11 11 -49q16 -74 25 -128t9 -110q0 -97 -53.5 -152
t-141.5 -55q-91 0 -142.5 60zM274.5 162q33.5 22 48.5 43q-16 22 -49.5 44t-72.5 22q-32 0 -52 -18t-20 -47q0 -31 20 -48.5t52 -17.5q40 0 73.5 22z" />
    <glyph glyph-name="uni10EE" unicode="&#x10ee;" horiz-adv-x="464" 
d="M109 48.5q-46 60.5 -46 164.5v497h55v-355h3l32 40q43 53 80 101l64 -2l-96 -89v-2q18 6 37 6q89 0 136 -55.5t47 -140.5q0 -65 -21 -116t-60.5 -80t-92.5 -29q-92 0 -138 60.5zM329.5 84q33.5 43 33.5 120q0 76 -33.5 119t-88.5 43q-54 0 -88.5 -43.5t-34.5 -118.5
q0 -77 33 -120t90 -43q55 0 88.5 43z" />
    <glyph glyph-name="uni10EF" unicode="&#x10ef;" horiz-adv-x="632" 
d="M591 -104q5 -15 5 -42q0 -43 -26 -71t-72 -28q-55 0 -85.5 40.5t-57.5 114.5q2 -4 -20 57l-27 75q-10 -9 -23 -21t-32 -28l-67 -61v-3q33 -10 57.5 -42.5t24.5 -72.5q0 -69 -37 -107.5t-103 -38.5q-24 0 -37.5 4t-34.5 13v51q8 -2 22.5 -7t25.5 -6.5t24 -1.5
q40 0 64 23.5t24 70.5q0 35 -23.5 58.5t-67.5 24.5v45l85 76l81 72l-80 219q-11 29 -26 44t-42 15t-44 -20t-17 -59v-34h-53v36q0 63 34 96t85 33q81 0 113 -95l69 -201l124 112q31 28 45 47t14 41q0 19 -14 31.5t-38 12.5q-23 0 -56 -11v49q36 14 64 14q31 0 54 -13.5
t35.5 -34t12.5 -40.5q0 -30 -14.5 -58.5t-55.5 -63.5l-154 -134l31 -82q3 -6 26 -67q27 -70 46 -96.5t47 -26.5q19 0 32 14.5t13 42.5q0 19 -4.5 31t-10.5 23t-8 15h57q10 -20 15 -35z" />
    <glyph glyph-name="uni10F0" unicode="&#x10f0;" horiz-adv-x="411" 
d="M107.5 9q-38.5 21 -59 55.5t-20.5 73.5q0 33 8 58h56q-7 -22 -7 -50q0 -45 31 -75t82 -30q53 0 82.5 29.5t29.5 74.5q0 58 -36.5 88t-83.5 30h-28v45h28q35 0 64.5 15.5t29.5 44.5t-29 43t-65 14h-28v46h28q35 0 64.5 13.5t29.5 40.5q0 25 -19.5 43.5t-59.5 44.5
q-41 26 -63 47t-22 50h55q2 -13 16.5 -25t44.5 -33q48 -31 75 -58.5t27 -65.5q0 -33 -26.5 -52.5t-62.5 -24.5v-2q36 -5 62.5 -25t26.5 -57q0 -35 -26 -54.5t-63 -26.5v-2q50 -7 84.5 -39t34.5 -99q0 -65 -42 -111.5t-128 -46.5q-52 0 -90.5 21z" />
    <glyph glyph-name="uni10F1" unicode="&#x10f1;" horiz-adv-x="580" 
d="M109.5 97.5q-66.5 109.5 -66.5 276.5q0 91 25.5 177.5t69.5 158.5h56q-43 -74 -67.5 -160t-24.5 -179q0 -149 53.5 -239.5t165.5 -90.5q69 0 113.5 28t44.5 86q0 51 -36.5 79.5t-83.5 28.5h-28v45h28q36 0 65 15t29 45q0 29 -29 43t-65 14h-28v46h28q36 0 65 13.5
t29 40.5q0 25 -16.5 43t-51.5 45q-36 25 -55 46.5t-19 50.5h55q0 -14 13.5 -27.5t40.5 -33.5q41 -31 64 -58t23 -63q0 -33 -26.5 -52.5t-62.5 -24.5v-2q36 -5 62.5 -25t26.5 -57q0 -35 -26 -54.5t-63 -26.5v-2q50 -7 84.5 -37.5t34.5 -91.5q0 -54 -30 -91.5t-79 -56.5
t-107 -19q-145 0 -211.5 109.5z" />
    <glyph glyph-name="uni10F2" unicode="&#x10f2;" horiz-adv-x="543" 
d="M84.5 -6q-19.5 6 -41.5 17v49q57 -26 97 -26q33 0 77 18v2q-32 13 -63.5 40.5t-52.5 67t-21 86.5q0 46 24 86t68 64t100 24t99.5 -24t67.5 -64t24 -86q0 -67 -43.5 -119t-98.5 -75v-2q45 -18 82 -18q41 0 96 26v-49q-20 -11 -40.5 -17t-47.5 -6q-34 0 -73 9t-66 22h-4
q-25 -13 -63.5 -22t-72.5 -9q-28 0 -47.5 6zM270 67q55 24 95 66.5t40 106.5q0 55 -35 92t-98 37q-64 0 -99 -37t-35 -92q0 -65 39 -108t91 -65h2z" />
    <glyph glyph-name="uni10F3" unicode="&#x10f3;" horiz-adv-x="444" 
d="M130.5 -305.5q-40.5 25.5 -64 72.5t-23.5 111q0 46 8.5 85.5t20.5 66.5h55q-13 -42 -19.5 -71t-6.5 -83q0 -76 34.5 -115t87.5 -39q52 0 83.5 38.5t31.5 115.5q0 94 -27.5 152.5t-80.5 59.5h-22v36l133 233h-281v53h341v-53l-135 -233v-2q34 1 63 -24.5t47 -80.5t18 -139
q0 -97 -46.5 -153t-124.5 -56q-52 0 -92.5 25.5z" />
    <glyph glyph-name="uni10F4" unicode="&#x10f4;" horiz-adv-x="449" 
d="M127 -305.5q-41 26.5 -62.5 71t-21.5 97.5q1 41 8 79h56q-5 -40 -6 -84q0 -54 32 -95.5t92 -41.5q61 0 92 41t31 96q0 70 -35 104t-95 34v50q19 0 43 7.5t41 23.5t17 40q0 29 -18.5 51.5t-57.5 53.5q-34 28 -55.5 49t-36.5 52t-15 71q0 54 33.5 93t91.5 39
q70 0 105 -37.5t35 -93.5q0 -19 -5 -35h-56q6 17 6 35q0 34 -21 56t-60 22q-35 0 -54 -22.5t-19 -57.5q0 -39 22.5 -67t69.5 -68q46 -39 69.5 -69t23.5 -69q0 -38 -22.5 -63t-54.5 -32v-2q55 -20 80.5 -59.5t25.5 -109.5q0 -50 -21 -92.5t-62 -68t-98 -25.5t-98 26.5z" />
    <glyph glyph-name="uni10F5" unicode="&#x10f5;" horiz-adv-x="545" 
d="M127 10.5q-40 22.5 -62 62t-22 87.5q0 80 46 124t131 44h127v54h-127q-85 0 -131 44t-46 124q0 76 48.5 124t128.5 48q89 0 136 -47t47 -125v-115h99v-52h-99v-56h99v-52h-99v-115q0 -78 -47 -125t-136 -47q-53 0 -93 22.5zM347 436v114q0 50 -30 84.5t-97 34.5
q-57 0 -88 -34.5t-31 -84.5q0 -52 29 -83t90 -31h127zM317 75.5q30 34.5 30 84.5v114h-127q-61 0 -90 -30.5t-29 -83.5q0 -50 31 -84.5t88 -34.5q67 0 97 34.5z" />
    <glyph glyph-name="uni10F6" unicode="&#x10f6;" horiz-adv-x="740" 
d="M387 -281.5q-44 50.5 -44 127.5v220h-2q-35 -78 -121 -78q-85 0 -131 58.5t-46 158.5q0 98 48 157.5t129 59.5q44 0 75 -22.5t46 -62.5h2v210q0 60 -31.5 91t-82.5 31q-54 0 -83 -34t-29 -84q0 -39 11 -71h-57q-12 35 -12 74q0 73 45 120.5t123 47.5q82 0 126.5 -46.5
t44.5 -122.5v-211q36 80 122 80q81 0 129 -59.5t48 -157.5q0 -99 -46.5 -158t-130.5 -59q-91 0 -120 78h-2v-213q0 -61 30.5 -96.5t80.5 -35.5q53 0 83 34t30 84q0 36 -12 71h57q11 -32 11 -74q0 -73 -45 -120.5t-123 -47.5q-79 0 -123 50.5zM311 84q32 43 32 121
q0 77 -33 120.5t-90 43.5q-56 0 -87.5 -43t-31.5 -121t31.5 -121t87.5 -43q59 0 91 43zM608 84q32 43 32 121t-32 121t-88 43q-59 0 -90.5 -43t-31.5 -121q0 -77 33 -120.5t89 -43.5t88 43z" />
    <glyph glyph-name="uni10F7" unicode="&#x10f7;" horiz-adv-x="510" 
d="M144 -302.5q-48 28.5 -74.5 78.5t-26.5 111q0 56 24.5 100t58 74.5t89.5 72.5q62 46 90.5 76.5t28.5 68.5q0 36 -22 63t-61 27q-37 0 -61 -26t-24 -59q0 -26 9 -45h-56q-9 21 -9 45q0 62 39.5 100t105.5 38q63 0 100 -39t37 -99q0 -39 -18.5 -71t-45.5 -55.5t-73 -57.5
q-50 -35 -81 -63t-52 -66t-21 -87q0 -72 43.5 -117t110.5 -45q68 0 111 46.5t43 124.5q0 43 -11 78h56q1 -3 7 -24t6 -50q0 -66 -26 -118t-74.5 -81t-111.5 -29t-111 28.5z" />
    <glyph glyph-name="uni10F8" unicode="&#x10f8;" horiz-adv-x="458" 
d="M107 -277.5q-44 54.5 -44 150.5v537h56v-123q0 -55 32 -89t83 -34t79 34.5t28 88.5q0 31 -9.5 67t-19.5 56h58q27 -59 27 -126q0 -81 -43.5 -127t-119.5 -46q-47 0 -75.5 21t-37.5 42h-2v-296q0 -73 32 -115t86 -42q57 0 92 43.5t35 123.5q0 66 -20 126h54
q25 -60 25 -129q0 -98 -50 -157.5t-136 -59.5t-130 54.5z" />
    <glyph glyph-name="uni10F9" unicode="&#x10f9;" horiz-adv-x="510" 
d="M210 -292q-36 40 -36 96q0 40 14 67t43 60q-38 17 -81.5 54t-75 90.5t-31.5 117.5q0 65 28 117t76 81.5t107 29.5q62 0 110.5 -29t75.5 -81t27 -118q0 -57 -18.5 -99t-45 -70t-70.5 -64q-35 -29 -54.5 -48.5t-33 -46t-13.5 -59.5q0 -30 20.5 -57.5t63.5 -27.5
q40 0 62.5 25.5t22.5 59.5q0 27 -9 46h55q10 -21 10 -46q0 -63 -38 -100.5t-107 -37.5q-66 0 -102 40zM294 -9q34 28 57 52.5t40.5 63.5t17.5 90q0 52 -20.5 90.5t-56 59.5t-78.5 21q-40 0 -75.5 -21t-56.5 -60t-21 -90q0 -60 29 -107.5t67.5 -77.5t70.5 -43q6 6 26 22z" />
    <glyph glyph-name="uni10FA" unicode="&#x10fa;" horiz-adv-x="447" 
d="M253.5 33.5q-18.5 20.5 -43.5 33t-43 13.5q-30 1 -83 -9v46q14 3 52 7v1q-39 18 -66 53.5t-27 83.5q0 73 49.5 117t131.5 44q79 0 129 -44.5t50 -122.5q0 -31 -1 -44h-58q1 13 1 44q0 54 -33 84t-88 30q-57 0 -90 -29.5t-33 -78.5q0 -33 15 -57t37 -40.5t59 -38.5
q55 -33 84 -61.5t31 -75.5h-55q0 24 -18.5 44.5z" />
    <glyph glyph-name="uni10FB" unicode="&#x10fb;" horiz-adv-x="458" 
d="M137.5 461.5q13.5 -13.5 13.5 -34.5q0 -20 -13.5 -33.5t-34.5 -13.5q-20 0 -34 13.5t-14 33.5t14 34t34 14q21 0 34.5 -13.5zM388.5 266.5q13.5 -13.5 13.5 -34.5q0 -20 -13.5 -33.5t-34.5 -13.5q-20 0 -34 13.5t-14 33.5t14 34t34 14q21 0 34.5 -13.5zM137.5 70.5
q13.5 -13.5 13.5 -33.5q0 -21 -13.5 -34.5t-34.5 -13.5q-20 0 -34 14t-14 34t14 33.5t34 13.5q21 0 34.5 -13.5z" />
    <glyph glyph-name="uni10FD" unicode="&#x10fd;" horiz-adv-x="510" 
d="M143 16q-48 28 -74 77.5t-26 112.5q0 22 3 38t10 37h55q-10 -38 -10 -78q0 -75 42.5 -118.5t110.5 -43.5t111.5 42.5t43.5 113.5q0 47 -21 83.5t-50.5 62.5t-79.5 61q-48 33 -75 56.5t-46 55.5t-19 72q0 58 37 96t100 38q66 0 105.5 -38t39.5 -100q0 -22 -10 -45h-56
q10 21 10 45q0 33 -24 59t-61 26q-39 0 -61.5 -26t-22.5 -59q0 -40 29.5 -71t91.5 -74q54 -38 88.5 -68.5t58.5 -73t24 -96.5q0 -61 -26.5 -109.5t-75 -76t-111.5 -27.5t-111 28z" />
    <glyph glyph-name="endash" unicode="&#x2013;" horiz-adv-x="520" 
d="M40 338h440v-50h-440v50z" />
    <glyph glyph-name="emdash" unicode="&#x2014;" horiz-adv-x="783" 
d="M40 338h703v-50h-703v50z" />
    <glyph glyph-name="quoteleft" unicode="&#x2018;" horiz-adv-x="219" 
d="M73.5 540q-12.5 13 -12.5 32q0 15 14 46l56 123h39l-37 -133q20 -15 20 -36q0 -19 -13 -32t-33 -13q-21 0 -33.5 13z" />
    <glyph glyph-name="quoteright" unicode="&#x2019;" horiz-adv-x="219" 
d="M145.5 728.5q12.5 -12.5 12.5 -31.5q0 -15 -14 -46l-57 -124h-39l38 134q-10 6 -15 15.5t-5 20.5q0 19 13 31.5t33 12.5q21 0 33.5 -12.5z" />
    <glyph glyph-name="quotesinglbase" unicode="&#x201a;" horiz-adv-x="219" 
d="M145.5 62.5q12.5 -12.5 12.5 -31.5q0 -9 -3 -18.5t-11 -27.5l-57 -124h-39l38 134q-20 12 -20 36q0 18 13 31t33 13q21 0 33.5 -12.5z" />
    <glyph glyph-name="quotedblleft" unicode="&#x201c;" horiz-adv-x="371" 
d="M73.5 540q-12.5 13 -12.5 32q0 15 14 46l56 123h39l-37 -133q20 -15 20 -36q0 -19 -13 -32t-33 -13q-21 0 -33.5 13zM225.5 540q-12.5 13 -12.5 32q0 15 14 46l57 123h39l-38 -133q20 -15 20 -36q0 -19 -13 -32t-33 -13q-21 0 -33.5 13z" />
    <glyph glyph-name="quotedblright" unicode="&#x201d;" horiz-adv-x="371" 
d="M145.5 728.5q12.5 -12.5 12.5 -31.5q0 -15 -14 -46l-57 -124h-39l38 134q-10 6 -15 15.5t-5 20.5q0 19 13 31.5t33 12.5q21 0 33.5 -12.5zM297.5 728.5q12.5 -12.5 12.5 -31.5q0 -15 -14 -46l-56 -124h-40l38 134q-9 6 -14.5 16t-5.5 20q0 19 13 31.5t33 12.5
q21 0 33.5 -12.5z" />
    <glyph glyph-name="quotedblbase" unicode="&#x201e;" horiz-adv-x="371" 
d="M145.5 62.5q12.5 -12.5 12.5 -31.5q0 -9 -3 -18.5t-11 -27.5l-57 -124h-39l38 134q-20 12 -20 36q0 18 13 31t33 13q21 0 33.5 -12.5zM297.5 62.5q12.5 -12.5 12.5 -31.5q0 -9 -3 -18.5t-11 -27.5l-56 -124h-40l38 134q-20 13 -20 36q0 18 13 31t33 13q21 0 33.5 -12.5z
" />
    <glyph glyph-name="bullet" unicode="&#x2022;" horiz-adv-x="287" 
d="M197 398.5q21 -21.5 21 -53.5q0 -31 -21 -52t-54 -21q-32 0 -53 21t-21 53t21 53t53 21q33 0 54 -21.5z" />
    <glyph glyph-name="ellipsis" unicode="&#x2026;" horiz-adv-x="628" 
d="M137.5 70.5q13.5 -13.5 13.5 -33.5q0 -21 -13.5 -34.5t-34.5 -13.5q-20 0 -34 14t-14 34t14 33.5t34 13.5q21 0 34.5 -13.5zM348.5 70.5q13.5 -13.5 13.5 -33.5t-13.5 -34t-34.5 -14t-34.5 14t-13.5 34t13.5 33.5t34.5 13.5t34.5 -13.5zM558.5 70.5
q13.5 -13.5 13.5 -34.5q0 -20 -13.5 -33.5t-34.5 -13.5q-20 0 -33.5 13.5t-13.5 33.5t13.5 34t33.5 14q21 0 34.5 -13.5z" />
    <glyph glyph-name="guilsinglleft" unicode="&#x2039;" horiz-adv-x="342" 
d="M271 495l-137 -207l137 -208l-36 -24l-164 212v39l164 213z" />
    <glyph glyph-name="guilsinglright" unicode="&#x203a;" horiz-adv-x="342" 
d="M271 307v-39l-164 -212l-36 24l138 208l-138 207l36 25z" />
    <glyph glyph-name="fraction" unicode="&#x2044;" horiz-adv-x="114" 
d="M281 728l-407 -799l-41 20l408 798z" />
    <glyph glyph-name="uni2074" unicode="&#x2074;" horiz-adv-x="400" 
d="M347 426h-56v-103h-50v103h-189v37l130 281l44 -17l-120 -259h135l5 114h45v-114h56v-42z" />
    <glyph glyph-name="Euro" unicode="&#x20ac;" horiz-adv-x="572" 
d="M249 577q-49 -49 -67 -146h272l-11 -43h-265v-103h245l-10 -43h-233q13 -104 61 -153t129 -49q40 0 71 10.5t68 31.5v-54q-71 -39 -147 -39q-101 0 -164 64.5t-79 188.5h-83l11 43h70v103h-81l11 43h73q22 116 88 180.5t158 64.5q48 0 88.5 -13t81.5 -41l-25 -42
q-39 25 -70.5 35.5t-72.5 10.5q-70 0 -119 -49z" />
    <glyph glyph-name="uni20BE" unicode="&#x20be;" horiz-adv-x="684" 
d="M390 340v283q-21 3 -43 3t-49 -5v-281h-48v266q-58 -28 -90.5 -90t-32.5 -155q0 -92 34 -162.5t94 -109t136 -38.5h171l-9 -51h-437l5 49l133 1q-84 30 -136 111t-52 205q0 108 49.5 185.5t134.5 107.5v94h48v-82q20 4 48 4q23 0 44 -3v81h48v-91q89 -27 137 -109
t48 -212l-61 -1q0 113 -31.5 179t-92.5 91v-270h-48z" />
    <glyph glyph-name="minus" unicode="&#x2212;" horiz-adv-x="493" 
d="M69 357h355v-51h-355v51z" />
    <glyph glyph-name="uni2215" unicode="&#x2215;" horiz-adv-x="114" 
d="M281 728l-407 -799l-41 20l408 798z" />
    </font>
</defs>
</svg>
