<?xml version="1.0" standalone="no"?>
<!DOCTYPE svg PUBLIC "-//W3C//DTD SVG 1.1//EN" "http://www.w3.org/Graphics/SVG/1.1/DTD/svg11.dtd" >
<svg xmlns="http://www.w3.org/2000/svg" xmlns:xlink="http://www.w3.org/1999/xlink" version="1.1">
<metadata>
Created by FontForge 20170731 at Sat Jun 10 22:07:17 2017
 By Aleksey,,,
Copyright (c) 2017 by Gordeziani, Tatia Jonson. All rights reserved.
</metadata>
<defs>
<font id="GLMkafio-UltraLight" horiz-adv-x="690" >
  <font-face 
    font-family="GL Mkafio UltraLight"
    font-weight="200"
    font-stretch="normal"
    units-per-em="1000"
    panose-1="2 11 3 3 5 0 0 2 0 4"
    ascent="800"
    descent="-200"
    x-height="520"
    cap-height="682"
    bbox="-167 -332 925 936"
    underline-thickness="50"
    underline-position="-150"
    unicode-range="U+0020-2215"
  />
<missing-glyph horiz-adv-x="527" 
d="M432 -320h-334v1054h334v-1054zM177 663v-34h69v-39h-70v-35h175v35h-70v39h70v34h-174zM176 527v-109h175v36h-70v73h-105zM246 454h-35v38h35v-38zM176 389v-34h70v-39h-70v-35h105v74h70v34h-175zM316 326v-69h-140v-36h175v105h-35zM246 198v-60h35v25h35v-50h-105
v85h-35v-120h175v120h-105zM176 15v-119h175v119h-175zM316 -69h-105v49h105v-49zM176 -128v-35h74l-74 -49v-35h175v35h-108l74 49h34v35h-175z" />
    <glyph glyph-name=".notdef" horiz-adv-x="527" 
d="M432 -320h-334v1054h334v-1054zM177 663v-34h69v-39h-70v-35h175v35h-70v39h70v34h-174zM176 527v-109h175v36h-70v73h-105zM246 454h-35v38h35v-38zM176 389v-34h70v-39h-70v-35h105v74h70v34h-175zM316 326v-69h-140v-36h175v105h-35zM246 198v-60h35v25h35v-50h-105
v85h-35v-120h175v120h-105zM176 15v-119h175v119h-175zM316 -69h-105v49h105v-49zM176 -128v-35h74l-74 -49v-35h175v35h-108l74 49h34v35h-175z" />
    <glyph glyph-name=".null" horiz-adv-x="0" 
 />
    <glyph glyph-name="nonmarkingreturn" horiz-adv-x="333" 
 />
    <glyph glyph-name="space" unicode=" " horiz-adv-x="288" 
 />
    <glyph glyph-name="exclam" unicode="!" horiz-adv-x="240" 
d="M136 209h-33v473h33v-473zM144 45q9 -9 9 -23t-9 -23t-24 -9q-14 0 -23.5 9t-9.5 23t9.5 23t23.5 9q15 0 24 -9z" />
    <glyph glyph-name="quotedbl" unicode="&#x22;" horiz-adv-x="336" 
d="M79 682h36l-5 -244h-27zM221 682h37l-5 -244h-27z" />
    <glyph glyph-name="numbersign" unicode="#" horiz-adv-x="493" 
d="M398 456l-31 -234h74v-30h-78l-26 -192h-33l26 192h-204l-26 -192h-33l26 192h-78v30h82l31 234h-76v30h80l23 176h33l-23 -176h204l23 176h33l-23 -176h76v-30h-80zM365 456h-204l-31 -234h204z" />
    <glyph glyph-name="dollar" unicode="$" horiz-adv-x="522" 
d="M407.5 49.5q-50.5 -51.5 -133.5 -58.5v-139h-30v138q-59 1 -106.5 21.5t-89.5 57.5l22 23q38 -34 80.5 -52.5t98.5 -18.5q79 0 127 42.5t48 113.5q0 46 -16 75t-51.5 49t-99.5 40q-69 22 -108 45.5t-57 54t-18 74.5q0 65 47 109t123 48v143h30v-143q52 -3 90 -20.5
t74 -50.5l-22 -23q-36 34 -72.5 48t-86.5 14q-67 0 -107.5 -34t-40.5 -90q0 -39 15.5 -64t49.5 -43.5t96 -37.5q68 -21 108.5 -44.5t60 -58.5t19.5 -89q0 -78 -50.5 -129.5z" />
    <glyph glyph-name="percent" unicode="%" horiz-adv-x="770" 
d="M636 680l-464 -699l-28 18l464 699zM301.5 631q38.5 -43 38.5 -114q0 -73 -37.5 -116t-102.5 -43q-63 0 -102 42.5t-39 114.5q0 73 38 116t103 43q63 0 101.5 -43zM119.5 609.5q-26.5 -36.5 -26.5 -94.5q0 -56 26.5 -92.5t80.5 -36.5q53 0 79.5 37t26.5 94
q0 56 -26.5 92.5t-79.5 36.5q-54 0 -80.5 -36.5zM672 263.5q39 -42.5 39 -113.5q0 -73 -37.5 -116.5t-103.5 -43.5q-63 0 -101.5 43t-38.5 114q0 73 37.5 116t102.5 43q63 0 102 -42.5zM490.5 241q-26.5 -37 -26.5 -94q0 -56 26.5 -92.5t79.5 -36.5q54 0 80.5 37t26.5 95
q0 55 -26.5 91.5t-80.5 36.5q-53 0 -79.5 -37z" />
    <glyph glyph-name="ampersand" unicode="&#x26;" horiz-adv-x="717" 
d="M411.5 652q43.5 -41 43.5 -105q0 -55 -38.5 -96.5t-123.5 -88.5l225 -210q48 96 70 206l33 -10q-25 -120 -81 -217l132 -122l-27 -19l-123 113q-41 -54 -94.5 -83.5t-130.5 -29.5q-55 0 -101 22.5t-72.5 63t-26.5 92.5q0 66 36.5 112t109.5 87q-57 55 -79.5 90.5
t-22.5 84.5q0 42 20.5 76.5t56.5 54.5t82 20q68 0 111.5 -41zM210 628q-34 -35 -34 -85q0 -27 6 -47t26.5 -46t62.5 -67q79 41 114 78.5t35 85.5q0 54 -34 85t-86 31q-56 0 -90 -35zM165.5 267q-33.5 -42 -33.5 -98q0 -65 46.5 -106.5t118.5 -41.5q69 0 116 26t86 77
l-233 223q-67 -38 -100.5 -80z" />
    <glyph glyph-name="quotesingle" unicode="'" horiz-adv-x="194" 
d="M79 682h36l-5 -244h-27z" />
    <glyph glyph-name="parenleft" unicode="(" horiz-adv-x="324" 
d="M261 818q-55 -81 -88 -142.5t-54 -141.5t-21 -184t21 -184t54 -141.5t88 -142.5l-23 -14q-60 85 -95 147t-57.5 144.5t-22.5 190.5t22.5 190.5t57.5 144.5t95 147z" />
    <glyph glyph-name="parenright" unicode=")" horiz-adv-x="324" 
d="M181 685q35 -62 57.5 -144.5t22.5 -190.5t-22.5 -190.5t-57.5 -144.5t-95 -147l-23 14q55 81 88 142.5t54 141.5t21 184t-21 184t-54 141.5t-88 142.5l23 14q60 -85 95 -147z" />
    <glyph glyph-name="asterisk" unicode="*" horiz-adv-x="433" 
d="M239 552l95 -127l-28 -20l-89 131l-90 -131l-28 20l97 125l-153 47l11 30l149 -54l-3 161h34l-3 -159l149 52l10 -30z" />
    <glyph glyph-name="plus" unicode="+" horiz-adv-x="489" 
d="M262 347h153v-32h-153v-154h-34v154h-154v32h154v153h34v-153z" />
    <glyph glyph-name="comma" unicode="," horiz-adv-x="184" 
d="M115.5 45q8.5 -9 8.5 -23q0 -15 -12 -43l-48 -120h-26l40 134q-9 4 -14 11.5t-5 17.5q0 14 9.5 23t23.5 9q15 0 23.5 -9z" />
    <glyph glyph-name="hyphen" unicode="-" horiz-adv-x="399" 
d="M74 329h251v-32h-251v32z" />
    <glyph glyph-name="period" unicode="." horiz-adv-x="184" 
d="M115.5 45q8.5 -9 8.5 -23t-8.5 -23t-23.5 -9q-14 0 -23.5 9t-9.5 23t9.5 23t23.5 9q15 0 23.5 -9z" />
    <glyph glyph-name="zero" unicode="0" horiz-adv-x="544" 
d="M419.5 587.5q50.5 -86.5 50.5 -257.5q0 -168 -51 -254t-147 -86t-147 86.5t-51 255.5t51 255.5t147 86.5q97 0 147.5 -86.5zM151 565.5q-42 -77.5 -42 -233.5q0 -155 42 -233t121 -78q80 0 121.5 77t41.5 232q0 157 -41.5 235t-121.5 78q-79 0 -121 -77.5z" />
    <glyph glyph-name="one" unicode="1" horiz-adv-x="398" 
d="M270 0h-34v622l-170 -107l-17 27l193 120h28v-662z" />
    <glyph glyph-name="two" unicode="2" horiz-adv-x="467" 
d="M347 627q46 -47 46 -122q0 -68 -26.5 -126t-84 -127.5t-194.5 -218.5h324l-6 -33h-360v32q140 153 201 226.5t86 127.5t25 116q0 65 -37 103t-100 38q-93 0 -157 -77l-25 18q39 46 83 68t100 22q79 0 125 -47z" />
    <glyph glyph-name="three" unicode="3" horiz-adv-x="477" 
d="M344 628.5q47 -45.5 47 -117.5q0 -68 -37 -109t-95 -49q64 -1 106.5 -46t42.5 -123q0 -87 -54.5 -140.5t-145.5 -53.5q-58 0 -102.5 20.5t-81.5 62.5l24 20q35 -39 72.5 -55.5t85.5 -16.5q79 0 123 44.5t44 117.5q0 77 -43 115t-118 38h-40l5 30h32q60 0 103.5 36.5
t43.5 107.5q0 61 -38 97t-102 36q-44 0 -80.5 -15t-73.5 -49l-20 22q38 37 80 55t96 18q79 0 126 -45.5z" />
    <glyph glyph-name="four" unicode="4" horiz-adv-x="509" 
d="M469 182h-91v-182h-34v182h-295v27l204 465l29 -12l-196 -449h258l4 205h30v-205h91v-31z" />
    <glyph glyph-name="five" unicode="5" horiz-adv-x="477" 
d="M395 632h-276v-250q53 36 118 36q86 0 135.5 -55t49.5 -149q0 -65 -24.5 -116t-70.5 -79.5t-107 -28.5q-108 0 -181 76l24 22q33 -34 70 -50.5t88 -16.5q76 0 120.5 52.5t44.5 140.5q0 85 -41 129t-111 44q-36 0 -62.5 -8.5t-59.5 -28.5h-27v312h316z" />
    <glyph glyph-name="six" unicode="6" horiz-adv-x="517" 
d="M410 376q48 -53 48 -154q0 -72 -23 -124.5t-64.5 -80t-95.5 -27.5q-105 0 -153 83t-48 218q0 119 28 205t79.5 132t122.5 46q35 0 61.5 -9.5t53.5 -28.5l-18 -25q-23 16 -46.5 24t-51.5 8q-59 0 -102 -41.5t-66.5 -114.5t-25.5 -166q71 108 178 108q75 0 123 -53z
M384.5 76q38.5 55 38.5 145q0 88 -38 132.5t-100 44.5q-54 0 -99 -32.5t-77 -89.5q5 -255 166 -255q71 0 109.5 55z" />
    <glyph glyph-name="seven" unicode="7" horiz-adv-x="432" 
d="M392 635l-270 -641l-33 11l267 626h-322v31h358v-27z" />
    <glyph glyph-name="eight" unicode="8" horiz-adv-x="529" 
d="M434.5 275q35.5 -39 35.5 -106q0 -82 -57.5 -130.5t-149.5 -48.5q-93 0 -148.5 49t-55.5 129q0 67 38.5 116t112.5 76q-64 27 -92.5 61.5t-28.5 90.5q0 49 24 86t64.5 56.5t87.5 19.5q46 0 86.5 -18.5t65 -55.5t24.5 -89q0 -53 -29.5 -91t-94.5 -72q82 -34 117.5 -73z
M149.5 433q25.5 -29 96.5 -57l41 -16q63 32 91 66.5t28 83.5q0 64 -39.5 99t-101.5 35q-61 0 -101 -35.5t-40 -97.5q0 -49 25.5 -78zM387 60q47 38 47 109q0 43 -15.5 71.5t-46.5 48.5t-87 42l-40 16q-80 -29 -115.5 -71.5t-35.5 -107.5q0 -70 46.5 -108t123.5 -38
q76 0 123 38z" />
    <glyph glyph-name="nine" unicode="9" horiz-adv-x="513" 
d="M397 603q47 -71 47 -203q0 -123 -36.5 -203.5t-105.5 -129.5t-176 -84l-10 28q141 45 212.5 123.5t80.5 219.5q-68 -102 -172 -102q-51 0 -91.5 25t-63.5 72t-23 109q0 65 24.5 114t68.5 75.5t100 26.5q98 0 145 -71zM332.5 311q39.5 28 77.5 85q-1 123 -38 185t-118 62
q-74 0 -116.5 -48.5t-42.5 -137.5q0 -82 39.5 -128t106.5 -46q52 0 91.5 28z" />
    <glyph glyph-name="colon" unicode=":" horiz-adv-x="184" 
d="M115.5 451q8.5 -9 8.5 -23t-8.5 -23t-23.5 -9q-14 0 -23.5 9t-9.5 23t9.5 23t23.5 9q15 0 23.5 -9zM115.5 45q8.5 -9 8.5 -23t-8.5 -23t-23.5 -9q-14 0 -23.5 9t-9.5 23t9.5 23t23.5 9q15 0 23.5 -9z" />
    <glyph glyph-name="semicolon" unicode=";" horiz-adv-x="184" 
d="M115.5 451q8.5 -9 8.5 -23t-8.5 -23t-23.5 -9q-14 0 -23.5 9t-9.5 23t9.5 23t23.5 9q15 0 23.5 -9zM115.5 45q8.5 -9 8.5 -23q0 -15 -12 -43l-48 -120h-26l40 134q-9 4 -14 11.5t-5 17.5q0 14 9.5 23t23.5 9q15 0 23.5 -9z" />
    <glyph glyph-name="less" unicode="&#x3c;" horiz-adv-x="494" 
d="M421 483l-311 -150l311 -154l-13 -29l-335 170v26l335 167z" />
    <glyph glyph-name="equal" unicode="=" horiz-adv-x="489" 
d="M74 428h341v-32h-341v32zM74 266h341v-33h-341v33z" />
    <glyph glyph-name="greater" unicode="&#x3e;" horiz-adv-x="494" 
d="M421 346v-26l-334 -170l-14 29l311 154l-311 150l14 30z" />
    <glyph glyph-name="question" unicode="?" horiz-adv-x="439" 
d="M347.5 653q43.5 -40 43.5 -100q0 -34 -12 -58.5t-30 -41t-48 -37.5q-31 -22 -49.5 -39t-31.5 -43.5t-13 -62.5v-62h-33v65q0 41 13.5 70.5t33.5 47.5t52 41q42 30 62 54.5t20 65.5q0 49 -34 78.5t-90 29.5q-50 0 -85.5 -17.5t-72.5 -57.5l-24 19q40 45 83 66.5t99 21.5
q73 0 116.5 -40zM216.5 45q8.5 -9 8.5 -23t-8.5 -23t-23.5 -9t-24 9t-9 23t9 23t24 9t23.5 -9z" />
    <glyph glyph-name="at" unicode="@" horiz-adv-x="1020" 
d="M743 640.5q90 -52.5 136 -140t46 -191.5q0 -106 -24 -172t-62.5 -94t-83.5 -28q-46 0 -77.5 30.5t-40.5 81.5q-49 -110 -150 -110q-46 0 -83.5 24.5t-59.5 73t-22 117.5q0 82 26.5 137.5t72.5 82.5t103 27q65 0 137 -34v-258q0 -71 25 -107t69 -36q58 0 96.5 60t38.5 203
q0 99 -42.5 179.5t-125 127.5t-196.5 47q-116 0 -206 -55.5t-140 -152t-50 -214.5q0 -124 50 -216.5t139.5 -142t205.5 -49.5q55 0 99.5 8t86.5 25l10 -30q-50 -17 -93.5 -25.5t-103.5 -8.5q-124 0 -221.5 53t-152.5 152.5t-55 233.5q0 126 54.5 230t152.5 164t224 60
q127 0 217 -52.5zM576.5 82.5q37.5 35.5 51.5 86.5v255q-26 12 -50 18t-53 6q-78 0 -123 -57t-45 -159q0 -90 36 -137.5t96 -47.5q50 0 87.5 35.5z" />
    <glyph glyph-name="A" unicode="A" horiz-adv-x="559" 
d="M432 197h-307l-66 -197h-35l234 682h43l234 -682h-37zM421 229l-142 425l-143 -425h285z" />
    <glyph glyph-name="B" unicode="B" horiz-adv-x="590" 
d="M487 314q44 -44 44 -128q0 -90 -59.5 -138t-168.5 -48h-184v682h145q112 0 172.5 -42.5t60.5 -126.5q0 -66 -32.5 -103.5t-90.5 -47.5q69 -4 113 -48zM154 650v-275h162q66 0 105.5 37t39.5 100q0 138 -193 138h-114zM445 70.5q50 38.5 50 115.5q0 79 -47.5 119
t-126.5 40h-167v-313h150q91 0 141 38.5z" />
    <glyph glyph-name="C" unicode="C" horiz-adv-x="543" 
d="M436.5 678q37.5 -15 73.5 -45l-19 -25q-37 28 -68.5 40t-75.5 12q-68 0 -121 -33.5t-84.5 -105t-31.5 -180.5q0 -103 30.5 -175t83.5 -107.5t119 -35.5q52 0 86 14.5t69 43.5l20 -25q-35 -31 -77.5 -48.5t-98.5 -17.5q-78 0 -138.5 40.5t-95 119.5t-34.5 191
q0 114 35.5 193.5t97 119t138.5 39.5q54 0 91.5 -15z" />
    <glyph glyph-name="D" unicode="D" horiz-adv-x="623" 
d="M466 610q84 -72 84 -262q0 -194 -86 -271t-211 -77h-134v682h130q133 0 217 -72zM154 650v-618h100q113 0 186 69.5t73 246.5q0 124 -37.5 190.5t-95 89t-133.5 22.5h-93z" />
    <glyph glyph-name="E" unicode="E" horiz-adv-x="496" 
d="M444 650h-290v-276h251v-31h-251v-311h301v-32h-336v682h330z" />
    <glyph glyph-name="F" unicode="F" horiz-adv-x="473" 
d="M119 682h325l-5 -32h-285v-290h246v-31h-246v-329h-35v682z" />
    <glyph glyph-name="G" unicode="G" horiz-adv-x="609" 
d="M443 678q40 -15 82 -47l-21 -25q-37 28 -73 41t-81 13q-63 0 -117.5 -32.5t-88.5 -103.5t-34 -179q0 -159 65 -241t177 -82q45 0 81.5 9.5t71.5 29.5v267h-142l-4 32h181v-318q-89 -52 -188 -52q-83 0 -145.5 40t-97.5 120t-35 195q0 114 39 192.5t102 117t135 38.5
q53 0 93 -15z" />
    <glyph glyph-name="H" unicode="H" horiz-adv-x="663" 
d="M509 344h-355v-344h-35v682h35v-306h355v306h35v-682h-35v344z" />
    <glyph glyph-name="I" unicode="I" horiz-adv-x="273" 
d="M154 0h-35v682h35v-682z" />
    <glyph glyph-name="J" unicode="J" horiz-adv-x="281" 
d="M168 89q0 -55 -11.5 -88t-41 -57.5t-86.5 -49.5l-10 26q47 22 71 43.5t33.5 50.5t9.5 77v591h35v-593z" />
    <glyph glyph-name="K" unicode="K" horiz-adv-x="518" 
d="M154 0h-35v682h35v-682zM201 367l317 -367h-43l-318 367l303 315h42z" />
    <glyph glyph-name="L" unicode="L" horiz-adv-x="462" 
d="M154 33h288l-6 -33h-317v682h35v-649z" />
    <glyph glyph-name="M" unicode="M" horiz-adv-x="765" 
d="M691 0h-34l-37 340q-26 239 -31 310l-190 -567h-33l-194 567q-2 -28 -9 -96.5t-11 -111.5q-3 -24 -10 -94l-34 -348h-34l70 682h52l187 -556l183 556h53z" />
    <glyph glyph-name="N" unicode="N" horiz-adv-x="665" 
d="M547 0h-44l-355 643q5 -67 5 -213v-430h-34v682h44l354 -643q-4 78 -4 198v445h34v-682z" />
    <glyph glyph-name="O" unicode="O" 
d="M488 652.5q61 -40.5 94.5 -120t33.5 -192.5q0 -110 -33 -188.5t-94 -120t-144 -41.5q-81 0 -142 40.5t-95 119.5t-34 189q0 111 34 191t95.5 121.5t141.5 41.5q82 0 143 -40.5zM173.5 577.5q-63.5 -82.5 -63.5 -238.5q0 -102 29.5 -173.5t82.5 -107.5t123 -36
q111 0 173 81.5t62 236.5q0 157 -63 238.5t-172 81.5q-108 0 -171.5 -82.5z" />
    <glyph glyph-name="P" unicode="P" horiz-adv-x="562" 
d="M509 483q0 -108 -66 -157.5t-183 -49.5h-106v-276h-35v682h146q244 0 244 -199zM417 348q55 40 55 134q0 91 -51.5 130t-155.5 39h-111v-343h109q99 0 154 40z" />
    <glyph glyph-name="Q" unicode="Q" 
d="M637 -56l-24 -29q-52 45 -112.5 61t-155.5 16q-81 0 -142 40t-95 118.5t-34 188.5q0 111 34 191t95.5 121.5t141.5 41.5q82 0 143 -40.5t94.5 -120t33.5 -192.5q0 -144 -50 -224t-134 -103q132 -4 205 -69zM139.5 165.5q29.5 -71.5 82.5 -107.5t123 -36q111 0 173 81.5
t62 236.5q0 157 -63 238.5t-172 81.5q-108 0 -171.5 -82.5t-63.5 -238.5q0 -102 29.5 -173.5z" />
    <glyph glyph-name="R" unicode="R" horiz-adv-x="579" 
d="M313 318h-159v-318h-35v682h155q231 0 231 -180q0 -76 -40 -118.5t-115 -59.5l190 -324h-42zM281 350q91 0 139 37.5t48 114.5q0 75 -46 112t-151 37h-117v-301h127z" />
    <glyph glyph-name="S" unicode="S" horiz-adv-x="535" 
d="M367 675q42 -18 83 -55l-22 -24q-38 34 -75 49t-87 15q-71 0 -113 -35.5t-42 -92.5q0 -40 16 -66t51.5 -45.5t98.5 -38.5q70 -21 111.5 -45.5t62 -60.5t20.5 -92q0 -57 -27 -101t-76 -68.5t-111 -24.5q-64 0 -114 21.5t-95 61.5l22 24q41 -37 84.5 -56t101.5 -19
q81 0 130.5 43.5t49.5 116.5q0 47 -16.5 77.5t-53 51.5t-102.5 41q-71 22 -111.5 46t-59 56t-18.5 78q0 45 23.5 82t67 58t99.5 21q60 0 102 -18z" />
    <glyph glyph-name="T" unicode="T" horiz-adv-x="480" 
d="M464 649h-207v-649h-35v649h-207v33h455z" />
    <glyph glyph-name="U" unicode="U" horiz-adv-x="644" 
d="M536 209q0 -100 -53.5 -159.5t-159.5 -59.5q-108 0 -161 59t-53 160v473h35v-470q0 -89 43.5 -139.5t135.5 -50.5q91 0 134 51t43 139v470h36v-473z" />
    <glyph glyph-name="V" unicode="V" horiz-adv-x="539" 
d="M291 0h-43l-224 682h37l209 -648l208 648h37z" />
    <glyph glyph-name="W" unicode="W" horiz-adv-x="798" 
d="M606 0h-42l-165 646l-166 -646h-41l-158 682h37l144 -646l163 646h42l165 -646l143 646h36z" />
    <glyph glyph-name="X" unicode="X" horiz-adv-x="496" 
d="M482 0h-40l-197 346l-192 -346h-39l210 369l-188 313h40l169 -290l167 290h38l-185 -312z" />
    <glyph glyph-name="Y" unicode="Y" horiz-adv-x="503" 
d="M271 271v-271h-36v270l-216 412h40l195 -380l191 380h39z" />
    <glyph glyph-name="Z" unicode="Z" horiz-adv-x="512" 
d="M462 652l-381 -619h370l-5 -33h-407v31l383 619h-345v32h385v-30z" />
    <glyph glyph-name="bracketleft" unicode="[" horiz-adv-x="314" 
d="M236 772h-106v-853h106v-28h-138v909h138v-28z" />
    <glyph glyph-name="bracketright" unicode="]" horiz-adv-x="314" 
d="M216 -109h-138v28h106v853h-106v28h138v-909z" />
    <glyph glyph-name="underscore" unicode="_" horiz-adv-x="520" 
d="M37 -76h447v-31h-447v31z" />
    <glyph glyph-name="grave" unicode="`" horiz-adv-x="256" 
d="M226 673l-12 -23l-184 84l16 35z" />
    <glyph glyph-name="a" unicode="a" horiz-adv-x="531" 
d="M428 43.5q10 -19.5 34 -29.5l-8 -24q-32 9 -48 30t-18 63q-56 -93 -166 -93q-74 0 -116 42t-42 112q0 80 55.5 123t150.5 43h114v58q0 68 -29 100t-100 32q-60 0 -142 -32l-9 28q83 35 153 35q83 0 122 -40t39 -120v-260q0 -48 10 -67.5zM384 122v159h-107
q-84 0 -130.5 -34.5t-46.5 -101.5q0 -59 33 -91.5t91 -32.5q105 0 160 101z" />
    <glyph glyph-name="b" unicode="b" horiz-adv-x="572" 
d="M449 462q48 -69 48 -198t-50 -201.5t-143 -72.5q-51 0 -91 23t-66 59l-4 -72h-29v734l34 5v-296q30 41 71 64.5t92 23.5q90 0 138 -69zM420.5 83.5q41.5 62.5 41.5 180.5q0 117 -39 176.5t-114 59.5q-52 0 -89 -24.5t-72 -71.5v-292q61 -91 154 -91q77 0 118.5 62.5z" />
    <glyph glyph-name="c" unicode="c" horiz-adv-x="463" 
d="M359 519q32 -12 64 -39l-19 -23q-24 21 -52.5 31.5t-66.5 10.5q-80 0 -130 -62.5t-50 -179.5q0 -114 49.5 -175t129.5 -61q70 0 125 47l19 -24q-61 -54 -142 -54q-65 0 -114 31.5t-76 91.5t-27 144q0 83 26.5 145t75.5 95.5t113 33.5q43 0 75 -12z" />
    <glyph glyph-name="d" unicode="d" horiz-adv-x="576" 
d="M463 734v-734h-30l-4 86q-23 -43 -62.5 -69.5t-98.5 -26.5q-58 0 -102 32t-68 92.5t-24 143.5q0 81 24.5 142.5t70.5 96t109 34.5q54 0 89.5 -21.5t61.5 -55.5v285zM363.5 48.5q37.5 27.5 65.5 83.5v281q-56 87 -148 87q-51 0 -89.5 -29t-60 -83.5t-21.5 -129.5
q0 -112 43 -174.5t117 -62.5q56 0 93.5 27.5z" />
    <glyph glyph-name="e" unicode="e" horiz-adv-x="530" 
d="M464 243h-360q5 -111 53 -166.5t126 -55.5q42 0 74 13t70 42l18 -24q-36 -31 -75 -46.5t-87 -15.5q-99 0 -156.5 70.5t-57.5 195.5q0 84 25 146t70.5 95.5t106.5 33.5q96 0 145.5 -66.5t49.5 -181.5q0 -22 -2 -40zM432 295q0 95 -39.5 150t-119.5 55q-71 0 -118 -57.5
t-51 -170.5h328v23z" />
    <glyph glyph-name="f" unicode="f" horiz-adv-x="312" 
d="M151 612v-92h145l-5 -29h-140v-491h-34v491h-88v29h88v96q0 58 35.5 90.5t95.5 32.5q61 0 119 -29l-13 -27q-53 25 -103 25q-100 0 -100 -96z" />
    <glyph glyph-name="g" unicode="g" horiz-adv-x="491" 
d="M477 519q-47 -13 -138 -14q86 -43 86 -149q0 -76 -48.5 -122t-132.5 -46q-38 0 -69 11q-49 -28 -49 -69q0 -61 93 -61h86q74 0 116 -34.5t42 -90.5q0 -69 -53 -106.5t-159 -37.5q-112 0 -162 33.5t-50 109.5h33q1 -42 18.5 -66t55.5 -35t105 -11q177 0 177 111
q0 45 -33 70.5t-93 25.5h-86q-59 0 -92 24t-33 62q0 51 58 86q-88 45 -88 149q0 77 49.5 124.5t134.5 47.5h35q80 0 115.5 5.5t70.5 18.5zM134 462.5q-38 -38.5 -38 -103.5q0 -68 41 -105t107 -37q70 0 108 36.5t38 102.5t-36.5 105.5t-108.5 39.5q-73 0 -111 -38.5z" />
    <glyph glyph-name="h" unicode="h" horiz-adv-x="582" 
d="M438 488.5q36 -42.5 36 -117.5v-371h-34v366q0 135 -110 135q-56 0 -99 -30.5t-83 -88.5v-382h-34v734l34 6v-317q76 108 185 108q69 0 105 -42.5z" />
    <glyph glyph-name="i" unicode="i" horiz-adv-x="261" 
d="M151.5 726q7.5 -8 7.5 -19q0 -12 -7.5 -20t-20.5 -8t-21 8t-8 20q0 11 8 19t21 8t20.5 -8zM148 0h-34v520h34v-520z" />
    <glyph glyph-name="j" unicode="j" horiz-adv-x="262" 
d="M151.5 726q7.5 -8 7.5 -19q0 -12 -7.5 -20t-20.5 -8t-21 8t-8 20q0 11 8 19t21 8t20.5 -8zM149 10q0 -65 -13 -102.5t-38 -59.5t-71 -45l-10 25q38 20 58 39.5t30 52.5t10 90v510h34v-510z" />
    <glyph glyph-name="k" unicode="k" horiz-adv-x="472" 
d="M148 0h-34v734l34 5v-739zM196 286l262 -286h-42l-262 284l238 236h42z" />
    <glyph glyph-name="l" unicode="l" horiz-adv-x="278" 
d="M130.5 11.5q-21.5 21.5 -21.5 65.5v657l34 5v-661q0 -57 48 -57q19 0 38 8l10 -28q-24 -11 -50 -11q-37 0 -58.5 21.5z" />
    <glyph glyph-name="m" unicode="m" horiz-adv-x="850" 
d="M706.5 488.5q34.5 -42.5 34.5 -117.5v-371h-34v366q0 67 -25.5 101t-73.5 34q-91 0 -164 -119v-382h-34v366q0 67 -25.5 101t-73.5 34q-92 0 -163 -119v-382h-34v520h29l4 -96q32 49 75 78t91 29q52 0 84.5 -29.5t42.5 -83.5q32 52 76 82.5t94 30.5q62 0 96.5 -42.5z" />
    <glyph glyph-name="n" unicode="n" horiz-adv-x="582" 
d="M438.5 489.5q35.5 -41.5 35.5 -118.5v-371h-34v366q0 69 -27.5 102t-82.5 33q-56 0 -99 -30.5t-83 -88.5v-382h-34v520h29l4 -97q78 108 186 108q70 0 105.5 -41.5z" />
    <glyph glyph-name="o" unicode="o" horiz-adv-x="562" 
d="M437 461q56 -70 56 -199q0 -128 -57 -200t-155 -72q-99 0 -155.5 71.5t-56.5 197.5q0 128 57.5 200t155.5 72q99 0 155 -70zM152 438q-47 -62 -47 -179q0 -114 46.5 -176t129.5 -62q82 0 129.5 62t47.5 179q0 115 -46.5 176.5t-129.5 61.5t-130 -62z" />
    <glyph glyph-name="p" unicode="p" horiz-adv-x="572" 
d="M449.5 462q47.5 -69 47.5 -198t-50 -201.5t-143 -72.5q-51 0 -91 22.5t-65 58.5v-265l-34 -6v720h29l3 -78q31 41 72.5 65t92.5 24q91 0 138.5 -69zM421 83.5q41 62.5 41 180.5q0 117 -39 176.5t-114 59.5q-52 0 -89 -24.5t-72 -71.5v-293q61 -90 154 -90q78 0 119 62.5z
" />
    <glyph glyph-name="q" unicode="q" horiz-adv-x="576" 
d="M463 520v-720l-34 6v277q-53 -93 -161 -93q-58 0 -102 32t-68 92.5t-24 143.5q0 81 24.5 142.5t71 96t109.5 34.5q95 0 151 -77l3 66h30zM364 48q37 27 65 82v285q-55 85 -147 85q-51 0 -90 -29t-60.5 -83.5t-21.5 -129.5q0 -112 43 -174.5t118 -62.5q56 0 93 27z" />
    <glyph glyph-name="r" unicode="r" horiz-adv-x="364" 
d="M350 525l-7 -31q-19 6 -46 6q-56 0 -90.5 -40.5t-58.5 -127.5v-332h-34v520h29l2 -124q21 68 58 101.5t95 33.5q28 0 52 -6z" />
    <glyph glyph-name="s" unicode="s" horiz-adv-x="461" 
d="M315 517q38 -14 75 -44l-19 -23q-36 27 -67 38.5t-71 11.5q-58 0 -94 -27.5t-36 -73.5q0 -43 30 -66t106 -43q61 -17 96 -36t51.5 -47t16.5 -71q0 -65 -49 -105.5t-126 -40.5q-58 0 -100 17t-80 49l20 22q38 -29 74 -43t86 -14q62 0 101 30t39 84q0 36 -12.5 58t-43.5 38
t-89 32q-84 22 -119.5 52.5t-35.5 84.5q0 57 46.5 94t116.5 37q46 0 84 -14z" />
    <glyph glyph-name="t" unicode="t" horiz-adv-x="327" 
d="M332 20q-48 -30 -105 -30q-55 0 -86.5 33t-31.5 96v372h-85v29h85v130l34 3v-133h142l-5 -29h-137v-370q0 -100 87 -100q44 0 87 25z" />
    <glyph glyph-name="u" unicode="u" horiz-adv-x="577" 
d="M464 0h-30l-1 101q-28 -50 -72 -80.5t-104 -30.5q-71 0 -109.5 41t-38.5 118v371h34v-368q0 -131 119 -131q54 0 94.5 31t73.5 87v381h34v-520z" />
    <glyph glyph-name="v" unicode="v" horiz-adv-x="455" 
d="M254 0h-44l-191 520h39l173 -490l167 490h37z" />
    <glyph glyph-name="w" unicode="w" horiz-adv-x="685" 
d="M523 0h-46l-133 487l-133 -487h-46l-136 520h37l123 -489l135 489h41l135 -490l121 490h35z" />
    <glyph glyph-name="x" unicode="x" horiz-adv-x="440" 
d="M426 0h-41l-167 258l-164 -258h-40l184 278l-159 242h40l141 -221l142 221h39l-161 -241z" />
    <glyph glyph-name="y" unicode="y" horiz-adv-x="451" 
d="M249 -2q-21 -61 -43.5 -97.5t-56.5 -60t-91 -38.5l-4 27q51 15 80 35.5t46 50t37 85.5h-12l-186 520h38l170 -493l167 493h37z" />
    <glyph glyph-name="z" unicode="z" horiz-adv-x="412" 
d="M377 493l-305 -462h299l-3 -31h-338v28l305 461h-280v31h322v-27z" />
    <glyph glyph-name="braceleft" unicode="{" horiz-adv-x="329" 
d="M251 795q-44 0 -62.5 -20.5t-18.5 -64.5v-263q0 -48 -17.5 -69t-58.5 -29q41 -8 58.5 -29t17.5 -69v-263q0 -44 18.5 -64.5t62.5 -20.5v-28q-113 0 -113 109v278q0 71 -80 71v32q80 0 80 71v278q0 109 113 109v-28z" />
    <glyph glyph-name="bar" unicode="|" horiz-adv-x="410" 
d="M221 -99h-33v901h33v-901z" />
    <glyph glyph-name="braceright" unicode="}" horiz-adv-x="329" 
d="M161.5 796q29.5 -27 29.5 -82v-278q0 -71 80 -71v-32q-80 0 -80 -71v-278q0 -55 -29.5 -82t-83.5 -27v28q43 0 62 20.5t19 64.5v263q0 48 17.5 69t58.5 29q-41 8 -58.5 29t-17.5 69v263q0 44 -19 64.5t-62 20.5v28q54 0 83.5 -27z" />
    <glyph glyph-name="asciitilde" unicode="~" horiz-adv-x="460" 
d="M269.5 280.5q-19.5 7.5 -45.5 22.5q-25 13 -39.5 19.5t-29.5 6.5q-23 0 -37 -9.5t-33 -32.5l-22 13q22 31 42 46.5t50 15.5q20 0 38.5 -7.5t46.5 -22.5q22 -13 37.5 -19.5t30.5 -6.5q22 0 35 9.5t32 32.5l22 -14q-22 -31 -41 -46t-48 -15q-19 0 -38.5 7.5z" />
    <glyph glyph-name="exclamdown" unicode="&#xa1;" horiz-adv-x="240" 
d="M143.5 451q9.5 -9 9.5 -22q0 -14 -9.5 -23.5t-23.5 -9.5q-15 0 -24 9.5t-9 23.5q0 13 9 22t24 9q14 0 23.5 -9zM137 -194h-33v445h33v-445z" />
    <glyph glyph-name="cent" unicode="&#xa2;" horiz-adv-x="463" 
d="M298 -10v-137h-30v138q-91 6 -145 76t-54 190q0 80 24.5 140.5t70 95t105.5 38.5v146h29v-146q38 -2 67.5 -14t57.5 -37l-19 -23q-24 21 -52.5 31.5t-66.5 10.5q-80 0 -130 -62.5t-50 -179.5q0 -114 49.5 -175t129.5 -61q70 0 125 47l19 -24q-54 -50 -130 -54z" />
    <glyph glyph-name="sterling" unicode="&#xa3;" horiz-adv-x="501" 
d="M160.5 75.5q-16.5 -24.5 -54.5 -43.5h334l-4 -32h-377v31q47 24 65.5 47.5t18.5 67.5v192h-65v30h65v136q0 74 41.5 122t118.5 48q47 0 83 -17t67 -53l-24 -20q-27 30 -56 44.5t-70 14.5q-62 0 -94 -38.5t-32 -101.5v-135h218v-30h-218v-190q0 -48 -16.5 -72.5z" />
    <glyph glyph-name="currency" unicode="&#xa4;" horiz-adv-x="560" 
d="M448 271.5q-11 -32.5 -32 -57.5l80 -80l-22 -23l-81 81q-47 -37 -112 -37q-67 0 -113 38l-82 -82l-22 23l82 81q-43 51 -43 126q0 73 42 124l-81 81l22 22l81 -81q47 39 114 39t113 -38l80 80l22 -22l-79 -79q20 -25 31 -57.5t11 -68.5q0 -37 -11 -69.5zM174 227.5
q37 -42.5 107 -42.5q71 0 108 42.5t37 112.5q0 71 -37 113.5t-108 42.5q-70 0 -107 -42.5t-37 -113.5q0 -70 37 -112.5z" />
    <glyph glyph-name="yen" unicode="&#xa5;" horiz-adv-x="495" 
d="M280 333h120v-30h-134v-112h134v-31h-134v-160h-35v160h-133v31h133v112h-133v30h119l-198 329h40l190 -324l188 324h39z" />
    <glyph glyph-name="brokenbar" unicode="&#xa6;" horiz-adv-x="410" 
d="M221 443h-33v359h33v-359zM221 -99h-33v361h33v-361z" />
    <glyph glyph-name="section" unicode="&#xa7;" horiz-adv-x="532" 
d="M402 121.5q13 -22.5 13 -57.5q0 -59 -45 -94.5t-115 -35.5q-48 0 -85.5 11.5t-73.5 33.5l17 26q32 -20 66.5 -30t76.5 -10q58 0 91 27t33 69q0 28 -9.5 45.5t-36 33t-79.5 34.5q-63 22 -96.5 40.5t-49.5 43t-16 63.5q0 72 82 128q-30 18 -42.5 40t-12.5 55q0 57 43.5 93
t108.5 36q46 0 80 -11.5t70 -33.5l-17 -26q-33 21 -63.5 30.5t-68.5 9.5q-53 0 -85.5 -27.5t-32.5 -68.5q0 -29 10.5 -47t38.5 -33t85 -34q83 -28 116.5 -60t33.5 -86q0 -38 -18.5 -68.5t-60.5 -56.5q29 -17 42 -39.5zM139 273.5q11 -19.5 39.5 -35.5t85.5 -36
q44 -14 71 -27q38 24 53.5 49.5t15.5 59.5q0 29 -9 48t-36 36.5t-80 35.5q-55 19 -80 32q-37 -25 -54 -52.5t-17 -60.5q0 -30 11 -49.5z" />
    <glyph glyph-name="dieresis" unicode="&#xa8;" horiz-adv-x="290" 
d="M77.5 715.5q7.5 -7.5 7.5 -19.5q0 -11 -7.5 -19t-20.5 -8q-12 0 -19.5 8t-7.5 19t7.5 19t19.5 8q13 0 20.5 -7.5zM252.5 715.5q7.5 -7.5 7.5 -19.5q0 -11 -7.5 -19t-20.5 -8q-12 0 -20 8t-8 19q0 12 8 19.5t20 7.5q13 0 20.5 -7.5z" />
    <glyph glyph-name="copyright" unicode="&#xa9;" horiz-adv-x="810" 
d="M551 690q65 -37 102 -103.5t37 -151.5q0 -84 -37 -150.5t-102 -104t-146 -37.5t-146 37t-102 103.5t-37 151.5q0 84 37 150.5t102 104t146 37.5t146 -37zM275.5 664.5q-57.5 -33.5 -90 -93.5t-32.5 -136q0 -78 32.5 -137.5t90 -92.5t130.5 -33q72 0 129 33.5t89.5 93.5
t32.5 136q0 78 -32.5 137.5t-89.5 92.5t-129 33q-73 0 -130.5 -33.5zM454.5 601.5q21.5 -7.5 42.5 -23.5l-16 -22q-18 12 -34.5 17.5t-41.5 5.5q-40 0 -71.5 -33.5t-31.5 -108.5q0 -74 29 -110t76 -36q27 0 45.5 7.5t37.5 20.5l16 -23q-44 -35 -100 -35q-62 0 -100 46.5
t-38 129.5q0 58 20 96.5t51 57t65 18.5q29 0 50.5 -7.5z" />
    <glyph glyph-name="ordfeminine" unicode="&#xaa;" horiz-adv-x="500" 
d="M122.5 307.5q-34.5 31.5 -34.5 84.5q0 60 45.5 93t121.5 33h89v41q0 49 -22.5 71t-78.5 22q-48 0 -112 -23l-10 28q66 25 123 25q69 0 101.5 -29.5t32.5 -90.5v-194q0 -34 8 -47.5t26 -21.5l-8 -23q-26 6 -39.5 21.5t-16.5 44.5q-45 -66 -131 -66q-60 0 -94.5 31.5z
M159.5 465q-35.5 -24 -35.5 -73q0 -41 25.5 -63.5t68.5 -22.5q82 0 126 75v108h-83q-66 0 -101.5 -24zM427 32v-32h-340v32h340z" />
    <glyph glyph-name="guillemotleft" unicode="&#xab;" horiz-adv-x="541" 
d="M261 494l-139 -206l139 -205l-23 -15l-155 209v22l155 210zM458 494l-138 -206l138 -205l-22 -15l-155 209v22l155 210z" />
    <glyph glyph-name="logicalnot" unicode="&#xac;" horiz-adv-x="498" 
d="M424 188h-35v116h-315v33h350v-149z" />
    <glyph glyph-name="registered" unicode="&#xae;" horiz-adv-x="638" 
d="M436 698.5q53 -29.5 83.5 -82t30.5 -116.5q0 -63 -31 -115.5t-84 -83.5t-116 -31q-64 0 -116.5 29.5t-83 81.5t-30.5 116q0 63 30.5 116t83.5 84t116 31q64 0 117 -29.5zM420 324q46 27 73 73.5t27 102.5q0 57 -26.5 102.5t-72.5 71.5t-102 26q-54 0 -100.5 -27
t-73.5 -74t-27 -102q0 -57 27 -102.5t73 -71.5t101 -26t101 27zM350 487l74 -120h-39l-67 116h-44v-116h-32v270h63q55 0 81 -19.5t26 -59.5q0 -57 -62 -71zM274 510h45q30 0 45.5 11t15.5 37q0 29 -17 40t-53 11h-36v-99z" />
    <glyph glyph-name="macron" unicode="&#xaf;" horiz-adv-x="278" 
d="M30 682v32h218v-32h-218z" />
    <glyph glyph-name="degree" unicode="&#xb0;" horiz-adv-x="519" 
d="M150 422.5q-32 17.5 -52 50.5t-20 76q0 42 20 75t52.5 51t68.5 18q60 0 101 -40t41 -105q0 -42 -19 -74.5t-51.5 -50.5t-71.5 -18q-37 0 -69 17.5zM298 466.5q29 30.5 29 81.5q0 53 -29 83.5t-79 30.5q-46 0 -76.5 -31t-30.5 -82q0 -50 30.5 -81.5t76.5 -31.5
q50 0 79 30.5z" />
    <glyph glyph-name="plusminus" unicode="&#xb1;" horiz-adv-x="489" 
d="M262 348h153v-32h-153v-154h-34v154h-154v32h154v154h34v-154zM74 32h341v-32h-341v32z" />
    <glyph glyph-name="uni00B2" unicode="&#xb2;" horiz-adv-x="400" 
d="M282 709.5q31 -29.5 31 -76.5q0 -42 -17 -77.5t-54 -77t-121 -125.5h205l-6 -30h-239v29q89 90 128 134.5t54.5 76t15.5 67.5q0 38 -22 59t-61 21q-59 0 -98 -46l-24 18q27 30 56.5 43.5t67.5 13.5q53 0 84 -29.5z" />
    <glyph glyph-name="uni00B3" unicode="&#xb3;" horiz-adv-x="400" 
d="M285.5 713.5q32.5 -28.5 32.5 -74.5q0 -40 -23.5 -66t-61.5 -31q41 -2 68 -29t27 -75q0 -55 -37 -88.5t-99 -33.5q-71 0 -121 53l21 18q23 -23 47 -32.5t52 -9.5q50 0 77 25t27 68q0 88 -99 88h-27l4 28h19q37 0 65 21t28 63q0 35 -23.5 55t-62.5 20q-28 0 -50.5 -8.5
t-48.5 -29.5l-18 21q27 23 54.5 34.5t64.5 11.5q52 0 84.5 -28.5z" />
    <glyph glyph-name="acute" unicode="&#xb4;" horiz-adv-x="256" 
d="M226 734l-184 -84l-12 23l180 96z" />
    <glyph glyph-name="uni00B5" unicode="&#xb5;" horiz-adv-x="583" 
d="M459 -7q-13 35 -18.5 59.5t-8.5 60.5q-32 -57 -73.5 -90t-99.5 -33q-85 0 -117 71q6 -68 6 -130v-125l-34 -2v716h34v-374q0 -64 31.5 -94.5t79.5 -30.5q100 0 168 132v367h34v-346q0 -55 7 -96t22 -82z" />
    <glyph glyph-name="paragraph" unicode="&#xb6;" 
d="M531 682v-876l-33 -6v852h-138v-846l-34 -6v503q-115 4 -166 55.5t-51 134.5q0 91 57.5 140t163.5 49h201z" />
    <glyph glyph-name="periodcentered" unicode="&#xb7;" horiz-adv-x="184" 
d="M115.5 347.5q8.5 -9.5 8.5 -23.5q0 -13 -9 -22.5t-23 -9.5t-23.5 9.5t-9.5 22.5q0 14 9.5 23.5t23.5 9.5q15 0 23.5 -9.5z" />
    <glyph glyph-name="cedilla" unicode="&#xb8;" horiz-adv-x="224" 
d="M103 -70q91 -6 91 -70q0 -36 -26.5 -57t-65.5 -21q-41 0 -72 20l14 25q22 -15 58 -15q26 0 42.5 12t16.5 36t-21 35t-68 12l7 109h24v-86z" />
    <glyph glyph-name="uni00B9" unicode="&#xb9;" horiz-adv-x="400" 
d="M247 323h-32v373l-107 -61l-16 24l129 75h26v-411z" />
    <glyph glyph-name="ordmasculine" unicode="&#xba;" horiz-adv-x="500" 
d="M375 630q46 -52 46 -149q0 -96 -47 -150.5t-127 -54.5t-125.5 54t-45.5 149t46.5 149t125.5 54q81 0 127 -52zM148.5 608q-36.5 -44 -36.5 -129q0 -83 36 -128t100 -45q65 0 101 44.5t36 130.5q0 84 -35 127.5t-101 43.5q-64 0 -100.5 -44zM78 32h340v-32h-340v32z" />
    <glyph glyph-name="guillemotright" unicode="&#xbb;" horiz-adv-x="531" 
d="M261 299v-22l-156 -209l-22 15l139 205l-139 206l22 15zM448 299v-22l-155 -209l-22 15l138 205l-138 206l22 15z" />
    <glyph glyph-name="onequarter" unicode="&#xbc;" horiz-adv-x="902" 
d="M669 732l-409 -798l-27 13l409 798zM215 271v374l-107 -62l-16 24l129 75h26v-411h-32zM841 108h-57v-108h-32v108h-190v25l131 286l27 -11l-124 -271h156l4 122h28v-122h57v-29z" />
    <glyph glyph-name="onehalf" unicode="&#xbd;" horiz-adv-x="902" 
d="M669 732l-409 -798l-27 13l409 798zM247 271h-32v374l-107 -62l-16 24l129 75h26v-411zM784 387q31 -30 31 -77q0 -42 -17 -77t-54 -77t-121 -126h205l-6 -30h-239v29q89 90 128 134.5t54.5 76t15.5 67.5q0 38 -22 59t-60 21q-60 0 -99 -46l-24 18q27 31 56.5 44.5
t67.5 13.5q53 0 84 -30z" />
    <glyph glyph-name="threequarters" unicode="&#xbe;" horiz-adv-x="902" 
d="M669 732l-409 -798l-27 13l409 798zM291 297.5q-37 -33.5 -99 -33.5q-71 0 -121 53l21 18q23 -23 47 -32.5t52 -9.5q50 0 77 25t27 68q0 88 -99 88h-27l4 28h19q37 0 65 21t28 63q0 35 -23.5 55t-62.5 20q-28 0 -50.5 -8.5t-48.5 -29.5l-18 21q27 23 54.5 34.5t64.5 11.5
q52 0 84.5 -28.5t32.5 -74.5q0 -40 -23 -65.5t-62 -31.5q41 -2 68 -29t27 -75q0 -55 -37 -88.5zM841 108h-57v-108h-32v108h-190v25l131 286l27 -11l-124 -271h156l4 122h28v-122h57v-29z" />
    <glyph glyph-name="questiondown" unicode="&#xbf;" horiz-adv-x="439" 
d="M223 405q-9 9 -9 24q0 13 9 22t24 9q14 0 23 -9t9 -22q0 -14 -9 -23.5t-23 -9.5q-15 0 -24 9zM124 -181.5q-36 18.5 -55.5 48.5t-19.5 65t13 60.5t31.5 42.5t50.5 39q44 31 66 57.5t22 70.5v49h33v-52q0 -36 -13 -62.5t-32 -43.5t-50 -39q-43 -30 -64 -55t-21 -67
q0 -44 34 -72.5t89 -28.5q50 0 85.5 18t72.5 58l25 -19q-40 -46 -83.5 -67t-99.5 -21q-48 0 -84 18.5z" />
    <glyph glyph-name="Agrave" unicode="&#xc0;" horiz-adv-x="559" 
d="M366 761l-186 76l18 35l178 -89zM432 197h-307l-66 -197h-35l234 682h43l234 -682h-37zM421 229l-142 425l-143 -425h285z" />
    <glyph glyph-name="Aacute" unicode="&#xc1;" horiz-adv-x="559" 
d="M191 761l-10 22l179 89l17 -35zM432 197h-307l-66 -197h-35l234 682h43l234 -682h-37zM421 229l-142 425l-143 -425h285z" />
    <glyph glyph-name="Acircumflex" unicode="&#xc2;" horiz-adv-x="559" 
d="M161 765l-17 19l126 95h19l125 -95l-17 -19l-118 79zM432 197h-307l-66 -197h-35l234 682h43l234 -682h-37zM421 229l-142 425l-143 -425h285z" />
    <glyph glyph-name="Atilde" unicode="&#xc3;" horiz-adv-x="559" 
d="M190.5 835q-13.5 -8 -28.5 -28l-21 12q33 54 80 54q13 0 27 -5.5t32 -16.5q20 -11 32.5 -16t25.5 -5q16 0 29 9.5t29 33.5l22 -12q-32 -61 -80 -61q-18 0 -34 6.5t-36 18.5q-3 1 -13 7t-18.5 8.5t-15.5 2.5q-17 0 -30.5 -8zM432 197h-307l-66 -197h-35l234 682h43
l234 -682h-37zM421 229l-142 425l-143 -425h285z" />
    <glyph glyph-name="Adieresis" unicode="&#xc4;" horiz-adv-x="559" 
d="M171.5 803q-7.5 8 -7.5 19t7.5 19t19.5 8q13 0 20.5 -7.5t7.5 -19.5q0 -11 -7.5 -19t-20.5 -8q-12 0 -19.5 8zM347 803q-8 8 -8 19q0 12 8 19.5t20 7.5t19.5 -8t7.5 -19t-7.5 -19t-19.5 -8t-20 8zM432 197h-307l-66 -197h-35l234 682h43l234 -682h-37zM421 229l-142 425
l-143 -425h285z" />
    <glyph glyph-name="Aring" unicode="&#xc5;" horiz-adv-x="559" 
d="M216 788.5q-24 23.5 -24 61.5q0 39 24 62.5t64 23.5q39 0 63 -23.5t24 -62.5q0 -38 -24 -61.5t-63 -23.5q-40 0 -64 23.5zM237.5 894.5q-14.5 -15.5 -14.5 -44.5q0 -28 14.5 -43.5t42.5 -15.5q27 0 41.5 15.5t14.5 43.5q0 29 -14.5 44.5t-41.5 15.5q-28 0 -42.5 -15.5z
M432 197h-307l-66 -197h-35l234 682h43l234 -682h-37zM421 229l-142 425l-143 -425h285z" />
    <glyph glyph-name="AE" unicode="&#xc6;" horiz-adv-x="761" 
d="M720 32v-32h-256l-50 192h-298l-73 -192h-35l263 682h397l-5 -32h-335l72 -276h261v-31h-253l82 -311h230zM405 224l-112 430l-164 -430h276z" />
    <glyph glyph-name="Ccedilla" unicode="&#xc7;" horiz-adv-x="543" 
d="M438 -140q0 -35 -27 -56.5t-65 -21.5q-41 0 -72 20l13 25q23 -15 59 -15q25 0 41.5 12.5t16.5 35.5q0 24 -21 35t-68 12l6 84q-72 5 -128 47t-87.5 119.5t-31.5 183.5q0 114 35.5 193.5t97 119t138.5 39.5q54 0 91.5 -15t73.5 -45l-19 -25q-37 28 -68.5 40t-75.5 12
q-68 0 -121 -33.5t-84.5 -105t-31.5 -180.5q0 -103 30.5 -175t83.5 -107.5t119 -35.5q52 0 86 14.5t69 43.5l20 -25q-73 -65 -171 -66v-60q91 -6 91 -70z" />
    <glyph glyph-name="Egrave" unicode="&#xc8;" horiz-adv-x="496" 
d="M385 783l-10 -22l-186 76l17 35zM444 650h-290v-276h251v-31h-251v-311h301v-32h-336v682h330z" />
    <glyph glyph-name="Eacute" unicode="&#xc9;" horiz-adv-x="496" 
d="M386 837l-186 -76l-10 22l179 89zM444 650h-290v-276h251v-31h-251v-311h301v-32h-336v682h330z" />
    <glyph glyph-name="Ecircumflex" unicode="&#xca;" horiz-adv-x="496" 
d="M153 784l126 95h19l124 -95l-16 -19l-118 79l-118 -79zM444 650h-290v-276h251v-31h-251v-311h301v-32h-336v682h330z" />
    <glyph glyph-name="Edieresis" unicode="&#xcb;" horiz-adv-x="496" 
d="M220.5 841.5q7.5 -7.5 7.5 -19.5q0 -11 -7.5 -19t-20.5 -8q-12 0 -19.5 8t-7.5 19t7.5 19t19.5 8q13 0 20.5 -7.5zM394.5 841q7.5 -8 7.5 -19t-7.5 -19t-19.5 -8t-20 8t-8 19q0 12 8 19.5t20 7.5t19.5 -8zM444 650h-290v-276h251v-31h-251v-311h301v-32h-336v682h330z
" />
    <glyph glyph-name="Igrave" unicode="&#xcc;" horiz-adv-x="273" 
d="M233 783l-10 -22l-186 76l17 35zM154 0h-35v682h35v-682z" />
    <glyph glyph-name="Iacute" unicode="&#xcd;" horiz-adv-x="273" 
d="M233 837l-186 -76l-10 22l180 89zM154 0h-35v682h35v-682z" />
    <glyph glyph-name="Icircumflex" unicode="&#xce;" horiz-adv-x="273" 
d="M1 784l125 95h19l125 -95l-17 -19l-117 79l-119 -79zM154 0h-35v682h35v-682z" />
    <glyph glyph-name="Idieresis" unicode="&#xcf;" horiz-adv-x="273" 
d="M68.5 841.5q7.5 -7.5 7.5 -19.5q0 -11 -7.5 -19t-20.5 -8q-12 0 -20 8t-8 19q0 12 8 19.5t20 7.5q13 0 20.5 -7.5zM242.5 841q7.5 -8 7.5 -19t-7.5 -19t-19.5 -8t-20 8t-8 19q0 12 8 19.5t20 7.5t19.5 -8zM154 0h-35v682h35v-682z" />
    <glyph glyph-name="Eth" unicode="&#xd0;" horiz-adv-x="623" 
d="M466 610q84 -72 84 -262q0 -194 -86 -271t-211 -77h-134v336h-94v32h94v314h130q133 0 217 -72zM440 101.5q73 69.5 73 246.5q0 124 -37.5 190.5t-95 89t-133.5 22.5h-93v-282h188v-32h-188v-304h100q113 0 186 69.5z" />
    <glyph glyph-name="Ntilde" unicode="&#xd1;" horiz-adv-x="665" 
d="M365 806.5q-16 6.5 -37 18.5q-3 1 -13 7t-18.5 8.5t-15.5 2.5q-17 0 -30.5 -8t-28.5 -28l-21 12q33 54 80 54q13 0 26 -5t33 -16q21 -11 33.5 -16.5t25.5 -5.5q16 0 29 9.5t29 33.5l21 -12q-30 -61 -79 -61q-18 0 -34 6.5zM547 0h-44l-355 643q5 -67 5 -213v-430h-34v682
h44l354 -643q-4 78 -4 198v445h34v-682z" />
    <glyph glyph-name="Ograve" unicode="&#xd2;" 
d="M442 783l-10 -22l-186 76l17 35zM488 652.5q61 -40.5 94.5 -120t33.5 -192.5q0 -110 -33 -188.5t-94 -120t-144 -41.5q-81 0 -142 40.5t-95 119.5t-34 189q0 111 34 191t95.5 121.5t141.5 41.5q82 0 143 -40.5zM173.5 577.5q-63.5 -82.5 -63.5 -238.5q0 -102 29.5 -173.5
t82.5 -107.5t123 -36q111 0 173 81.5t62 236.5q0 157 -63 238.5t-172 81.5q-108 0 -171.5 -82.5z" />
    <glyph glyph-name="Oacute" unicode="&#xd3;" 
d="M443 837l-186 -76l-10 22l179 89zM488 652.5q61 -40.5 94.5 -120t33.5 -192.5q0 -110 -33 -188.5t-94 -120t-144 -41.5q-81 0 -142 40.5t-95 119.5t-34 189q0 111 34 191t95.5 121.5t141.5 41.5q82 0 143 -40.5zM173.5 577.5q-63.5 -82.5 -63.5 -238.5
q0 -102 29.5 -173.5t82.5 -107.5t123 -36q111 0 173 81.5t62 236.5q0 157 -63 238.5t-172 81.5q-108 0 -171.5 -82.5z" />
    <glyph glyph-name="Ocircumflex" unicode="&#xd4;" 
d="M210 784l126 95h18l125 -95l-16 -19l-118 79l-119 -79zM488 652.5q61 -40.5 94.5 -120t33.5 -192.5q0 -110 -33 -188.5t-94 -120t-144 -41.5q-81 0 -142 40.5t-95 119.5t-34 189q0 111 34 191t95.5 121.5t141.5 41.5q82 0 143 -40.5zM173.5 577.5
q-63.5 -82.5 -63.5 -238.5q0 -102 29.5 -173.5t82.5 -107.5t123 -36q111 0 173 81.5t62 236.5q0 157 -63 238.5t-172 81.5q-108 0 -171.5 -82.5z" />
    <glyph glyph-name="Otilde" unicode="&#xd5;" 
d="M370 806.5q-16 6.5 -37 18.5q-3 1 -13 7t-18.5 8.5t-15.5 2.5q-17 0 -30.5 -8t-27.5 -28l-22 12q33 54 80 54q13 0 26 -5t33 -16q21 -11 33.5 -16.5t25.5 -5.5q16 0 29 9.5t29 33.5l21 -12q-30 -61 -79 -61q-18 0 -34 6.5zM488 652.5q61 -40.5 94.5 -120t33.5 -192.5
q0 -110 -33 -188.5t-94 -120t-144 -41.5q-81 0 -142 40.5t-95 119.5t-34 189q0 111 34 191t95.5 121.5t141.5 41.5q82 0 143 -40.5zM173.5 577.5q-63.5 -82.5 -63.5 -238.5q0 -102 29.5 -173.5t82.5 -107.5t123 -36q111 0 173 81.5t62 236.5q0 157 -63 238.5t-172 81.5
q-108 0 -171.5 -82.5z" />
    <glyph glyph-name="Odieresis" unicode="&#xd6;" 
d="M277.5 841.5q7.5 -7.5 7.5 -19.5q0 -11 -7.5 -19t-20.5 -8q-12 0 -19.5 8t-7.5 19t7.5 19t19.5 8q13 0 20.5 -7.5zM451.5 841q7.5 -8 7.5 -19t-7.5 -19t-19.5 -8t-20 8t-8 19q0 12 8 19.5t20 7.5t19.5 -8zM488 652.5q61 -40.5 94.5 -120t33.5 -192.5q0 -110 -33 -188.5
t-94 -120t-144 -41.5q-81 0 -142 40.5t-95 119.5t-34 189q0 111 34 191t95.5 121.5t141.5 41.5q82 0 143 -40.5zM173.5 577.5q-63.5 -82.5 -63.5 -238.5q0 -102 29.5 -173.5t82.5 -107.5t123 -36q111 0 173 81.5t62 236.5q0 157 -63 238.5t-172 81.5q-108 0 -171.5 -82.5z
" />
    <glyph glyph-name="multiply" unicode="&#xd7;" horiz-adv-x="489" 
d="M395 438l-128 -130l128 -131l-24 -23l-126 132l-127 -132l-24 23l126 129l-126 132l24 23l124 -133l129 133z" />
    <glyph glyph-name="Oslash" unicode="&#xd8;" 
d="M574 551q42 -84 42 -211q0 -110 -33 -188.5t-94 -120t-144 -41.5q-47 0 -86 13l-31 -118l-34 10l37 120q-74 35 -115.5 118t-41.5 206q0 111 34 191t95.5 121.5t141.5 41.5q44 0 83 -12l33 123l34 -10l-38 -124q75 -35 117 -119zM145 152q35 -75 98 -107l177 604
q-36 11 -75 11q-108 0 -171.5 -82.5t-63.5 -238.5q0 -112 35 -187zM518 103.5q62 81.5 62 236.5q0 116 -35 191t-99 107l-178 -603q35 -13 77 -13q111 0 173 81.5z" />
    <glyph glyph-name="Ugrave" unicode="&#xd9;" horiz-adv-x="644" 
d="M419 783l-9 -22l-187 76l18 35zM536 209q0 -100 -53.5 -159.5t-159.5 -59.5q-108 0 -161 59t-53 160v473h35v-470q0 -89 43.5 -139.5t135.5 -50.5q91 0 134 51t43 139v470h36v-473z" />
    <glyph glyph-name="Uacute" unicode="&#xda;" horiz-adv-x="644" 
d="M420 837l-186 -76l-10 22l180 89zM536 209q0 -100 -53.5 -159.5t-159.5 -59.5q-108 0 -161 59t-53 160v473h35v-470q0 -89 43.5 -139.5t135.5 -50.5q91 0 134 51t43 139v470h36v-473z" />
    <glyph glyph-name="Ucircumflex" unicode="&#xdb;" horiz-adv-x="644" 
d="M187 784l126 95h19l125 -95l-17 -19l-117 79l-119 -79zM536 209q0 -100 -53.5 -159.5t-159.5 -59.5q-108 0 -161 59t-53 160v473h35v-470q0 -89 43.5 -139.5t135.5 -50.5q91 0 134 51t43 139v470h36v-473z" />
    <glyph glyph-name="Udieresis" unicode="&#xdc;" horiz-adv-x="644" 
d="M254.5 841.5q7.5 -7.5 7.5 -19.5q0 -11 -7.5 -19t-20.5 -8q-12 0 -19.5 8t-7.5 19t7.5 19t19.5 8q13 0 20.5 -7.5zM429.5 841q7.5 -8 7.5 -19t-7.5 -19t-19.5 -8t-20 8t-8 19q0 12 8 19.5t20 7.5t19.5 -8zM536 209q0 -100 -53.5 -159.5t-159.5 -59.5q-108 0 -161 59
t-53 160v473h35v-470q0 -89 43.5 -139.5t135.5 -50.5q91 0 134 51t43 139v470h36v-473z" />
    <glyph glyph-name="Yacute" unicode="&#xdd;" horiz-adv-x="503" 
d="M349 837l-186 -76l-10 22l180 89zM271 271v-271h-36v270l-216 412h40l195 -380l191 380h39z" />
    <glyph glyph-name="Thorn" unicode="&#xde;" horiz-adv-x="562" 
d="M509 357q0 -214 -249 -214h-106v-143h-35v682h35v-125h111q244 0 244 -200zM417.5 215.5q54.5 40.5 54.5 140.5q0 91 -51.5 130t-155.5 39h-111v-350h109q100 0 154.5 40.5z" />
    <glyph glyph-name="germandbls" unicode="&#xdf;" horiz-adv-x="574" 
d="M402 702.5q43 -36.5 43 -92.5q0 -40 -18 -65t-52 -53q-26 -21 -38 -36t-12 -35q0 -23 17.5 -40.5t54.5 -42.5q38 -26 62.5 -47.5t42.5 -56.5t18 -83q0 -72 -41 -116.5t-111 -44.5q-50 0 -92 22l13 26q34 -17 78 -17q54 0 86 34t32 96q0 42 -15.5 72.5t-37.5 49.5t-58 43
q-43 28 -63 49.5t-20 55.5q0 26 13.5 43.5t41.5 40.5q32 27 48 48.5t16 55.5q0 45 -32 72t-86 27q-65 0 -104.5 -43t-39.5 -128v-537h-34v541q0 94 49.5 146t128.5 52q67 0 110 -36.5z" />
    <glyph glyph-name="agrave" unicode="&#xe0;" horiz-adv-x="531" 
d="M342 650l-184 84l16 35l181 -96zM428 43.5q10 -19.5 34 -29.5l-8 -24q-32 9 -48 30t-18 63q-56 -93 -166 -93q-74 0 -116 42t-42 112q0 80 55.5 123t150.5 43h114v58q0 68 -29 100t-100 32q-60 0 -142 -32l-9 28q83 35 153 35q83 0 122 -40t39 -120v-260q0 -48 10 -67.5z
M384 122v159h-107q-84 0 -130.5 -34.5t-46.5 -101.5q0 -59 33 -91.5t91 -32.5q105 0 160 101z" />
    <glyph glyph-name="aacute" unicode="&#xe1;" horiz-adv-x="531" 
d="M161 650l-13 23l181 96l16 -35zM428 43.5q10 -19.5 34 -29.5l-8 -24q-32 9 -48 30t-18 63q-56 -93 -166 -93q-74 0 -116 42t-42 112q0 80 55.5 123t150.5 43h114v58q0 68 -29 100t-100 32q-60 0 -142 -32l-9 28q83 35 153 35q83 0 122 -40t39 -120v-260q0 -48 10 -67.5z
M384 122v159h-107q-84 0 -130.5 -34.5t-46.5 -101.5q0 -59 33 -91.5t91 -32.5q105 0 160 101z" />
    <glyph glyph-name="acircumflex" unicode="&#xe2;" horiz-adv-x="531" 
d="M138 650l-17 20l125 100h19l126 -100l-17 -20l-119 85zM428 43.5q10 -19.5 34 -29.5l-8 -24q-32 9 -48 30t-18 63q-56 -93 -166 -93q-74 0 -116 42t-42 112q0 80 55.5 123t150.5 43h114v58q0 68 -29 100t-100 32q-60 0 -142 -32l-9 28q83 35 153 35q83 0 122 -40t39 -120
v-260q0 -48 10 -67.5zM384 122v159h-107q-84 0 -130.5 -34.5t-46.5 -101.5q0 -59 33 -91.5t91 -32.5q105 0 160 101z" />
    <glyph glyph-name="atilde" unicode="&#xe3;" horiz-adv-x="531" 
d="M167 709q-13 -8 -28 -28l-22 12q35 54 80 54q13 0 26 -5t33 -16q21 -11 33.5 -16.5t25.5 -5.5q16 0 29 9.5t29 33.5l21 -12q-30 -61 -79 -61q-18 0 -32 5.5t-38 18.5q-16 9 -27 14t-21 5q-17 0 -30 -8zM428 43.5q10 -19.5 34 -29.5l-8 -24q-32 9 -48 30t-18 63
q-56 -93 -166 -93q-74 0 -116 42t-42 112q0 80 55.5 123t150.5 43h114v58q0 68 -29 100t-100 32q-60 0 -142 -32l-9 28q83 35 153 35q83 0 122 -40t39 -120v-260q0 -48 10 -67.5zM384 122v159h-107q-84 0 -130.5 -34.5t-46.5 -101.5q0 -59 33 -91.5t91 -32.5q105 0 160 101z
" />
    <glyph glyph-name="adieresis" unicode="&#xe4;" horiz-adv-x="531" 
d="M148.5 677q-7.5 8 -7.5 19t7.5 19t19.5 8q13 0 20.5 -7.5t7.5 -19.5q0 -11 -7.5 -19t-20.5 -8q-12 0 -19.5 8zM323 677q-8 8 -8 19q0 12 8 19.5t20 7.5q13 0 20.5 -7.5t7.5 -19.5q0 -11 -7.5 -19t-20.5 -8q-12 0 -20 8zM428 43.5q10 -19.5 34 -29.5l-8 -24q-32 9 -48 30
t-18 63q-56 -93 -166 -93q-74 0 -116 42t-42 112q0 80 55.5 123t150.5 43h114v58q0 68 -29 100t-100 32q-60 0 -142 -32l-9 28q83 35 153 35q83 0 122 -40t39 -120v-260q0 -48 10 -67.5zM384 122v159h-107q-84 0 -130.5 -34.5t-46.5 -101.5q0 -59 33 -91.5t91 -32.5
q105 0 160 101z" />
    <glyph glyph-name="aring" unicode="&#xe5;" horiz-adv-x="531" 
d="M193 662.5q-24 23.5 -24 61.5q0 39 24 62.5t63 23.5t63.5 -23.5t24.5 -62.5q0 -38 -24.5 -61.5t-63.5 -23.5t-63 23.5zM214.5 768.5q-14.5 -15.5 -14.5 -44.5q0 -28 14.5 -43.5t41.5 -15.5q28 0 42.5 15.5t14.5 43.5q0 29 -14.5 44.5t-42.5 15.5q-27 0 -41.5 -15.5z
M428 43.5q10 -19.5 34 -29.5l-8 -24q-32 9 -48 30t-18 63q-56 -93 -166 -93q-74 0 -116 42t-42 112q0 80 55.5 123t150.5 43h114v58q0 68 -29 100t-100 32q-60 0 -142 -32l-9 28q83 35 153 35q83 0 122 -40t39 -120v-260q0 -48 10 -67.5zM384 122v159h-107
q-84 0 -130.5 -34.5t-46.5 -101.5q0 -59 33 -91.5t91 -32.5q105 0 160 101z" />
    <glyph glyph-name="ae" unicode="&#xe6;" horiz-adv-x="845" 
d="M779 243h-359q4 -111 52 -166.5t126 -55.5q43 0 75 13t69 42l18 -24q-36 -31 -75 -46.5t-87 -15.5q-63 0 -110.5 29.5t-73.5 85.5q-43 -62 -88 -88.5t-103 -26.5q-74 0 -116.5 42t-42.5 112q0 80 56 123.5t151 43.5h113v57q0 68 -29 100t-99 32q-62 0 -142 -32l-10 28
q42 18 78.5 26.5t74.5 8.5q72 0 111 -30.5t47 -91.5q51 122 176 122q92 0 141 -66.5t49 -181.5q0 -22 -2 -40zM747 295q0 94 -39 149.5t-117 55.5q-73 0 -120 -57t-51 -171h327v23zM319 48q41 27 83 87q-18 53 -18 121v25h-107q-84 0 -130.5 -34.5t-46.5 -101.5
q0 -59 33 -91.5t91 -32.5q54 0 95 27z" />
    <glyph glyph-name="ccedilla" unicode="&#xe7;" horiz-adv-x="463" 
d="M383 -140q0 -35 -27 -56.5t-65 -21.5q-41 0 -72 20l14 25q22 -15 58 -15q26 0 42 12t16 36t-21 35t-68 12l6 84q-91 7 -144 77t-53 189q0 83 26.5 145t75.5 95.5t113 33.5q43 0 75 -12t64 -39l-19 -23q-24 21 -52.5 31.5t-66.5 10.5q-80 0 -130 -62.5t-50 -179.5
q0 -114 49.5 -175t129.5 -61q70 0 125 47l19 -24q-59 -53 -136 -54v-60q91 -6 91 -70z" />
    <glyph glyph-name="egrave" unicode="&#xe8;" horiz-adv-x="530" 
d="M360 650l-184 84l16 35l181 -96zM464 243h-360q5 -111 53 -166.5t126 -55.5q42 0 74 13t70 42l18 -24q-36 -31 -75 -46.5t-87 -15.5q-99 0 -156.5 70.5t-57.5 195.5q0 84 25 146t70.5 95.5t106.5 33.5q96 0 145.5 -66.5t49.5 -181.5q0 -22 -2 -40zM432 295
q0 95 -39.5 150t-119.5 55q-71 0 -118 -57.5t-51 -170.5h328v23z" />
    <glyph glyph-name="eacute" unicode="&#xe9;" horiz-adv-x="530" 
d="M179 650l-13 23l181 96l16 -35zM464 243h-360q5 -111 53 -166.5t126 -55.5q42 0 74 13t70 42l18 -24q-36 -31 -75 -46.5t-87 -15.5q-99 0 -156.5 70.5t-57.5 195.5q0 84 25 146t70.5 95.5t106.5 33.5q96 0 145.5 -66.5t49.5 -181.5q0 -22 -2 -40zM432 295q0 95 -39.5 150
t-119.5 55q-71 0 -118 -57.5t-51 -170.5h328v23z" />
    <glyph glyph-name="ecircumflex" unicode="&#xea;" horiz-adv-x="530" 
d="M156 650l-17 20l125 100h19l126 -100l-17 -20l-119 85zM464 243h-360q5 -111 53 -166.5t126 -55.5q42 0 74 13t70 42l18 -24q-36 -31 -75 -46.5t-87 -15.5q-99 0 -156.5 70.5t-57.5 195.5q0 84 25 146t70.5 95.5t106.5 33.5q96 0 145.5 -66.5t49.5 -181.5q0 -22 -2 -40z
M432 295q0 95 -39.5 150t-119.5 55q-71 0 -118 -57.5t-51 -170.5h328v23z" />
    <glyph glyph-name="edieresis" unicode="&#xeb;" horiz-adv-x="530" 
d="M166.5 677q-7.5 8 -7.5 19t7.5 19t19.5 8q13 0 20.5 -7.5t7.5 -19.5q0 -11 -7.5 -19t-20.5 -8q-12 0 -19.5 8zM341 677q-8 8 -8 19q0 12 8 19.5t20 7.5q13 0 20.5 -7.5t7.5 -19.5q0 -11 -7.5 -19t-20.5 -8q-12 0 -20 8zM464 243h-360q5 -111 53 -166.5t126 -55.5
q42 0 74 13t70 42l18 -24q-36 -31 -75 -46.5t-87 -15.5q-99 0 -156.5 70.5t-57.5 195.5q0 84 25 146t70.5 95.5t106.5 33.5q96 0 145.5 -66.5t49.5 -181.5q0 -22 -2 -40zM432 295q0 95 -39.5 150t-119.5 55q-71 0 -118 -57.5t-51 -170.5h328v23z" />
    <glyph glyph-name="igrave" unicode="&#xec;" horiz-adv-x="261" 
d="M229 673l-12 -23l-184 84l16 35zM148 0h-34v520h34v-520z" />
    <glyph glyph-name="iacute" unicode="&#xed;" horiz-adv-x="261" 
d="M219 734l-184 -84l-12 23l180 96zM148 0h-34v520h34v-520z" />
    <glyph glyph-name="icircumflex" unicode="&#xee;" horiz-adv-x="261" 
d="M-4 670l124 100h19l126 -100l-17 -20l-118 85l-118 -85zM148 0h-34v520h34v-520z" />
    <glyph glyph-name="idieresis" unicode="&#xef;" horiz-adv-x="261" 
d="M63.5 715.5q7.5 -7.5 7.5 -19.5q0 -11 -7.5 -19t-20.5 -8q-12 0 -20 8t-8 19q0 12 8 19.5t20 7.5q13 0 20.5 -7.5zM237.5 715q7.5 -8 7.5 -19t-7.5 -19t-19.5 -8t-20 8t-8 19q0 12 8 19.5t20 7.5t19.5 -8zM148 0h-34v520h34v-520z" />
    <glyph glyph-name="eth" unicode="&#xf0;" horiz-adv-x="546" 
d="M432 513.5q40 -88.5 40 -223.5q0 -149 -54.5 -224.5t-147.5 -75.5q-96 0 -148.5 64.5t-52.5 176.5q0 62 22.5 115.5t66 85.5t102.5 32q98 0 173 -91q-9 85 -43.5 151.5t-98.5 117.5l-81 -82l-27 11l85 87q-64 40 -129 53l8 29q72 -15 142 -59l69 71l22 -19l-67 -68
q79 -63 119 -151.5zM393.5 90.5q43.5 69.5 43.5 202.5q0 21 -2 43q-78 97 -172 97q-74 0 -116 -57.5t-42 -145.5q0 -99 43.5 -154t121.5 -55q80 0 123.5 69.5z" />
    <glyph glyph-name="ntilde" unicode="&#xf1;" horiz-adv-x="582" 
d="M207.5 709q-13.5 -8 -27.5 -28l-22 12q33 54 80 54q13 0 26 -5t33 -16q21 -11 33.5 -16.5t25.5 -5.5q16 0 29 9.5t29 33.5l21 -12q-30 -61 -79 -61q-18 0 -34 6.5t-37 18.5q-3 1 -13 7t-18.5 8.5t-15.5 2.5q-17 0 -30.5 -8zM438.5 489.5q35.5 -41.5 35.5 -118.5v-371h-34
v366q0 69 -27.5 102t-82.5 33q-56 0 -99 -30.5t-83 -88.5v-382h-34v520h29l4 -97q78 108 186 108q70 0 105.5 -41.5z" />
    <glyph glyph-name="ograve" unicode="&#xf2;" horiz-adv-x="562" 
d="M380 673l-12 -23l-184 84l16 35zM437 461q56 -70 56 -199q0 -128 -57 -200t-155 -72q-99 0 -155.5 71.5t-56.5 197.5q0 128 57.5 200t155.5 72q99 0 155 -70zM152 438q-47 -62 -47 -179q0 -114 46.5 -176t129.5 -62q82 0 129.5 62t47.5 179q0 115 -46.5 176.5
t-129.5 61.5t-130 -62z" />
    <glyph glyph-name="oacute" unicode="&#xf3;" horiz-adv-x="562" 
d="M370 734l-184 -84l-12 23l180 96zM437 461q56 -70 56 -199q0 -128 -57 -200t-155 -72q-99 0 -155.5 71.5t-56.5 197.5q0 128 57.5 200t155.5 72q99 0 155 -70zM152 438q-47 -62 -47 -179q0 -114 46.5 -176t129.5 -62q82 0 129.5 62t47.5 179q0 115 -46.5 176.5
t-129.5 61.5t-130 -62z" />
    <glyph glyph-name="ocircumflex" unicode="&#xf4;" horiz-adv-x="562" 
d="M147 670l124 100h19l126 -100l-17 -20l-118 85l-118 -85zM437 461q56 -70 56 -199q0 -128 -57 -200t-155 -72q-99 0 -155.5 71.5t-56.5 197.5q0 128 57.5 200t155.5 72q99 0 155 -70zM152 438q-47 -62 -47 -179q0 -114 46.5 -176t129.5 -62q82 0 129.5 62t47.5 179
q0 115 -46.5 176.5t-129.5 61.5t-130 -62z" />
    <glyph glyph-name="otilde" unicode="&#xf5;" horiz-adv-x="562" 
d="M306 680.5q-16 6.5 -36 18.5q-3 1 -13 7t-18.5 8.5t-15.5 2.5q-17 0 -30.5 -8t-28.5 -28l-21 12q33 54 80 54q13 0 26 -5t33 -16q21 -11 33.5 -16.5t25.5 -5.5q16 0 28.5 9.5t28.5 33.5l22 -12q-32 -61 -79 -61q-19 0 -35 6.5zM437 461q56 -70 56 -199q0 -128 -57 -200
t-155 -72q-99 0 -155.5 71.5t-56.5 197.5q0 128 57.5 200t155.5 72q99 0 155 -70zM152 438q-47 -62 -47 -179q0 -114 46.5 -176t129.5 -62q82 0 129.5 62t47.5 179q0 115 -46.5 176.5t-129.5 61.5t-130 -62z" />
    <glyph glyph-name="odieresis" unicode="&#xf6;" horiz-adv-x="562" 
d="M214.5 715.5q7.5 -7.5 7.5 -19.5q0 -11 -7.5 -19t-20.5 -8q-12 0 -20 8t-8 19q0 12 8 19.5t20 7.5q13 0 20.5 -7.5zM388.5 715q7.5 -8 7.5 -19t-7.5 -19t-19.5 -8t-20 8t-8 19q0 12 8 19.5t20 7.5t19.5 -8zM437 461q56 -70 56 -199q0 -128 -57 -200t-155 -72
q-99 0 -155.5 71.5t-56.5 197.5q0 128 57.5 200t155.5 72q99 0 155 -70zM152 438q-47 -62 -47 -179q0 -114 46.5 -176t129.5 -62q82 0 129.5 62t47.5 179q0 115 -46.5 176.5t-129.5 61.5t-130 -62z" />
    <glyph glyph-name="oslash" unicode="&#xf8;" horiz-adv-x="562" 
d="M464 416.5q29 -62.5 29 -154.5q0 -128 -57 -200t-155 -72q-36 0 -69 11l-43 -123l-30 9l44 126q-55 29 -84.5 92.5t-29.5 153.5q0 128 57.5 200t155.5 72q37 0 70 -11l40 123l30 -9l-41 -126q54 -29 83 -91.5zM128.5 124q23.5 -55 67.5 -81l147 447q-26 10 -61 10
q-83 0 -130 -62t-47 -179q0 -80 23.5 -135zM410.5 83q47.5 62 47.5 179q0 81 -23 135.5t-66 80.5l-148 -447q26 -10 60 -10q82 0 129.5 62z" />
    <glyph glyph-name="ugrave" unicode="&#xf9;" horiz-adv-x="577" 
d="M384 673l-12 -23l-184 84l16 35zM464 0h-30l-1 101q-28 -50 -72 -80.5t-104 -30.5q-71 0 -109.5 41t-38.5 118v371h34v-368q0 -131 119 -131q54 0 94.5 31t73.5 87v381h34v-520z" />
    <glyph glyph-name="uacute" unicode="&#xfa;" horiz-adv-x="577" 
d="M374 734l-184 -84l-12 23l181 96zM464 0h-30l-1 101q-28 -50 -72 -80.5t-104 -30.5q-71 0 -109.5 41t-38.5 118v371h34v-368q0 -131 119 -131q54 0 94.5 31t73.5 87v381h34v-520z" />
    <glyph glyph-name="ucircumflex" unicode="&#xfb;" horiz-adv-x="577" 
d="M151 670l125 100h19l125 -100l-16 -20l-119 85l-117 -85zM464 0h-30l-1 101q-28 -50 -72 -80.5t-104 -30.5q-71 0 -109.5 41t-38.5 118v371h34v-368q0 -131 119 -131q54 0 94.5 31t73.5 87v381h34v-520z" />
    <glyph glyph-name="udieresis" unicode="&#xfc;" horiz-adv-x="577" 
d="M218.5 715.5q7.5 -7.5 7.5 -19.5q0 -11 -7.5 -19t-20.5 -8q-12 0 -19.5 8t-7.5 19t7.5 19t19.5 8q13 0 20.5 -7.5zM392.5 715.5q7.5 -7.5 7.5 -19.5t-7.5 -19.5t-19.5 -7.5t-20 8t-8 19q0 12 8 19.5t20 7.5t19.5 -7.5zM464 0h-30l-1 101q-28 -50 -72 -80.5t-104 -30.5
q-71 0 -109.5 41t-38.5 118v371h34v-368q0 -131 119 -131q54 0 94.5 31t73.5 87v381h34v-520z" />
    <glyph glyph-name="yacute" unicode="&#xfd;" horiz-adv-x="451" 
d="M314 734l-184 -84l-12 23l180 96zM249 -2q-21 -61 -43.5 -97.5t-56.5 -60t-91 -38.5l-4 27q51 15 80 35.5t46 50t37 85.5h-12l-186 520h38l170 -493l167 493h37z" />
    <glyph glyph-name="thorn" unicode="&#xfe;" horiz-adv-x="572" 
d="M449.5 462q47.5 -69 47.5 -198t-50 -201.5t-143 -72.5q-51 0 -91 22.5t-65 58.5v-264l-34 -7v934l34 5v-296q64 88 163 88q91 0 138.5 -69zM421 83.5q41 62.5 41 180.5q0 117 -39 176.5t-114 59.5q-52 0 -89 -24.5t-72 -71.5v-293q61 -90 154 -90q78 0 119 62.5z" />
    <glyph glyph-name="ydieresis" unicode="&#xff;" horiz-adv-x="451" 
d="M157.5 715.5q7.5 -7.5 7.5 -19.5q0 -11 -7.5 -19t-20.5 -8q-12 0 -19.5 8t-7.5 19t7.5 19t19.5 8q13 0 20.5 -7.5zM332.5 715q7.5 -8 7.5 -19t-7.5 -19t-19.5 -8t-20 8t-8 19q0 12 8 19.5t20 7.5t19.5 -8zM249 -2q-21 -61 -43.5 -97.5t-56.5 -60t-91 -38.5l-4 27
q51 15 80 35.5t46 50t37 85.5h-12l-186 520h38l170 -493l167 493h37z" />
    <glyph glyph-name="dotlessi" unicode="&#x131;" horiz-adv-x="261" 
d="M148 0h-34v520h34v-520z" />
    <glyph glyph-name="OE" unicode="&#x152;" horiz-adv-x="851" 
d="M810 0h-408q-30 -10 -67 -10q-76 0 -135 41t-92.5 119.5t-33.5 188.5t33.5 190t92.5 122t135 42q37 0 72 -11h397l-4 -32h-331q58 -38 90.5 -107.5t36.5 -168.5h164v-31h-164q-1 -115 -34.5 -194t-95.5 -117h344v-32zM139 166q29 -71 80 -107.5t116 -36.5q105 0 165 83.5
t60 243.5q0 100 -28.5 170t-79.5 105.5t-117 35.5t-116.5 -36t-79.5 -108.5t-29 -176.5q0 -102 29 -173z" />
    <glyph glyph-name="oe" unicode="&#x153;" horiz-adv-x="919" 
d="M853 243h-360q5 -111 53 -166.5t126 -55.5q42 0 74 13t69 42l19 -24q-37 -31 -75.5 -46.5t-87.5 -15.5q-72 0 -122.5 40t-73.5 112q-24 -72 -74 -112t-120 -40q-99 0 -155.5 71.5t-56.5 197.5q0 128 57.5 200t155.5 72q72 0 122 -40t72 -112q23 71 70.5 111.5t113.5 40.5
q96 0 145.5 -66.5t49.5 -181.5q0 -22 -2 -40zM410.5 83q47.5 62 47.5 179q0 115 -46.5 176.5t-129.5 61.5t-130 -62t-47 -179q0 -114 46.5 -176t129.5 -62q82 0 129.5 62zM821 295q0 94 -40 149.5t-119 55.5q-71 0 -118 -57.5t-51 -170.5h328v23z" />
    <glyph glyph-name="circumflex" unicode="&#x2c6;" horiz-adv-x="329" 
d="M30 670l125 100h19l125 -100l-16 -20l-119 85l-117 -85z" />
    <glyph glyph-name="ring" unicode="&#x2da;" horiz-adv-x="236" 
d="M181.5 786.5q24.5 -23.5 24.5 -62.5q0 -38 -24.5 -61.5t-63.5 -23.5t-63.5 23.5t-24.5 61.5q0 39 24.5 62.5t63.5 23.5t63.5 -23.5zM75.5 768.5q-14.5 -15.5 -14.5 -44.5q0 -28 14.5 -43.5t42.5 -15.5q27 0 42 15.5t15 43.5q0 29 -14.5 44.5t-42.5 15.5t-42.5 -15.5z" />
    <glyph glyph-name="tilde" unicode="&#x2dc;" horiz-adv-x="337" 
d="M194 680.5q-16 6.5 -37 18.5q-3 1 -13 7t-18.5 8.5t-15.5 2.5q-17 0 -30.5 -8t-28.5 -28l-21 12q33 54 80 54q13 0 26 -5t33 -16q21 -11 33.5 -16.5t25.5 -5.5q16 0 29 9.5t29 33.5l21 -12q-30 -61 -79 -61q-18 0 -34 6.5z" />
    <glyph glyph-name="uni10D0" unicode="&#x10d0;" horiz-adv-x="443" 
d="M94 38.5q-45 50.5 -45 130.5q0 22 2 48h36q-1 -13 -1 -48q0 -69 37 -109t97 -40q64 0 100.5 39t36.5 99q0 41 -14.5 72.5t-35 53t-54.5 50.5q-41 34 -61.5 60t-20.5 63h35q0 -27 17.5 -48.5t54.5 -51.5q36 -29 59.5 -53.5t40 -61t16.5 -84.5q0 -45 -19.5 -83.5
t-58.5 -62.5t-96 -24q-81 0 -126 50.5z" />
    <glyph glyph-name="uni10D1" unicode="&#x10d1;" horiz-adv-x="467" 
d="M140 15q-42 27 -66.5 76t-24.5 114q0 91 44.5 145t121.5 72q3 15 6 29.5t6 27.5q18 80 19 97q1 12 -12 19t-30.5 13t-26.5 9q-24 10 -40 19t-30 21v-140h-31v193h30q2 -29 83 -63q38 -15 58 -24.5t29 -20.5q6 -7 6 -20q0 -6 -2 -14l-30 -147q40 -2 78.5 -27.5t64 -74
t25.5 -114.5t-24 -115t-65.5 -75.5t-94.5 -26.5q-52 0 -94 27zM340.5 66.5q43.5 46.5 43.5 138.5q0 61 -22.5 104t-57.5 63.5t-71 19.5q-61 -4 -104 -50.5t-43 -136.5q0 -62 20.5 -103.5t54.5 -61.5t73 -20q63 0 106.5 46.5z" />
    <glyph glyph-name="uni10D2" unicode="&#x10d2;" horiz-adv-x="502" 
d="M149 -302.5q-47 29.5 -73.5 81.5t-26.5 118q0 55 17.5 95t42.5 67.5t68 64.5l37 33q31 29 46.5 45.5t27 39.5t11.5 51q0 20 -9.5 42.5t-32.5 38.5t-59 16q-46 0 -72.5 -30t-26.5 -73q0 -27 11 -49h-34q-11 22 -11 49q0 65 36 100t99 35q67 0 101.5 -38t34.5 -94
q0 -37 -19.5 -67t-58.5 -67q45 -13 92 -49.5t78 -91t31 -118.5q0 -65 -28 -117.5t-75 -82t-102 -29.5q-58 0 -105 29.5zM335 -277q39 23 63.5 67.5t24.5 105.5q0 63 -30 112.5t-74 80t-85 41.5l-24 -20q-37 -28 -62 -53.5t-43.5 -66t-18.5 -94.5q0 -61 23.5 -105.5
t61.5 -67.5t83 -23q42 0 81 23z" />
    <glyph glyph-name="uni10D3" unicode="&#x10d3;" horiz-adv-x="674" 
d="M408.5 -187q-72.5 60 -149.5 94t-131 34h-52l-3 32h67v1q-34 31 -62.5 103t-28.5 144q0 92 36 146.5t109 54.5q47 0 76.5 -22t39.5 -51h2q16 25 51 49t90 24q47 0 86 -21.5t62.5 -64.5t23.5 -104t-23 -103t-62.5 -63.5t-86.5 -21.5t-86 21t-62 63.5t-23 103.5q0 27 2 42
t7 39q-9 36 -32 56.5t-60 20.5q-56 0 -84.5 -44.5t-28.5 -123.5q0 -63 17.5 -115.5t43.5 -88t51 -53.5q90 -33 201 -102.5t162 -182.5h-39q-41 73 -113.5 133zM549.5 116q39.5 40 39.5 116q0 77 -40 117.5t-96 40.5q-57 0 -96.5 -40.5t-39.5 -117.5q0 -76 39.5 -116
t96.5 -40t96.5 40z" />
    <glyph glyph-name="uni10D4" unicode="&#x10d4;" horiz-adv-x="456" 
d="M96.5 -275q-49.5 57 -49.5 157q0 44 10.5 87.5t24.5 65.5h33q-31 -66 -31 -154q0 -92 40 -136.5t101 -44.5q59 0 93.5 43.5t34.5 137.5v366q0 143 -120 143q-59 0 -87.5 -39t-28.5 -100q0 -36 11 -68h-35q-11 34 -11 67q0 74 39 123t112 49q77 0 115.5 -46t38.5 -126
v-368q0 -102 -42.5 -158t-119.5 -56q-79 0 -128.5 57z" />
    <glyph glyph-name="uni10D5" unicode="&#x10d5;" horiz-adv-x="446" 
d="M98 -275q-49 57 -49 160q0 43 8 80t21 58h33q-25 -52 -25 -139q0 -94 40 -138.5t102 -44.5q59 0 91.5 44t32.5 144q0 90 -34 142t-85 53h-21v30q45 12 78.5 47t33.5 89q0 140 -122 140q-59 0 -87.5 -38.5t-28.5 -97.5q0 -32 13 -71h-37q-12 39 -12 71q0 73 39.5 120.5
t112.5 47.5q86 0 122.5 -48.5t36.5 -119.5q0 -57 -30.5 -96t-71.5 -53v-1q55 -2 91.5 -54.5t36.5 -159.5q0 -109 -40.5 -165.5t-118.5 -56.5q-81 0 -130 57z" />
    <glyph glyph-name="uni10D6" unicode="&#x10d6;" horiz-adv-x="632" 
d="M311.5 46.5q-39.5 58.5 -39.5 152.5q0 23 10 131l13 148h-1q-4 -11 -17.5 -25.5t-36 -25t-51.5 -10.5q-66 0 -104 42.5t-38 110.5q0 67 38.5 109.5t105.5 42.5q66 0 105 -42.5t39 -109.5q0 -35 -4.5 -83t-17.5 -148h2q12 38 55 77l106 94l39 -3l-142 -117q20 14 57 14
q45 0 80 -27t54 -72.5t19 -101.5q0 -64 -21 -112.5t-57.5 -75.5t-81.5 -27q-72 0 -111.5 58.5zM270 481q30 33 30 89q0 55 -31 88.5t-78 33.5q-50 0 -79.5 -33t-29.5 -89t29.5 -89t79.5 -33q49 0 79 33zM511 66.5q35 46.5 35 132.5t-35 131.5t-90 45.5q-113 0 -113 -177
q0 -87 31 -133t84 -46t88 46.5z" />
    <glyph glyph-name="uni10D7" unicode="&#x10d7;" horiz-adv-x="694" 
d="M129.5 16q-38.5 28 -59.5 77t-21 112t21 112t59.5 77t90.5 28q64 0 95 -25.5t43 -52.5h1q4 16 22 34.5t47.5 31t64.5 12.5q74 0 113 -52t39 -137q0 -61 -23.5 -114.5t-42 -83t-22.5 -35.5h-34q3 5 25.5 41.5t41.5 91t19 101.5q0 68 -30 112t-90 44q-41 0 -71 -23t-40 -59
q14 -42 14 -103q0 -63 -21 -112t-60 -77t-91 -28t-90.5 28zM320 68.5q37 48.5 37 136.5q0 94 -36.5 139.5t-100.5 45.5q-62 0 -98 -48t-36 -137t36 -137t98 -48q63 0 100 48.5z" />
    <glyph glyph-name="uni10D8" unicode="&#x10d8;" horiz-adv-x="468" 
d="M88.5 34.5q-15.5 29.5 -27.5 76.5t-12 96q0 97 50.5 156t134.5 59t134.5 -59t50.5 -156q0 -49 -10.5 -90.5t-20 -63t-26.5 -53.5h-34q2 5 17 35.5t27 77.5t12 97q0 78 -40 129t-110 51t-109 -51t-39 -129q0 -50 10.5 -92.5t17.5 -58.5t27 -59h-35q-2 5 -17.5 34.5z" />
    <glyph glyph-name="uni10D9" unicode="&#x10d9;" horiz-adv-x="438" 
d="M96.5 -275q-49.5 57 -49.5 160q0 43 8 80t21 58h33q-25 -56 -25 -139q0 -94 40 -138.5t102 -44.5q128 0 128 187q0 57 -15.5 105.5t-43 78t-61.5 31.5h-37v33h24q39 0 70.5 28t31.5 75q0 90 -74 171h35q31 -31 53 -77t22 -95q0 -55 -30 -83.5t-70 -33.5v-1
q35 -1 65 -28.5t48 -79.5t18 -123q0 -108 -42.5 -164.5t-121.5 -56.5q-80 0 -129.5 57z" />
    <glyph glyph-name="uni10DA" unicode="&#x10da;" horiz-adv-x="837" 
d="M538.5 -179q-94.5 59 -193 89t-158.5 30h-87l-3 33h88v1q-69 38 -102.5 103.5t-33.5 144.5q0 91 40.5 145.5t108.5 54.5q54 0 77.5 -33t30.5 -79h2q7 44 33.5 78t83.5 34t84 -34t33 -78h2q18 112 114 112q63 0 96.5 -47.5t33.5 -129.5q0 -54 -12.5 -89.5t-33.5 -73.5h-35
l10 22q17 35 26.5 64.5t9.5 69.5q0 152 -98 152q-45 0 -70.5 -39t-25.5 -101v-69h-32v69q0 61 -27.5 100.5t-74.5 39.5t-74 -39t-27 -100v-70h-34v70q0 62 -23 100.5t-69 38.5q-54 0 -84 -46.5t-30 -122.5q0 -83 43.5 -147t102.5 -96q10 -5 67 -23q88 -26 160.5 -55t146 -84
t114.5 -136h-37q-48 82 -142.5 141z" />
    <glyph glyph-name="uni10DB" unicode="&#x10db;" horiz-adv-x="459" 
d="M95 47.5q-46 59.5 -46 157.5t46 157.5t124 59.5q47 0 83 -22.5t54 -67.5h1v216q0 74 -36.5 108t-93.5 34q-60 0 -93 -39.5t-33 -97.5q0 -40 12 -73h-36q-12 38 -12 73q0 72 43 120.5t118 48.5q80 0 122 -45.5t42 -123.5v-348q0 -100 -44 -158.5t-127 -58.5
q-78 0 -124 59.5zM321 67q36 47 36 138q0 90 -38 137.5t-100 47.5q-60 0 -96.5 -47.5t-36.5 -137.5t36.5 -137.5t96.5 -47.5q66 0 102 47z" />
    <glyph glyph-name="uni10DC" unicode="&#x10dc;" horiz-adv-x="459" 
d="M113.5 47q-44.5 59 -44.5 158v388q0 36 7 60.5t32 40.5t75 16h207v-33h-203q-35 0 -52.5 -7t-24.5 -25.5t-7 -54.5v-258h2q16 44 52.5 67t78.5 23q79 0 126.5 -59.5t47.5 -157.5q0 -64 -23 -113t-63 -76.5t-88 -27.5q-78 0 -122.5 59zM303.5 41q31.5 21 51 63t19.5 101
q0 90 -38.5 137.5t-99.5 47.5q-60 0 -96.5 -47.5t-36.5 -137.5t36.5 -137.5t96.5 -47.5q36 0 67.5 21z" />
    <glyph glyph-name="uni10DD" unicode="&#x10dd;" horiz-adv-x="654" 
d="M49 241q0 82 39 131.5t112 49.5q61 0 90.5 -35.5t36.5 -79.5h1q8 45 37 80t91 35q72 0 110.5 -49.5t38.5 -131.5q0 -72 -21 -136.5t-42 -104.5h-34q2 4 18.5 40t30 92.5t13.5 108.5q0 67 -29 108t-87 41q-59 0 -84.5 -45t-25.5 -128v-75h-34v75q0 83 -25 128t-84 45
t-87 -40t-28 -109q0 -52 11.5 -100.5t22 -74t28.5 -66.5h-36q-63 131 -63 241z" />
    <glyph glyph-name="uni10DE" unicode="&#x10de;" horiz-adv-x="447" 
d="M92.5 44q-43.5 56 -43.5 136q0 42 10 75h36q-10 -33 -10 -72q0 -72 36.5 -117.5t103.5 -45.5t102 45t35 113q0 74 -37.5 109t-93.5 35v32q19 0 43.5 10t42 29t17.5 45q0 35 -19 57t-61 53q-34 25 -54 44t-34.5 48.5t-14.5 69.5h33q0 -34 13 -59t32 -42.5t51 -41.5
q31 -23 48 -39t29 -38t12 -50q0 -41 -27.5 -69t-65.5 -31v-1q59 -9 90.5 -47.5t31.5 -115.5q0 -78 -42 -133t-131 -55t-132.5 56z" />
    <glyph glyph-name="uni10DF" unicode="&#x10df;" horiz-adv-x="461" 
d="M111 -282q-43 50 -43 124q0 39 4.5 65t14.5 48h35q-9 -24 -13.5 -47.5t-4.5 -64.5q0 -67 34.5 -105t92.5 -38q57 0 92 37.5t35 101.5v509l-1 1l-139 -100q2 -2 12.5 -14.5t17.5 -32t7 -41.5q0 -49 -24 -85.5t-79 -36.5q-56 0 -81 37t-22 85h35q-3 -39 16 -64t51 -25
t50.5 24.5t18.5 64.5q0 26 -8 41.5t-21.5 32t-18.5 23.5l186 128v24h34v-572q0 -72 -42.5 -121t-118.5 -49q-77 0 -120 50z" />
    <glyph glyph-name="uni10E0" unicode="&#x10e0;" horiz-adv-x="654" 
d="M49 236q0 66 22.5 119t55 91t83.5 86q58 55 86 93t30 85h34q0 -56 -38.5 -107.5t-107.5 -116.5q-31 -30 -47 -47.5t-23 -31.5v-1q10 7 28 10.5t32 3.5q55 0 85.5 -30t36.5 -69h2q9 39 41 70t87 31q72 0 110.5 -50.5t38.5 -135.5q0 -69 -21 -132.5t-42 -103.5h-34
q2 4 18.5 40t30 91.5t13.5 105.5q0 69 -28.5 111t-87.5 42t-84.5 -45t-25.5 -128v-74h-34v74q0 83 -25 128t-84 45q-60 0 -87.5 -40.5t-27.5 -112.5q0 -50 11.5 -98t21.5 -72.5t29 -66.5h-36q-63 131 -63 236z" />
    <glyph glyph-name="uni10E1" unicode="&#x10e1;" horiz-adv-x="453" 
d="M111.5 43q-42.5 55 -42.5 141v526h34v-528q0 -77 34.5 -119.5t97.5 -42.5q64 0 99 42.5t35 119.5q0 42 -8 72t-24 66q-12 27 -18 46.5t-6 43.5h35q0 -21 6 -40.5t18 -47.5q16 -40 24 -69.5t8 -68.5q0 -86 -43.5 -141t-124.5 -55q-82 0 -124.5 55z" />
    <glyph glyph-name="uni10E2" unicode="&#x10e2;" horiz-adv-x="680" 
d="M185 -292q-66 40 -101 109.5t-35 156.5q0 82 36.5 149.5t96.5 107.5t126 43v2q-40 13 -56.5 41.5t-16.5 58.5q0 43 28.5 76.5t76.5 33.5t76.5 -33t28.5 -77q0 -29 -17 -58t-55 -42v-2q66 -3 125.5 -43t96 -107.5t36.5 -149.5q0 -87 -35 -156.5t-101 -109.5t-155 -40
t-155 40zM341 274q33 18 52 39.5t19 58.5q0 36 -20 59.5t-52 23.5q-33 0 -52 -23.5t-19 -59.5q0 -37 19.5 -59t50.5 -39h2zM475.5 -266.5q57.5 33.5 88.5 95t31 144.5q0 77 -30 137.5t-81.5 97t-112.5 44.5l-1 -2q38 -12 55.5 -43.5t17.5 -61.5q0 -44 -27.5 -77t-75.5 -33
t-75.5 33t-27.5 77q0 29 17.5 61t55.5 45v2q-63 -9 -114 -45t-81 -96.5t-30 -138.5q0 -83 30.5 -144.5t88 -95t136.5 -33.5q78 0 135.5 33.5zM390.5 89.5q18.5 23.5 18.5 59.5q0 37 -18.5 58.5t-49.5 40.5h-2q-31 -18 -50 -40t-19 -59q0 -36 18.5 -59.5t51.5 -23.5
q32 0 50.5 23.5z" />
    <glyph glyph-name="uni10E3" unicode="&#x10e3;" horiz-adv-x="641" 
d="M247 -297.5q-50 34.5 -74 87.5t-24 107q1 42 11 79.5t23 58.5h34q-30 -62 -31 -143q0 -62 25.5 -105.5t67.5 -65t92 -21.5q79 0 132.5 47t53.5 141v368q0 134 -74 134q-34 0 -55.5 -24t-21.5 -79v-83h-32v83q0 103 -75 103q-31 0 -47.5 -27t-33.5 -81q-18 -56 -36 -85
t-52 -29q-81 0 -81 153q0 59 1 89h34q0 -30 -1 -45l-1 -45q0 -120 48 -120q20 0 31.5 21.5t24.5 65.5q12 42 24 69t33.5 46.5t54.5 19.5q41 0 60.5 -20t25 -35t6.5 -17h2q1 3 8 22t29.5 34.5t57.5 15.5q105 0 105 -162v-371q0 -68 -29 -118t-79.5 -76.5t-112.5 -26.5
q-74 0 -124 34.5z" />
    <glyph glyph-name="uni10E4" unicode="&#x10e4;" horiz-adv-x="655" 
d="M573 38q33 -41 33 -135q0 -118 -59.5 -176.5t-154.5 -58.5q-94 0 -150.5 48.5t-56.5 145.5q0 36 3.5 54t11.5 39h37q-10 -26 -13.5 -41.5t-3.5 -50.5q0 -83 48.5 -123t123.5 -40q76 0 127 48t51 154q0 82 -31 123t-87 41h-16v30q54 8 93 44.5t39 105.5t-30 107t-84 38
q-36 0 -60.5 -17t-35.5 -47q7 -22 9.5 -39t2.5 -43q0 -79 -42 -127t-114 -48q-73 0 -119 48.5t-46 126.5q0 79 44 128t115 49q57 0 85.5 -17.5t46.5 -45.5h2q13 24 41 43.5t70 19.5q74 0 112.5 -51.5t38.5 -123.5q0 -53 -19.5 -87.5t-46.5 -52t-53 -21.5v-2q55 -5 88 -46z
M302.5 137.5q32.5 36.5 32.5 106.5q0 78 -34.5 112.5t-92.5 34.5q-55 0 -89.5 -39t-34.5 -108t37 -106t93 -37t88.5 36.5z" />
    <glyph glyph-name="uni10E5" unicode="&#x10e5;" horiz-adv-x="492" 
d="M99 -273.5q-52 58.5 -52 161.5q0 79 16 121h33q-7 -25 -10.5 -51.5t-3.5 -68.5q0 -95 44 -142t110 -47q68 0 111 47.5t43 140.5v288q0 62 -31.5 98t-91.5 36q-57 0 -86.5 -33.5t-29.5 -89.5v-33h-35v33q0 70 38 112.5t109 42.5q45 0 77 -17.5t48 -46.5h2v386h-2l-98 -107
v45l99 108h34v-824q0 -67 -24 -116.5t-66.5 -75.5t-96.5 -26q-85 0 -137 58.5z" />
    <glyph glyph-name="uni10E6" unicode="&#x10e6;" horiz-adv-x="640" 
d="M408 -185.5q-71 59.5 -146 92.5t-130 34h-54l-3 32h65v1q-20 16 -41 54.5t-35.5 88t-14.5 98.5q0 100 37 153.5t113 53.5q43 0 70 -24t39 -55t14 -57h1q6 48 34.5 92t92.5 44q66 0 103.5 -50t37.5 -132q0 -52 -14.5 -90t-33.5 -71h-35q4 10 12 25q16 33 25.5 63t9.5 75
q0 68 -27.5 108t-81.5 40q-38 0 -61.5 -26.5t-34 -64t-10.5 -70.5v-46h-34v46q0 33 -10.5 70.5t-34.5 64t-62 26.5q-57 0 -85 -45.5t-28 -125.5q0 -53 15 -103.5t38 -88t46 -54.5l21 -9q106 -44 204 -109t148 -175h-35q-44 75 -115 134.5z" />
    <glyph glyph-name="uni10E7" unicode="&#x10e7;" horiz-adv-x="461" 
d="M97 -274q-49 58 -49 159q0 73 23 124h33q-10 -28 -15 -54.5t-5 -68.5q0 -63 20 -104.5t53 -61.5t71 -20q57 0 93 45.5t36 136.5v311h-1q-9 -28 -39 -54t-86 -26q-72 0 -115.5 47.5t-43.5 122.5q0 36 7 70t18 57h36q-11 -20 -18 -56t-7 -70q0 -59 32.5 -99t90.5 -40
q57 0 91.5 40t34.5 99v126h35v-530q0 -102 -42 -157t-122 -55q-82 0 -131 58z" />
    <glyph glyph-name="uni10E8" unicode="&#x10e8;" horiz-adv-x="599" 
d="M240 47q-45 59 -45 155t45 154.5t123 58.5q49 0 83 -22t48 -64h1v250q0 47 -24 79t-75 32q-52 0 -71 -38.5t-19 -104.5v-45h-33v45q0 65 -18.5 104t-70.5 39q-53 0 -79 -33t-26 -78q0 -50 9.5 -81t24.5 -55h-34q-15 23 -25 53t-10 83q0 60 32.5 101.5t107.5 41.5
q45 0 72 -24t33 -61h1q5 38 32 61.5t74 23.5q70 0 102 -42t32 -102v-368q0 -103 -42 -162.5t-125 -59.5q-78 0 -123 59zM461 66.5q35 46.5 35 138.5q0 88 -37 133t-97 45t-96 -46t-36 -135t36.5 -135.5t95.5 -46.5q64 0 99 46.5z" />
    <glyph glyph-name="uni10E9" unicode="&#x10e9;" horiz-adv-x="453" 
d="M69 555q0 86 41 126.5t106 40.5q57 0 83.5 -34.5t26.5 -77.5q0 -76 -59 -118t-167 -44v-157h2q17 34 55 60.5t102 26.5t104.5 -48.5t40.5 -122.5q0 -54 -20.5 -101t-37 -73.5t-19.5 -32.5h-35l10 18q27 45 46.5 92.5t19.5 98.5q0 61 -29.5 100t-84.5 39q-40 0 -75 -18.5
t-55.5 -50t-20.5 -69.5v-210h-34v555zM236 508.5q56 27.5 56 99.5q0 36 -19.5 60t-58.5 24q-46 0 -79.5 -32t-33.5 -116v-63q79 0 135 27.5z" />
    <glyph glyph-name="uni10EA" unicode="&#x10ea;" horiz-adv-x="576" 
d="M156.5 -274q-55.5 58 -81.5 146t-26 180q0 228 85 358h34q-83 -136 -83 -359q0 -87 24 -167.5t72 -132t115 -51.5q86 0 141 56.5t55 168.5q0 45 -16 82.5t-44.5 59.5t-63.5 22h-40v32h40q48 0 82 25.5t34 63.5q0 26 -12.5 48.5t-38.5 55.5q-23 29 -36.5 50t-22.5 46h35
q12 -35 55 -87q29 -38 42.5 -62t13.5 -51q0 -46 -38 -73.5t-85 -30.5v-1q56 -3 93.5 -50t37.5 -130q0 -79 -29 -137t-81.5 -89t-121.5 -31q-84 0 -139.5 58z" />
    <glyph glyph-name="uni10EB" unicode="&#x10eb;" horiz-adv-x="464" 
d="M96.5 46q-47.5 58 -47.5 156t47.5 156t126.5 58q51 0 87.5 -23.5t49.5 -66.5l1 1v383h34v-503q0 -101 -44 -160t-128 -59q-79 0 -126.5 58zM324.5 66.5q36.5 46.5 36.5 135.5q0 87 -38.5 134t-99.5 47q-62 0 -99.5 -46.5t-37.5 -134.5t37.5 -135t99.5 -47
q65 0 101.5 46.5z" />
    <glyph glyph-name="uni10EC" unicode="&#x10ec;" horiz-adv-x="651" 
d="M259.5 -78.5q-36.5 114.5 -82.5 250.5q-29 85 -57 171.5t-47 157.5q-11 39 -11 76q0 69 39.5 107t101.5 38q55 0 89.5 -28t40.5 -69h2q5 41 39.5 69t89.5 28q72 0 106.5 -41.5t34.5 -102.5q0 -84 -35 -137h-36q14 24 24 55.5t10 82.5q0 46 -26 79t-80 33
q-62 0 -86.5 -40.5t-24.5 -111.5v-38h-31v36q0 154 -117 154q-46 0 -75.5 -30t-29.5 -85q0 -32 10 -68q16 -59 25 -87.5t26 -77.5q5 -14 11 -32t14 -41h2q13 53 61.5 88.5t120.5 35.5q86 0 135 -42.5t49 -112.5q0 -55 -20.5 -121t-65.5 -183q-57 -148 -91 -255h-45
q-34 127 -70.5 241.5zM354 -280q20 68 45 138t47 128q37 99 53.5 153t16.5 98q0 58 -39.5 92t-110.5 34q-38 0 -73.5 -15.5t-58.5 -45t-23 -70.5q0 -22 5 -40q9 -36 29 -99q54 -170 107 -373h2z" />
    <glyph glyph-name="uni10ED" unicode="&#x10ed;" horiz-adv-x="530" 
d="M93.5 -274q-49.5 58 -49.5 160q0 100 20 137h33q-18 -48 -18 -138q0 -94 40.5 -139.5t106.5 -45.5q76 0 114.5 47.5t38.5 147.5q0 52 -6 95.5t-17 100.5q-4 19 -10 55q-32 -23 -59.5 -35.5t-65.5 -12.5q-49 0 -80.5 30t-31.5 78t31.5 78t80.5 30q39 0 65.5 -12.5
t57.5 -35.5q10 44 18 108.5t8 109.5q0 47 -40.5 78.5t-110.5 65.5q-46 22 -57 32l-1 -141h-32v191h33q0 -13 18 -25.5t61 -33.5q49 -25 81.5 -45t56 -49.5t23.5 -66.5q0 -44 -9.5 -116t-20.5 -126l19 -23l90 97v-38l-73 -76v-4l73 -73v-40l-87 94l-20 -22q3 -15 14 -64
q14 -63 21 -108t7 -100q0 -110 -47.5 -166.5t-141.5 -56.5q-84 0 -133.5 58zM311.5 153q39.5 27 59.5 53q-20 26 -59.5 53t-86.5 27q-36 0 -59.5 -22t-23.5 -58q0 -37 23.5 -58.5t59.5 -21.5q47 0 86.5 27z" />
    <glyph glyph-name="uni10EE" unicode="&#x10ee;" horiz-adv-x="462" 
d="M112.5 46.5q-43.5 58.5 -43.5 161.5v502h34v-377h2q9 17 25 41t45 64q6 8 33 46l38 -1l-66 -76v-1q26 11 62 11q82 -1 126.5 -58.5t44.5 -150.5q0 -99 -45.5 -159.5t-124.5 -60.5q-87 0 -130.5 58.5zM340 67.5q38 47.5 38 137.5q0 89 -38 136t-100 47q-60 0 -98.5 -47
t-38.5 -136q0 -91 36.5 -138t100.5 -47q62 0 100 47.5z" />
    <glyph glyph-name="uni10EF" unicode="&#x10ef;" horiz-adv-x="632" 
d="M581 -86.5q6 -11.5 9 -25.5t3 -33q0 -40 -21.5 -67t-64.5 -27q-37 0 -62.5 21t-41.5 52t-34 81l-49 140l-141 -126v-2q35 -9 60 -41t25 -75q0 -68 -34 -105.5t-99 -37.5q-23 0 -36 3.5t-30 12.5v32q24 -10 35.5 -13t30.5 -3q45 0 72 27t27 85q0 38 -24.5 65.5t-65.5 27.5
v32q92 82 169 149l-84 231q-14 37 -30 54.5t-51 17.5q-31 0 -51 -23.5t-20 -75.5v-31h-35v33q0 64 30 96.5t80 32.5q47 0 72 -27.5t38 -67.5q29 -83 50 -148q6 -17 12 -34.5t12 -35.5q51 45 134 122q34 33 49 55.5t15 47.5q0 23 -16.5 39.5t-45.5 16.5q-22 0 -39 -6.5
t-21 -7.5v32q36 14 64 14q45 0 70 -27t25 -58q0 -29 -16 -58t-58 -67q-13 -13 -104 -93l-45 -41q18 -52 40 -106l16 -43q28 -72 51.5 -104t55.5 -32q20 0 35.5 17t15.5 53q0 19 -4 32t-15 34h34q2 -3 8 -14.5z" />
    <glyph glyph-name="uni10F0" unicode="&#x10f0;" horiz-adv-x="406" 
d="M104 9q-37 21 -55.5 54.5t-18.5 68.5q0 22 2 34.5t7 26.5h35q-5 -14 -7 -25t-2 -33q0 -48 36.5 -81.5t92.5 -33.5q62 0 94.5 33t32.5 86q0 71 -43 102t-97 31h-22v29h22q37 0 74 16t37 51t-37 50.5t-74 15.5h-22v30h22q37 0 74 15t37 49q0 29 -21.5 49.5t-63.5 46.5
q-40 26 -59 43.5t-19 42.5h35q1 -13 15 -25.5t47 -34.5q48 -31 74.5 -57.5t26.5 -62.5q0 -37 -33.5 -57t-77.5 -23v-1q44 -3 77.5 -22.5t33.5 -57.5t-33 -58t-78 -24v-1q60 -3 100.5 -36.5t40.5 -110.5q0 -60 -39 -105.5t-124 -45.5q-53 0 -90 21z" />
    <glyph glyph-name="uni10F1" unicode="&#x10f1;" horiz-adv-x="576" 
d="M110 99q-61 111 -61 273q0 183 101 338h35q-47 -76 -73 -156.5t-26 -182.5q0 -157 54 -254t180 -97q72 0 121 32.5t49 102.5q0 60 -43.5 88.5t-96.5 28.5h-22v29h22q37 0 74.5 16t37.5 51t-37 50.5t-75 15.5h-22v30h22q38 0 75 15t37 49q0 29 -20.5 49.5t-59.5 46.5
q-38 26 -56 43.5t-18 42.5h34q0 -14 14.5 -28t44.5 -33q45 -31 70 -57.5t25 -61.5q0 -37 -33.5 -57t-77.5 -23v-1q45 -3 78 -22.5t33 -57.5t-33 -58t-78 -24v-1q59 -3 100.5 -33.5t41.5 -97.5q0 -58 -30 -95.5t-77.5 -54.5t-99.5 -17q-149 0 -210 111z" />
    <glyph glyph-name="uni10F2" unicode="&#x10f2;" horiz-adv-x="543" 
d="M91 -7q-16 5 -27 11.5t-15 8.5v32q5 -3 19 -10.5t31 -12t39 -4.5q18 0 43.5 5.5t50.5 15.5v1q-61 29 -103 83t-42 126q0 47 23 86.5t65 63t97 23.5t97 -23.5t65 -63t23 -86.5q0 -70 -44.5 -123.5t-108.5 -85.5v-1q55 -21 102 -21q26 0 43 6t28.5 12.5t16.5 8.5v-32
q-4 -2 -16.5 -9.5t-29.5 -11.5t-40 -4q-31 0 -68.5 8t-70.5 23h-2q-30 -15 -66 -23t-66 -8q-28 0 -44 5zM269 52q63 29 107 77.5t44 117.5q0 61 -39.5 102t-108.5 41t-109 -41t-40 -102q0 -70 42 -120t102 -75h2z" />
    <glyph glyph-name="uni10F3" unicode="&#x10f3;" horiz-adv-x="450" 
d="M98 -275q-49 57 -49 157q0 44 8.5 83.5t21.5 60.5h33q-12 -30 -19 -63t-7 -82q0 -92 40 -136t100 -44t94 43t34 137q0 61 -15.5 110t-43 77.5t-62.5 28.5h-18v27l145 253h-282v33h323v-33l-147 -253v-1q35 1 66 -26t50.5 -81.5t19.5 -133.5q0 -102 -43 -158t-121 -56
q-79 0 -128 57z" />
    <glyph glyph-name="uni10F4" unicode="&#x10f4;" horiz-adv-x="447" 
d="M92.5 -276q-43.5 56 -43.5 136q0 39 9 75h36q-8 -35 -8 -76q0 -68 35.5 -113.5t103.5 -45.5t102.5 45t34.5 114q0 73 -38 108t-93 35v32q19 0 43.5 10t42 29t17.5 45q0 33 -19.5 56.5t-60.5 55.5q-34 26 -55 46.5t-35.5 50.5t-14.5 69q0 52 32 88.5t84 36.5
q64 0 96 -35.5t32 -89.5q0 -13 -5 -31h-35q5 15 5 31q0 43 -23 67.5t-68 24.5q-38 0 -60.5 -25.5t-22.5 -68.5q0 -41 23.5 -70.5t70.5 -68.5q46 -39 68.5 -67.5t22.5 -67.5q0 -41 -27.5 -69t-65.5 -31v-1q59 -9 90.5 -47.5t31.5 -114.5q0 -79 -42 -134t-131 -55t-132.5 56z
" />
    <glyph glyph-name="uni10F5" unicode="&#x10f5;" horiz-adv-x="541" 
d="M129.5 11.5q-38.5 23.5 -59.5 62.5t-21 86q0 79 43.5 122t126.5 43h145v60h-145q-83 0 -126.5 43.5t-43.5 121.5q0 76 46.5 124t123.5 48q92 0 136 -46t44 -126v-132h93v-32h-93v-62h93v-32h-93v-132q0 -80 -44 -126t-136 -46q-51 0 -89.5 23.5zM364 419v131
q0 56 -31.5 98t-113.5 42q-45 0 -75 -20.5t-44 -53t-14 -66.5q0 -131 133 -131h145zM332.5 62q31.5 42 31.5 98v131h-145q-133 0 -133 -131q0 -34 14 -66.5t44 -53t75 -20.5q82 0 113.5 42z" />
    <glyph glyph-name="uni10F6" unicode="&#x10f6;" horiz-adv-x="747" 
d="M398 -279.5q-41 52.5 -41 132.5v225h-1q-39 -90 -137 -90q-79 0 -124.5 59t-45.5 158q0 98 46 157.5t124 59.5q49 0 85 -24.5t52 -71.5h1v222q0 74 -36.5 108t-93.5 34q-60 0 -93 -39.5t-33 -97.5q0 -40 12 -73h-36q-12 38 -12 73q0 72 43 120.5t118 48.5q80 0 122 -45.5
t42 -123.5v-226q20 44 54 69.5t84 25.5q78 0 124 -59.5t46 -157.5q0 -99 -45.5 -158t-124.5 -59q-106 0 -136 90h-2v-220q0 -76 35.5 -117t90.5 -41q60 0 93.5 39.5t33.5 97.5q0 35 -12 73h35q11 -34 11 -73q0 -72 -43 -120.5t-118 -48.5q-77 0 -118 52.5zM321 67
q36 47 36 138q0 90 -38 137.5t-100 47.5q-60 0 -96.5 -47.5t-36.5 -137.5t36.5 -137.5t96.5 -47.5q66 0 102 47zM625.5 67.5q36.5 47.5 36.5 137.5t-36.5 137.5t-97.5 47.5q-66 0 -102 -47t-36 -138q0 -90 38.5 -137.5t99.5 -47.5t97.5 47.5z" />
    <glyph glyph-name="uni10F7" unicode="&#x10f7;" horiz-adv-x="508" 
d="M146.5 -303.5q-46.5 28.5 -72 77t-25.5 107.5q0 56 24 100t58.5 75.5t88.5 70.5q45 33 69 54t40.5 47t16.5 56q0 44 -27 75t-72 31q-42 0 -71 -30.5t-29 -72.5q0 -27 11 -49h-36q-10 21 -10 49q0 63 39 99t97 36q60 0 97.5 -36.5t37.5 -99.5q0 -37 -18 -67.5t-45 -53.5
t-73 -57q-53 -39 -84.5 -67.5t-54 -68.5t-22.5 -92q0 -82 47 -130.5t121 -48.5q75 0 122 51t47 144q0 37 -12 75h35q1 -4 5 -16.5t6 -26.5t2 -31q0 -67 -25 -119t-71.5 -81t-108.5 -29q-61 0 -107.5 28.5z" />
    <glyph glyph-name="uni10F8" unicode="&#x10f8;" horiz-adv-x="461" 
d="M110.5 -277q-41.5 55 -41.5 157v530h35v-126q0 -60 34 -99.5t92 -39.5q57 0 90 40t33 99q0 33 -7.5 69t-18.5 57h36q11 -22 18 -56t7 -71q0 -75 -43 -122.5t-115 -47.5q-56 0 -86 26t-39 54h-1v-311q0 -91 36 -136.5t93 -45.5q38 0 70.5 20t52.5 61.5t20 104.5
q0 42 -5 68.5t-15 54.5h33q24 -50 24 -124q0 -100 -49 -158.5t-131 -58.5q-81 0 -122.5 55z" />
    <glyph glyph-name="uni10F9" unicode="&#x10f9;" horiz-adv-x="508" 
d="M206.5 -294q-34.5 38 -34.5 94q0 38 20 67.5t59 66.5q-46 13 -93 49.5t-78 91t-31 118.5q0 65 28 117.5t75 82t101 29.5q58 0 105 -29.5t74 -81.5t27 -118q0 -59 -20.5 -103t-49.5 -74t-75 -67q-54 -44 -79.5 -76t-25.5 -76q0 -20 9.5 -42.5t32 -38.5t58.5 -16
q47 0 73.5 30t26.5 73q0 27 -11 49h34q11 -22 11 -49q0 -65 -36 -100t-99 -35q-67 0 -101.5 38zM299 -25q37 30 62 56t43.5 67t18.5 96q0 62 -23.5 106t-62 66.5t-84.5 22.5q-42 0 -80 -23t-62.5 -67t-24.5 -105q0 -63 30.5 -113.5t74.5 -82t85 -42.5z" />
    <glyph glyph-name="uni10FA" unicode="&#x10fa;" horiz-adv-x="443" 
d="M254 38.5q-22 24.5 -51.5 41t-45.5 17.5q-17 1 -35 -1.5t-34 -5.5v29l51 6v1q-38 20 -64 53.5t-26 84.5q0 72 44 115t129 43q82 0 127 -42.5t45 -119.5q0 -22 -2 -48h-37q2 26 2 48q0 67 -37 98.5t-98 31.5q-64 0 -100 -32.5t-36 -93.5q0 -33 15.5 -58.5t38 -43.5
t60.5 -43q53 -35 80 -62t30 -68h-34q0 25 -22 49.5z" />
    <glyph glyph-name="uni10FB" unicode="&#x10fb;" horiz-adv-x="435" 
d="M115.5 451q8.5 -9 8.5 -23t-8.5 -23t-23.5 -9q-14 0 -23.5 9t-9.5 23t9.5 23t23.5 9q15 0 23.5 -9zM366.5 249q8.5 -9 8.5 -24q0 -13 -8.5 -22t-23.5 -9q-14 0 -23.5 9t-9.5 22q0 14 9.5 23.5t23.5 9.5q15 0 23.5 -9zM115.5 45q8.5 -9 8.5 -23t-8.5 -23t-23.5 -9
q-14 0 -23.5 9t-9.5 23t9.5 23t23.5 9q15 0 23.5 -9z" />
    <glyph glyph-name="uni10FD" unicode="&#x10fd;" horiz-adv-x="508" 
d="M145.5 15q-46.5 27 -71.5 75t-25 111q0 22 2.5 35.5t6 24t4.5 14.5h34q-10 -40 -10 -75q0 -87 46.5 -133.5t120.5 -46.5q75 0 122.5 46t47.5 131q0 47 -22 85t-53 65.5t-83 65.5q-47 34 -74.5 58t-46 55t-18.5 67q0 59 36.5 94t96.5 35q59 0 98.5 -36t39.5 -99
q0 -23 -12 -49h-36q12 24 12 49q0 42 -29 72.5t-70 30.5q-46 0 -73 -29t-27 -68q0 -44 31.5 -77.5t96.5 -81.5q54 -39 88 -69.5t57.5 -72.5t23.5 -94q0 -61 -25.5 -109t-72 -74.5t-108.5 -26.5q-61 0 -107.5 27z" />
    <glyph glyph-name="endash" unicode="&#x2013;" horiz-adv-x="520" 
d="M45 329h430v-32h-430v32z" />
    <glyph glyph-name="emdash" unicode="&#x2014;" horiz-adv-x="778" 
d="M45 329h688v-31h-688v31z" />
    <glyph glyph-name="quoteleft" unicode="&#x2018;" horiz-adv-x="212" 
d="M81 562.5q-8 8.5 -8 22.5q0 13 11 37l50 111h24l-36 -122q7 -4 11.5 -11.5t4.5 -14.5q0 -13 -9 -22t-24 -9q-16 0 -24 8.5z" />
    <glyph glyph-name="quoteright" unicode="&#x2019;" horiz-adv-x="212" 
d="M131 724.5q8 -8.5 8 -22.5q0 -13 -11 -37l-50 -111h-24l36 122q-7 4 -11 11t-4 15q0 13 8.5 22t23.5 9q16 0 24 -8.5z" />
    <glyph glyph-name="quotesinglbase" unicode="&#x201a;" horiz-adv-x="212" 
d="M131 44.5q8 -8.5 8 -22.5q0 -12 -11 -38l-50 -111h-24l36 122q-7 4 -11 11.5t-4 15.5q0 13 8.5 22t23.5 9q16 0 24 -8.5z" />
    <glyph glyph-name="quotedblleft" unicode="&#x201c;" horiz-adv-x="346" 
d="M81 562.5q-8 8.5 -8 22.5q0 13 11 37l50 111h24l-36 -122q7 -4 11.5 -11.5t4.5 -14.5q0 -13 -9 -22t-24 -9q-16 0 -24 8.5zM215 562.5q-8 8.5 -8 22.5q0 13 11 37l50 111h24l-36 -122q7 -4 11.5 -11.5t4.5 -14.5q0 -13 -9 -22t-24 -9q-16 0 -24 8.5z" />
    <glyph glyph-name="quotedblright" unicode="&#x201d;" horiz-adv-x="346" 
d="M131 724.5q8 -8.5 8 -22.5q0 -13 -11 -37l-50 -111h-24l36 122q-7 4 -11 11t-4 15q0 13 8.5 22t23.5 9q16 0 24 -8.5zM265 724.5q8 -8.5 8 -22.5q0 -13 -11 -37l-49 -111h-25l36 122q-7 4 -11 11t-4 15q0 13 8.5 22t23.5 9q16 0 24 -8.5z" />
    <glyph glyph-name="quotedblbase" unicode="&#x201e;" horiz-adv-x="346" 
d="M131 44.5q8 -8.5 8 -22.5q0 -12 -11 -38l-50 -111h-24l36 122q-7 4 -11 11.5t-4 15.5q0 13 8.5 22t23.5 9q16 0 24 -8.5zM265 44.5q8 -8.5 8 -22.5q0 -12 -11 -38l-49 -111h-25l36 122q-7 4 -11 11.5t-4 15.5q0 13 8.5 22t23.5 9q16 0 24 -8.5z" />
    <glyph glyph-name="bullet" unicode="&#x2022;" horiz-adv-x="260" 
d="M165 382.5q13 -13.5 13 -34.5q0 -19 -13 -32.5t-35 -13.5q-21 0 -34 13.5t-13 33.5t13 33.5t34 13.5q22 0 35 -13.5z" />
    <glyph glyph-name="ellipsis" unicode="&#x2026;" horiz-adv-x="551" 
d="M115.5 45q8.5 -9 8.5 -23t-8.5 -23t-23.5 -9q-14 0 -23.5 9t-9.5 23t9.5 23t23.5 9q15 0 23.5 -9zM299 45q9 -9 9 -23t-9 -23t-24 -9q-14 0 -23 9t-9 23t9 23t23 9q15 0 24 -9zM482.5 44q8.5 -9 8.5 -23t-8.5 -23t-23.5 -9q-14 0 -23.5 9t-9.5 23t9.5 23t23.5 9
q15 0 23.5 -9z" />
    <glyph glyph-name="guilsinglleft" unicode="&#x2039;" horiz-adv-x="344" 
d="M261 494l-139 -206l139 -205l-23 -15l-155 209v22l155 210z" />
    <glyph glyph-name="guilsinglright" unicode="&#x203a;" horiz-adv-x="344" 
d="M261 299v-22l-156 -209l-22 15l139 205l-139 206l22 15z" />
    <glyph glyph-name="fraction" unicode="&#x2044;" horiz-adv-x="102" 
d="M269 732l-409 -798l-27 13l409 798z" />
    <glyph glyph-name="uni2074" unicode="&#x2074;" horiz-adv-x="400" 
d="M339 431h-57v-108h-32v108h-190v25l131 286l27 -11l-124 -271h156l4 122h28v-122h57v-29z" />
    <glyph glyph-name="Euro" unicode="&#x20ac;" horiz-adv-x="569" 
d="M233 585.5q-54 -56.5 -73 -163.5h283l-8 -30h-278v-112h257l-6 -30h-250q14 -115 68 -171.5t138 -56.5q41 0 70.5 10.5t67.5 33.5v-36q-64 -40 -142 -40q-98 0 -160 66t-78 194h-78l7 30h70v112h-77l7 30h73q22 120 85.5 186t154.5 66q45 0 83.5 -13t77.5 -40l-17 -27
q-39 27 -71 37.5t-73 10.5q-77 0 -131 -56.5z" />
    <glyph glyph-name="uni20BE" unicode="&#x20be;" horiz-adv-x="681" 
d="M397 340v297q-21 4 -50 4q-31 0 -58 -6v-295h-32v285q-68 -27 -107.5 -94t-39.5 -164q0 -96 36 -172t101.5 -119.5t150.5 -43.5h149l-6 -32h-406l1 29l151 2q-59 17 -107 60.5t-77 114t-29 162.5q0 108 49.5 185t133.5 105v95h32v-87q27 6 57 6t51 -4v85h32v-91
q90 -24 137 -105t47 -216l-36 -1q0 125 -37.5 196t-110.5 94v-290h-32z" />
    <glyph glyph-name="minus" unicode="&#x2212;" horiz-adv-x="489" 
d="M74 347h341v-32h-341v32z" />
    <glyph glyph-name="uni2215" unicode="&#x2215;" horiz-adv-x="102" 
d="M269 732l-409 -798l-27 13l409 798z" />
    </font>
</defs>
</svg>
