<?xml version="1.0" standalone="no"?>
<!DOCTYPE svg PUBLIC "-//W3C//DTD SVG 1.1//EN" "http://www.w3.org/Graphics/SVG/1.1/DTD/svg11.dtd" >
<svg xmlns="http://www.w3.org/2000/svg" xmlns:xlink="http://www.w3.org/1999/xlink" version="1.1">
<metadata>
Created by FontForge 20170731 at Sun Jun  4 15:28:53 2017
 By Aleksey,,,
Copyright (c) 2016 by Beno Gordeziani, Aleksandre Charkviani. All rights reserved.
</metadata>
<defs>
<font id="GLGordeziani-Medium" horiz-adv-x="366" >
  <font-face 
    font-family="GL Gordeziani Medium"
    font-weight="500"
    font-stretch="normal"
    units-per-em="1000"
    panose-1="0 0 6 0 0 0 0 0 0 0"
    ascent="800"
    descent="-200"
    x-height="710"
    cap-height="710"
    bbox="-33 -320 899 845"
    underline-thickness="50"
    underline-position="-150"
    unicode-range="U+0020-2248"
  />
<missing-glyph horiz-adv-x="510" 
d="M418 -310h-323v1020h323v-1020zM171 642v-34h67v-38h-68v-33h170v33h-68v38h68v34h-169zM170 510v-106h170v35h-68v71h-102zM238 439h-34v36h34v-36zM170 376v-33h68v-38h-68v-34h102v72h68v33h-170zM306 315v-67h-136v-35h170v102h-34zM238 191v-57h34v23h34v-48h-102
v82h-34v-115h170v115h-102zM170 14v-115h170v115h-170zM306 -67h-102v48h102v-48zM170 -124v-34h72l-72 -48v-34h170v34h-104l71 48h33v34h-170z" />
    <glyph glyph-name=".notdef" horiz-adv-x="510" 
d="M418 -310h-323v1020h323v-1020zM171 642v-34h67v-38h-68v-33h170v33h-68v38h68v34h-169zM170 510v-106h170v35h-68v71h-102zM238 439h-34v36h34v-36zM170 376v-33h68v-38h-68v-34h102v72h68v33h-170zM306 315v-67h-136v-35h170v102h-34zM238 191v-57h34v23h34v-48h-102
v82h-34v-115h170v115h-102zM170 14v-115h170v115h-170zM306 -67h-102v48h102v-48zM170 -124v-34h72l-72 -48v-34h170v34h-104l71 48h33v34h-170z" />
    <glyph glyph-name=".null" horiz-adv-x="0" 
 />
    <glyph glyph-name="nonmarkingreturn" horiz-adv-x="333" 
 />
    <glyph glyph-name="space" unicode=" " horiz-adv-x="150" 
 />
    <glyph glyph-name="exclam" unicode="!" horiz-adv-x="148" 
d="M30 383v317h88v-317l-11 -228h-66zM32 100h85v-100h-85v100z" />
    <glyph glyph-name="quotedbl" unicode="&#x22;" horiz-adv-x="264" 
d="M30 700h85l-12 -194h-61zM149 700h85l-12 -194h-61z" />
    <glyph glyph-name="numbersign" unicode="#" horiz-adv-x="430" 
d="M85 208h-55l6 63h55l21 198h-56l6 63h56l18 168h72l-17 -168h83l17 168h73l-18 -168h54l-6 -63h-54l-21 -198h54l-6 -63h-54l-22 -208h-73l22 208h-83l-22 -208h-72zM247 271l20 198h-83l-20 -198h83z" />
    <glyph glyph-name="dollar" unicode="$" horiz-adv-x="419" 
d="M174 4q-62 10 -93 54.5t-31 117.5v45h84v-50q0 -89 73 -89q74 0 74 89q0 33 -13.5 59t-33.5 44.5t-56 47.5q-40 31 -65 55.5t-42.5 61t-17.5 85.5q0 73 30.5 117.5t90.5 54.5v55h72v-55q61 -10 91.5 -55t30.5 -117v-20h-83v26q0 89 -72 89t-72 -89q0 -34 13.5 -60
t33.5 -44.5t56 -47.5q40 -31 65 -55.5t42.5 -61t17.5 -85.5q0 -72 -31 -117t-92 -55v-53h-72v53z" />
    <glyph glyph-name="percent" unicode="%" horiz-adv-x="649" 
d="M76 285q-26 30 -26 83v224q0 53 26 82.5t76 29.5q51 0 76.5 -29.5t25.5 -82.5v-224q0 -53 -25.5 -83t-76.5 -30q-50 0 -76 30zM434 700h53l-276 -700h-53zM197 364v231q0 58 -45 58t-45 -58v-231q0 -58 45 -58t45 58zM420.5 26q-25.5 30 -25.5 83v223q0 53 25.5 83
t76.5 30t76.5 -30t25.5 -83v-223q0 -53 -25.5 -83t-76.5 -30t-76.5 30zM542 105v231q0 57 -45 57t-45 -57v-231q0 -57 45 -57t45 57z" />
    <glyph glyph-name="ampersand" unicode="&#x26;" horiz-adv-x="453" 
d="M81.5 35q-31.5 42 -31.5 118v70q0 53 20 91t61 55q-81 31 -81 143v15q0 85 41.5 129t123.5 44h117v-80h-115q-79 0 -79 -89v-38q0 -43 19.5 -65t56.5 -23h69v78h88v-78h32v-80h-32v-237q0 -31 2.5 -50t11.5 -38h-90q-5 12 -8 24.5t-4 34.5q-14 -32 -41.5 -49t-65.5 -17
q-63 0 -94.5 42zM262.5 91.5q19.5 18.5 20.5 55.5v178h-63q-41 -1 -61.5 -25.5t-20.5 -74.5v-65q0 -43 18.5 -65t54.5 -22q32 0 51.5 18.5z" />
    <glyph glyph-name="quotesingle" unicode="'" horiz-adv-x="145" 
d="M30 700h85l-13 -194h-60z" />
    <glyph glyph-name="parenleft" unicode="(" horiz-adv-x="238" 
d="M63.5 36q-33.5 36 -33.5 118v393q0 81 34 117t114 36h30v-72h-25q-36 0 -50.5 -19t-14.5 -62v-393q0 -44 14.5 -62.5t50.5 -18.5h25v-73h-30q-81 0 -114.5 36z" />
    <glyph glyph-name="parenright" unicode=")" horiz-adv-x="238" 
d="M30 73h25q36 0 50.5 18.5t14.5 62.5v393q0 43 -14.5 62t-50.5 19h-25v72h30q80 0 114 -36t34 -117v-393q0 -81 -34 -117.5t-114 -36.5h-30v73z" />
    <glyph glyph-name="asterisk" unicode="*" horiz-adv-x="430" 
d="M251 698l-20 -160l147 66l22 -68l-158 -30l109 -117l-58 -43l-78 142l-78 -142l-58 43l110 117l-159 31l23 68l146 -67l-20 160h72z" />
    <glyph glyph-name="plus" unicode="+" horiz-adv-x="437" 
d="M187 319h-137v63h137v138h63v-138h137v-63h-137v-140h-63v140z" />
    <glyph glyph-name="comma" unicode="," horiz-adv-x="148" 
d="M64 0h-31v100h85v-91l-42 -101h-36z" />
    <glyph glyph-name="hyphen" unicode="-" horiz-adv-x="255" 
d="M225 390v-80h-195v80h195z" />
    <glyph glyph-name="period" unicode="." horiz-adv-x="145" 
d="M30 100h85v-100h-85v100z" />
    <glyph glyph-name="slash" unicode="/" horiz-adv-x="412" 
d="M306 700h76l-276 -700h-76z" />
    <glyph glyph-name="zero" unicode="0" horiz-adv-x="410" 
d="M84.5 39.5q-41.5 46.5 -41.5 129.5v362q0 83 41 129.5t121 46.5t121.5 -46.5t41.5 -129.5v-362q0 -83 -41.5 -129.5t-121.5 -46.5q-79 0 -120.5 46.5zM261 96q19 23 19 68v373q0 90 -75 90q-74 0 -74 -90v-373q0 -44 18.5 -67.5t55.5 -23.5t56 23z" />
    <glyph glyph-name="one" unicode="1" horiz-adv-x="277" 
d="M116 565q-43 -18 -93 -19v63q54 1 79.5 24.5t40.5 66.5h61v-700h-88v565z" />
    <glyph glyph-name="two" unicode="2" horiz-adv-x="404" 
d="M43 68q0 53 16.5 95t40 73.5t63.5 74.5q37 39 59 68t37 66t15 82q0 52 -18 76t-56 24q-37 0 -55.5 -23.5t-18.5 -67.5v-66h-83v60q0 83 40 130t119 47q80 0 120 -46.5t40 -129.5q0 -55 -17.5 -100t-43 -78t-66.5 -79q-52 -57 -78 -99t-26 -95h222v-80h-310v68z" />
    <glyph glyph-name="three" unicode="3" horiz-adv-x="404" 
d="M83 39.5q-40 46.5 -40 129.5v52h83v-57q0 -91 74 -91q37 0 55.5 24t18.5 75v54q0 51 -20.5 74.5t-62.5 24.5h-41v80h46q78 3 78 89v34q0 51 -18.5 75t-55.5 24q-74 0 -74 -90v-39h-83v33q0 84 40 130t119 46t119.5 -46t40.5 -130v-18q0 -111 -83 -144q83 -31 83 -145v-55
q0 -83 -40.5 -129.5t-119.5 -46.5t-119 46.5z" />
    <glyph glyph-name="four" unicode="4" horiz-adv-x="449" 
d="M266 137h-222v80l211 483h97v-483h54v-80h-54v-137h-86v137zM266 217v316l-141 -316h141z" />
    <glyph glyph-name="five" unicode="5" horiz-adv-x="404" 
d="M83 39.5q-40 46.5 -40 129.5v51h83v-56q0 -90 74 -90t74 90v142q0 44 -18.5 67t-55.5 23q-65 0 -72 -73v-17h-83l19 394h281v-80h-201l-11 -197q33 53 102 53q64 0 95.5 -42.5t31.5 -120.5v-144q0 -83 -40.5 -129.5t-119.5 -46.5t-119 46.5z" />
    <glyph glyph-name="six" unicode="6" horiz-adv-x="410" 
d="M84.5 39.5q-41.5 46.5 -41.5 129.5v358q0 87 40.5 133.5t122.5 46.5q79 0 119.5 -46t40.5 -129v-15h-84v21q0 89 -74 89q-39 0 -58 -25t-19 -79v-144q31 67 109 67q64 0 96 -42.5t32 -120.5v-114q0 -83 -41.5 -129.5t-121.5 -46.5q-79 0 -120.5 46.5zM280 164v112
q0 44 -19 67t-56 23t-55.5 -23t-18.5 -67v-112q0 -90 74 -90q75 0 75 90z" />
    <glyph glyph-name="seven" unicode="7" horiz-adv-x="363" 
d="M251 620h-231v80h320v-77l-173 -623h-89z" />
    <glyph glyph-name="eight" unicode="8" horiz-adv-x="420" 
d="M86 39q-43 46 -43 129v53q0 114 77 147q-77 33 -77 143v23q0 82 43 127.5t124 45.5t124.5 -45.5t43.5 -127.5v-23q0 -109 -77 -143q77 -34 77 -147v-53q0 -83 -43 -129t-125 -46q-81 0 -124 46zM290 495v36q0 96 -80 96q-79 0 -79 -96v-36q0 -90 79 -90q80 0 80 90z
M290 170v61q0 94 -80 94q-79 0 -79 -94v-61q0 -97 79 -97t80 97z" />
    <glyph glyph-name="nine" unicode="9" horiz-adv-x="410" 
d="M84.5 39.5q-40.5 46.5 -40.5 129.5v14h83v-20q0 -44 19 -67t56 -23q40 0 59 25t19 79v145q-29 -68 -110 -68q-64 0 -95.5 43t-31.5 121v113q0 83 41 130t121 47t121.5 -47t41.5 -130v-357q0 -87 -40.5 -134t-123.5 -47q-79 0 -119.5 46.5zM261 357q19 23 19 68v112
q0 90 -75 90q-74 0 -74 -90v-112q0 -44 18.5 -67.5t55.5 -23.5t56 23z" />
    <glyph glyph-name="colon" unicode=":" horiz-adv-x="145" 
d="M30 481h85v-100h-85v100zM30 100h85v-100h-85v100z" />
    <glyph glyph-name="semicolon" unicode=";" horiz-adv-x="148" 
d="M33 481h85v-100h-85v100zM64 0h-31v100h85v-91l-42 -101h-36z" />
    <glyph glyph-name="less" unicode="&#x3c;" horiz-adv-x="415" 
d="M50 319v63l315 124v-64l-233 -92l233 -92v-64z" />
    <glyph glyph-name="equal" unicode="=" horiz-adv-x="393" 
d="M50 460h293v-62h-293v62zM50 312h293v-63h-293v63z" />
    <glyph glyph-name="greater" unicode="&#x3e;" horiz-adv-x="415" 
d="M50 258l233 92l-233 92v64l315 -124v-63l-315 -125v64z" />
    <glyph glyph-name="question" unicode="?" horiz-adv-x="375" 
d="M130 197q0 50 15.5 84.5t46.5 77.5q33 47 49 84t16 93q0 91 -72 91t-72 -91v-67h-83v61q0 83 39.5 130t118.5 47q78 0 117.5 -46.5t39.5 -129.5q0 -43 -10.5 -77.5t-24.5 -58t-39 -58.5q-31 -40 -46 -71t-15 -72q0 -22 4 -38h-79q-5 20 -5 41zM131 100h85v-100h-85v100z
" />
    <glyph glyph-name="at" unicode="@" horiz-adv-x="739" 
d="M128.5 35.5q-78.5 91.5 -78.5 253.5q0 124 40.5 226t122.5 162t202 60q144 0 209 -78.5t65 -211.5q0 -101 -27.5 -172t-70.5 -106.5t-89 -35.5q-37 0 -58.5 17t-23.5 50q-31 -66 -98 -66q-48 0 -72 32t-24 89q0 9 2 33l10 100q8 70 38.5 108.5t81.5 38.5q69 0 89 -65
l6 61h77l-30 -288q-4 -37 27 -37q48 0 71.5 74.5t23.5 164.5q0 105 -52 164t-159 59q-140 0 -212.5 -104t-72.5 -279q0 -131 61 -202t185 -71q57 0 105.5 14.5t94.5 50.5l-6 -78q-45 -30 -93 -42.5t-105 -12.5q-161 0 -239.5 91.5zM407 230q17 21 21 60l10 95q1 5 1 14
q0 28 -14.5 43.5t-41.5 15.5q-30 0 -47 -20t-21 -58l-10 -89q-1 -6 -1 -16q0 -66 56 -66q30 0 47 21z" />
    <glyph glyph-name="A" unicode="A" horiz-adv-x="395" 
d="M261 197h-127l-33 -197l-81 2l137 716h81l137 -716l-81 -2zM249 270l-47 282q-3 14 -3 46h-2q-1 -30 -3 -46l-48 -282h103z" />
    <glyph glyph-name="B" unicode="B" horiz-adv-x="362" 
d="M50 710h133q36 0 66.5 -18t48.5 -48.5t18 -66.5v-108q0 -39 -16 -64.5t-43 -38.5v-2q28 -12 45.5 -38.5t17.5 -64.5v-128q0 -36 -18.5 -66.5t-50 -48.5t-67.5 -18h-134v710zM183 401q23 0 39 16.5t16 39.5v125q0 23 -16 39.5t-39 16.5h-56v-237h56zM184 73q24 0 41 16
t17 39v145q0 23 -17.5 39.5t-40.5 16.5h-57v-256h57z" />
    <glyph glyph-name="C" unicode="C" horiz-adv-x="351" 
d="M108.5 8q-30.5 18 -48 48.5t-17.5 66.5v464q0 36 17.5 66.5t48 48.5t66.5 18t66.5 -18t48.5 -48.5t18 -66.5v-97h-77v102q0 23 -16.5 39.5t-39.5 16.5t-39 -16.5t-16 -39.5v-474q0 -23 16 -39t39 -16t39.5 16t16.5 39v122h77v-117q0 -36 -18 -66.5t-48.5 -48.5t-66.5 -18
t-66.5 18z" />
    <glyph glyph-name="D" unicode="D" horiz-adv-x="358" 
d="M50 710h133q36 0 66.5 -17.5t48.5 -47.5t18 -65v-447q0 -36 -18 -66.5t-48.5 -48.5t-66.5 -18h-133v710zM183 73q23 0 39 16t16 39v457q0 21 -16 37t-39 16h-56v-565h56z" />
    <glyph glyph-name="E" unicode="E" horiz-adv-x="337" 
d="M50 710h252v-73h-175v-238h135v-73h-135v-253h175v-73h-252v710z" />
    <glyph glyph-name="F" unicode="F" horiz-adv-x="337" 
d="M50 710h252v-73h-175v-238h135v-73h-135v-326h-77v710z" />
    <glyph glyph-name="G" unicode="G" horiz-adv-x="351" 
d="M43 587q0 36 17.5 66.5t48 48.5t66.5 18t66.5 -18t48.5 -48.5t18 -66.5v-84h-77v89q0 23 -16.5 39.5t-39.5 16.5t-39 -16.5t-16 -39.5v-474q0 -23 16 -39t39 -16t39.5 16t16.5 39v180h-47v72h124v-247q0 -36 -18 -66.5t-48.5 -48.5t-66.5 -18t-66.5 18t-48 48.5
t-17.5 66.5v464z" />
    <glyph glyph-name="H" unicode="H" horiz-adv-x="369" 
d="M50 710h77v-311h114v311h78v-710h-78v326h-114v-326h-77v710z" />
    <glyph glyph-name="I" unicode="I" horiz-adv-x="192" 
d="M58 710h77v-710h-77v710z" />
    <glyph glyph-name="J" unicode="J" horiz-adv-x="343" 
d="M101.5 8q-30.5 18 -48.5 48.5t-18 66.5v117h77v-122q0 -23 16.5 -39t39.5 -16t39 16t16 39v592h78v-587q0 -36 -18 -66.5t-48.5 -48.5t-66.5 -18t-66.5 18z" />
    <glyph glyph-name="K" unicode="K" horiz-adv-x="392" 
d="M50 710h77v-303l2 1q1 22 10 39l134 263h88l-163 -311l174 -399h-88l-133 313l-24 -49v-264h-77v710z" />
    <glyph glyph-name="L" unicode="L" horiz-adv-x="329" 
d="M50 710h77v-637h175v-73h-252v710z" />
    <glyph glyph-name="M" unicode="M" horiz-adv-x="550" 
d="M50 710h101l110 -467q4 -14 6.5 -49.5t2.5 -60.5h2q3 85 9 110l109 467h103v-710h-74v509q0 24 8 80l-1 1l-14 -63l-119 -527h-43l-119 527l-14 63l-2 -2q3 -14 6 -36.5t3 -42.5v-509h-74v710z" />
    <glyph glyph-name="N" unicode="N" horiz-adv-x="419" 
d="M50 710h79l145 -464q5 -17 15 -72q5 -29 5 -28l2 1q-8 59 -8 127v436h73v-710h-78l-146 465q-11 51 -13 66l-7 33l-2 -1q9 -66 9 -127v-436h-74v710z" />
    <glyph glyph-name="O" unicode="O" horiz-adv-x="351" 
d="M43 587q0 36 17.5 66.5t48 48.5t66.5 18t66.5 -18t48.5 -48.5t18 -66.5v-464q0 -36 -18 -66.5t-48.5 -48.5t-66.5 -18t-66.5 18t-48 48.5t-17.5 66.5v464zM136 79q16 -16 39 -16t39.5 16t16.5 39v474q0 23 -16.5 39.5t-39.5 16.5t-39 -16.5t-16 -39.5v-474q0 -23 16 -39z
" />
    <glyph glyph-name="P" unicode="P" horiz-adv-x="351" 
d="M50 710h133q36 0 66.5 -18t48.5 -48.5t18 -66.5v-124q0 -58 -38.5 -96.5t-94.5 -38.5h-56v-318h-77v710zM183 390q24 0 39.5 16.5t15.5 41.5v134q0 23 -16 39.5t-39 16.5h-56v-248h56z" />
    <glyph glyph-name="Q" unicode="Q" horiz-adv-x="373" 
d="M81.5 35.5q-38.5 35.5 -38.5 89.5v462q0 36 17.5 66.5t48 48.5t66.5 18t66.5 -18t48.5 -48.5t18 -66.5v-462q0 -20 -8.5 -38t-24.5 -29l12 7h59v-65h-171q-55 0 -93.5 35.5zM214.5 81.5q16.5 16.5 16.5 39.5v471q0 23 -16.5 39.5t-39.5 16.5t-39 -16.5t-16 -39.5v-471
q0 -23 16 -39.5t39 -16.5t39.5 16.5z" />
    <glyph glyph-name="R" unicode="R" horiz-adv-x="369" 
d="M50 710h133q36 0 66.5 -18t48.5 -48.5t18 -66.5v-108q0 -39 -16 -64.5t-43 -38.5v-2q27 -12 43.5 -39t16.5 -64v-212q0 -31 10 -49h-78q-10 12 -10 49v224q0 23 -16.5 39.5t-39.5 16.5h-56v-329h-77v710zM183 401q23 0 39 16.5t16 39.5v125q0 23 -16 39.5t-39 16.5h-56
v-237h56z" />
    <glyph glyph-name="S" unicode="S" horiz-adv-x="336" 
d="M35 240h77v-122q0 -23 16.5 -39t39.5 -16t39 16t16 39v103q0 31 -21.5 60t-65.5 71q-50 49 -75.5 84.5t-25.5 78.5v72q0 36 18 66.5t48.5 48.5t66.5 18t66.5 -18t48.5 -48.5t18 -66.5v-97h-78v102q0 23 -16 39.5t-39 16.5t-39.5 -16.5t-16.5 -39.5v-75q0 -32 21.5 -60.5
t65.5 -70.5q50 -48 76 -84t26 -79v-100q0 -36 -18 -66.5t-48.5 -48.5t-66.5 -18t-66.5 18t-48.5 48.5t-18 66.5v117z" />
    <glyph glyph-name="T" unicode="T" horiz-adv-x="338" 
d="M28 710h283v-73h-103v-637h-78v637h-102v73z" />
    <glyph glyph-name="U" unicode="U" horiz-adv-x="351" 
d="M108.5 8q-30.5 18 -48 48.5t-17.5 66.5v587h77v-592q0 -23 16 -39t39 -16t39.5 16t16.5 39v592h77v-587q0 -36 -18 -66.5t-48.5 -48.5t-66.5 -18t-66.5 18z" />
    <glyph glyph-name="V" unicode="V" horiz-adv-x="392" 
d="M101 710l91 -508q3 -13 3 -45h2q0 32 3 45l91 508h81l-136 -710h-80l-136 710h81z" />
    <glyph glyph-name="W" unicode="W" horiz-adv-x="565" 
d="M20 710h81l64 -473q7 -50 8 -103h2q0 52 7 103l68 473h65l68 -473q7 -49 7 -103h2q0 47 8 103l64 473h81l-115 -710h-71l-71 457q-4 29 -4 118h-2q0 -81 -5 -118l-71 -457h-71z" />
    <glyph glyph-name="X" unicode="X" horiz-adv-x="370" 
d="M144 355l-124 355h73l86 -247q2 -7 3.5 -18.5t1.5 -23.5h2q0 12 1.5 23.5t3.5 18.5l86 247h73l-124 -355l124 -355h-73l-86 248q-2 7 -3.5 18t-1.5 22h-2q0 -11 -1.5 -22t-3.5 -18l-86 -248h-73z" />
    <glyph glyph-name="Y" unicode="Y" horiz-adv-x="376" 
d="M93 710l89 -253q2 -8 3.5 -20.5t1.5 -23.5h2q0 11 1.5 24.5t3.5 19.5l89 253h73l-130 -368v-342h-77v342l-129 368h73z" />
    <glyph glyph-name="Z" unicode="Z" horiz-adv-x="322" 
d="M28 76l189 566h-189v68h266v-71l-190 -566h190v-73h-266v76z" />
    <glyph glyph-name="bracketleft" unicode="[" horiz-adv-x="233" 
d="M30 700h173v-72h-85v-555h85v-73h-173v700z" />
    <glyph glyph-name="backslash" unicode="\" horiz-adv-x="412" 
d="M30 700h76l276 -700h-76z" />
    <glyph glyph-name="bracketright" unicode="]" horiz-adv-x="233" 
d="M30 73h85v555h-85v72h173v-700h-173v73z" />
    <glyph glyph-name="asciicircum" unicode="^" horiz-adv-x="452" 
d="M194 700h64l144 -310h-72l-104 230l-105 -230h-71z" />
    <glyph glyph-name="underscore" unicode="_" horiz-adv-x="545" 
d="M30 -10h485v-65h-485v65z" />
    <glyph glyph-name="a" unicode="a" horiz-adv-x="395" 
d="M261 197h-127l-33 -197l-81 2l137 716h81l137 -716l-81 -2zM249 270l-47 282q-3 14 -3 46h-2q-1 -30 -3 -46l-48 -282h103z" />
    <glyph glyph-name="b" unicode="b" horiz-adv-x="362" 
d="M50 710h133q36 0 66.5 -18t48.5 -48.5t18 -66.5v-108q0 -39 -16 -64.5t-43 -38.5v-2q28 -12 45.5 -38.5t17.5 -64.5v-128q0 -36 -18.5 -66.5t-50 -48.5t-67.5 -18h-134v710zM183 401q23 0 39 16.5t16 39.5v125q0 23 -16 39.5t-39 16.5h-56v-237h56zM184 73q24 0 41 16
t17 39v145q0 23 -17.5 39.5t-40.5 16.5h-57v-256h57z" />
    <glyph glyph-name="c" unicode="c" horiz-adv-x="351" 
d="M108.5 8q-30.5 18 -48 48.5t-17.5 66.5v464q0 36 17.5 66.5t48 48.5t66.5 18t66.5 -18t48.5 -48.5t18 -66.5v-97h-77v102q0 23 -16.5 39.5t-39.5 16.5t-39 -16.5t-16 -39.5v-474q0 -23 16 -39t39 -16t39.5 16t16.5 39v122h77v-117q0 -36 -18 -66.5t-48.5 -48.5t-66.5 -18
t-66.5 18z" />
    <glyph glyph-name="d" unicode="d" horiz-adv-x="358" 
d="M50 710h133q36 0 66.5 -17.5t48.5 -47.5t18 -65v-447q0 -36 -18 -66.5t-48.5 -48.5t-66.5 -18h-133v710zM183 73q23 0 39 16t16 39v457q0 21 -16 37t-39 16h-56v-565h56z" />
    <glyph glyph-name="e" unicode="e" horiz-adv-x="337" 
d="M50 710h252v-73h-175v-238h135v-73h-135v-253h175v-73h-252v710z" />
    <glyph glyph-name="f" unicode="f" horiz-adv-x="337" 
d="M50 710h252v-73h-175v-238h135v-73h-135v-326h-77v710z" />
    <glyph glyph-name="g" unicode="g" horiz-adv-x="351" 
d="M43 587q0 36 17.5 66.5t48 48.5t66.5 18t66.5 -18t48.5 -48.5t18 -66.5v-84h-77v89q0 23 -16.5 39.5t-39.5 16.5t-39 -16.5t-16 -39.5v-474q0 -23 16 -39t39 -16t39.5 16t16.5 39v180h-47v72h124v-247q0 -36 -18 -66.5t-48.5 -48.5t-66.5 -18t-66.5 18t-48 48.5
t-17.5 66.5v464z" />
    <glyph glyph-name="h" unicode="h" horiz-adv-x="369" 
d="M50 710h77v-311h114v311h78v-710h-78v326h-114v-326h-77v710z" />
    <glyph glyph-name="i" unicode="i" horiz-adv-x="192" 
d="M58 710h77v-710h-77v710z" />
    <glyph glyph-name="j" unicode="j" horiz-adv-x="343" 
d="M101.5 8q-30.5 18 -48.5 48.5t-18 66.5v117h77v-122q0 -23 16.5 -39t39.5 -16t39 16t16 39v592h78v-587q0 -36 -18 -66.5t-48.5 -48.5t-66.5 -18t-66.5 18z" />
    <glyph glyph-name="k" unicode="k" horiz-adv-x="392" 
d="M50 710h77v-303l2 1q1 22 10 39l134 263h88l-163 -311l174 -399h-88l-133 313l-24 -49v-264h-77v710z" />
    <glyph glyph-name="l" unicode="l" horiz-adv-x="329" 
d="M50 710h77v-637h175v-73h-252v710z" />
    <glyph glyph-name="m" unicode="m" horiz-adv-x="553" 
d="M50 710h101l110 -467q4 -14 6.5 -49.5t2.5 -60.5h2q3 85 9 110l109 467h103v-710h-74v509q0 24 8 80l-1 1l-14 -63l-119 -527h-43l-119 527l-14 63l-2 -2q3 -14 6 -36.5t3 -42.5v-509h-74v710z" />
    <glyph glyph-name="n" unicode="n" horiz-adv-x="419" 
d="M50 710h79l145 -464q5 -17 15 -72q5 -29 5 -28l2 1q-8 59 -8 127v436h73v-710h-78l-146 465q-11 51 -13 66l-7 33l-2 -1q9 -66 9 -127v-436h-74v710z" />
    <glyph glyph-name="o" unicode="o" horiz-adv-x="351" 
d="M43 587q0 36 17.5 66.5t48 48.5t66.5 18t66.5 -18t48.5 -48.5t18 -66.5v-464q0 -36 -18 -66.5t-48.5 -48.5t-66.5 -18t-66.5 18t-48 48.5t-17.5 66.5v464zM136 79q16 -16 39 -16t39.5 16t16.5 39v474q0 23 -16.5 39.5t-39.5 16.5t-39 -16.5t-16 -39.5v-474q0 -23 16 -39z
" />
    <glyph glyph-name="p" unicode="p" horiz-adv-x="351" 
d="M50 710h133q36 0 66.5 -18t48.5 -48.5t18 -66.5v-124q0 -58 -38.5 -96.5t-94.5 -38.5h-56v-318h-77v710zM183 390q24 0 39.5 16.5t15.5 41.5v134q0 23 -16 39.5t-39 16.5h-56v-248h56z" />
    <glyph glyph-name="q" unicode="q" horiz-adv-x="373" 
d="M81.5 35.5q-38.5 35.5 -38.5 89.5v462q0 36 17.5 66.5t48 48.5t66.5 18t66.5 -18t48.5 -48.5t18 -66.5v-462q0 -20 -8.5 -38t-24.5 -29l12 7h59v-65h-171q-55 0 -93.5 35.5zM214.5 81.5q16.5 16.5 16.5 39.5v471q0 23 -16.5 39.5t-39.5 16.5t-39 -16.5t-16 -39.5v-471
q0 -23 16 -39.5t39 -16.5t39.5 16.5z" />
    <glyph glyph-name="r" unicode="r" horiz-adv-x="369" 
d="M50 710h133q36 0 66.5 -18t48.5 -48.5t18 -66.5v-108q0 -39 -16 -64.5t-43 -38.5v-2q27 -12 43.5 -39t16.5 -64v-212q0 -31 10 -49h-78q-10 12 -10 49v224q0 23 -16.5 39.5t-39.5 16.5h-56v-329h-77v710zM183 401q23 0 39 16.5t16 39.5v125q0 23 -16 39.5t-39 16.5h-56
v-237h56z" />
    <glyph glyph-name="s" unicode="s" horiz-adv-x="336" 
d="M35 240h77v-122q0 -23 16.5 -39t39.5 -16t39 16t16 39v103q0 31 -21.5 60t-65.5 71q-50 49 -75.5 84.5t-25.5 78.5v72q0 36 18 66.5t48.5 48.5t66.5 18t66.5 -18t48.5 -48.5t18 -66.5v-97h-78v102q0 23 -16 39.5t-39 16.5t-39.5 -16.5t-16.5 -39.5v-75q0 -32 21.5 -60.5
t65.5 -70.5q50 -48 76 -84t26 -79v-100q0 -36 -18 -66.5t-48.5 -48.5t-66.5 -18t-66.5 18t-48.5 48.5t-18 66.5v117z" />
    <glyph glyph-name="t" unicode="t" horiz-adv-x="338" 
d="M28 710h283v-73h-103v-637h-78v637h-102v73z" />
    <glyph glyph-name="u" unicode="u" horiz-adv-x="351" 
d="M108.5 8q-30.5 18 -48 48.5t-17.5 66.5v587h77v-592q0 -23 16 -39t39 -16t39.5 16t16.5 39v592h77v-587q0 -36 -18 -66.5t-48.5 -48.5t-66.5 -18t-66.5 18z" />
    <glyph glyph-name="v" unicode="v" horiz-adv-x="392" 
d="M101 710l91 -508q3 -13 3 -45h2q0 32 3 45l91 508h81l-136 -710h-80l-136 710h81z" />
    <glyph glyph-name="w" unicode="w" horiz-adv-x="565" 
d="M20 710h81l64 -473q7 -50 8 -103h2q0 52 7 103l68 473h65l68 -473q7 -49 7 -103h2q0 47 8 103l64 473h81l-115 -710h-71l-71 457q-4 29 -4 118h-2q0 -81 -5 -118l-71 -457h-71z" />
    <glyph glyph-name="x" unicode="x" horiz-adv-x="370" 
d="M144 355l-124 355h73l86 -247q2 -7 3.5 -18.5t1.5 -23.5h2q0 12 1.5 23.5t3.5 18.5l86 247h73l-124 -355l124 -355h-73l-86 248q-2 7 -3.5 18t-1.5 22h-2q0 -11 -1.5 -22t-3.5 -18l-86 -248h-73z" />
    <glyph glyph-name="y" unicode="y" horiz-adv-x="376" 
d="M93 710l89 -253q2 -8 3.5 -20.5t1.5 -23.5h2q0 11 1.5 24.5t3.5 19.5l89 253h73l-130 -368v-342h-77v342l-129 368h73z" />
    <glyph glyph-name="z" unicode="z" horiz-adv-x="322" 
d="M28 76l189 566h-189v68h266v-71l-190 -566h190v-73h-266v76z" />
    <glyph glyph-name="braceleft" unicode="{" horiz-adv-x="278" 
d="M125.5 28q-26.5 28 -29.5 81l-8 135q-2 38 -13 53t-45 16v74q34 2 45 16.5t13 53.5l8 135q3 53 29.5 80.5t73.5 27.5h49v-72h-18q-29 0 -41.5 -17t-14.5 -58l-5 -109q-2 -36 -15.5 -60t-49.5 -34q36 -10 49.5 -34t15.5 -60l5 -108q2 -41 14.5 -58t41.5 -17h18v-73h-49
q-47 0 -73.5 28z" />
    <glyph glyph-name="bar" unicode="|" horiz-adv-x="173" 
d="M50 751h73v-802h-73v802z" />
    <glyph glyph-name="braceright" unicode="}" horiz-adv-x="278" 
d="M30 73h18q29 0 41.5 17t14.5 58l5 108q2 36 15.5 60t49.5 34q-36 10 -49.5 34t-15.5 60l-5 109q-2 41 -14.5 58t-41.5 17h-18v72h50q47 0 73 -27.5t30 -80.5l7 -135q2 -38 13.5 -53t44.5 -17v-74q-33 -1 -44.5 -16t-13.5 -53l-7 -135q-4 -53 -30 -81t-73 -28h-50v73z" />
    <glyph glyph-name="asciitilde" unicode="~" horiz-adv-x="466" 
d="M270.5 294q-17.5 8 -43.5 25q-24 15 -38 21.5t-29 6.5q-18 0 -32.5 -12.5t-35.5 -43.5l-42 40q31 46 56.5 64.5t54.5 18.5q20 0 37 -8t45 -25q22 -14 36.5 -21t28.5 -7q18 0 31 12t35 44l42 -43q-29 -45 -54 -62.5t-55 -17.5q-19 0 -36.5 8z" />
    <glyph glyph-name="exclamdown" unicode="&#xa1;" horiz-adv-x="148" 
d="M32 700h85v-99h-85v99zM30 304l11 241h66l11 -241v-304h-88v304z" />
    <glyph glyph-name="currency" unicode="&#xa4;" horiz-adv-x="413" 
d="M50 229l52 52q-20 31 -20 69q0 39 20 68l-52 53l35 35l53 -53q31 21 68 21t68 -21l53 53l36 -35l-54 -53q21 -30 21 -68q0 -39 -21 -68l54 -53l-36 -35l-53 52q-29 -20 -68 -20t-68 20l-53 -52zM256 300q21 21 21 50t-21 50t-50 21t-50 -21t-21 -50t21 -50t50 -21t50 21z
" />
    <glyph glyph-name="section" unicode="&#xa7;" horiz-adv-x="417" 
d="M93 -35q-42 36 -42 97v45h83v-33q0 -33 20 -52.5t53 -19.5q31 0 51 17.5t21 48.5q0 28 -21.5 44.5t-66.5 36.5q-44 20 -72 38t-48 49.5t-20 78.5q0 42 21.5 75t59.5 51q-39 23 -60.5 53t-21.5 78q1 61 43.5 98t115.5 37t114.5 -36.5t41.5 -96.5v-30h-83v18
q0 33 -19.5 52.5t-51.5 19.5q-33 0 -52.5 -17t-20.5 -49q0 -27 21 -43t67 -38q45 -21 73 -39t48 -49.5t20 -79.5q0 -41 -21.5 -73.5t-58.5 -52.5q38 -21 59 -51t21 -78q-1 -60 -43.5 -97.5t-114.5 -37.5q-74 0 -116 36zM263.5 258.5q19.5 24.5 19.5 57.5q0 32 -20 52t-58 38
q-30 -5 -50 -29.5t-20 -57.5t21 -53t59 -38q29 6 48.5 30.5z" />
    <glyph glyph-name="copyright" unicode="&#xa9;" horiz-adv-x="791" 
d="M219 41q-79 46 -124 127t-45 182t45 182t124 127t177 46q97 0 176 -46t124 -127t45 -182t-45 -182t-124 -127t-176 -46q-98 0 -177 46zM542.5 90q65.5 39 103 107t37.5 153t-37.5 153t-103 107t-146.5 39q-82 0 -147.5 -39t-103 -107t-37.5 -153t37.5 -153t103 -107
t147.5 -39q81 0 146.5 39zM309 162.5q-28 32.5 -28 90.5v193q0 59 28 91.5t83 32.5q54 0 82 -32.5t28 -91.5v-32h-59v37q0 62 -50 62t-50 -62v-202q0 -61 50 -61t50 61v53h59v-49q0 -58 -28 -90.5t-82 -32.5q-55 0 -83 32.5z" />
    <glyph glyph-name="guillemotleft" unicode="&#xab;" horiz-adv-x="349" 
d="M30 351l63 253h80l-63 -253l63 -265h-80zM176 351l63 253h80l-63 -253l63 -265h-80z" />
    <glyph glyph-name="uni00AD" unicode="&#xad;" horiz-adv-x="255" 
d="M225 390v-80h-195v80h195z" />
    <glyph glyph-name="registered" unicode="&#xae;" horiz-adv-x="791" 
d="M219 41q-79 46 -124 127t-45 182t45 182t124 127t177 46q97 0 176 -46t124 -127t45 -182t-45 -182t-124 -127t-176 -46q-98 0 -177 46zM542.5 90q65.5 39 103 107t37.5 153t-37.5 153t-103 107t-146.5 39q-82 0 -147.5 -39t-103 -107t-37.5 -153t37.5 -153t103 -107
t147.5 -39q81 0 146.5 39zM290 564h111q57 0 83.5 -28t26.5 -84v-10q0 -39 -13.5 -63.5t-42.5 -36.5q30 -11 43 -36t13 -65v-46q0 -40 10 -59h-63q-5 11 -6.5 22.5t-1.5 37.5v46q0 38 -16 53t-49 15h-34v-174h-61v428zM391 367q29 0 44 14t15 47v17q0 31 -12.5 46.5
t-39.5 15.5h-47v-140h40z" />
    <glyph glyph-name="degree" unicode="&#xb0;" horiz-adv-x="281" 
d="M76.5 554q-26.5 26 -26.5 64t26.5 64t64.5 26t64 -26t26 -64q0 -37 -26 -63.5t-64 -26.5t-64.5 26zM175.5 583.5q14.5 14.5 14.5 34.5t-14.5 34.5t-34.5 14.5q-21 0 -35.5 -14.5t-14.5 -34.5t14.5 -34.5t35.5 -14.5q20 0 34.5 14.5z" />
    <glyph glyph-name="periodcentered" unicode="&#xb7;" horiz-adv-x="145" 
d="M30 403h85v-99h-85v99z" />
    <glyph glyph-name="guillemotright" unicode="&#xbb;" horiz-adv-x="349" 
d="M92 351l-62 253h80l63 -253l-63 -265h-80zM238 351l-62 253h80l63 -253l-63 -265h-80z" />
    <glyph glyph-name="questiondown" unicode="&#xbf;" horiz-adv-x="375" 
d="M159 700h85v-99h-85v99zM69.5 39.5q-39.5 46.5 -39.5 130.5q0 61 19 102t56 91q31 43 46 72.5t15 70.5q0 17 -5 39h79q6 -18 6 -42q0 -50 -15.5 -84t-46.5 -78q-33 -46 -49.5 -83t-16.5 -94q0 -91 72 -91t72 92v66h83v-61q0 -83 -39.5 -130t-117.5 -47q-79 0 -118.5 46.5
z" />
    <glyph glyph-name="multiply" unicode="&#xd7;" horiz-adv-x="398" 
d="M50 244l106 106l-105 105l43 43l106 -105l105 106l43 -43l-106 -106l106 -106l-43 -43l-105 106l-107 -106z" />
    <glyph glyph-name="divide" unicode="&#xf7;" horiz-adv-x="408" 
d="M162 536h84v-100h-84v100zM50 382h308v-63h-308v63zM162 264h84v-100h-84v100z" />
    <glyph glyph-name="uni0401" unicode="&#x401;" horiz-adv-x="352" 
d="M94 825h58v-67h-58v67zM208 825h58v-67h-58v67zM50 710h252v-73h-175v-238h135v-73h-135v-253h175v-73h-252v710z" />
    <glyph glyph-name="uni0410" unicode="&#x410;" horiz-adv-x="455" 
d="M291 197h-127l-33 -197l-81 2l137 716h81l137 -716l-81 -2zM279 270l-47 282q-3 14 -3 46h-2q-1 -30 -3 -46l-48 -282h103z" />
    <glyph glyph-name="uni0411" unicode="&#x411;" horiz-adv-x="370" 
d="M50 710h231v-72h-154v-237h56q37 0 68.5 -18t50 -48.5t18.5 -66.5v-135q0 -36 -18.5 -66.5t-50 -48.5t-67.5 -18h-134v710zM184 73q24 0 41 16t17 39v145q0 23 -17.5 39.5t-40.5 16.5h-57v-256h57z" />
    <glyph glyph-name="uni0412" unicode="&#x412;" horiz-adv-x="370" 
d="M50 710h133q36 0 66.5 -18t48.5 -48.5t18 -66.5v-108q0 -39 -16 -64.5t-43 -38.5v-2q28 -12 45.5 -38.5t17.5 -64.5v-128q0 -36 -18.5 -66.5t-50 -48.5t-67.5 -18h-134v710zM183 401q23 0 39 16.5t16 39.5v125q0 23 -16 39.5t-39 16.5h-56v-237h56zM184 73q24 0 41 16
t17 39v145q0 23 -17.5 39.5t-40.5 16.5h-57v-256h57z" />
    <glyph glyph-name="uni0413" unicode="&#x413;" horiz-adv-x="352" 
d="M50 710h252v-73h-175v-637h-77v710z" />
    <glyph glyph-name="uni0414" unicode="&#x414;" horiz-adv-x="479" 
d="M-13 73h23q39 0 54 23t17 75l18 539h271v-637h59v-173h-78v100h-286v-100h-78v173zM293 73v564h-118l-14 -462q-4 -76 -22 -102h154z" />
    <glyph glyph-name="uni0415" unicode="&#x415;" horiz-adv-x="352" 
d="M50 710h252v-73h-175v-238h135v-73h-135v-253h175v-73h-252v710z" />
    <glyph glyph-name="uni0416" unicode="&#x416;" horiz-adv-x="595" 
d="M353 325h-17v-325h-77v325h-16l-162 -325h-88l186 359v5l-169 346h85l147 -312h17v312h77v-312h18l147 312h85l-170 -346v-5l186 -359h-88z" />
    <glyph glyph-name="uni0417" unicode="&#x417;" 
d="M50 240h77v-122q0 -23 16.5 -39t39.5 -16t39 16t16 39v155q0 23 -17 39.5t-40 16.5h-44v72h43q23 0 39 16.5t16 39.5v135q0 23 -15.5 39.5t-38.5 16.5q-22 0 -38 -16.5t-16 -39.5v-102h-77v97q0 36 17.5 66.5t47.5 48.5t66 18t66.5 -18t48 -48.5t17.5 -66.5v-118
q0 -39 -16 -64.5t-43 -38.5v-2q27 -12 44.5 -38.5t17.5 -64.5v-138q0 -36 -18 -66.5t-48.5 -48.5t-66.5 -18t-66.5 18t-48.5 48.5t-18 66.5v117z" />
    <glyph glyph-name="uni0418" unicode="&#x418;" horiz-adv-x="434" 
d="M306 0v481q2 11 2.5 19.5t1.5 13.5l-1 1q-2 -17 -9 -41l-173 -474h-77v710h77v-491l-7 -45l1 -1q2 10 6 25.5t7 25.5l172 486h78v-710h-78z" />
    <glyph glyph-name="uni0419" unicode="&#x419;" horiz-adv-x="434" 
d="M138.5 770.5q-28.5 26.5 -29.5 74.5h56q1 -26 14.5 -37t38.5 -11t39 11t16 37h56q-1 -48 -30 -74.5t-81 -26.5q-51 0 -79.5 26.5zM50 710h77v-491l-7 -45l1 -1q2 10 6 25.5t7 25.5l172 486h78v-710h-78v481q2 11 2.5 19.5t1.5 13.5l-1 1q-2 -17 -9 -41l-173 -474h-77v710
z" />
    <glyph glyph-name="uni041A" unicode="&#x41a;" horiz-adv-x="422" 
d="M50 710h77v-303l2 1q1 22 10 39l134 263h88l-163 -311l174 -399h-88l-133 313l-24 -49v-264h-77v710z" />
    <glyph glyph-name="uni041B" unicode="&#x41b;" horiz-adv-x="464" 
d="M50 79q43 0 58 20.5t17 71.5l18 539h271v-710h-77v637h-118l-14 -462q-2 -90 -34 -133t-109 -43h-12v80z" />
    <glyph glyph-name="uni041C" unicode="&#x41c;" horiz-adv-x="550" 
d="M50 710h120l102 -518q3 -15 3.5 -27.5t0.5 -31.5h2q0 38 3 59l99 518h120v-710h-84v509q0 10 5 42l-2 1l-5 -29l-98 -523h-84l-102 523l-6 29l-1 -1q4 -26 4 -42v-509h-77v710z" />
    <glyph glyph-name="uni041D" unicode="&#x41d;" horiz-adv-x="384" 
d="M50 710h77v-311h129v311h78v-710h-78v326h-129v-326h-77v710z" />
    <glyph glyph-name="uni041E" unicode="&#x41e;" 
d="M50 587q0 36 18 66.5t48.5 48.5t66.5 18t66.5 -18t48.5 -48.5t18 -66.5v-464q0 -36 -18 -66.5t-48.5 -48.5t-66.5 -18t-66.5 18t-48.5 48.5t-18 66.5v464zM143.5 79q16.5 -16 39.5 -16t39 16t16 39v474q0 23 -16 39.5t-39 16.5t-39.5 -16.5t-16.5 -39.5v-474
q0 -23 16.5 -39z" />
    <glyph glyph-name="uni041F" unicode="&#x41f;" horiz-adv-x="384" 
d="M50 710h284v-710h-78v637h-129v-637h-77v710z" />
    <glyph glyph-name="uni0420" unicode="&#x420;" 
d="M50 710h133q36 0 66.5 -18t48.5 -48.5t18 -66.5v-124q0 -58 -38.5 -96.5t-94.5 -38.5h-56v-318h-77v710zM183 390q24 0 39.5 16.5t15.5 41.5v134q0 23 -16 39.5t-39 16.5h-56v-248h56z" />
    <glyph glyph-name="uni0421" unicode="&#x421;" 
d="M116.5 8q-30.5 18 -48.5 48.5t-18 66.5v464q0 36 18 66.5t48.5 48.5t66.5 18t66.5 -18t48.5 -48.5t18 -66.5v-97h-78v102q0 23 -16 39.5t-39 16.5t-39.5 -16.5t-16.5 -39.5v-474q0 -23 16.5 -39t39.5 -16t39 16t16 39v122h78v-117q0 -36 -18 -66.5t-48.5 -48.5t-66.5 -18
t-66.5 18z" />
    <glyph glyph-name="uni0422" unicode="&#x422;" horiz-adv-x="383" 
d="M50 710h283v-73h-103v-637h-77v637h-103v73z" />
    <glyph glyph-name="uni0423" unicode="&#x423;" horiz-adv-x="388" 
d="M41 72h15q44 0 66.5 11t32.5 45l10 39l-152 543h79l106 -414l83 414h79l-122 -554q-13 -59 -30.5 -91.5t-52.5 -48.5t-98 -16h-16v72z" />
    <glyph glyph-name="uni0424" unicode="&#x424;" horiz-adv-x="486" 
d="M372.5 632q29.5 -18 46.5 -48.5t17 -66.5v-324q0 -36 -17 -66.5t-46.5 -48.5t-64.5 -18h-27v-60h-77v60h-27q-35 0 -64 18t-46 48.5t-17 66.5v324q0 36 17 66.5t46 48.5t64 18h27v60h77v-60h27q35 0 64.5 -18zM204 133v445h-27q-21 0 -35.5 -17t-14.5 -39v-334
q0 -22 14.5 -38.5t35.5 -16.5h27zM358 522q0 22 -14.5 39t-35.5 17h-27v-445h27q21 0 35.5 16.5t14.5 38.5v334z" />
    <glyph glyph-name="uni0425" unicode="&#x425;" horiz-adv-x="355" 
d="M136 355l-123 355h73l85 -247q2 -7 3.5 -18.5t1.5 -23.5h2q2 31 6 42l85 247h73l-123 -355l123 -355h-73l-85 248q-4 12 -6 40h-2q0 -11 -1.5 -22t-3.5 -18l-85 -248h-73z" />
    <glyph glyph-name="uni0426" unicode="&#x426;" horiz-adv-x="442" 
d="M315 0h-265v710h77v-637h129v637h78v-637h58v-173h-77v100z" />
    <glyph glyph-name="uni0427" unicode="&#x427;" 
d="M239 309h-2q-10 -12 -28.5 -20.5t-39.5 -8.5q-31 0 -58.5 18t-44 48.5t-16.5 66.5v297h77v-302q0 -23 16.5 -39t39.5 -16t39 16t16 39v302h78v-710h-77v309z" />
    <glyph glyph-name="uni0428" unicode="&#x428;" horiz-adv-x="565" 
d="M50 710h77v-637h117v637h77v-637h117v637h77v-710h-465v710z" />
    <glyph glyph-name="uni0429" unicode="&#x429;" horiz-adv-x="624" 
d="M50 710h77v-637h117v637h77v-637h117v637h77v-637h59v-173h-78v100h-446v710z" />
    <glyph glyph-name="uni042A" unicode="&#x42a;" horiz-adv-x="420" 
d="M0 710h177v-309h56q37 0 68.5 -18t50 -48.5t18.5 -66.5v-135q0 -36 -18.5 -66.5t-50 -48.5t-67.5 -18h-134v638h-100v72zM234 73q24 0 41 16t17 39v145q0 23 -17.5 39.5t-40.5 16.5h-57v-256h57z" />
    <glyph glyph-name="uni042B" unicode="&#x42b;" horiz-adv-x="522" 
d="M50 710h77v-309h56q37 0 68.5 -18t50 -48.5t18.5 -66.5v-135q0 -36 -18.5 -66.5t-50 -48.5t-67.5 -18h-134v710zM395 710h77v-710h-77v710zM184 73q24 0 41 16t17 39v145q0 23 -17.5 39.5t-40.5 16.5h-57v-256h57z" />
    <glyph glyph-name="uni042C" unicode="&#x42c;" horiz-adv-x="370" 
d="M50 710h77v-309h56q37 0 68.5 -18t50 -48.5t18.5 -66.5v-135q0 -36 -18.5 -66.5t-50 -48.5t-67.5 -18h-134v710zM184 73q24 0 41 16t17 39v145q0 23 -17.5 39.5t-40.5 16.5h-57v-256h57z" />
    <glyph glyph-name="uni042D" unicode="&#x42d;" 
d="M50 240h77v-122q0 -23 16.5 -39t39.5 -16t39 16t16 39v208h-97v73h97v193q0 23 -16 39.5t-39 16.5t-39.5 -16.5t-16.5 -39.5v-102h-77v97q0 36 18 66.5t48.5 48.5t66.5 18t66.5 -18t48.5 -48.5t18 -66.5v-464q0 -36 -18 -66.5t-48.5 -48.5t-66.5 -18t-66.5 18t-48.5 48.5
t-18 66.5v117z" />
    <glyph glyph-name="uni042E" unicode="&#x42e;" horiz-adv-x="542" 
d="M50 710h77v-311h99v188q0 36 18 66.5t48.5 48.5t66.5 18t66.5 -18t48.5 -48.5t18 -66.5v-464q0 -36 -18 -66.5t-48.5 -48.5t-66.5 -18t-66.5 18t-48.5 48.5t-18 66.5v203h-99v-326h-77v710zM320 79q16 -16 39 -16t39.5 16t16.5 39v474q0 23 -16.5 39.5t-39.5 16.5
t-39 -16.5t-16 -39.5v-474q0 -23 16 -39z" />
    <glyph glyph-name="uni042F" unicode="&#x42f;" horiz-adv-x="377" 
d="M249 0v329h-55q-23 0 -40 -16.5t-17 -39.5v-224q0 -37 -10 -49h-77q10 18 10 49v212q0 37 16.5 64t43.5 39v2q-27 13 -43 38.5t-16 64.5v108q0 36 18 66.5t48.5 48.5t66.5 18h133v-710h-78zM249 638h-55q-23 0 -39.5 -16.5t-16.5 -39.5v-125q0 -23 16.5 -39.5t39.5 -16.5
h55v237z" />
    <glyph glyph-name="uni0430" unicode="&#x430;" horiz-adv-x="455" 
d="M291 197h-127l-33 -197l-81 2l137 716h81l137 -716l-81 -2zM279 270l-47 282q-3 14 -3 46h-2q-1 -30 -3 -46l-48 -282h103z" />
    <glyph glyph-name="uni0431" unicode="&#x431;" horiz-adv-x="370" 
d="M50 710h231v-72h-154v-237h56q37 0 68.5 -18t50 -48.5t18.5 -66.5v-135q0 -36 -18.5 -66.5t-50 -48.5t-67.5 -18h-134v710zM184 73q24 0 41 16t17 39v145q0 23 -17.5 39.5t-40.5 16.5h-57v-256h57z" />
    <glyph glyph-name="uni0432" unicode="&#x432;" horiz-adv-x="370" 
d="M50 710h133q36 0 66.5 -18t48.5 -48.5t18 -66.5v-108q0 -39 -16 -64.5t-43 -38.5v-2q28 -12 45.5 -38.5t17.5 -64.5v-128q0 -36 -18.5 -66.5t-50 -48.5t-67.5 -18h-134v710zM183 401q23 0 39 16.5t16 39.5v125q0 23 -16 39.5t-39 16.5h-56v-237h56zM184 73q24 0 41 16
t17 39v145q0 23 -17.5 39.5t-40.5 16.5h-57v-256h57z" />
    <glyph glyph-name="uni0433" unicode="&#x433;" horiz-adv-x="352" 
d="M50 710h252v-73h-175v-637h-77v710z" />
    <glyph glyph-name="uni0434" unicode="&#x434;" horiz-adv-x="479" 
d="M-13 73h23q39 0 54 23t17 75l18 539h271v-637h59v-173h-78v100h-286v-100h-78v173zM293 73v564h-118l-14 -462q-4 -76 -22 -102h154z" />
    <glyph glyph-name="uni0435" unicode="&#x435;" horiz-adv-x="352" 
d="M50 710h252v-73h-175v-238h135v-73h-135v-253h175v-73h-252v710z" />
    <glyph glyph-name="uni0436" unicode="&#x436;" horiz-adv-x="595" 
d="M353 325h-17v-325h-77v325h-16l-162 -325h-88l186 359v5l-169 346h85l147 -312h17v312h77v-312h18l147 312h85l-170 -346v-5l186 -359h-88z" />
    <glyph glyph-name="uni0437" unicode="&#x437;" 
d="M50 240h77v-122q0 -23 16.5 -39t39.5 -16t39 16t16 39v155q0 23 -17 39.5t-40 16.5h-44v72h43q23 0 39 16.5t16 39.5v135q0 23 -15.5 39.5t-38.5 16.5q-22 0 -38 -16.5t-16 -39.5v-102h-77v97q0 36 17.5 66.5t47.5 48.5t66 18t66.5 -18t48 -48.5t17.5 -66.5v-118
q0 -39 -16 -64.5t-43 -38.5v-2q27 -12 44.5 -38.5t17.5 -64.5v-138q0 -36 -18 -66.5t-48.5 -48.5t-66.5 -18t-66.5 18t-48.5 48.5t-18 66.5v117z" />
    <glyph glyph-name="uni0438" unicode="&#x438;" horiz-adv-x="434" 
d="M306 0v481q2 11 2.5 19.5t1.5 13.5l-1 1q-2 -17 -9 -41l-173 -474h-77v710h77v-491l-7 -45l1 -1q2 10 6 25.5t7 25.5l172 486h78v-710h-78z" />
    <glyph glyph-name="uni0439" unicode="&#x439;" horiz-adv-x="434" 
d="M138.5 770.5q-28.5 26.5 -29.5 74.5h56q1 -26 14.5 -37t38.5 -11t39 11t16 37h56q-1 -48 -30 -74.5t-81 -26.5q-51 0 -79.5 26.5zM50 710h77v-491l-7 -45l1 -1q2 10 6 25.5t7 25.5l172 486h78v-710h-78v481q2 11 2.5 19.5t1.5 13.5l-1 1q-2 -17 -9 -41l-173 -474h-77v710
z" />
    <glyph glyph-name="uni043A" unicode="&#x43a;" horiz-adv-x="422" 
d="M50 710h77v-303l2 1q1 22 10 39l134 263h88l-163 -311l174 -399h-88l-133 313l-24 -49v-264h-77v710z" />
    <glyph glyph-name="uni043B" unicode="&#x43b;" horiz-adv-x="464" 
d="M50 79q43 0 58 20.5t17 71.5l18 539h271v-710h-77v637h-118l-14 -462q-2 -90 -34 -133t-109 -43h-12v80z" />
    <glyph glyph-name="uni043C" unicode="&#x43c;" horiz-adv-x="550" 
d="M50 710h120l102 -518q3 -15 3.5 -27.5t0.5 -31.5h2q0 38 3 59l99 518h120v-710h-84v509q0 10 5 42l-2 1l-5 -29l-98 -523h-84l-102 523l-6 29l-1 -1q4 -26 4 -42v-509h-77v710z" />
    <glyph glyph-name="uni043D" unicode="&#x43d;" horiz-adv-x="384" 
d="M50 710h77v-311h129v311h78v-710h-78v326h-129v-326h-77v710z" />
    <glyph glyph-name="uni043E" unicode="&#x43e;" 
d="M50 587q0 36 18 66.5t48.5 48.5t66.5 18t66.5 -18t48.5 -48.5t18 -66.5v-464q0 -36 -18 -66.5t-48.5 -48.5t-66.5 -18t-66.5 18t-48.5 48.5t-18 66.5v464zM143.5 79q16.5 -16 39.5 -16t39 16t16 39v474q0 23 -16 39.5t-39 16.5t-39.5 -16.5t-16.5 -39.5v-474
q0 -23 16.5 -39z" />
    <glyph glyph-name="uni043F" unicode="&#x43f;" horiz-adv-x="384" 
d="M50 710h284v-710h-78v637h-129v-637h-77v710z" />
    <glyph glyph-name="uni0440" unicode="&#x440;" 
d="M50 710h133q36 0 66.5 -18t48.5 -48.5t18 -66.5v-124q0 -58 -38.5 -96.5t-94.5 -38.5h-56v-318h-77v710zM183 390q24 0 39.5 16.5t15.5 41.5v134q0 23 -16 39.5t-39 16.5h-56v-248h56z" />
    <glyph glyph-name="uni0441" unicode="&#x441;" 
d="M116.5 8q-30.5 18 -48.5 48.5t-18 66.5v464q0 36 18 66.5t48.5 48.5t66.5 18t66.5 -18t48.5 -48.5t18 -66.5v-97h-78v102q0 23 -16 39.5t-39 16.5t-39.5 -16.5t-16.5 -39.5v-474q0 -23 16.5 -39t39.5 -16t39 16t16 39v122h78v-117q0 -36 -18 -66.5t-48.5 -48.5t-66.5 -18
t-66.5 18z" />
    <glyph glyph-name="uni0442" unicode="&#x442;" horiz-adv-x="383" 
d="M50 710h283v-73h-103v-637h-77v637h-103v73z" />
    <glyph glyph-name="uni0443" unicode="&#x443;" horiz-adv-x="388" 
d="M41 72h15q44 0 66.5 11t32.5 45l10 39l-152 543h79l106 -414l83 414h79l-122 -554q-13 -59 -30.5 -91.5t-52.5 -48.5t-98 -16h-16v72z" />
    <glyph glyph-name="uni0444" unicode="&#x444;" horiz-adv-x="486" 
d="M372.5 632q29.5 -18 46.5 -48.5t17 -66.5v-324q0 -36 -17 -66.5t-46.5 -48.5t-64.5 -18h-27v-60h-77v60h-27q-35 0 -64 18t-46 48.5t-17 66.5v324q0 36 17 66.5t46 48.5t64 18h27v60h77v-60h27q35 0 64.5 -18zM204 133v445h-27q-21 0 -35.5 -17t-14.5 -39v-334
q0 -22 14.5 -38.5t35.5 -16.5h27zM358 522q0 22 -14.5 39t-35.5 17h-27v-445h27q21 0 35.5 16.5t14.5 38.5v334z" />
    <glyph glyph-name="uni0445" unicode="&#x445;" horiz-adv-x="355" 
d="M136 355l-123 355h73l85 -247q2 -7 3.5 -18.5t1.5 -23.5h2q2 31 6 42l85 247h73l-123 -355l123 -355h-73l-85 248q-4 12 -6 40h-2q0 -11 -1.5 -22t-3.5 -18l-85 -248h-73z" />
    <glyph glyph-name="uni0446" unicode="&#x446;" horiz-adv-x="442" 
d="M315 0h-265v710h77v-637h129v637h78v-637h58v-173h-77v100z" />
    <glyph glyph-name="uni0447" unicode="&#x447;" 
d="M239 309h-2q-10 -12 -28.5 -20.5t-39.5 -8.5q-31 0 -58.5 18t-44 48.5t-16.5 66.5v297h77v-302q0 -23 16.5 -39t39.5 -16t39 16t16 39v302h78v-710h-77v309z" />
    <glyph glyph-name="uni0448" unicode="&#x448;" horiz-adv-x="565" 
d="M50 710h77v-637h117v637h77v-637h117v637h77v-710h-465v710z" />
    <glyph glyph-name="uni0449" unicode="&#x449;" horiz-adv-x="624" 
d="M50 710h77v-637h117v637h77v-637h117v637h77v-637h59v-173h-78v100h-446v710z" />
    <glyph glyph-name="uni044A" unicode="&#x44a;" horiz-adv-x="420" 
d="M0 710h177v-309h56q37 0 68.5 -18t50 -48.5t18.5 -66.5v-135q0 -36 -18.5 -66.5t-50 -48.5t-67.5 -18h-134v638h-100v72zM234 73q24 0 41 16t17 39v145q0 23 -17.5 39.5t-40.5 16.5h-57v-256h57z" />
    <glyph glyph-name="uni044B" unicode="&#x44b;" horiz-adv-x="522" 
d="M50 710h77v-309h56q37 0 68.5 -18t50 -48.5t18.5 -66.5v-135q0 -36 -18.5 -66.5t-50 -48.5t-67.5 -18h-134v710zM395 710h77v-710h-77v710zM184 73q24 0 41 16t17 39v145q0 23 -17.5 39.5t-40.5 16.5h-57v-256h57z" />
    <glyph glyph-name="uni044C" unicode="&#x44c;" horiz-adv-x="370" 
d="M50 710h77v-309h56q37 0 68.5 -18t50 -48.5t18.5 -66.5v-135q0 -36 -18.5 -66.5t-50 -48.5t-67.5 -18h-134v710zM184 73q24 0 41 16t17 39v145q0 23 -17.5 39.5t-40.5 16.5h-57v-256h57z" />
    <glyph glyph-name="uni044D" unicode="&#x44d;" 
d="M50 240h77v-122q0 -23 16.5 -39t39.5 -16t39 16t16 39v208h-97v73h97v193q0 23 -16 39.5t-39 16.5t-39.5 -16.5t-16.5 -39.5v-102h-77v97q0 36 18 66.5t48.5 48.5t66.5 18t66.5 -18t48.5 -48.5t18 -66.5v-464q0 -36 -18 -66.5t-48.5 -48.5t-66.5 -18t-66.5 18t-48.5 48.5
t-18 66.5v117z" />
    <glyph glyph-name="uni044E" unicode="&#x44e;" horiz-adv-x="542" 
d="M50 710h77v-311h99v188q0 36 18 66.5t48.5 48.5t66.5 18t66.5 -18t48.5 -48.5t18 -66.5v-464q0 -36 -18 -66.5t-48.5 -48.5t-66.5 -18t-66.5 18t-48.5 48.5t-18 66.5v203h-99v-326h-77v710zM320 79q16 -16 39 -16t39.5 16t16.5 39v474q0 23 -16.5 39.5t-39.5 16.5
t-39 -16.5t-16 -39.5v-474q0 -23 16 -39z" />
    <glyph glyph-name="uni044F" unicode="&#x44f;" horiz-adv-x="377" 
d="M249 0v329h-55q-23 0 -40 -16.5t-17 -39.5v-224q0 -37 -10 -49h-77q10 18 10 49v212q0 37 16.5 64t43.5 39v2q-27 13 -43 38.5t-16 64.5v108q0 36 18 66.5t48.5 48.5t66.5 18h133v-710h-78zM249 638h-55q-23 0 -39.5 -16.5t-16.5 -39.5v-125q0 -23 16.5 -39.5t39.5 -16.5
h55v237z" />
    <glyph glyph-name="uni0451" unicode="&#x451;" horiz-adv-x="352" 
d="M94 825h58v-67h-58v67zM208 825h58v-67h-58v67zM50 710h252v-73h-175v-238h135v-73h-135v-253h175v-73h-252v710z" />
    <glyph glyph-name="uni10D0" unicode="&#x10d0;" horiz-adv-x="302" 
d="M112 310v-212q0 -15 10.5 -25t25.5 -10t25 10t10 25v361q0 34 -3 49t-15 33l-51 73q-15 20 -21.5 36.5t-6.5 35.5v24h77v-11q0 -20 5 -33t24 -39l40 -57q17 -24 23 -42t6 -51v-374q0 -47 -33 -80t-80 -33t-80 33t-33 80v207h77z" />
    <glyph glyph-name="uni10D1" unicode="&#x10d1;" horiz-adv-x="322" 
d="M262.5 355q19.5 -30 19.5 -66v-178q0 -50 -35.5 -85.5t-85.5 -35.5t-85.5 35.5t-35.5 85.5v178q0 42 26.5 75t66.5 43v167q0 18 -4 26.5t-16 14.5l-33 16q-13 6 -20 14.5t-7 24.5v40h77v-18q0 -9 4 -15t14 -10l30 -13q18 -9 25.5 -21t7.5 -32v-202q32 -14 51.5 -44z
M204 294q0 18 -12.5 31t-30.5 13t-31 -13t-13 -31v-188q0 -18 13 -30.5t31 -12.5t30.5 12.5t12.5 30.5v188z" />
    <glyph glyph-name="uni10D2" unicode="&#x10d2;" horiz-adv-x="346" 
d="M40 295q0 51 26 84t70 49q5 1 16 3.5t17 5.5q8 4 11 10t3 18v148q0 14 -10 24.5t-24 10.5t-24 -10.5t-10 -24.5v-80h-74v78q0 46 31 77.5t77 31.5q45 0 77 -31.5t32 -77.5v-172q0 -11 4 -19t13 -20q15 -20 23 -40.5t8 -57.5v-179q0 -36 -18 -66.5t-48.5 -48.5t-66.5 -18
t-66.5 18t-48.5 48.5t-18 66.5v172zM133.5 79q16.5 -16 39.5 -16t39 16t16 39v189q0 23 -16 39.5t-39 16.5t-39.5 -16.5t-16.5 -39.5v-189q0 -23 16.5 -39z" />
    <glyph glyph-name="uni10D3" unicode="&#x10d3;" horiz-adv-x="450" 
d="M325 70q0 61 -62 83q-36 13 -98 13h-114v70h49q18 0 36 -9l1 1q-8 4 -19 8l-5 2q-27 10 -49.5 42t-22.5 80v259q0 42 29.5 71.5t71.5 29.5q25 0 47 -11.5t34 -30.5h2q13 19 35 30.5t46 11.5q42 0 72.5 -30t30.5 -73v-187q0 -46 -32 -78t-78 -32t-77.5 32t-31.5 78v182
q0 15 -10.5 25.5t-25.5 10.5t-25 -10.5t-10 -25.5v-240q0 -52 22 -82.5t67 -46.5l91 -33q47 -17 73.5 -48.5t26.5 -83.5v-78h-74v70zM322 403q10 10 10 24v187q0 14 -10 24t-24 10t-24 -10t-10 -24v-187q0 -14 10 -24t24 -10t24 10z" />
    <glyph glyph-name="uni10D4" unicode="&#x10d4;" horiz-adv-x="316" 
d="M119 310v-210q0 -16 10.5 -26.5t26.5 -10.5t27 10.5t11 26.5v512q0 15 -10.5 25.5t-25.5 10.5t-25 -10.5t-10 -25.5v-79h-78v74q0 47 33 80t80 33t80 -33t33 -80v-502q0 -48 -33.5 -81.5t-81.5 -33.5q-47 0 -81 33.5t-34 81.5v205h78z" />
    <glyph glyph-name="uni10D5" unicode="&#x10d5;" horiz-adv-x="315" 
d="M41 310h78v-210q0 -16 10.5 -26.5t26.5 -10.5t27 10.5t11 26.5v275q0 16 -10.5 24.5t-22.5 8.5h-29v65h28q13 0 23 8t10 26v104q0 15 -10.5 26t-26.5 11q-15 0 -25.5 -11t-10.5 -26v-78h-75v78q0 45 33.5 77t79.5 32t77.5 -32t31.5 -77v-103q0 -28 -13 -44.5t-31 -20.5
v-2q20 -5 34 -22t14 -44v-270q0 -48 -33.5 -81.5t-81.5 -33.5q-47 0 -81 33.5t-34 81.5v205z" />
    <glyph glyph-name="uni10D6" unicode="&#x10d6;" horiz-adv-x="407" 
d="M359.5 367.5q15.5 -23.5 15.5 -53.5v-213q0 -47 -32.5 -79t-77.5 -32q-47 0 -79 32t-32 79v328h-2q-14 -12 -36 -12q-39 0 -67 28.5t-28 71.5v98q0 42 32 73.5t74 31.5q41 0 73 -31.5t32 -73.5v-220h1q6 23 15 39l40 67l66 -35l-37 -64q27 -11 42.5 -34.5zM154 618
q0 12 -8.5 21t-20.5 9t-20.5 -9t-8.5 -21v-99q0 -12 8.5 -20.5t20.5 -8.5t20.5 8.5t8.5 20.5v99zM298 305q0 13 -10 23t-23 10t-23 -9.5t-10 -23.5v-209q0 -14 9.5 -23.5t23.5 -9.5t23.5 9.5t9.5 23.5v209z" />
    <glyph glyph-name="uni10D7" unicode="&#x10d7;" horiz-adv-x="455" 
d="M75.5 22.5q-32.5 32.5 -32.5 78.5v516q0 43 30 73t72 30q25 0 47 -11.5t35 -30.5h2q13 20 34 31t46 11q42 0 71.5 -29.5t29.5 -71.5v-619h-77v614q0 14 -10 24t-24 10t-24 -10t-10 -24v-513q0 -46 -32.5 -78.5t-78.5 -32.5t-78.5 32.5zM180.5 73q10.5 10 10.5 25v514
q0 15 -10.5 25.5t-25.5 10.5q-14 0 -24.5 -10.5t-10.5 -25.5v-514q0 -15 10.5 -25t24.5 -10q15 0 25.5 10z" />
    <glyph glyph-name="uni10D8" unicode="&#x10d8;" horiz-adv-x="320" 
d="M45 605q0 49 33.5 82t81.5 33t81.5 -33.5t33.5 -81.5v-605h-78v610q0 16 -10.5 27t-26.5 11t-27 -11t-11 -27v-610h-77v605z" />
    <glyph glyph-name="uni10D9" unicode="&#x10d9;" horiz-adv-x="298" 
d="M106 270v-170q0 -16 11 -26.5t27 -10.5q15 0 26 10.5t11 26.5v275q0 16 -10.5 24.5t-22.5 8.5h-42v72h38q15 0 26 9.5t11 29.5v102q0 29 -4.5 49t-20.5 38v2h72q16 -18 21.5 -43.5t5.5 -58.5v-95q0 -27 -15 -45.5t-30 -22.5v-2q17 -5 32.5 -23.5t15.5 -48.5v-266
q0 -48 -33.5 -81.5t-80.5 -33.5q-48 0 -81.5 33.5t-33.5 81.5v165h77z" />
    <glyph glyph-name="uni10DA" unicode="&#x10da;" horiz-adv-x="583" 
d="M451 70q0 63 -76 84q-51 15 -116 15h-208v69h69q16 0 36 -8l1 1q2 -1 -19 8l-8 3q-36 16 -62.5 51.5t-26.5 100.5v228q0 41 29 69.5t70 28.5q26 0 46.5 -12t28.5 -30h2q9 19 29 30.5t46 11.5q25 0 45.5 -11.5t30.5 -30.5h2q8 19 28 30.5t46 11.5q41 0 70 -29t29 -69v-222
h-77v215q0 13 -10 23t-23 10q-14 0 -24 -9.5t-10 -23.5v-172h-74v171q0 14 -9.5 24t-23.5 10t-23.5 -10t-9.5 -24v-171h-74v172q0 14 -9.5 23.5t-23.5 9.5t-23.5 -9.5t-9.5 -23.5v-231q0 -55 28.5 -80t78.5 -39l154 -41q145 -39 145 -163v-61h-74v70z" />
    <glyph glyph-name="uni10DB" unicode="&#x10db;" horiz-adv-x="317" 
d="M41 309q0 42 29.5 71.5t72.5 29.5q30 0 49 -17h2v219q0 15 -10.5 25.5t-25.5 10.5t-25 -10.5t-10 -25.5v-117h-78v112q0 47 33 80t80 33t80 -33t33 -80v-502q0 -48 -33.5 -81.5t-81.5 -33.5q-47 0 -81 33.5t-34 81.5v204zM129.5 73.5q10.5 -10.5 26.5 -10.5t27 10.5
t11 26.5v200q0 16 -11 27t-27 11t-26.5 -11t-10.5 -27v-200q0 -16 10.5 -26.5z" />
    <glyph glyph-name="uni10DC" unicode="&#x10dc;" horiz-adv-x="315" 
d="M78.5 23.5q-33.5 33.5 -33.5 81.5v535q0 32 23 56t58 24q12 0 40 -5q24 -6 44 -6q21 0 60 11h2v-69q-28 -13 -59 -13q-14 0 -36 6q-20 4 -28 4q-13 0 -20 -7.5t-7 -21.5v-226h2q19 17 49 17q43 0 72.5 -29.5t29.5 -71.5v-204q0 -48 -34 -81.5t-81 -33.5q-48 0 -81.5 33.5
zM186.5 73.5q10.5 10.5 10.5 26.5v200q0 16 -10.5 27t-26.5 11t-27 -11t-11 -27v-200q0 -16 11 -26.5t27 -10.5t26.5 10.5z" />
    <glyph glyph-name="uni10DD" unicode="&#x10dd;" horiz-adv-x="455" 
d="M45 619q0 41 29.5 71t71.5 30q25 0 47 -11.5t33 -30.5h2q12 19 33.5 30.5t46.5 11.5q42 0 72 -30t30 -71v-619h-78v614q0 14 -10 24t-24 10t-24 -10t-10 -24v-284h-74v284q0 14 -10 24t-24 10t-24 -10t-10 -24v-614h-77v619z" />
    <glyph glyph-name="uni10DE" unicode="&#x10de;" horiz-adv-x="302" 
d="M33 270h77v-171q0 -15 10.5 -25.5t25.5 -10.5t25.5 10.5t10.5 25.5v276q0 16 -10.5 24.5t-22.5 8.5h-57v72h43q21 0 34 13.5t13 32.5q0 15 -6.5 25.5t-25.5 27.5l-53 50q-13 12 -23.5 28.5t-10.5 33.5v19h78v-9q0 -7 5 -14t13 -15.5t11 -11.5l46 -45q20 -21 30 -40.5
t10 -45.5q0 -31 -14.5 -52.5t-31.5 -31.5v-2q17 -5 33 -23.5t16 -48.5v-268q0 -47 -33 -80t-80 -33t-80 33t-33 80v167z" />
    <glyph glyph-name="uni10DF" unicode="&#x10df;" horiz-adv-x="383" 
d="M145 23q-33 33 -33 80v167h78v-172q0 -15 10 -25t25 -10t25.5 10t10.5 25v524h-3l-42 -29v-96q0 -40 -28.5 -68.5t-68.5 -28.5t-69 28.5t-29 68.5v56h72v-54q0 -11 7.5 -18.5t18.5 -7.5t18.5 7.5t7.5 18.5v126l121 85h72v-607q0 -47 -33 -80t-80 -33t-80 33z" />
    <glyph glyph-name="uni10E0" unicode="&#x10e0;" horiz-adv-x="439" 
d="M36 384q0 45 17 78t60 69l114 95q28 23 39 37t11 36v11h72v-14q0 -35 -13 -57.5t-49 -53.5l-98 -82q-35 -29 -50.5 -44.5t-21.5 -29t-6 -33.5v-8h2q7 9 19.5 15.5t28.5 6.5q22 0 38.5 -11.5t23.5 -31.5h2q11 20 32.5 31.5t46.5 11.5q40 0 68 -28t28 -68v-314h-77v304
q0 14 -10 24t-24 10t-24 -10t-10 -24v-141h-74v141q0 14 -10 24t-24 10q-13 0 -23 -10t-10 -24v-304h-78v384z" />
    <glyph glyph-name="uni10E1" unicode="&#x10e1;" horiz-adv-x="308" 
d="M78 23q-33 33 -33 80v607h77v-612q0 -15 10.5 -25t25.5 -10t25 10t10 25v252h78v-247q0 -47 -33 -80t-80 -33t-80 33z" />
    <glyph glyph-name="uni10E2" unicode="&#x10e2;" horiz-adv-x="441" 
d="M135 14.5q-41 24.5 -65.5 65.5t-24.5 90v540h77v-545q0 -42 30.5 -72t72.5 -30t72 30t30 72v191q0 33 -3 49t-15 28l-17 17h-3l-14 -17q-10 -13 -14.5 -24t-4.5 -28v-58h-68v57q0 30 8.5 52.5t27.5 44.5l19 22l-21 21q-47 47 -47 92t31 76.5t77 31.5t77 -31.5t31 -76.5
q0 -26 -10.5 -46t-28.5 -41l-20 -24l35 -35q21 -21 29.5 -45t8.5 -63v-188q0 -49 -24.5 -90t-65.5 -65.5t-90 -24.5t-90 24.5zM246 592q6 -10 19 -24l19 -19l14 17q15 17 21.5 27t6.5 23q0 16 -12.5 29t-30.5 13t-30.5 -13t-12.5 -29q0 -14 6 -24z" />
    <glyph glyph-name="uni10E3" unicode="&#x10e3;" horiz-adv-x="361" 
d="M86 310h78v-210q0 -16 10.5 -26.5t26.5 -10.5t27 10.5t11 26.5v515q0 14 -9.5 23.5t-23.5 9.5t-24 -9.5t-10 -23.5v-172h-74v178q0 11 -7 19t-17 8q-6 0 -17.5 -4t-18.5 -4q-9 0 -15.5 3t-7.5 5v72h2q3 -3 10 -5.5t15 -2.5t20 4q14 4 23 4q20 0 37 -10.5t23 -30.5h2
q12 21 32 31t43 10q39 0 66.5 -27.5t27.5 -65.5v-522q0 -48 -33.5 -81.5t-81.5 -33.5q-47 0 -81 33.5t-34 81.5v205z" />
    <glyph glyph-name="uni10E4" unicode="&#x10e4;" horiz-adv-x="426" 
d="M188 7.5q-30 17.5 -47.5 47t-17.5 64.5v191h78v-195q0 -22 15 -37t37 -15q21 0 36.5 15t15.5 37v219q0 17 -10 25.5t-23 8.5h-30v65h18q20 0 33.5 14.5t13.5 34.5v130q0 15 -10 25.5t-25 10.5t-25.5 -10.5t-10.5 -25.5v-74q0 -45 -31.5 -76.5t-77.5 -31.5
q-45 0 -76.5 31.5t-31.5 76.5v81q0 43 29.5 72t72.5 29q26 0 47 -11t33 -31h2q12 20 32.5 31t45.5 11q41 0 70.5 -29t29.5 -70v-148q0 -27 -14.5 -45.5t-32.5 -24.5v-2q20 -5 34 -22.5t14 -44.5v-215q0 -35 -17.5 -64.5t-47 -47t-64.5 -17.5t-65 17.5zM151 512q10 10 10 24
v78q0 14 -10 24t-24 10t-24 -9.5t-10 -24.5v-78q0 -14 10 -24t24 -10t24 10z" />
    <glyph glyph-name="uni10E5" unicode="&#x10e5;" horiz-adv-x="308" 
d="M34 310h77v-210q0 -16 11 -26.5t27 -10.5q15 0 26 10.5t11 26.5v370q0 16 -11 27t-26 11q-16 0 -26.5 -11t-10.5 -27v-27h-74v40q0 40 28 68.5t68 28.5q30 0 50 -17h2v147h77v-605q0 -48 -33.5 -81.5t-80.5 -33.5q-48 0 -81.5 33.5t-33.5 81.5v205z" />
    <glyph glyph-name="uni10E6" unicode="&#x10e6;" horiz-adv-x="438" 
d="M325 70q0 60 -62 83q-36 13 -98 13h-114v70h49q18 0 36 -9l1 1q-8 4 -19 8l-5 2q-27 10 -49.5 42t-22.5 80v259q0 41 29.5 71t71.5 30q25 0 47 -11.5t34 -30.5h2q11 19 32.5 30.5t47.5 11.5q41 0 71 -30t30 -71v-219h-77v214q0 14 -10 24t-24 10t-24 -10t-10 -24v-171
h-74v171q0 14 -10 24t-24 10t-24 -10t-10 -24v-242q0 -52 22 -82.5t67 -46.5l91 -33q47 -17 73.5 -48.5t26.5 -83.5v-78h-74v70z" />
    <glyph glyph-name="uni10E7" unicode="&#x10e7;" horiz-adv-x="308" 
d="M34 270h77v-170q0 -16 11 -26.5t27 -10.5q15 0 26 10.5t11 26.5v317h-2q-22 -17 -50 -17q-40 0 -68 28.5t-28 68.5v213h74v-200q0 -16 10.5 -26.5t26.5 -10.5q15 0 26 10.5t11 26.5v200h77v-605q0 -48 -33.5 -81.5t-80.5 -33.5q-48 0 -81.5 33.5t-33.5 81.5v165z" />
    <glyph glyph-name="uni10E8" unicode="&#x10e8;" horiz-adv-x="350" 
d="M108.5 23.5q-33.5 33.5 -33.5 81.5v204q0 42 29.5 71.5t72.5 29.5q31 0 48 -17h2v223q0 13 -9.5 22.5t-22.5 9.5t-22.5 -9.5t-9.5 -22.5v-121h-74v115q0 15 -11 26.5t-27 11.5q-15 0 -39 -9h-2v70q22 11 44 11t42.5 -10.5t34.5 -30.5h2q14 20 34.5 30.5t42.5 10.5
q39 0 67 -27.5t28 -66.5v-521q0 -48 -34 -81.5t-81 -33.5q-48 0 -81.5 33.5zM216.5 73.5q10.5 10.5 10.5 26.5v200q0 16 -10.5 27t-26.5 11t-27 -11t-11 -27v-200q0 -16 11 -26.5t27 -10.5t26.5 10.5z" />
    <glyph glyph-name="uni10E9" unicode="&#x10e9;" horiz-adv-x="307" 
d="M45 612q0 28 15.5 53t41 40t54.5 15t54.5 -15t41 -40t15.5 -53v-56q0 -42 -30 -72t-72 -30q-23 0 -44 15h-2v-83h2q10 8 25 13.5t30 5.5q41 0 70 -29t29 -69v-307h-78v295q0 16 -10.5 27t-26.5 11t-27 -11t-11 -27v-295h-77v612zM130.5 529.5q10.5 -10.5 25.5 -10.5
t25.5 10.5t10.5 25.5v56q0 15 -10.5 26t-25.5 11t-25.5 -11t-10.5 -26v-56q0 -15 10.5 -25.5z" />
    <glyph glyph-name="uni10EA" unicode="&#x10ea;" horiz-adv-x="381" 
d="M45 710h77v-574q0 -31 21.5 -52t52.5 -21t52 21t21 52v225q0 19 -13.5 33t-32.5 14h-49v72h37q22 0 37.5 16t15.5 38q0 19 -17 44l-36 51q-12 16 -18.5 30t-6.5 32v19h73v-11q0 -9 4.5 -17.5t17.5 -27.5l34 -47q15 -21 21 -37t6 -37q0 -33 -15 -54.5t-33 -32.5v-2
q19 -7 35.5 -27t16.5 -49v-227q0 -41 -20.5 -75.5t-55 -55t-74.5 -20.5q-41 0 -75.5 20.5t-55 55t-20.5 75.5v569z" />
    <glyph glyph-name="uni10EB" unicode="&#x10eb;" horiz-adv-x="300" 
d="M58.5 23.5q-33.5 33.5 -33.5 81.5v204q0 42 29.5 71.5t72.5 29.5q31 0 48 -17h2v317h78v-605q0 -48 -34 -81.5t-81 -33.5q-48 0 -81.5 33.5zM166.5 73.5q10.5 10.5 10.5 26.5v200q0 16 -10.5 27t-26.5 11t-27 -11t-11 -27v-200q0 -16 11 -26.5t27 -10.5t26.5 10.5z" />
    <glyph glyph-name="uni10EC" unicode="&#x10ec;" horiz-adv-x="398" 
d="M144 33q-8 31 -21.5 85t-22.5 93l-57 245q-22 90 -22 146q0 54 24 86t75 32q26 0 47.5 -12.5t30.5 -31.5h2q9 19 30.5 31.5t47.5 12.5q41 0 69.5 -29t28.5 -72q0 -20 -6 -52t-13 -51h-69q5 19 8 45.5t3 42.5q0 21 -9 32.5t-24 11.5q-14 0 -24 -10t-10 -24v-61h-66v61
q0 14 -10 24t-24 10q-15 0 -24 -11.5t-9 -32.5q0 -23 4 -58t11 -64l4 -21h168q24 0 36 -7t12 -29q0 -11 -8 -47l-42 -167q-17 -75 -58 -211h-73zM191 73q3 34 5 44t3 13l52 259h-119l50 -260q5 -29 7 -56h2z" />
    <glyph glyph-name="uni10ED" unicode="&#x10ed;" horiz-adv-x="327" 
d="M26 270h78v-170q0 -16 10.5 -26.5t26.5 -10.5t27 10.5t11 26.5v275h-2q-6 -4 -17.5 -8t-23.5 -4q-41 0 -70.5 28.5t-29.5 71.5q0 44 30.5 74.5t76.5 30.5q9 0 19.5 -4t17.5 -9h2v155h74v-214h2q29 27 57 69h2v-94q-28 -35 -61 -61v-304q0 -48 -33.5 -82t-81.5 -34
q-47 0 -81 34t-34 82v164zM117.5 439q10.5 -11 26.5 -11q14 0 23 6.5t14 14.5v17q0 15 -10.5 26t-26.5 11t-26.5 -11t-10.5 -27q0 -15 10.5 -26z" />
    <glyph glyph-name="uni10EE" unicode="&#x10ee;" horiz-adv-x="308" 
d="M256.5 366q18.5 -26 18.5 -58v-202q0 -48 -34 -82t-81 -34q-48 0 -81.5 34t-33.5 82v604h77v-317h2h0.5t0.5 1q4 21 14 40l37 67l67 -35l-34 -63q29 -11 47.5 -37zM197 300q0 16 -10.5 27t-26.5 11t-27 -11t-11 -27v-200q0 -16 11 -26.5t27 -10.5t26.5 10.5t10.5 26.5
v200z" />
    <glyph glyph-name="uni10EF" unicode="&#x10ef;" horiz-adv-x="486" 
d="M15 63h28q28 0 48 20.5t20 48.5q0 27 -18 45.5t-46 23.5v61l161 171l-21 177q-2 18 -12 28t-24 10q-15 0 -25 -11t-10 -26q0 -24 10 -56h-73q-13 25 -13 58q0 47 31.5 77t80.5 30q45 0 75.5 -31t35.5 -80l14 -121l65 70q15 16 21 24.5t6 21.5q0 18 -12.5 30.5t-30.5 12.5
h-13v71q20 2 23 2q46 0 78.5 -32.5t32.5 -78.5q0 -45 -39 -86l-119 -125l36 -298q2 -17 11.5 -27t23.5 -10q15 0 24.5 9.5t10.5 24.5q0 9 -1 12l-5 49h74q8 -43 8 -64q0 -42 -31 -73t-76 -31q-44 0 -76 28.5t-37 68.5l-31 251l-96 -99v-3q64 -43 64 -113q0 -36 -18 -66.5
t-48.5 -48.5t-66.5 -18q-9 0 -21 1.5t-19 4.5v67z" />
    <glyph glyph-name="uni10F0" unicode="&#x10f0;" horiz-adv-x="288" 
d="M23 158h77v-58q0 -16 11 -26.5t26 -10.5q16 0 27 10.5t11 26.5v120q0 17 -10.5 28t-28.5 11h-37v72h36q17 0 28 11.5t11 27.5q0 17 -11 28t-28 11h-36v72h16q23 0 39 16.5t16 39.5q0 15 -7 26.5t-20 22.5l-46 41q-14 12 -22.5 30.5t-8.5 40.5v12h68v-6q1 -22 32 -49
l31 -25q26 -23 36.5 -43t10.5 -46q0 -28 -12.5 -50.5t-31.5 -36.5v-2q19 -9 33.5 -31t14.5 -49q0 -49 -46 -75v-2q18 -6 34 -25.5t16 -49.5v-117q0 -47 -33 -80t-80 -33t-81.5 33.5t-34.5 79.5v55z" />
    <glyph glyph-name="uni10FB" unicode="&#x10fb;" horiz-adv-x="600" 
 />
    <glyph glyph-name="figuredash" unicode="&#x2012;" horiz-adv-x="458" 
d="M428 386v-72h-398v72h398z" />
    <glyph glyph-name="endash" unicode="&#x2013;" horiz-adv-x="514" 
d="M484 386v-72h-454v72h454z" />
    <glyph glyph-name="emdash" unicode="&#x2014;" horiz-adv-x="929" 
d="M899 386v-72h-869v72h869z" />
    <glyph glyph-name="quoteleft" unicode="&#x2018;" horiz-adv-x="148" 
d="M30 600l42 100h36l-24 -92h31v-99h-85v91z" />
    <glyph glyph-name="quoteright" unicode="&#x2019;" horiz-adv-x="148" 
d="M64 600l-31 1v99h85v-91l-42 -100h-36z" />
    <glyph glyph-name="quotesinglbase" unicode="&#x201a;" horiz-adv-x="148" 
d="M64 0h-31v100h85v-91l-42 -101h-36z" />
    <glyph glyph-name="quotedblleft" unicode="&#x201c;" horiz-adv-x="271" 
d="M30 600l42 100h36l-24 -92h31v-99h-85v91zM153 600l41 100h37l-25 -92h32v-99h-85v91z" />
    <glyph glyph-name="quotedblright" unicode="&#x201d;" horiz-adv-x="271" 
d="M65 600l-32 1v99h85v-91l-41 -100h-37zM187 600l-31 1v99h85v-91l-42 -100h-36z" />
    <glyph glyph-name="quotedblbase" unicode="&#x201e;" horiz-adv-x="272" 
d="M64 0h-31v100h85v-91l-42 -101h-36zM189 0h-32v100h85v-91l-41 -101h-37z" />
    <glyph glyph-name="bullet" unicode="&#x2022;" horiz-adv-x="292" 
d="M64 268q-34 34 -34 82t34 82t82 34t82 -34t34 -82t-34 -82t-82 -34t-82 34z" />
    <glyph glyph-name="ellipsis" unicode="&#x2026;" horiz-adv-x="391" 
d="M30 100h85v-100h-85v100zM153 100h85v-100h-85v100zM276 100h85v-100h-85v100z" />
    <glyph glyph-name="guilsinglleft" unicode="&#x2039;" horiz-adv-x="205" 
d="M30 351l62 260h83l-61 -260l61 -272h-83z" />
    <glyph glyph-name="guilsinglright" unicode="&#x203a;" horiz-adv-x="205" 
d="M91 351l-61 260h83l62 -260l-62 -272h-83z" />
    <glyph glyph-name="Euro" unicode="&#x20ac;" horiz-adv-x="445" 
d="M121 39.5q-39 46.5 -39 129.5v106h-32v45h32v65h-32v45h32v101q0 83 39 129.5t118 46.5q78 0 117 -46.5t39 -129.5v-46h-83v52q0 90 -71 90t-71 -90v-107h167v-45h-167v-65h167v-45h-167v-111q0 -90 71 -90t71 90v57h83v-52q0 -83 -39 -129.5t-117 -46.5q-79 0 -118 46.5
z" />
    <glyph glyph-name="uni20BE" unicode="&#x20be;" horiz-adv-x="513" 
d="M386 348v170q0 35 -16.5 65t-45.5 47v-282h-39v297q-13 3 -29 3q-15 0 -28 -3v-297h-40v282q-29 -17 -45 -47t-16 -65v-288q0 -76 48.5 -116.5t129.5 -40.5h158v-73h-413v73h89v2q-20 3 -40.5 22.5t-34.5 54t-14 79.5v281q0 69 38 123t100 74v68h40v-59q18 2 28 2
q11 0 29 -2v59h39v-68q63 -20 101 -74t38 -123v-164h-77z" />
    <glyph glyph-name="minus" unicode="&#x2212;" horiz-adv-x="437" 
d="M50 382h337v-63h-337v63z" />
    <glyph glyph-name="approxequal" unicode="&#x2248;" horiz-adv-x="466" 
d="M270.5 376q-17.5 8 -43.5 25q-22 14 -36.5 21t-29.5 7q-19 0 -33 -12t-35 -44l-43 40q31 47 56.5 65t55.5 18q20 0 37.5 -8.5t43.5 -24.5q22 -14 36.5 -21t28.5 -7q18 0 31 12t35 44l42 -43q-29 -45 -54 -62.5t-55 -17.5q-19 0 -36.5 8zM270.5 212q-17.5 8 -43.5 25
q-24 15 -38 21.5t-29 6.5q-18 0 -32 -12t-35 -44l-43 40q31 46 56.5 64.5t54.5 18.5q20 0 37 -8t45 -25q22 -14 36.5 -21t28.5 -7q18 0 31 12t35 44l42 -43q-29 -45 -54 -62.5t-55 -17.5q-19 0 -36.5 8z" />
    <glyph glyph-name="uni10D0.ss01" horiz-adv-x="286" 
d="M84 160v-63q0 -15 10 -25.5t25 -10.5t25.5 10.5t10.5 25.5v101q0 31 -4 49.5t-19 32.5l-44 44q-17 17 -22.5 29t-5.5 31v16h74v-14q0 -12 5.5 -23t21.5 -26l38 -35q19 -18 24.5 -36t5.5 -50v-113q0 -48 -31.5 -80.5t-78.5 -32.5q-46 0 -78 33t-32 80v57h75z" />
    <glyph glyph-name="uni10D1.ss01" horiz-adv-x="302" 
d="M226 356q19 -30 19 -67v-178q0 -51 -34 -86t-84 -35q-49 0 -83.5 35.5t-34.5 85.5v178q0 43 26 76.5t67 41.5v167q0 17 -5 27t-17 15l-34 16q-13 7 -19 14.5t-6 23.5v40h73v-18q0 -17 20 -26l30 -14q18 -8 24.5 -19t6.5 -32v-201q32 -14 51 -44zM171 296q0 18 -13 30.5
t-31 12.5t-30.5 -12.5t-12.5 -30.5v-191q0 -18 12.5 -31t30.5 -13t31 13t13 31v191z" />
    <glyph glyph-name="uni10D2.ss01" horiz-adv-x="326" 
d="M9 -15q0 51 24.5 84t68.5 49q28 6 33 9q8 4 11.5 10t3.5 18v150q0 14 -10.5 24t-24.5 10t-23.5 -10t-9.5 -24v-82h-73v78q0 46 30.5 77.5t75.5 31.5q46 0 76.5 -31.5t30.5 -77.5v-172q0 -11 3.5 -19t12.5 -20q15 -19 23 -39.5t8 -58.5v-179q0 -56 -37.5 -94.5
t-92.5 -38.5t-92.5 38.5t-37.5 94.5v172zM100 -233q16 -16 39 -16t39.5 16t16.5 39v192q0 23 -16.5 39.5t-39.5 16.5t-39 -16.5t-16 -39.5v-192q0 -23 16 -39z" />
    <glyph glyph-name="uni10D3.ss01" horiz-adv-x="413" 
d="M292 -240q0 60 -64 82q-36 14 -97 14h-111v70h45q20 0 36 -9l1 1q-12 6 -18 8l-5 2q-27 10 -48 41.5t-21 80.5v259q0 42 28 71.5t70 29.5q25 0 46.5 -11.5t33.5 -30.5h2q13 19 34.5 30.5t45.5 11.5q42 0 71 -30t29 -73v-187q0 -46 -31 -78t-76 -32q-46 0 -77 32t-31 78
v184q0 14 -10 24.5t-25 10.5t-25.5 -10.5t-10.5 -24.5v-242q0 -52 22.5 -83.5t66.5 -47.5l91 -33q48 -17 74 -47.5t26 -82.5v-78h-72v70zM286 91q10 10 10 24v190q0 14 -10 24t-24 10t-24 -10t-10 -24v-190q0 -14 10 -24t24 -10t24 10z" />
    <glyph glyph-name="uni10D4.ss01" horiz-adv-x="291" 
d="M84 0v-212q0 -15 10.5 -26t26.5 -11t27 11t11 26v516q0 14 -10.5 24.5t-25.5 10.5t-25 -10.5t-10 -24.5v-81h-75v74q0 47 32 80t78 33q47 0 78.5 -32.5t31.5 -80.5v-502q0 -48 -32 -81.5t-80 -33.5q-47 0 -79.5 33.5t-32.5 81.5v205h75z" />
    <glyph glyph-name="uni10D5.ss01" horiz-adv-x="292" 
d="M6 0h78v-212q0 -15 10.5 -26t26.5 -11t27 11t11 26v277q0 17 -10 25t-23 8h-29v65h28q13 0 23 8t10 26v105q0 16 -10.5 26.5t-26.5 10.5q-15 0 -25.5 -10.5t-10.5 -26.5v-79h-72v78q0 45 32 77t78 32q45 0 75.5 -32t30.5 -77v-103q0 -29 -11.5 -45t-29.5 -20v-2
q20 -5 32.5 -22t12.5 -44v-270q0 -48 -32 -81.5t-80 -33.5q-47 0 -81 33.5t-34 81.5v205z" />
    <glyph glyph-name="uni10D6.ss01" horiz-adv-x="396" 
d="M327 367.5q15 -23.5 15 -53.5v-213q0 -47 -31 -79t-76 -32q-46 0 -77 32t-31 79v328h-2q-14 -12 -36 -12q-39 0 -65.5 28t-26.5 72v98q0 42 30.5 73.5t72.5 31.5q41 0 71.5 -31.5t30.5 -73.5v-220h1q6 23 15 39l37 67l66 -35l-34 -64q25 -11 40 -34.5zM127 620
q0 12 -8.5 20.5t-20.5 8.5t-20.5 -8.5t-8.5 -20.5v-102q0 -12 8.5 -21t20.5 -9t20.5 9t8.5 21v102zM268 306q0 14 -9.5 23.5t-23.5 9.5q-13 0 -23 -9.5t-10 -23.5v-212q0 -14 9.5 -23.5t23.5 -9.5t23.5 9.5t9.5 23.5v212z" />
    <glyph glyph-name="uni10D7.ss01" horiz-adv-x="434" 
d="M41.5 22.5q-31.5 32.5 -31.5 78.5v206q0 43 29 73t71 30q25 0 46.5 -11.5t34.5 -30.5h2q13 20 33.5 31t45.5 11q42 0 70 -29.5t28 -71.5v-309h-74v305q0 14 -10 24t-24 10t-24 -10t-10 -24v-204q0 -46 -32 -78.5t-78 -32.5q-45 0 -76.5 32.5zM145 71.5q10 10.5 10 25.5
v207q0 14 -10 24.5t-25 10.5t-25.5 -10.5t-10.5 -24.5v-207q0 -15 10.5 -25.5t25.5 -10.5t25 10.5z" />
    <glyph glyph-name="uni10D8.ss01" horiz-adv-x="283" 
d="M9 295q0 49 32.5 82t79.5 33q48 0 80 -33t32 -82v-295h-74v302q0 15 -11 26t-27 11t-26.5 -11t-10.5 -26v-302h-75v295z" />
    <glyph glyph-name="uni10D9.ss01" horiz-adv-x="283" 
d="M84 -40v-172q0 -15 10.5 -26t26.5 -11t27 11t11 26v277q0 17 -10 25t-23 8h-43v73h38q16 0 26.5 9t10.5 29v102q0 29 -4.5 49t-19.5 38v2h71q14 -17 19 -43t5 -59v-95q0 -28 -13.5 -46t-28.5 -22v-2q17 -5 31.5 -23.5t14.5 -48.5v-266q0 -49 -32.5 -82t-79.5 -33
t-79.5 33t-32.5 82v165h75z" />
    <glyph glyph-name="uni10DA.ss01" horiz-adv-x="553" 
d="M413 -240q0 63 -76 84q-51 15 -115 15h-203v69h66q18 0 36 -9l1 1q-4 3 -19 9l-8 3q-35 15 -60.5 51t-25.5 101v228q0 41 27.5 69.5t68.5 28.5q26 0 46 -11.5t28 -30.5h2q9 19 29 30.5t46 11.5q25 0 45 -11.5t29 -30.5h2q8 19 28 30.5t46 11.5q40 0 68 -28.5t28 -69.5
v-222h-74v216q0 14 -10 23.5t-23 9.5q-14 0 -24 -9.5t-10 -23.5v-176h-72v176q0 13 -10 23t-23 10q-14 0 -24 -9.5t-10 -23.5v-176h-72v176q0 14 -9.5 23.5t-23.5 9.5t-23.5 -9.5t-9.5 -23.5v-232q0 -55 28 -80t78 -39l152 -41q83 -22 112.5 -65t29.5 -98v-61h-71v70z" />
    <glyph glyph-name="uni10DB.ss01" horiz-adv-x="290" 
d="M9 309q0 42 28.5 71.5t70.5 29.5q30 0 49 -17h2v221q0 14 -10.5 24.5t-25.5 10.5t-25 -10.5t-10 -24.5v-119h-75v112q0 47 32 80t78 33q47 0 78.5 -32.5t31.5 -80.5v-502q0 -48 -32 -81.5t-80 -33.5q-47 0 -79.5 33.5t-32.5 81.5v204zM94.5 72q10.5 -11 26.5 -11t27 11
t11 27v203q0 15 -11 26t-27 11t-26.5 -11t-10.5 -26v-203q0 -16 10.5 -27z" />
    <glyph glyph-name="uni10DC.ss01" horiz-adv-x="290" 
d="M41.5 23.5q-32.5 33.5 -32.5 81.5v535q0 33 22 56.5t57 23.5q14 0 25 -2t14 -3q24 -6 44 -6t58 11h2v-68q-30 -12 -57 -12q-8 0 -36 5q-18 4 -27 4q-13 0 -20 -7.5t-7 -20.5v-228h2q17 17 48 17q42 0 71 -29.5t29 -71.5v-204q0 -48 -32.5 -81.5t-80.5 -33.5
q-47 0 -79.5 33.5zM148 72q11 11 11 27v203q0 15 -11 26t-27 11t-26.5 -11t-10.5 -26v-203q0 -16 10.5 -27t26.5 -11t27 11z" />
    <glyph glyph-name="uni10DD.ss01" horiz-adv-x="424" 
d="M10 309q0 42 28 71.5t70 29.5q25 0 46.5 -11.5t33.5 -30.5h2q12 19 32.5 30.5t46.5 11.5q41 0 69.5 -29.5t28.5 -71.5v-309h-74v305q0 14 -10 24t-24 10t-24 -10t-10 -24v-142h-73v142q0 14 -10 24t-24 10t-24 -10t-10 -24v-305h-74v309z" />
    <glyph glyph-name="uni10DE.ss01" horiz-adv-x="280" 
d="M9 278h75v-181q0 -15 10.5 -25.5t25.5 -10.5t25.5 10.5t10.5 25.5v278q0 17 -10 25t-23 8h-58v73h45q21 0 33.5 12.5t12.5 31.5q0 15 -6.5 25.5t-26.5 28.5l-56 53q-31 29 -31 59v19h76v-9q0 -8 5.5 -15.5t21.5 -22.5l48 -48q20 -21 30 -41t10 -46q0 -32 -13.5 -53
t-29.5 -30v-2q17 -5 31.5 -23.5t14.5 -48.5v-268q0 -47 -32 -80t-78 -33q-47 0 -79 33t-32 80v175z" />
    <glyph glyph-name="uni10DF.ss01" horiz-adv-x="380" 
d="M135 -287q-32 33 -32 80v175h75v-182q0 -14 10 -24.5t25 -10.5t25.5 10.5t10.5 24.5v526h-3l-42 -29v-96q0 -40 -28.5 -68.5t-68.5 -28.5t-69 28.5t-29 68.5v83h72v-83q0 -11 7.5 -18.5t18.5 -7.5t18.5 8t7.5 18v128l121 85h69v-607q0 -48 -31.5 -80.5t-78.5 -32.5
q-46 0 -78 33z" />
    <glyph glyph-name="uni10E0.ss01" horiz-adv-x="424" 
d="M9 384q0 46 16 78.5t59 68.5l114 95q28 23 39 37t11 36v11h71v-14q0 -35 -13 -57.5t-49 -53.5l-98 -82q-35 -29 -50.5 -44.5t-21.5 -29t-6 -33.5v-8h2q7 9 19.5 15.5t28.5 6.5q22 0 38.5 -11.5t22.5 -31.5h2q11 20 32 31.5t46 11.5q39 0 66 -28t27 -68v-314h-74v305
q0 14 -10 24t-24 10q-13 0 -23 -10t-10 -24v-145h-73v145q0 14 -10 24t-24 10q-13 0 -23 -10t-10 -24v-305h-75v384z" />
    <glyph glyph-name="uni10E1.ss01" horiz-adv-x="287" 
d="M41 23q-32 33 -32 80v607h75v-613q0 -15 10 -25.5t25 -10.5t25.5 10.5t10.5 25.5v303h74v-297q0 -48 -31.5 -80.5t-78.5 -32.5q-46 0 -78 33z" />
    <glyph glyph-name="uni10E2.ss01" horiz-adv-x="420" 
d="M97.5 -295.5q-40.5 24.5 -64.5 65.5t-24 90v540h75v-545q0 -42 30 -73t72 -31t72.5 31t30.5 73v191q0 32 -3.5 48.5t-15.5 28.5l-17 17h-3l-14 -17q-11 -13 -15.5 -24t-4.5 -28v-61h-66v60q0 31 8 53t27 44l19 22l-21 21q-46 46 -46 92q0 45 31 76.5t76 31.5
q46 0 77 -31.5t31 -76.5q0 -26 -11 -47t-28 -40l-20 -24l35 -35q21 -20 28 -43.5t7 -64.5v-188q0 -49 -23.5 -90t-64 -65.5t-89.5 -24.5q-48 0 -88.5 24.5zM207 282q6 -10 20 -24l18 -19l15 17q15 18 21 27.5t6 22.5q0 16 -13 30t-30 14t-30 -14t-13 -30q0 -14 6 -24z" />
    <glyph glyph-name="uni10E3.ss01" horiz-adv-x="355" 
d="M74 0h75v-212q0 -15 10.5 -26t26.5 -11t27 11t11 26v518q0 14 -9.5 23.5t-23.5 9.5t-24 -9.5t-10 -23.5v-170h-71v177q0 11 -7 18.5t-17 7.5q-6 0 -17.5 -4t-18.5 -4q-9 0 -15.5 3t-7.5 5v71h2q3 -3 10 -5.5t15 -2.5t20 4q14 4 23 4q19 0 35 -10.5t22 -30.5h2
q12 21 32 31t43 10q39 0 65 -27t26 -66v-522q0 -48 -32 -81.5t-80 -33.5q-47 0 -79.5 33.5t-32.5 81.5v205z" />
    <glyph glyph-name="uni10E4.ss01" horiz-adv-x="424" 
d="M147.5 -282.5q-36.5 37.5 -36.5 91.5v192h75v-198q0 -21 15 -36.5t37 -15.5q21 0 36.5 15.5t15.5 36.5v221q0 17 -10 25.5t-23 8.5h-30v65h18q20 0 33.5 14.5t13.5 34.5v131q0 15 -10 25.5t-25 10.5t-25.5 -10.5t-10.5 -25.5v-75q0 -45 -31 -76.5t-76 -31.5t-76 31.5
t-31 76.5v81q0 43 28.5 72t71.5 29q26 0 46.5 -11t32.5 -31h2q12 20 32.5 31t45.5 11q41 0 69.5 -29t28.5 -70v-148q0 -27 -14 -45.5t-31 -24.5v-2q20 -5 32.5 -22.5t12.5 -44.5v-215q0 -54 -36.5 -91.5t-89.5 -37.5q-54 0 -90.5 37.5zM138 201q10 10 10 24v80q0 14 -10 24
t-24 10t-24 -9.5t-10 -24.5v-80q0 -14 10 -24t24 -10t24 10z" />
    <glyph glyph-name="uni10E5.ss01" horiz-adv-x="290" 
d="M9 1h75v-213q0 -15 10.5 -26t26.5 -11t27 11t11 26v514q0 16 -11 26.5t-27 10.5q-15 0 -25.5 -10.5t-10.5 -26.5v-99h-73v110q0 41 27.5 69t67.5 28q28 0 50 -17h2v317h74v-915q0 -48 -32 -81.5t-80 -33.5q-47 0 -79.5 33.5t-32.5 81.5v206z" />
    <glyph glyph-name="uni10E6.ss01" horiz-adv-x="425" 
d="M289 -240q0 61 -61 82q-36 14 -98 14h-111v70h46q18 0 36 -9l1 1l-19 8l-5 2q-27 10 -48 41.5t-21 80.5v259q0 42 28 71.5t70 29.5q25 0 46.5 -11.5t33.5 -30.5h2q11 19 32.5 30.5t46.5 11.5q41 0 69.5 -29.5t28.5 -71.5v-214h-74v210q0 14 -10 24t-24 10t-24 -10
t-10 -24v-170h-72v170q0 14 -10 24t-24 10t-24 -10t-10 -24v-243q0 -52 22 -82.5t67 -47.5l91 -33q97 -35 97 -131v-78h-72v70z" />
    <glyph glyph-name="uni10E7.ss01" horiz-adv-x="290" 
d="M9 -32h75v-180q0 -15 10.5 -26t26.5 -11t27 11t11 26v319h-2q-22 -17 -50 -17q-40 0 -67.5 28.5t-27.5 68.5v213h73v-201q0 -16 10 -27t26 -11t27 11t11 27v201h74v-605q0 -48 -32 -81.5t-80 -33.5q-47 0 -79.5 33.5t-32.5 81.5v173z" />
    <glyph glyph-name="uni10E8.ss01" horiz-adv-x="309" 
d="M65 23.5q-32 33.5 -32 81.5v204q0 42 28 71.5t70 29.5q30 0 49 -17h2v223q0 13 -9.5 22.5t-22.5 9.5t-22.5 -9.5t-9.5 -22.5v-121h-73v115q0 15 -11 26.5t-27 11.5q-14 0 -38 -9h-2v70q22 11 43 11q22 0 42 -10.5t33 -30.5h2q15 20 35 30.5t43 10.5q39 0 65 -27.5
t26 -66.5v-521q0 -48 -32 -81.5t-80 -33.5q-47 0 -79 33.5zM171 73.5q11 10.5 11 26.5v200q0 16 -11 27t-27 11q-15 0 -26 -11t-11 -27v-200q0 -16 11 -26.5t26 -10.5q16 0 27 10.5z" />
    <glyph glyph-name="uni10E9.ss01" horiz-adv-x="290" 
d="M9 612q0 43 32 75.5t76 32.5t76.5 -32.5t32.5 -75.5v-56q0 -42 -28.5 -72t-70.5 -30q-25 0 -44 15h-2v-83h2q9 8 24 13.5t30 5.5q41 0 68.5 -28.5t27.5 -69.5v-307h-74v297q0 15 -11 26t-27 11t-26.5 -11t-10.5 -26v-297h-75v612zM91.5 528q10.5 -11 25.5 -11t26 11
t11 26v59q0 15 -11 25.5t-26 10.5t-25.5 -10.5t-10.5 -25.5v-59q0 -15 10.5 -26z" />
    <glyph glyph-name="uni10EA.ss01" horiz-adv-x="361" 
d="M9 400h74v-575q0 -31 21.5 -52.5t52.5 -21.5t52.5 21.5t21.5 51.5v227q0 20 -13.5 33.5t-33.5 13.5h-48v73h36q23 0 38.5 15.5t15.5 37.5q0 18 -18 44l-36 51q-11 15 -17.5 29t-6.5 33v19h69v-11q0 -8 4.5 -17t9.5 -16t8 -12l34 -47q15 -21 21 -37t6 -37q0 -33 -14 -55
t-30 -32v-2q18 -7 33.5 -26.5t15.5 -49.5v-227q0 -41 -19.5 -75.5t-53.5 -55t-75 -20.5t-75 20.5t-53.5 55t-19.5 75.5v569z" />
    <glyph glyph-name="uni10EB.ss01" horiz-adv-x="290" 
d="M41.5 23.5q-32.5 33.5 -32.5 81.5v204q0 42 28.5 71.5t70.5 29.5q30 0 49 -17h2v317h74v-605q0 -48 -32 -81.5t-80 -33.5q-47 0 -79.5 33.5zM148 72q11 11 11 27v203q0 15 -11 26t-27 11t-26.5 -11t-10.5 -26v-203q0 -16 10.5 -27t26.5 -11t27 11z" />
    <glyph glyph-name="uni10EC.ss01" horiz-adv-x="380" 
d="M110 -152q-19 108 -30 183l-47 335q-7 49 -16 128.5t-9 107.5q0 55 23 86.5t74 31.5q26 0 47.5 -12.5t30.5 -31.5h2q9 19 30.5 31.5t47.5 12.5q41 0 69 -29.5t28 -74.5q0 -25 -7 -81t-15 -76h-70q6 20 11 70.5t5 73.5t-9 34.5t-24 11.5q-14 0 -24 -9.5t-10 -23.5v-88h-66
v88q0 14 -10 23.5t-24 9.5q-15 0 -24 -11t-9 -32q0 -29 9 -124l15 -138h163q24 0 36 -7t12 -28q0 -11 -6 -40.5t-7 -37.5l-33 -193q-1 -7 -10 -63q-38 -233 -53 -285h-71q-10 50 -29 158zM176 -232q1 19 5 42t5 32l4 25l46 406h-118l42 -399l4 -26q9 -54 10 -80h2z" />
    <glyph glyph-name="uni10ED.ss01" horiz-adv-x="349" 
d="M9 20h75v-232q0 -15 10.5 -26t26.5 -11t27 11t11 26v379h-2q-6 -4 -17.5 -8t-23.5 -4q-41 0 -70.5 28.5t-29.5 71.5q0 45 30.5 75t76.5 30q9 0 19.5 -4t17.5 -9h2v363h71v-422h2q23 23 54 69h2v-93q-30 -38 -58 -61v-408q0 -48 -32 -81.5t-80 -33.5q-47 0 -79.5 33.5
t-32.5 81.5v225zM97.5 231q10.5 -11 26.5 -11q13 0 22.5 6.5t14.5 15.5v17q0 15 -10.5 25.5t-26.5 10.5t-26.5 -10.5t-10.5 -26.5t10.5 -27z" />
    <glyph glyph-name="uni10EE.ss01" horiz-adv-x="285" 
d="M216 366q17 -26 17 -58v-202q0 -48 -32 -82t-80 -34q-47 0 -79.5 34t-32.5 82v604h75v-317h2q4 22 14 41l38 67l66 -35l-34 -63q29 -11 46 -37zM159 302q0 15 -11 26t-27 11t-26.5 -11t-10.5 -26v-203q0 -16 10.5 -27t26.5 -11t27 11t11 27v203z" />
    <glyph glyph-name="uni10EF.ss01" horiz-adv-x="460" 
d="M2 -249h27q28 0 48 21t20 49t-18 46.5t-46 23.5v61l162 169l-22 181q-2 17 -12.5 27t-24.5 10q-16 0 -25.5 -10.5t-9.5 -26.5q0 -25 10 -57h-72q-12 23 -12 58q0 47 30.5 77t79.5 30q45 0 74.5 -31t34.5 -80l15 -121l66 70q14 14 20.5 24.5t6.5 22.5q0 18 -12.5 31
t-30.5 13h-13v69q20 2 23 2q46 0 77.5 -32t31.5 -79q0 -44 -39 -85l-120 -124l38 -301q2 -18 12 -28t24 -10q15 0 24.5 9.5t10.5 24.5q0 9 -1 13l-5 50h72q9 -45 9 -64q0 -42 -30.5 -73t-75.5 -31q-44 0 -75 28.5t-36 67.5l-33 255l-98 -101v-3q30 -20 48 -48.5t18 -65.5
q0 -36 -17.5 -66.5t-48 -48.5t-66.5 -18q-9 0 -20.5 1.5t-18.5 4.5v65z" />
    <glyph glyph-name="uni10F0.ss01" horiz-adv-x="290" 
d="M9 159h75v-60q0 -16 10.5 -27t26.5 -11t27 11t11 27v121q0 17 -10.5 28t-28.5 11h-37v72h36q17 0 28 11.5t11 27.5q0 17 -11 28t-28 11h-36v72h15q23 0 39.5 16.5t16.5 39.5q0 15 -7 26.5t-20 22.5l-46 41q-14 12 -22.5 30.5t-8.5 40.5v12h68v-6q0 -21 32 -49l30 -25
q26 -22 35.5 -42t9.5 -47q0 -29 -11.5 -51.5t-29.5 -35.5v-2q19 -9 32 -30.5t13 -49.5q0 -49 -43 -75v-2q17 -6 32 -25.5t15 -49.5v-117q0 -47 -32 -80t-78 -33q-47 0 -80.5 33t-33.5 80v56z" />
    <glyph glyph-name="brevecombcy" horiz-adv-x="0" 
 />
    </font>
</defs>
</svg>
